<?xml version="1.0" encoding="utf-8" ?>
<svg xmlns="http://www.w3.org/2000/svg" xmlns:xlink="http://www.w3.org/1999/xlink" width="1024" height="1024">
	<path fill="white" d="M0 0L1024 0L1024 1024L0 1024L0 0Z"/>
	<path d="M646.686 630.187C644.158 609.802 644.349 590.392 656.44 572.839C665.577 559.574 679.423 551.286 695.246 548.527C710.738 545.825 727.138 549 741.069 556.059C745.765 558.439 750.395 561.828 755.407 563.446C759.291 564.7 764.443 564.34 768.53 564.731C779.974 565.825 792.297 571.645 801.577 578.258C819.335 590.913 828.217 608.342 831.816 629.527L903.563 629.562C915.924 629.543 929.265 628.545 941.506 630.166C962.252 632.912 979.534 644.081 992.139 660.553C1004.51 679.753 1009.61 701.541 1004.67 724.102C1002 736.292 996.63 748.3 992.218 759.967L972.571 811.79L923.523 940.06Q952.774 939.838 982.026 939.911C990.364 939.906 1000.54 939.133 1008.67 939.852C1010.3 939.996 1012.41 940.417 1013.6 941.647C1014.99 943.076 1015.49 945.028 1015.42 946.989C1015.37 948.375 1014.98 949.853 1013.97 950.85C1012.29 952.49 1008.43 952.464 1006.16 952.553C996.172 952.946 986.059 952.65 976.056 952.656L912.369 952.534L728.553 952.737L271.692 952.912L130.663 952.927L89.4217 952.878C82.1819 952.881 74.424 953.42 67.2385 952.582C65.0288 952.325 62.4731 951.678 61.0701 949.757C60.2877 948.685 59.8989 947.56 60.1188 946.222C60.4731 944.066 62.1233 942.309 63.9667 941.271C65.5328 940.389 67.2946 939.949 69.0747 939.782C75.1545 939.21 81.911 939.908 88.074 939.912C99.161 939.918 204.623 940.835 206.285 939.432C206.322 938.092 206.611 937.633 205.708 936.551L205.084 936.339C201.692 935.154 199.223 933.658 197.606 930.33C195.78 926.574 195.098 921.552 194.146 917.453C191.151 907.423 188.913 896.991 186.519 886.798C182.561 869.948 178.654 852.98 174.407 836.207C168.338 812.233 162.75 788.165 156.982 764.118L151.568 741.193C150.173 735.482 148.498 729.739 147.616 723.929C150.822 721.972 159.376 722.961 163.254 722.984C164.476 719.833 165.869 718.119 168.49 715.977C177.482 713.874 191.245 715.075 200.652 715.093L251.714 715.099L472.599 715.163C472.426 713.396 472.254 711.619 472.234 709.843C472.021 689.967 481.838 668.508 495.758 654.586C505.586 644.756 517.584 637.088 531.036 633.322C549.363 628.19 571.031 630.1 590.062 630.127L646.686 630.187Z"/>
	<path fill="white" d="M633.787 633.861L647.008 634.034C647.896 638.515 650.917 649.903 650.31 653.749C646.493 653.291 642.83 653.654 639.049 654.205C638.208 653.612 637.353 653.005 636.65 652.248C632.329 647.598 633.501 639.644 633.787 633.861Z"/>
	<path fill="white" d="M641.964 657.142C645.328 656.88 648.844 657.239 652.216 657.398C649.176 665.36 646.634 673.092 644.963 681.467C644.486 683.854 644.279 690.474 642.86 692.182L641.86 692.056C637.157 689.828 633.779 687.164 631.72 682.21C629.725 677.41 629.732 671.634 631.766 666.848C633.797 662.065 637.235 659.07 641.964 657.142Z"/>
	<path fill="#FED4CA" d="M537.3 873.334C542.366 877.238 559.935 900.138 562.873 906.57C561.832 911.593 560.415 915.354 557.784 919.761C555.748 922.704 553.755 923.477 550.524 924.678C548.875 916.647 546.276 908.805 544.06 900.918Q540.349 887.207 537.3 873.334Z"/>
	<path fill="white" d="M552.05 927.26C560.093 926.997 628.027 926.334 630.397 927.685C630.931 927.989 631.036 928.584 631.198 929.135C632.023 931.94 632.265 938.027 630.938 940.63C629.793 941.19 628.853 941.655 627.569 941.798C618.695 942.785 608.834 941.935 599.86 941.93C585.712 941.921 571.201 942.589 557.097 941.621C556.971 934.994 556.653 932.127 552.05 927.26Z"/>
	<path fill="white" d="M831.527 633.002L849.205 633.006C848.521 645.665 846.383 658.405 844.727 670.971L837.812 723.49L806.959 723.403L797.25 722.959C798.871 718.168 799.951 713.187 801.839 708.488C803.517 708.682 805.196 708.859 806.885 708.926C813.45 709.185 819.997 707.674 824.872 703.007C829.188 698.875 831.396 692.888 831.479 686.977C831.57 680.501 828.809 674.647 824.312 670.12C830.088 658.164 831.615 646.181 831.527 633.002Z"/>
	<path fill="#FED4CA" d="M569.03 730.032L646.322 729.836C653.438 751.003 663.325 762.235 680.955 775.319C679.325 784.786 677.191 794.246 674.87 803.568C674.39 805.77 673.594 807.872 672.852 809.997C657.408 810.723 641.693 810.219 626.22 810.062C617.65 801.229 610.861 789.907 603.719 779.873C592.003 763.411 579.845 747.101 569.03 730.032Z"/>
	<path fill="#FED4CA" d="M795.748 726.346C804.649 727.004 813.788 726.779 822.717 726.818L868.884 726.861C877.924 726.867 887.622 726.198 896.569 727.442C894.224 734.676 890.965 741.773 888.176 748.86L869.6 795.481C866.87 801.643 864.173 807.831 861.945 814.194L793.069 814.245L789.752 765.582C789.185 758.2 789.014 750.224 787.576 742.99C790.736 737.635 793.273 732.036 795.748 726.346Z"/>
	<path fill="#F6AFA4" d="M702.361 551.208C716.707 550.427 730.447 553.806 743.152 560.448C746.948 562.433 750.407 565.585 754.527 566.801C757.494 567.676 761.128 567.402 764.215 567.579C769.923 567.905 775.611 568.842 781.003 570.792C798.91 577.266 814.192 590.429 822.115 607.835C831.142 627.665 829.565 648.525 822.164 668.58C816.106 665.335 810.598 664.651 803.845 664.403C802.517 660.926 801.17 657.46 799.541 654.11C791.461 637.489 777.642 625.958 760.316 619.967C745.478 615.202 733.47 619.564 719.548 617.48C703.159 615.026 708.078 595.276 695.336 588.646C692.774 587.312 689.15 587.012 686.407 587.96C676.736 591.301 659.401 639.55 654.584 650.464C651.25 641.715 649.804 632.198 649.007 622.906C647.394 604.082 650.197 584.977 662.797 570.16C673.054 558.099 686.854 552.539 702.361 551.208Z"/>
	<path fill="white" d="M688.588 590.545C689.955 590.47 691.44 590.455 692.74 590.948C699.569 593.542 702.167 603.807 704.773 609.877C706.219 613.247 708.079 616.693 711.328 618.634C720.124 623.89 733.833 620.435 743.799 620.733C750.629 620.938 757.284 622.092 763.637 624.661Q764.916 625.193 766.171 625.78Q767.426 626.366 768.654 627.006Q769.883 627.647 771.083 628.339Q772.282 629.032 773.451 629.776Q774.62 630.52 775.755 631.313Q776.891 632.107 777.991 632.949Q779.091 633.791 780.154 634.679Q781.217 635.568 782.24 636.501Q783.263 637.435 784.246 638.412Q785.228 639.389 786.167 640.407Q787.106 641.425 788 642.483Q788.895 643.541 789.742 644.637Q790.59 645.733 791.39 646.864Q792.19 647.995 792.94 649.159Q793.69 650.324 794.389 651.52Q795.088 652.716 795.735 653.941C797.996 658.279 799.579 662.938 801.495 667.435C809.586 668.538 818.272 668.118 823.983 675.079C827.304 679.126 828.535 684.382 827.818 689.523C827.134 694.434 824.641 698.877 820.656 701.86C815.128 705.999 809.116 705.797 802.677 704.758C803.714 700.365 806.886 691.096 805.161 687.007L804.497 686.954C800.973 691.612 797.703 712.412 794.975 719.514C792.875 724.984 790.492 730.496 787.625 735.609C785.321 739.717 781.8 744.316 780.249 748.702C779.92 749.632 780.112 749.576 780.501 750.415L781.486 750.774C783.004 750.145 783.932 748.679 784.949 747.443C787.096 770.115 789.069 793.235 789.821 815.992C781.3 824.648 770.371 831.974 760.763 839.42L715.001 875.356L707.352 881.756C697.975 871.578 689.885 859.894 681.171 849.137C671.716 837.466 660.974 826.144 652.724 813.634C660.547 813.459 668.396 813.797 676.227 813.744C678.509 801.454 681.385 789.106 684.27 776.937C696.62 782.496 711.049 786.061 724.694 784.246C729.748 783.574 739.301 782.6 742.485 778.367L742.233 777.577C739.407 776.541 726.583 780.605 721.978 780.946C713.067 781.606 703.454 780.461 695.006 777.536C677.012 771.308 662.932 758.496 654.662 741.399C642.526 716.31 644.768 688.161 653.858 662.493Q663.623 634.702 676.498 608.209C678.866 603.278 681.134 597.478 684.642 593.238C685.718 591.938 687.091 591.259 688.588 590.545Z"/>
	<path d="M746.647 655.2C747.67 655.233 748.169 655.444 749.054 655.948C749.763 656.927 750.206 657.687 750.273 658.928C750.441 662.047 749.022 664.976 747.007 667.244C746.26 667.027 745.526 666.714 744.797 666.443C744.128 665.761 743.651 665.268 743.418 664.3C742.649 661.104 744.921 657.669 746.647 655.2Z"/>
	<path d="M689.443 645.432C690.203 645.701 690.875 646.054 691.592 646.42C692.283 647.409 692.762 648.175 692.863 649.432C693.11 652.505 691.423 655.272 689.491 657.481C688.268 657.21 687.722 656.959 686.79 656.121C686.116 654.744 685.71 653.584 685.881 652.022C686.184 649.25 687.265 647.13 689.443 645.432Z"/>
	<path d="M716.385 654.202C717.828 654.607 718.287 654.545 719.222 655.762C718.698 663.817 713.694 685.103 711.268 692.938C711.147 692.906 711.025 692.882 710.907 692.842C709.682 692.437 709.092 692.306 708.474 691.148C708.948 685.665 710.66 680.15 711.802 674.769C713.239 668 714.219 660.758 716.385 654.202Z"/>
	<path d="M745.375 706.16C746.445 706.459 746.565 706.513 747.304 707.337C747.338 708.012 747.371 708.06 747.233 708.824C746.491 712.94 741.355 717.382 737.955 719.51C730.012 724.483 721.421 724.261 712.614 722.334L711.782 721.525C711.474 720.209 711.364 720.17 711.966 718.982C713.382 718.463 722.565 721.055 727.824 720.023C736.108 718.397 740.863 712.745 745.375 706.16Z"/>
	<path fill="white" d="M488.556 725.764L489.168 726.069C490.679 729.661 491.269 733.836 492.229 737.621Q495.545 750.186 498.533 762.833C502.87 781.105 507.683 799.266 512.093 817.525L530.519 892.656C533.93 906.132 538.131 919.571 540.905 933.182C460.531 932.169 380.064 932.968 299.68 932.893L240.859 932.878C228.753 932.913 216.551 933.277 204.456 932.832C204.34 932.763 204.223 932.697 204.109 932.625C202.665 931.712 200.896 930.646 200.244 928.999C197.629 922.401 196.5 914.458 194.865 907.52Q190.857 891.056 186.666 874.638L169.725 804.067C163.443 778.109 156.851 752.119 151.08 726.052L488.556 725.764Z"/>
	<path fill="#78A1E3" d="M340.017 814.133C346.438 813.598 353.58 816.025 358.85 819.613C365.644 824.238 370.984 831.796 372.309 839.969C373.15 845.149 372.291 850.522 369.015 854.732C365.484 859.27 360.629 861.118 355.14 861.928C348.441 862.185 342.578 860.293 337.107 856.533C330.25 851.82 324.411 844.675 322.985 836.301C322.112 831.169 323.01 825.777 326.198 821.574C329.606 817.083 334.603 814.978 340.017 814.133Z"/>
	<path fill="#D7E4F3" d="M852.627 633.015L908.262 632.867C918.58 632.826 929.451 632.132 939.702 633.23Q944.198 633.695 948.591 634.757Q952.984 635.819 957.196 637.46Q958.86 638.112 960.49 638.845Q962.12 639.578 963.712 640.391Q965.304 641.204 966.854 642.094Q968.404 642.985 969.907 643.951Q971.411 644.917 972.865 645.956Q974.319 646.995 975.721 648.105Q977.122 649.214 978.466 650.392Q979.811 651.57 981.095 652.812Q982.38 654.055 983.601 655.36Q984.823 656.664 985.979 658.028Q987.134 659.391 988.221 660.81Q989.308 662.229 990.323 663.7Q991.339 665.171 992.28 666.69Q993.222 668.21 994.087 669.774Q994.952 671.338 995.739 672.942Q996.526 674.547 997.232 676.189C1002.7 688.701 1005 703.522 1002.92 717.063C1000.91 730.138 995.623 742.311 990.992 754.618L976.587 792.983L920.077 939.837C889.933 939.123 859.679 939.622 829.524 939.622L634.991 939.736C635.061 936.357 636.295 927.226 633.395 924.985C629.977 922.344 569.26 923.697 559.948 923.58C563.247 917.329 568.251 905.493 569.584 898.752C569.886 897.224 569.884 895.71 569.015 894.38C566.17 895.914 566.111 899.299 564.817 902.078L564.609 902.517C558.794 892.838 550.962 883.986 543.881 875.19C541.134 871.776 537.79 868.219 535.646 864.397C532.278 858.393 529.209 840.624 527.343 832.927L513.549 776.531C511.265 767.135 500.696 721.166 496.791 717.359C492.769 713.439 480.701 714.924 475.359 714.996C475.43 702.31 477.212 691.37 482.603 679.807Q484.076 676.557 485.834 673.453Q487.592 670.348 489.621 667.413Q491.649 664.477 493.932 661.735Q496.215 658.993 498.734 656.466C523.406 631.855 548.712 633.574 580.824 633.615L630.62 633.67C629.974 642.443 630.001 649.174 635.689 656.402C633.414 658.287 631.342 660.242 629.784 662.782Q629.483 663.276 629.208 663.785Q628.932 664.293 628.683 664.815Q628.434 665.337 628.211 665.871Q627.989 666.405 627.793 666.949Q627.598 667.494 627.431 668.048Q627.264 668.601 627.125 669.163Q626.986 669.724 626.876 670.292Q626.766 670.86 626.684 671.433Q626.603 672.005 626.551 672.581Q626.499 673.157 626.476 673.735Q626.453 674.313 626.46 674.892Q626.466 675.47 626.502 676.047Q626.538 676.625 626.603 677.199Q626.669 677.774 626.763 678.345Q626.857 678.915 626.98 679.481Q627.103 680.046 627.255 680.604C629.566 688.956 636.012 693.171 643.128 697.113C642.016 706.992 643.373 716.911 645.579 726.549L566.594 726.507C564.401 722.643 556.141 709.995 553.267 707.35C552.939 707.048 551.908 707.212 551.482 707.218C551.418 707.406 551.307 707.585 551.29 707.783C551.155 709.343 551.921 711.241 552.702 712.544C555.394 717.039 558.797 721.304 561.757 725.646L585.719 760.191C597.835 777.498 610.416 797.52 624.034 813.356C632.02 813.714 640.135 813.448 648.136 813.477C653.366 821.642 660.212 829.111 666.363 836.602L689.859 865.714C694.4 871.248 703.945 880.842 706.295 887.098C714.43 879.403 723.929 872.653 732.667 865.624C747.579 853.628 762.817 842.097 777.968 830.409C783.353 826.255 788.517 821.828 793.946 817.732C817.199 816.67 840.893 817.195 864.184 817.408C867.891 806.915 872.549 796.661 876.734 786.345C881.849 773.736 886.602 760.99 891.691 748.378C894.953 740.294 898.65 732.318 901.473 724.07Q871.263 723.461 841.046 723.511C843.359 702.106 846.828 680.702 849.589 659.337C850.72 650.59 852.037 641.818 852.627 633.015Z"/>
	<path d="M704.649 892.293C706.002 892.275 707.12 892.424 708.175 893.373C709.45 894.52 709.878 896.052 709.756 897.706C709.606 899.731 708.883 900.52 707.366 901.789C705.716 901.657 704.017 901.424 702.713 900.293C701.735 899.445 701.288 898.362 701.409 897.072C701.62 894.83 703.069 893.671 704.649 892.293Z"/>
	<path d="M699.898 923.881C701.703 924.107 703.39 924.336 704.663 925.813C705.575 926.871 705.832 928.081 705.653 929.437C705.377 931.53 703.775 932.771 702.131 933.829C700.071 933.593 698.486 933.404 697.237 931.529Q697.103 931.332 696.991 931.122Q696.878 930.913 696.787 930.692Q696.697 930.472 696.629 930.244Q696.562 930.016 696.518 929.782Q696.475 929.548 696.456 929.31Q696.437 929.073 696.442 928.835Q696.447 928.597 696.477 928.361Q696.507 928.125 696.561 927.893C697.039 925.85 698.229 924.925 699.898 923.881Z"/>
	<path fill="#FED4CA" d="M248.737 139.938C266.254 115.355 297.509 94.8898 325.256 83.9078Q335.561 79.9379 346.216 77.0359Q356.87 74.1339 367.765 72.3297C427.255 62.3887 483.599 73.69 532.93 109.109C545.404 118.066 557.526 129.935 566.982 142.039C573.332 150.166 579.454 158.798 585.032 167.48C592.382 178.919 622.558 232.467 630.355 235.454L794.278 235.324L837.227 235.357C844.924 235.366 853.367 234.708 860.95 235.94C868.367 237.146 875.595 240.728 880.899 246.073C891.433 256.687 891.104 269.698 891.082 283.603L891.047 304.986C898.655 305.564 906.101 306.11 913.591 307.684C941.744 313.598 971.174 329.449 990.046 351.504C1010.81 375.771 1024.99 407.362 1022.32 439.816C1020.46 462.414 1012.29 482.819 997.528 500.034C982.217 517.892 966.935 526.636 963.778 552.669C961.856 568.527 966.478 582.982 974.589 596.512C977.845 601.945 981.585 607.122 984.668 612.654C992.593 626.868 996.642 644.604 992.139 660.553C979.534 644.081 962.252 632.912 941.506 630.166C929.265 628.545 915.924 629.543 903.563 629.562L831.816 629.527C828.217 608.342 819.335 590.913 801.577 578.258C792.297 571.645 779.974 565.825 768.53 564.731C764.443 564.34 759.291 564.7 755.407 563.446C750.395 561.828 745.765 558.439 741.069 556.059C727.138 549 710.738 545.825 695.246 548.527C679.423 551.286 665.577 559.574 656.44 572.839C644.349 590.392 644.158 609.802 646.686 630.187L590.062 630.127C571.031 630.1 549.363 628.19 531.036 633.322C517.584 637.088 505.586 644.756 495.758 654.586C481.838 668.508 472.021 689.967 472.234 709.843C472.254 711.619 472.426 713.396 472.599 715.163L251.714 715.099L200.652 715.093C191.245 715.075 177.482 713.874 168.49 715.977C165.869 718.119 164.476 719.833 163.254 722.984C159.376 722.961 150.822 721.972 147.616 723.929C148.498 729.739 150.173 735.482 151.568 741.193L156.982 764.118C162.75 788.165 168.338 812.233 174.407 836.207C178.654 852.98 182.561 869.948 186.519 886.798C188.913 896.991 191.151 907.423 194.146 917.453C148.587 918.759 112.748 904.374 77.1044 876.767C69.0918 870.561 62.0024 863.368 55.1939 855.89C28.0207 826.044 9.78944 789.304 4.75102 749.076C-1.20059 701.557 18.0413 657.13 46.6347 620.316C71.4978 588.305 79.9201 547.816 59.8032 510.879C53.4084 499.137 44.7307 488.95 36.9999 478.112C23.8774 459.716 13.3722 435.628 10.62 413.114C5.02924 367.381 21.1374 322.231 49.0793 286.406C67.8754 262.306 110.819 230.591 141.564 226.827C141.767 215.037 141.534 203.213 141.496 191.42C141.47 183.155 140.661 174.14 142.76 166.094Q143.052 164.973 143.417 163.873Q143.781 162.773 144.217 161.7Q144.653 160.626 145.159 159.584Q145.665 158.541 146.237 157.534Q146.81 156.527 147.448 155.559Q148.086 154.592 148.786 153.668Q149.485 152.745 150.244 151.869Q151.003 150.994 151.818 150.17C161.473 140.3 172.352 140.048 185.315 140.136Q194.845 140.246 204.374 140.125C219.088 139.281 233.991 140.235 248.737 139.938Z"/>
	<path fill="#78A1E3" d="M204.374 140.125C226.949 140.995 249.772 140.359 272.374 140.308L381.4 140.209L421.222 140.111C430.346 140.092 440.051 139.441 449.051 141.009C456.337 142.278 462.441 145.654 467.446 151.123C470.576 154.543 472.586 158.336 474.319 162.603C475.818 166.297 475.713 170.996 475.812 174.937C476.118 187.129 475.584 199.412 475.526 211.617L475.515 282.06L475.592 333.436C475.654 343.148 476.181 353.056 475.677 362.744C475.49 366.352 474.612 369.717 473.122 373.004C469.54 380.905 462.384 387.171 454.293 390.158C450.606 391.519 446.997 391.913 443.096 392.074C428.518 392.675 413.769 392.123 399.171 392.09L319.524 392.137L218.327 392.384C203.048 392.376 187.551 393.005 172.301 392.399C167.869 392.223 163.581 391.635 159.496 389.791C151.488 386.176 146.178 379.328 143.21 371.223C142.153 368.339 141.621 365.413 141.407 362.355C140.339 347.058 141.371 331.181 141.423 315.804L141.564 226.827C141.767 215.037 141.534 203.213 141.496 191.42C141.47 183.155 140.661 174.14 142.76 166.094Q143.052 164.973 143.417 163.873Q143.781 162.773 144.217 161.7Q144.653 160.626 145.159 159.584Q145.665 158.541 146.237 157.534Q146.81 156.527 147.448 155.559Q148.086 154.592 148.786 153.668Q149.485 152.745 150.244 151.869Q151.003 150.994 151.818 150.17C161.473 140.3 172.352 140.048 185.315 140.136Q194.845 140.246 204.374 140.125Z"/>
	<path fill="#D7E4F3" d="M167.579 388C160.064 385.854 153.818 382.535 149.776 375.456C147.641 371.718 146.561 367.552 146.236 363.281C145.535 354.063 146.005 344.513 146.018 335.266L145.935 287.704Q145.698 248.495 145.893 209.289C145.911 198.098 144.509 177.19 147.184 167.272C149.367 159.176 155.202 151.643 162.599 147.69C166.778 145.456 170.759 144.768 175.416 144.535C188.454 143.882 201.704 144.414 214.775 144.386L294 144.277L406.631 144.26C415.944 144.301 443.767 143.128 451.481 145.525C458.816 147.804 464.706 152.465 468.356 159.282C470.468 163.227 471.576 167.796 471.897 172.241C472.361 178.661 472.07 185.258 472.056 191.695L472.004 227.244L472.047 312.115C472.039 323.798 473.396 358.712 470.458 367.913C468.164 375.094 463.474 381.357 456.689 384.833C448.094 389.236 426.947 389.017 417.05 388.162C399.107 387.58 380.971 387.93 363.017 388.1C359.519 388.262 356.02 388.186 352.521 388.145C344.75 387.648 336.71 387.986 328.915 387.996C318.793 388.008 308.597 387.782 298.489 388.242C295.068 388.687 291.491 388.461 288.055 388.339C281.302 387.741 274.263 388.071 267.481 388.073Q250.702 387.995 233.925 388.274C230.447 388.444 226.988 388.366 223.508 388.288C204.913 387.631 186.187 388.031 167.579 388Z"/>
	<path fill="#F4793D" d="M167.471 286.594C185.917 286.687 204.929 285.857 223.292 287.238L223.508 388.288C204.913 387.631 186.187 388.031 167.579 388C166.018 379.736 167.2 366.694 167.22 357.797L167.471 286.594Z"/>
	<path d="M211.783 302.738C213.264 302.666 214.225 302.625 215.609 303.294L215.729 303.928C213.042 305.932 185.491 304.926 180.25 304.922C178.492 304.982 176.933 305.069 175.226 304.599L174.83 303.753C175.05 303.525 175.212 303.219 175.491 303.07C176.938 302.296 206.72 302.979 211.783 302.738Z"/>
	<path fill="#F4793D" d="M234.551 248.009L287.709 247.975L287.994 331.814C288.008 350.641 287.731 369.516 288.055 388.339C281.302 387.741 274.263 388.071 267.481 388.073Q250.702 387.995 233.925 388.274L234.551 248.009Z"/>
	<path d="M243.548 347.744C248.368 347.727 278.674 346.671 281.079 348.682L280.857 349.286L279.125 349.547C274.215 349.554 242.833 350.204 240.832 348.837C241.87 347.915 242.152 347.952 243.548 347.744Z"/>
	<path d="M241.562 308.227C247.557 307.976 276.692 307.264 280.512 308.669L281.022 309.81C275.374 310.307 245.809 310.95 241.905 309.503L241.562 308.227Z"/>
	<path d="M240.475 322.19C246.28 321.381 275.965 321.153 281.184 322.291L281.857 323.421C276.032 324.009 245.155 324.639 240.851 323.172L240.475 322.19Z"/>
	<path d="M240.484 281.179C246.583 280.771 275.345 280.257 280.244 281.517L280.874 282.834C274.596 283.231 245.331 284.08 240.901 282.508L240.484 281.179Z"/>
	<path fill="#F4793D" d="M362.973 207.653L417.467 207.582Q417.076 268.493 417.44 329.404C417.404 348.99 416.75 368.573 417.05 388.162C399.107 387.58 380.971 387.93 363.017 388.1L362.973 207.653Z"/>
	<path d="M368.514 241.225C374.089 240.676 404.866 240.498 409.731 241.2C411.117 241.4 411.106 241.597 411.88 242.687C407.011 243.568 373.96 243.654 369.224 242.574L368.514 241.225Z"/>
	<path d="M369.376 226.198C375.281 225.897 406.143 225.392 410.149 226.548C411.16 226.84 410.996 226.97 411.483 227.82C406.318 228.564 373.386 228.921 369.635 227.55L369.376 226.198Z"/>
	<path d="M369.432 282.148C375.398 281.679 406.794 281.037 410.875 282.441L411.389 283.815C405.866 284.142 373.134 284.796 369.807 283.402L369.432 282.148Z"/>
	<path d="M368.689 319.194C374.655 318.784 408.145 318.225 411.622 319.513L412.031 320.845C406.963 321.282 372.571 321.864 369.534 320.635C368.835 320.352 368.904 319.852 368.689 319.194Z"/>
	<path d="M368.563 346.231C376.919 345.466 385.618 345.936 394.013 345.936C398.992 345.936 404.783 345.384 409.681 346.089C411.022 346.282 411.03 346.442 411.783 347.489C408.119 348.56 373.58 348.621 369.265 347.536L368.563 346.231Z"/>
	<path fill="#F4793D" d="M298.159 168.007C316.112 167.987 334.079 168.125 352.029 167.887L352.521 388.145C344.75 387.648 336.71 387.986 328.915 387.996C318.793 388.008 308.597 387.782 298.489 388.242L298.144 237.493C298.089 214.338 298.429 191.157 298.159 168.007Z"/>
	<path d="M306.417 228.211C311.722 228.201 342.494 227.524 344.916 228.825L344.877 229.95C339.505 230.013 308.483 230.946 306.254 229.324L306.417 228.211Z"/>
	<path d="M306.405 269.218C311.189 269.04 343.299 268.573 345.586 269.766L345.718 270.943C340.318 271.042 308.052 271.764 306.27 270.451L306.405 269.218Z"/>
	<path d="M306.383 186.732C311.479 185.972 341.803 185.814 345.701 186.75L346.221 187.823C344.695 188.406 343.159 188.392 341.545 188.416C337.302 188.48 309.229 188.954 307.543 187.855C307.092 187.561 306.77 187.106 306.383 186.732Z"/>
	<path d="M305.413 282.703C310.523 282.015 341.567 281.734 345.853 282.84L346.385 284.102C339.726 284.759 332.805 284.402 326.114 284.4C320.385 284.398 314.436 284.71 308.727 284.298C306.968 284.171 306.608 284.011 305.413 282.703Z"/>
	<path fill="#417ABC" d="M122.654 441.1C151.134 440.391 467.24 440.569 469.051 441.658C470.842 442.736 471.639 444.406 471.822 446.373C472.393 452.502 472.058 458.831 472.051 464.991L472.033 496.765L472.134 602.6L472.06 645.192C472.105 653.417 472.894 662.364 471.944 670.522C471.803 671.739 471.504 672.683 470.65 673.595C467.678 676.767 462.864 676.287 458.91 676.372L109.495 676.112L109.765 519.578Q109.892 499.152 109.75 478.727C109.72 471.362 109.328 463.719 109.818 456.383C110.029 453.229 110.942 450.272 112.687 447.62C115.092 443.97 118.48 442.058 122.654 441.1Z"/>
	<path fill="#F6AFA4" d="M403.764 586.989C405.862 586.859 408.543 586.633 410.113 588.379C410.963 589.325 411.372 590.152 411.072 591.447C410.715 592.989 409.518 593.907 408.32 594.792C406.567 594.874 404.787 594.942 403.354 593.745C402.299 592.864 401.743 591.917 401.682 590.515C401.613 588.947 402.791 587.997 403.764 586.989Z"/>
	<path fill="#F6AFA4" d="M234.942 601.603C236.704 601.986 238.248 602.441 239.131 604.21C239.688 605.327 239.612 606.564 239.173 607.705C238.362 609.81 236.898 610.493 234.957 611.297C232.853 610.76 230.979 610.336 229.968 608.144C229.39 606.889 229.551 605.799 230.126 604.588C231.083 602.574 232.979 602.134 234.942 601.603Z"/>
	<path fill="white" d="M430.573 446.895C432.492 447.09 434.396 447.441 435.646 449.08C436.557 450.276 436.803 451.194 436.648 452.686C436.433 454.758 435.007 455.88 433.458 457.014C433.29 457.016 433.121 457.025 432.953 457.019C430.963 456.958 429.078 456.455 427.815 454.804C426.985 453.72 426.815 452.603 426.985 451.279C427.262 449.121 428.878 447.975 430.573 446.895Z"/>
	<path fill="#F6AFA4" d="M344.115 546.456C346.328 546.341 347.947 546.323 349.692 547.865C350.912 548.944 351.605 550.307 351.559 551.972C351.499 554.137 350.325 555.28 348.89 556.686C347.229 556.929 345.534 557.265 343.949 556.513C342.767 555.953 342.119 555.042 341.805 553.799C341.141 551.173 342.712 548.513 344.115 546.456Z"/>
	<path fill="#F6AFA4" d="M173.868 545.48C174.536 545.5 175.188 545.558 175.848 545.668C177.621 545.962 178.842 546.424 179.811 548.072C180.495 549.234 180.554 550.406 180.11 551.668C179.341 553.855 177.749 554.419 175.797 555.274C174.639 555.217 173.274 555.216 172.227 554.658C170.774 553.883 169.635 552.692 169.326 551.022C169.095 549.777 169.441 548.564 170.149 547.533C171.103 546.145 172.346 545.863 173.868 545.48Z"/>
	<path fill="white" d="M450.933 447.032C451.961 446.994 453.048 446.926 454.065 447.111Q454.366 447.169 454.659 447.256Q454.952 447.343 455.235 447.459Q455.519 447.575 455.789 447.719Q456.059 447.862 456.314 448.032Q456.568 448.202 456.804 448.396Q457.041 448.591 457.257 448.808Q457.472 449.025 457.665 449.262Q457.859 449.5 458.027 449.755C458.775 450.907 458.985 452.1 458.689 453.441C458.196 455.674 456.853 456.71 455.006 457.881C454.258 457.913 453.491 457.966 452.742 457.902C451.13 457.763 449.28 456.805 448.384 455.411C447.603 454.197 447.282 452.944 447.533 451.51C447.921 449.289 449.212 448.276 450.933 447.032Z"/>
	<path fill="white" d="M407.5 447.028C408.887 446.935 410.352 446.843 411.702 447.258C413.323 447.756 414.869 449 415.542 450.573C416.076 451.823 415.975 453.067 415.539 454.324C414.807 456.435 412.81 457.532 410.954 458.489C409.81 458.46 408.6 458.426 407.483 458.158C405.775 457.749 404.03 456.48 403.22 454.911C402.61 453.731 402.548 452.429 403.005 451.186C403.813 448.984 405.577 448.099 407.5 447.028Z"/>
	<path fill="white" d="M286.483 590.606C286.855 590.524 287.332 590.605 287.714 590.625C289.144 594.327 288.24 611.207 288.21 616.392L236.033 616.413L235.197 615.913C235.043 615.306 234.915 614.914 234.893 614.262C234.808 611.724 238.336 610.669 240.048 609.038C240.659 607.575 240.534 606.352 240.453 604.81L240.413 604.136C242.283 602.134 280.281 592.222 286.483 590.606Z"/>
	<path fill="white" d="M405.959 546.01L452.143 546.052L431.792 567.427Q421.875 577.629 411.27 587.114L406.044 585.703L405.959 546.01Z"/>
	<path fill="white" d="M235.013 617.789Q261.535 617.984 288.057 617.904L288.021 642.396L235.016 642.396L235.013 617.789Z"/>
	<path fill="white" d="M235.055 520.046L288.147 520.046C288.433 528.205 288.231 536.44 288.295 544.609C270.556 544.231 252.749 544.547 235.003 544.542L235.055 520.046Z"/>
	<path fill="white" d="M289.735 617.908L345.951 617.884L345.927 642.433L289.674 642.441L289.735 617.908Z"/>
	<path fill="white" d="M176.293 617.955L233.563 617.836C233.608 625.917 233.869 634.077 233.463 642.146Q204.806 642.064 176.15 642.271L176.293 617.955Z"/>
	<path fill="white" d="M289.75 520.052L345.964 520.044C345.968 523.877 346.779 542.769 345.326 544.757C326.827 544.334 308.193 544.808 289.678 544.803C289.819 536.557 289.743 528.299 289.75 520.052Z"/>
	<path fill="white" d="M347.428 617.887L404.436 617.916L404.439 642.347L347.385 642.411L347.428 617.887Z"/>
	<path fill="white" d="M347.513 520.058L404.476 519.998L404.502 544.475Q375.939 544.372 347.377 544.638C347.548 536.453 347.473 528.247 347.513 520.058Z"/>
	<path fill="white" d="M176.427 520.057L233.598 520.041L233.644 544.529C214.519 544.544 195.359 544.978 176.24 544.746C176.496 536.532 176.38 528.276 176.427 520.057Z"/>
	<path fill="white" d="M349.184 546.109C367.6 545.718 386.067 545.978 404.489 545.964L404.609 572.205C404.625 576.403 405.019 581.072 404.487 585.224C404.364 586.182 403.19 586.746 402.447 587.331C401.988 587.377 401.766 587.427 401.269 587.318C397.826 586.566 353.028 558.869 351.288 556.286C351.735 554.99 352.309 553.587 352.479 552.223C352.772 549.884 351.085 548.225 349.662 546.635L349.184 546.109Z"/>
	<path fill="white" d="M289.805 546.064C297.088 546.074 340.342 545.227 342.497 546.606C341.632 548.463 340.878 550.071 340.813 552.158L340.711 556.852L341.862 556.74L342.335 557.232L328.345 570.343C325.04 573.546 321.741 577.052 317.874 579.575C311.748 583.573 297.14 586.459 289.722 588.643C289.922 574.455 289.721 560.254 289.805 546.064Z"/>
	<path fill="white" d="M235 643.815C252.653 644.226 270.393 643.875 288.053 643.821L288.039 674.676L235.023 674.921L235 643.815Z"/>
	<path fill="white" d="M289.629 643.861L345.979 643.865L345.944 674.796Q317.762 674.608 289.58 674.836L289.629 643.861Z"/>
	<path fill="white" d="M347.502 643.869C366.472 644.145 385.483 643.883 404.457 643.881L404.438 674.929C385.453 674.682 366.444 674.861 347.457 674.909L347.502 643.869Z"/>
	<path fill="white" d="M176.105 643.922L233.56 643.791L233.557 674.892Q204.818 675.012 176.08 674.775C175.968 664.494 176.084 654.203 176.105 643.922Z"/>
	<path fill="white" d="M180.271 546.176Q206.925 545.938 233.58 545.999L233.613 588.861C233.702 592.587 234.384 597.343 233.619 600.95C232.106 601.372 231.311 601.192 229.931 600.424C225.974 598.224 222.245 594.073 218.853 591.041C213.246 586.03 183.142 557.859 180.057 557.105L179.361 555.746C179.485 555.521 179.612 555.297 179.734 555.07C181.329 552.098 181.462 549.969 180.475 546.795C180.41 546.587 180.339 546.382 180.271 546.176Z"/>
	<path fill="white" d="M176.173 616.454L176.331 575.73C176.352 569.889 175.501 562.171 176.783 556.574C178.165 555.996 178.703 556.56 180.057 557.105C182.332 560.913 187.503 564.464 190.878 567.472C195.635 571.713 228.76 599.82 229.486 602.594C230.018 604.628 228.249 606.85 229.231 609.27C229.881 610.869 230.919 611.162 232.389 611.821L233.038 612.107C233.279 612.61 233.428 612.853 233.541 613.441C233.765 614.604 233.499 615.487 232.785 616.362L230.375 616.386L176.173 616.454Z"/>
	<path fill="white" d="M343.389 558.061L345.692 558.631C346.803 563.958 345.956 570.78 345.944 576.281L345.863 616.343Q318.869 616.194 291.875 616.383C290.678 616.335 291.239 616.487 290.19 615.935C288.755 611.557 289.776 595.426 289.796 589.706C297.932 586.974 307.134 585.707 314.973 582.423C324.16 578.574 334.501 564.937 342.899 558.433C343.061 558.308 343.226 558.185 343.389 558.061Z"/>
	<path fill="white" d="M348.958 556.793C351.133 557.453 396.02 585.268 399.418 588.087C401.242 589.598 400.003 592.424 402.352 594.397C403.074 595.004 403.673 595.563 404.279 596.296C404.68 598.593 405.042 614.584 403.846 616.409L347.259 616.335C347.444 608.744 346.718 560.194 347.812 558.183C348.099 557.656 348.576 557.257 348.958 556.793Z"/>
	<path fill="white" d="M235.021 546.021L288.243 546.044C288.634 560.369 288.225 574.798 288.285 589.14C284.665 589.894 281.066 590.93 277.48 591.842L239.311 602.601C237.958 601.739 236.521 601.018 235.104 600.265L235.021 546.021Z"/>
	<path fill="white" d="M111.087 464.657L470.516 464.601L470.682 598.259L470.618 641.694C470.593 649.43 470.861 657.313 470.447 665.033C470.329 667.239 470.167 671.756 468.693 673.365C460.962 676.462 417.124 675.002 405.983 674.996L405.962 643.889C412.19 643.896 451.513 644.88 453.804 643.013C448.037 641.349 414.596 642.346 405.971 642.396L405.951 617.98C421.676 618.144 438.427 618.787 454.058 617.905L454.472 617.274C452.032 615.739 412.248 616.476 405.95 616.468C406.032 611.419 404.851 601.312 406.239 596.975C406.443 596.336 409.861 595.367 410.821 594.813C412.095 592.831 411.844 590.669 411.991 588.384C416.93 582.233 427.138 573.511 433.012 567.482Q439.508 560.793 445.849 553.956C447.865 551.752 449.782 549.128 452.051 547.198C453.094 546.311 454.218 546.07 455.542 545.843C455.708 545.815 455.875 545.791 456.042 545.765L456.343 545.046C456.057 544.855 455.819 544.553 455.484 544.473C452.393 543.738 447.1 544.473 443.821 544.473L405.951 544.474L406.009 519.991C414.764 519.977 449.206 521.102 454.512 518.878C452.973 517.637 411.707 518.395 405.989 518.424C405.996 512.561 407.213 491.816 405.095 487.416C403.638 490.403 404.526 513.575 404.537 518.461L347.43 518.578C347.466 515.714 348.491 504.671 346.76 502.836C345.831 504.042 346.011 505.425 345.991 506.875L346.016 518.572L289.583 518.695C289.647 513.911 289.587 509.203 289.278 504.423L289.671 503.859L288.892 503.55L289.006 503.104C287.208 507.057 288.059 514.242 288.112 518.626Q261.55 518.91 234.987 518.675C235.056 513.557 235.127 508.561 234.437 503.478L234.111 503.487C233.662 508.549 233.691 513.593 233.694 518.668Q204.895 518.856 176.096 518.599C176.08 513.709 176.828 507.988 175.406 503.283C173.761 505.631 174.815 515.387 174.875 518.555C167.128 518.559 123.641 517.537 120.394 519.416C124.069 520.933 167.36 520.044 174.957 520.04Q174.892 532.182 175.002 544.323C166.257 546.002 144.606 544.846 134.38 544.831C130.516 544.826 126.483 544.53 122.666 545.136L122.297 545.698C125.106 546.865 163.916 546.067 169.822 546.082L168.012 550.564C168.835 552.408 169.901 554.012 171.011 555.69C162.258 565.61 151.597 574.628 141.823 583.569C136.77 588.192 126.841 595.847 123.748 601.517C126.5 600.133 129.628 596.155 131.961 594Q143.611 583.43 155.072 572.656C160.108 567.891 165.089 562.531 170.534 558.264C171.673 557.372 172.669 556.648 174.141 556.481C174.362 556.715 174.663 556.893 174.803 557.182C175.369 558.348 174.807 611.334 174.828 616.438L140.75 616.465C134.721 616.471 128.401 616.055 122.428 616.814L122.147 617.228C126.587 618.946 166.475 617.921 174.92 617.912L174.799 642.35C165.885 642.351 127.459 641.326 121.697 643.087C127.667 645.059 165.456 643.882 174.837 643.875C174.612 654.098 174.754 664.341 174.77 674.567Q142.847 674.447 110.927 674.852C111.682 604.813 111.173 534.702 111.087 464.657Z"/>
	<path fill="#78A1E3" d="M630.355 235.454L794.278 235.324L837.227 235.357C844.924 235.366 853.367 234.708 860.95 235.94C868.367 237.146 875.595 240.728 880.899 246.073C891.433 256.687 891.104 269.698 891.082 283.603L891.047 304.986L890.968 417.524L891.063 447.746C891.088 454.127 891.571 460.946 890.469 467.241C889.257 474.168 885.79 481.385 880.916 486.483C873.754 493.975 865.338 496.847 855.109 497.105C794.024 498.648 732.741 497.32 671.631 497.412L607.593 497.544C596.233 497.568 583.975 498.469 572.714 497.09C566.676 496.351 560.91 494.003 556.506 489.726C547.58 481.057 546.541 471.233 546.449 459.383L546.564 330.549L546.473 290.15C546.453 281.706 545.737 272.573 547.31 264.266C548.577 257.575 552.419 250.835 557.219 246.046C569.458 233.834 585.92 235.468 601.802 235.466L630.355 235.454Z"/>
	<path fill="#D7E4F3" d="M674.605 493.362C651.204 492.667 627.651 493.148 604.235 493.081C593.571 493.05 580.903 494.201 570.462 491.995C566.573 491.173 562.877 488.776 560.044 486.049C552.123 478.427 550.864 469.337 550.75 458.883C550.287 416.175 550.908 373.429 550.795 330.714L550.615 293.09C550.536 284.745 549.813 275.748 551.119 267.507C552.201 260.677 555.083 254.267 560.001 249.334C565.001 244.32 570.741 241.519 577.688 240.376C585.256 239.13 593.292 239.635 600.953 239.641L635.772 239.647L769.515 239.467L773.182 239.511C781.542 239.511 789.909 239.434 798.267 239.539L800.911 239.461Q818.254 239.594 835.597 239.514C844.219 239.508 853.911 238.598 862.299 240.679C868.327 242.174 874.089 245.355 878.417 249.831C883.014 254.584 885.794 260.628 886.758 267.14C887.954 275.219 887.313 283.92 887.249 292.087Q887.043 311.059 887.111 330.03L887.377 419.466C887.378 432.239 887.791 445.093 887.405 457.851C887.087 468.337 884.516 477.764 876.62 485.089C866.577 494.405 855.328 493.598 842.606 493.568C839.732 493.561 836.457 493.434 833.633 493.989C828.049 494.954 802.627 495.196 796.964 494.016C789.446 493.733 776.199 495.267 769.5 493.33C764.924 491.449 742.663 492.484 736.587 492.904C727.237 493.585 717.852 493.054 708.491 493.426L674.605 493.362Z"/>
	<path fill="#F4793D" d="M674.457 420.042L708.474 420.01L708.491 493.426L674.605 493.362L674.457 420.042Z"/>
	<path fill="#F4793D" d="M736.607 357.974L769.307 358.037L769.5 493.33C764.924 491.449 742.663 492.484 736.587 492.904L736.607 357.974Z"/>
	<path fill="#417ABC" d="M797.495 318.478L833.384 318.475L833.557 435.783C833.573 455.147 833.071 474.64 833.633 493.989C828.049 494.954 802.627 495.196 796.964 494.016L797.495 318.478Z"/>
	<path fill="white" d="M773.182 239.511C781.542 239.511 789.909 239.434 798.267 239.539L800.911 239.461C802.825 255.489 797.509 274.632 788.607 287.941C775.396 307.693 743.361 330.532 719.669 335.255Q718.926 336.381 718.103 337.451Q717.28 338.521 716.382 339.529Q715.484 340.536 714.516 341.476Q713.547 342.416 712.514 343.284Q711.48 344.152 710.386 344.943Q709.292 345.733 708.144 346.443Q706.996 347.153 705.8 347.778Q704.604 348.403 703.366 348.94C692.897 353.457 683.328 351.939 673.04 347.832C667.319 359.028 658.983 370.433 652.194 381.139C653.426 387.882 653.597 394.835 651.04 401.307Q650.765 402 650.455 402.678Q650.145 403.357 649.802 404.019Q649.459 404.681 649.083 405.325Q648.708 405.969 648.3 406.593Q647.893 407.218 647.455 407.821Q647.016 408.425 646.549 409.006Q646.081 409.586 645.585 410.143Q645.089 410.7 644.566 411.231Q644.042 411.762 643.493 412.267Q642.944 412.771 642.37 413.248Q641.797 413.724 641.2 414.171Q640.604 414.618 639.985 415.035Q639.367 415.452 638.729 415.838Q638.09 416.223 637.434 416.576Q636.777 416.929 636.103 417.249Q635.43 417.569 634.741 417.855C627.927 420.708 620.379 420.568 613.582 417.763Q612.866 417.467 612.167 417.136Q611.467 416.804 610.784 416.439Q610.101 416.074 609.437 415.675Q608.773 415.276 608.13 414.845Q607.487 414.414 606.866 413.952Q606.244 413.49 605.647 412.997Q605.049 412.505 604.477 411.984Q603.904 411.462 603.358 410.913Q602.812 410.364 602.294 409.789Q601.775 409.214 601.286 408.613Q600.797 408.013 600.338 407.39Q599.879 406.766 599.452 406.12Q599.024 405.475 598.629 404.809Q598.234 404.143 597.872 403.458Q597.51 402.773 597.183 402.072Q596.855 401.37 596.563 400.653C593.794 393.764 593.585 385.556 596.61 378.725C599.816 371.483 606.338 365.426 613.759 362.697C621.968 359.68 629.635 360.527 637.472 364.166C645.77 353.723 651.976 341.954 660.163 331.502C658.054 324.511 656.987 317.281 658.539 310.04C660.274 301.949 665.455 294.872 672.383 290.426Q673.069 289.983 673.776 289.574Q674.484 289.166 675.211 288.793Q675.938 288.42 676.682 288.084Q677.427 287.749 678.187 287.45Q678.948 287.152 679.722 286.892Q680.497 286.632 681.283 286.412Q682.07 286.191 682.866 286.01Q683.663 285.829 684.467 285.687Q685.272 285.546 686.083 285.446Q686.893 285.345 687.708 285.285Q688.523 285.225 689.339 285.205Q690.156 285.186 690.972 285.208Q691.789 285.229 692.604 285.292Q693.418 285.354 694.228 285.457Q695.039 285.56 695.843 285.703Q696.647 285.847 697.443 286.03C707.298 288.248 714.319 294.245 719.57 302.66C730.199 297.097 741.971 291.516 750.659 283.156Q751.754 282.093 752.795 280.977Q753.836 279.861 754.822 278.696Q755.807 277.53 756.734 276.318Q757.661 275.105 758.527 273.849Q759.394 272.592 760.198 271.295Q761.001 269.998 761.74 268.662Q762.48 267.327 763.152 265.957Q763.825 264.587 764.43 263.186Q765.035 261.785 765.57 260.355Q766.105 258.926 766.57 257.472Q767.035 256.019 767.427 254.544Q767.82 253.069 768.14 251.577Q768.46 250.084 768.706 248.578Q768.953 247.072 769.125 245.556Q769.297 244.039 769.395 242.516Q769.492 240.993 769.515 239.467L773.182 239.511Z"/>
	<path fill="#D7E4F3" d="M676.313 324.916C677.082 329.828 673.617 337.649 672.053 342.402L668.616 338.257C667.326 336.566 666.24 334.696 665.105 332.899Q670.463 328.562 676.313 324.916Z"/>
	<path fill="#D7E4F3" d="M661.717 334.799C664.281 337.188 667.043 342.495 669.867 345.613Q660.671 361.867 650.343 377.425C647.652 373.099 644.556 369.755 640.923 366.184Q651.143 350.375 661.717 334.799Z"/>
	<path fill="#D7E4F3" d="M687.531 289.671L687.912 289.811C689.311 291.778 688.26 308.944 688.19 312.619C681.012 319.697 671.049 323.257 663.034 329.314C662.392 327.088 661.823 324.901 661.548 322.596C660.606 314.725 662.331 306.511 667.389 300.261C672.512 293.933 679.512 290.504 687.531 289.671Z"/>
	<path fill="#D7E4F3" d="M689.911 314.846C691.515 315.962 692.85 317.854 694.135 319.335C700.579 326.764 705.109 333.051 715.179 335.561C710.191 340.506 705.022 343.769 698.606 346.616C690.087 348.928 683.092 347.992 675.121 344.291C676.143 341.331 679.873 330.034 679.645 327.565C679.593 327.005 679.514 326.447 679.484 325.886Q679.447 325.02 679.39 324.156C680.759 321.016 686.733 318.114 689.353 315.424L689.911 314.846Z"/>
	<path fill="#D7E4F3" d="M691.955 289.726C694.207 289.966 696.552 290.202 698.752 290.757Q699.387 290.918 700.013 291.11Q700.64 291.301 701.256 291.523Q701.873 291.745 702.477 291.997Q703.082 292.249 703.674 292.531Q704.266 292.812 704.843 293.121Q705.42 293.431 705.981 293.769Q706.543 294.106 707.087 294.471Q707.631 294.835 708.157 295.226Q708.683 295.617 709.189 296.033Q709.695 296.449 710.181 296.889Q710.666 297.329 711.129 297.792Q711.592 298.256 712.032 298.741Q712.472 299.227 712.888 299.733Q713.303 300.239 713.694 300.765Q714.084 301.291 714.448 301.836Q714.813 302.38 715.15 302.942C720.228 311.387 719.569 322.117 717.169 331.318C716.731 331.873 716.306 332.06 715.557 332.084C707.978 332.328 696.366 316.685 691.917 311.399C691.488 304.184 691.785 296.947 691.955 289.726Z"/>
	<path fill="#D7E4F3" d="M749.06 289.513C753.595 292.964 760.601 302.423 765.372 307.238C754.814 314.982 743.622 322.478 731.656 327.855C728.332 329.586 724.642 330.688 721.04 331.669C723.293 322.56 723.886 314.889 721.037 305.869C730.481 300.46 740.06 295.71 749.06 289.513Z"/>
	<path fill="#D7E4F3" d="M773.182 239.511C781.542 239.511 789.909 239.434 798.267 239.539C797.588 243.754 798.115 248.273 797.623 252.555C795.193 273.666 784.64 291.821 768.209 305.067C762.253 299.385 756.716 293.144 751.013 287.199C765.164 273.504 772.139 259.232 773.182 239.511Z"/>
	<path fill="#D7E4F3" d="M623.009 364.673Q624.023 364.616 625.038 364.645Q626.052 364.674 627.061 364.79Q628.07 364.905 629.065 365.107Q630.06 365.308 631.035 365.594Q632.009 365.879 632.956 366.246Q633.902 366.614 634.814 367.061Q635.726 367.508 636.596 368.031Q637.466 368.554 638.289 369.149C643.838 373.224 647.79 379.639 648.744 386.47C649.689 393.242 647.943 400.562 643.748 405.991C638.874 412.3 632.208 414.831 624.622 415.894C619.15 416.233 613.587 414.328 609.204 411.105Q608.681 410.728 608.178 410.326Q607.675 409.924 607.192 409.497Q606.71 409.071 606.249 408.621Q605.788 408.17 605.35 407.698Q604.912 407.226 604.498 406.732Q604.084 406.239 603.695 405.725Q603.306 405.212 602.943 404.68Q602.58 404.148 602.244 403.598Q601.907 403.049 601.599 402.483Q601.29 401.918 601.01 401.338Q600.73 400.758 600.479 400.164Q600.228 399.571 600.007 398.966Q599.785 398.361 599.594 397.746Q599.403 397.131 599.243 396.507Q599.083 395.883 598.954 395.252Q598.825 394.621 598.727 393.984C597.74 387.165 599.459 379.952 603.728 374.503C608.612 368.27 615.401 365.551 623.009 364.673Z"/>
</svg>
