<?xml version="1.0" encoding="utf-8" ?>
<svg xmlns="http://www.w3.org/2000/svg" xmlns:xlink="http://www.w3.org/1999/xlink" width="1024" height="1024">
	<path fill="#FEFEFE" d="M0 0L1024 0L1024 1024L0 1024L0 0Z"/>
	<path d="M351.996 557.282C362.06 546.482 375.407 539.812 390.363 539.389C398.091 539.17 405.331 541.268 411.034 546.714C414.974 550.476 417.858 554.567 423.235 556.424C430.058 558.779 440.083 557.4 447.37 557.365L506.296 557.373C517.909 557.37 540.682 556.124 551.361 558.391C569.612 562.265 581.893 579.435 582.201 597.605C582.315 604.343 581.081 612.181 577.825 618.154C573.107 626.809 564.973 633.819 558.406 641.071C541.745 659.472 524.448 677.306 507.997 695.896L529.752 748.595C532.882 755.989 537.524 763.59 539.494 771.319C553.648 771.277 567.828 771.452 581.98 771.26Q606.985 703.696 633.065 636.54C700.907 636.253 768.881 635.641 836.716 636.533C825.644 669.525 813.523 702.13 801.931 734.941C797.011 748.868 791.663 762.816 787.391 776.952L825.045 776.934C831.787 776.945 838.927 776.521 845.61 777.363C846.213 786.466 846.631 796.906 845.625 805.962L797.798 806.064C788.569 806.069 779.263 805.834 770.046 806.332L769.953 884.225Q769.969 897.549 769.849 910.873C769.82 914.091 770.116 917.384 769.912 920.587C769.826 921.938 769.666 922.984 768.936 924.156L767.992 924.362C767.033 923.659 766.846 923.589 766.648 922.344C766.164 919.292 766.623 915.556 766.639 912.443L766.645 891.643C766.638 863.118 767.075 834.526 766.514 806.011L299.836 805.556L299.924 887.166L299.886 911.586C299.883 914.687 300.279 918.039 300.055 921.101C299.953 922.495 299.644 923.203 298.711 924.205L296.866 924.278C290.089 922.632 268.714 923.953 260.593 923.967L171.818 924.015C172.711 884.738 171.477 845.372 171.995 806.071L129.791 806.152C122.903 806.157 114.363 807.123 107.71 805.616L95.4933 805.473C95.4558 800.122 94.2338 780.399 96.4701 776.235C102.796 775.494 109.685 775.983 116.078 775.978L152.802 775.969L275.881 776.006Q268.829 750.452 260.601 725.253C256.198 711.835 251.258 698.231 247.812 684.545C247.279 682.425 246.723 680.073 247.106 677.89C248.042 672.559 251.928 669.751 256.069 666.834Q243.796 654.034 231.392 641.362C225.32 635.134 217.625 628.563 213.114 621.139C208.897 614.199 206.812 606.631 206.948 598.508C207.129 587.682 211.744 576.37 219.583 568.827C224.584 564.015 231.617 559.925 238.414 558.375C249.285 555.895 264.664 557.233 275.977 557.251C301.295 557.293 326.684 557.712 351.996 557.282Z"/>
	<path fill="#FEFEFE" d="M711.753 695.576C713.882 695.481 716.11 695.385 718.139 696.154Q718.647 696.35 719.131 696.599Q719.616 696.848 720.071 697.146Q720.527 697.444 720.949 697.789Q721.37 698.134 721.753 698.52Q722.137 698.907 722.477 699.333Q722.817 699.758 723.111 700.216Q723.405 700.675 723.649 701.161Q723.893 701.648 724.084 702.158Q724.311 702.768 724.477 703.398Q724.642 704.027 724.746 704.67Q724.849 705.313 724.888 705.963Q724.928 706.613 724.903 707.263Q724.878 707.914 724.79 708.559Q724.702 709.204 724.55 709.837Q724.399 710.47 724.186 711.085Q723.973 711.701 723.701 712.292C721.64 716.701 718.246 718.691 713.902 720.323C711.828 720.484 709.769 720.736 707.784 719.969C704.924 718.865 702.769 716.728 701.677 713.861Q701.432 713.21 701.255 712.537Q701.078 711.865 700.97 711.177Q700.862 710.49 700.825 709.795Q700.787 709.101 700.821 708.406Q700.855 707.711 700.959 707.023Q701.064 706.335 701.238 705.662Q701.412 704.988 701.653 704.336Q701.895 703.683 702.202 703.059C704.28 698.85 707.438 696.991 711.753 695.576Z"/>
	<path fill="#F7E4BA" d="M306.19 622.534L331.048 622.513Q329.53 628.365 328.15 634.252C342.79 636.612 359.496 636.799 374.501 638.113L374.55 645.625C374.543 646.051 374.34 646.637 374.24 647.056C370.165 648.454 336.803 647.603 329.661 647.605C322.277 638.857 314.171 630.732 306.19 622.534Z"/>
	<defs>
		<linearGradient id="gradient_0" gradientUnits="userSpaceOnUse" x1="432.31747" y1="654.44232" x2="473.77945" y2="613.63214">
			<stop offset="0" stop-color="#FDC39D"/>
			<stop offset="1" stop-color="#FCE4C4"/>
		</linearGradient>
	</defs>
	<path fill="url(#gradient_0)" d="M445.492 621.607C458.668 623.139 472.817 622.144 486.087 622.136C477.585 630.013 468.607 637.401 459.768 644.895L455.725 647.979C450.667 648.018 426.649 648.988 423.521 647.287C423.485 643.836 426.557 643.265 429.1 641.638C436.741 636.75 441.344 629.449 445.492 621.607Z"/>
	<path fill="#FEFEFE" d="M377.531 638.401C380.366 639.942 382.949 642.164 385.758 643.829C397.621 650.864 407.765 649.992 420.637 646.635C420.775 654.531 420.74 660.316 416.296 667.181C415.95 667.592 415.608 668.007 415.238 668.396C411.33 672.517 405.77 674.696 400.132 674.748Q399.578 674.756 399.024 674.735Q398.47 674.714 397.917 674.666Q397.365 674.617 396.816 674.54Q396.267 674.464 395.722 674.359Q395.178 674.255 394.639 674.123Q394.101 673.991 393.57 673.832Q393.039 673.673 392.517 673.487Q391.994 673.301 391.482 673.089Q390.97 672.877 390.469 672.639Q389.968 672.401 389.48 672.138Q388.992 671.875 388.518 671.587Q388.044 671.3 387.585 670.989Q387.126 670.678 386.684 670.344Q386.241 670.01 385.816 669.654Q385.391 669.298 384.985 668.92Q384.579 668.543 384.192 668.146C375.854 659.714 377.41 649.219 377.531 638.401Z"/>
	<path fill="#F15F4A" d="M256.069 666.834C271.128 681.611 285.463 697.187 300.168 712.318C304.467 716.741 315.175 726.2 318.042 730.781C321.343 736.055 323.092 743.503 325.22 749.39C328.442 758.305 331.934 767.194 334.959 776.172L169.428 776.298L120.678 776.409C112.806 776.434 104.278 777.089 96.4701 776.235C102.796 775.494 109.685 775.983 116.078 775.978L152.802 775.969L275.881 776.006Q268.829 750.452 260.601 725.253C256.198 711.835 251.258 698.231 247.812 684.545C247.279 682.425 246.723 680.073 247.106 677.89C248.042 672.559 251.928 669.751 256.069 666.834Z"/>
	<path fill="#F7E4BA" d="M98.5792 779.603L335.717 779.647Q335.914 790.86 335.819 802.074L98.8584 802.06C98.3185 794.614 98.5559 787.067 98.5792 779.603Z"/>
	<path fill="#FEFEFE" d="M414.962 557.483C416.595 557.443 417.942 557.808 419.441 558.43C429.964 562.797 438.87 572.666 443.158 583.103Q443.593 584.19 443.975 585.297Q444.356 586.403 444.682 587.528Q445.008 588.652 445.279 589.791Q445.549 590.93 445.763 592.081Q445.977 593.232 446.134 594.392Q446.292 595.552 446.391 596.718Q446.491 597.885 446.533 599.054Q446.575 600.224 446.56 601.395Q446.544 602.565 446.471 603.734Q446.398 604.902 446.268 606.065Q446.137 607.229 445.949 608.384Q445.761 609.54 445.517 610.685Q445.273 611.829 444.972 612.961Q444.672 614.092 444.316 615.207Q443.96 616.323 443.549 617.419Q443.139 618.515 442.675 619.59C438.154 630.101 430.301 639.071 419.483 643.303C408.767 647.496 398.943 646.585 388.558 641.999C383.045 638.69 378.709 634.361 374.494 629.559L374.493 610.393C375.79 609.168 376.723 608.117 377.624 606.573L377.377 605.658C375.282 605.375 371.928 606.906 369.731 607.296C367.26 607.734 364.276 606.728 362.255 605.297C359.33 603.226 357.674 600.012 357.179 596.505Q357.07 595.728 357.041 594.943Q357.012 594.159 357.064 593.376Q357.115 592.593 357.246 591.819Q357.377 591.045 357.587 590.288Q357.797 589.532 358.082 588.801Q358.368 588.07 358.727 587.372Q359.086 586.674 359.514 586.016Q359.943 585.358 360.436 584.748C363.278 581.251 366.019 580.58 370.261 580.152L371.415 574.488C377.884 571.163 385.098 568.905 391.928 566.435Q403.593 562.34 414.962 557.483Z"/>
	<path d="M406.062 577.982C407.004 578.004 408.666 578.018 409.525 578.47C410.239 578.847 410.933 579.321 411.243 580.087C412.04 582.061 411.057 583.802 410.182 585.544C409.309 585.521 409.149 585.583 408.352 585.333C407.129 584.95 406.122 584.124 405.64 582.914C404.937 581.145 405.427 579.643 406.062 577.982Z"/>
	<path d="M420.292 577.756C421.263 577.904 422.346 578.134 423.156 578.725C424.213 579.496 424.896 580.665 424.936 581.976C424.987 583.674 424.258 584.625 423.227 585.87C422.048 585.551 420.594 585.138 419.68 584.275C418.827 583.469 418.151 582.531 418.258 581.304C418.401 579.657 419.217 578.864 420.292 577.756Z"/>
	<path d="M394.275 605.192C398.178 605.304 399.908 611.715 403.311 613.895C410.587 618.557 414.807 609.899 419.711 608.656C420.74 609.405 420.607 609.524 420.853 610.796C418.415 614.341 415.04 616.881 410.725 617.585Q410.027 617.695 409.321 617.736Q408.615 617.776 407.908 617.746Q407.202 617.717 406.502 617.617Q405.802 617.517 405.115 617.348Q404.429 617.179 403.762 616.943Q403.096 616.706 402.456 616.405Q401.817 616.104 401.21 615.74Q400.603 615.377 400.036 614.955C396.764 612.527 394.906 609.168 394.275 605.192Z"/>
	<path fill="#FEFEFE" d="M425.156 651.231C435.331 651.214 475.578 649.645 483.38 653.195C485.659 654.232 488.013 656.399 489.242 658.587C491.381 662.394 492.851 667.027 494.514 671.081C498.306 680.321 501.933 689.63 505.795 698.84Q514.248 719.575 523.13 740.129C527.611 750.475 532.607 760.753 536.452 771.35L525.716 771.39L498.992 771.249C493.79 771.199 488.148 770.626 483.026 771.405C482.118 772.709 482.327 774.854 482.28 776.422L457.359 776.308C454.093 769.034 452.037 760.723 449.479 753.124L433.104 703.668C429.129 691.55 425.5 679.3 420.214 667.673C421.93 664.322 423.032 660.792 423.389 657.039C423.565 655.19 423.458 653.302 424.115 651.544L425.156 651.231Z"/>
	<path fill="#FEFEFE" d="M430.832 560.591C456.238 559.884 481.814 560.434 507.232 560.469C519.26 560.485 538.683 559.29 549.777 561.296C555.701 562.367 561.417 565.261 565.971 569.174Q566.683 569.788 567.363 570.438Q568.044 571.087 568.691 571.769Q569.338 572.451 569.951 573.165Q570.563 573.878 571.139 574.622Q571.715 575.365 572.254 576.136Q572.792 576.907 573.291 577.704Q573.791 578.501 574.249 579.322Q574.708 580.143 575.126 580.985Q575.543 581.828 575.918 582.69Q576.293 583.553 576.624 584.433Q576.956 585.313 577.243 586.208Q577.53 587.104 577.772 588.013Q578.014 588.921 578.211 589.841Q578.408 590.761 578.558 591.689Q578.709 592.617 578.813 593.552Q578.917 594.486 578.974 595.425Q579.076 596.896 579.074 598.371Q579.071 599.846 578.964 601.317Q578.857 602.788 578.645 604.248Q578.433 605.707 578.118 607.148Q577.803 608.589 577.386 610.004Q576.97 611.419 576.454 612.8Q575.937 614.182 575.324 615.523Q574.711 616.865 574.004 618.159C569.682 626.096 559.564 635.146 553.253 641.955C539.127 657.198 524.777 672.232 511.063 687.85C509.711 689.393 508.249 690.86 506.842 692.355C502.018 682.287 495.57 660.118 488.512 653.07C481.727 646.293 469.701 647.981 460.924 648.06C468.748 642.251 503.08 612.083 506.896 605.095C507.382 604.205 507.48 604.08 507.161 603.096C506.713 603.004 506.325 602.9 505.857 602.921C503.812 603.014 491.487 616.669 489.301 618.895C475.293 618.985 461.012 619.584 447.044 618.565C448.507 613.592 449.49 608.668 449.682 603.476C450.352 585.377 442.718 573.401 430.832 560.591Z"/>
	<path fill="#F7E4BA" d="M339.033 779.557L842.47 780.522L842.588 802.55L339.15 802.078C338.801 794.608 339.037 787.039 339.033 779.557Z"/>
	<path fill="#F7E4BA" d="M107.71 805.616L207.905 805.443C237.416 805.371 267.02 804.915 296.525 805.468L296.809 882.524C296.792 896.323 295.974 910.541 296.866 924.278C290.089 922.632 268.714 923.953 260.593 923.967L171.818 924.015C172.711 884.738 171.477 845.372 171.995 806.071L129.791 806.152C122.903 806.157 114.363 807.123 107.71 805.616Z"/>
	<path fill="#FEFEFE" d="M243.809 560.639C253.25 559.475 268.602 560.42 278.601 560.401Q314.668 560.161 350.734 560.488C348.336 568.612 348.767 574.966 350.604 583.141C348.153 587.634 345.187 591.901 342.666 596.376C338.543 603.692 335.383 611.243 332.602 619.143L303.499 619.352C299.373 615.168 292.998 606.936 287.918 604.876L287.392 605.603C288.218 610.081 323.102 645.095 328.189 651.07C343.52 650.483 358.965 650.873 374.306 650.956C374.525 658.263 376.407 664.41 381.54 669.832Q381.972 670.294 382.426 670.734Q382.88 671.173 383.355 671.59Q383.831 672.006 384.326 672.399Q384.822 672.791 385.336 673.158Q385.851 673.525 386.383 673.866Q386.915 674.207 387.464 674.521Q388.012 674.836 388.576 675.122Q389.139 675.408 389.717 675.666Q390.294 675.924 390.883 676.153Q391.472 676.382 392.072 676.581Q392.672 676.78 393.281 676.949Q393.89 677.118 394.507 677.257Q395.123 677.395 395.746 677.503Q396.369 677.611 396.997 677.687Q397.624 677.763 398.255 677.808Q398.885 677.853 399.517 677.867C406.798 677.999 412.789 675.313 417.976 670.374C422.986 681.528 426.504 693.728 430.276 705.374L443.479 745.172C447.051 755.489 450.118 765.964 453.823 776.242C441.048 776.522 428.195 776.128 415.41 776.107L338.257 776.131L323.758 735.665C321.623 729.515 320.071 722.501 317.384 716.628C316.801 715.353 316.417 714.854 315.134 714.329L314.331 714.951C313.569 717.791 315.588 721.373 316.587 724.11C298.211 706.685 281.17 687.576 263.388 669.51L234.415 639.908C228.51 633.821 222.037 627.787 216.985 620.966C213.625 616.431 211.54 611.604 210.562 606.031Q210.392 605.08 210.27 604.122Q210.148 603.164 210.074 602.201Q210.001 601.238 209.976 600.273Q209.951 599.308 209.974 598.342Q209.998 597.377 210.07 596.414Q210.142 595.451 210.263 594.492Q210.384 593.534 210.553 592.583Q210.721 591.632 210.938 590.691Q211.154 589.75 211.418 588.821Q211.682 587.892 211.992 586.977Q212.302 586.063 212.658 585.165Q213.013 584.267 213.414 583.388Q213.814 582.51 214.259 581.652Q214.703 580.795 215.19 579.961Q215.677 579.127 216.205 578.318Q216.734 577.51 217.302 576.729C223.889 567.501 232.736 562.463 243.809 560.639Z"/>
	<path d="M412.446 690.346C413.37 690.372 414.595 690.393 415.422 690.841C416.7 691.532 416.833 692.162 417.185 693.437C416.901 695.156 416.237 695.867 415.066 697.121C414.275 697.035 412.914 696.997 412.204 696.574C410.971 695.838 410.896 695.35 410.564 694.067C410.871 692.426 411.404 691.634 412.446 690.346Z"/>
	<path d="M428.19 745.983C429.175 745.984 430.287 745.909 431.248 746.12C432.684 746.435 433.221 747.068 434.016 748.221C434.27 749.797 433.746 750.667 433.069 752.028C432.032 752.363 430.818 752.738 429.721 752.426C428.995 752.219 428.324 751.767 427.966 751.106C427.029 749.378 427.596 747.703 428.19 745.983Z"/>
	<path d="M421.237 717.891C422.401 718.138 423.766 718.414 424.656 719.274C425.46 720.051 425.887 721.083 425.7 722.198C425.444 723.723 424.333 724.603 423.211 725.502C422.204 725.114 420.923 724.609 420.162 723.812C419.217 722.821 418.944 722.13 418.919 720.79C419.427 719.234 419.99 718.847 421.237 717.891Z"/>
	<path d="M322.526 101.099L323.004 101.081C344.167 100.359 365.569 101.003 386.754 101.001L507.934 100.972L574.708 101.04C584.408 101.043 595.021 99.9969 604.6 101.173C608.629 101.667 612.396 103.708 615.305 106.491C617.495 108.585 619.832 112.799 620.296 115.815C621.251 122.017 620.643 128.974 620.636 135.278L620.576 173.533C620.502 218.868 620.117 264.269 620.768 309.596C645.214 310.03 669.734 309.658 694.187 309.642L828.424 309.64L883.444 309.705C892.224 309.691 901.859 308.805 910.544 309.769C914.649 310.225 918.052 311.316 921.117 314.195C925.424 318.241 926.686 323.093 926.933 328.849C927.524 342.643 926.957 356.686 927.024 370.517L927.106 469.936Q927.036 494.321 927.215 518.705C927.265 527.609 928.03 537.218 926.941 546.022C926.509 549.516 925.143 552.476 922.697 555.026C918.408 559.498 912.119 559.735 906.272 559.796C875.778 560.114 845.245 559.722 814.749 559.632L729.431 559.807L665.992 559.798C655.649 559.782 644.734 560.495 634.445 559.564C630.476 559.205 626.32 558.295 623.451 555.366C618.128 549.932 618.564 543.451 618.682 536.414L618.461 337.428C617.457 338.961 616.363 340.459 615.068 341.763C612.091 344.759 608.315 347.075 604.11 347.776C597.009 348.96 589.201 348.265 581.994 348.22L548.172 348.192C497.455 348.357 446.685 347.627 395.979 348.369L395.982 402.894C395.98 411.406 396.823 420.931 395.636 429.342C395.214 432.329 394.198 434.835 392.322 437.22C389.88 440.323 386.35 442.417 382.396 442.844C378.03 443.314 373.399 442.944 369.005 442.895Q357.808 442.788 346.611 442.811L265.154 442.728L157.922 442.69L126.446 442.732C121.241 442.752 115.854 443.125 110.675 442.759Q110.06 442.715 109.451 442.621Q108.841 442.528 108.241 442.386Q107.641 442.244 107.054 442.054Q106.468 441.864 105.898 441.628Q105.329 441.392 104.78 441.11Q104.231 440.829 103.707 440.505Q103.182 440.181 102.686 439.815Q102.189 439.45 101.723 439.046C97.5717 435.448 96.4607 431.923 96.2258 426.654C95.5451 411.382 96.0459 395.845 96.0215 380.543L95.9712 291.067L95.9637 236.471C95.9671 226.957 95.2396 216.827 96.3806 207.413C96.7632 204.257 98.205 201.399 100.403 199.119C103.273 196.143 106.929 193.816 111.073 193.241C117.607 192.335 124.899 192.929 131.494 192.945L169.251 192.978L307.358 192.718L307.354 141.752C307.345 133.235 306.637 124.031 307.673 115.586C307.981 113.075 308.607 110.911 309.98 108.771C312.901 104.219 317.402 102.17 322.526 101.099Z"/>
	<path fill="#FEFEFE" d="M310.495 192.843L310.489 142.401C310.491 133.586 309.517 123.38 311.228 114.748Q311.406 113.842 311.709 112.969Q312.012 112.096 312.434 111.275Q312.856 110.453 313.388 109.698Q313.921 108.943 314.553 108.27C316.188 106.533 318.632 105.055 321.013 104.691C330.794 103.196 348.392 104.231 359.229 104.207L438.555 104.039L549.304 104.128L583.433 104.072C589.613 104.06 596.139 103.637 602.284 104.311C606.216 104.743 609.472 105.277 612.37 108.204C615.053 110.913 616.735 113.981 617.29 117.771C618.353 125.039 617.678 133.222 617.681 140.586L617.635 185.932C617.558 232.182 618.336 278.585 617.484 324.819C617.382 330.356 616.191 336.278 611.989 340.216C609.641 342.416 606.781 343.963 603.579 344.405C596.515 345.381 589.039 344.954 581.912 344.966L545.643 345.011L458.248 345.162C437.535 345.111 416.7 344.659 396 345.272L395.934 315.846L395.809 294.71C395.126 286.319 395.68 277.499 395.6 269.056C395.404 248.539 395.297 227.91 395.786 207.4L395.172 204.053C392.878 199.764 389.927 195.448 385.023 193.957C377.738 191.742 364.228 192.93 356.262 192.924L310.495 192.843Z"/>
	<path fill="#F15F4A" d="M570.612 152.276C566.457 154.777 557.583 161.876 553.323 162.397L552.667 161.672C552.689 161.518 552.69 161.36 552.733 161.21C553.812 157.469 572.14 146.874 576.276 144.451C578.16 151.384 580.916 163.541 581.012 170.603C581.03 171.915 581.067 172.649 580.118 173.621L579.121 173.071C576.021 168.637 575.49 156.852 574.259 151.097C566.941 168.456 557.662 184.965 549.62 201.99C545.303 209.866 542.43 218.526 537.486 226.048C535.81 228.151 534.156 230.275 532.394 232.307C527.663 236.435 522.98 239.223 516.527 239.649C508.708 240.166 502.164 237.429 496.331 232.43C494.69 230.577 493.154 228.631 491.595 226.709C486.306 218.767 483.177 209.666 478.407 201.458C476.325 197.539 474.05 193.879 470.146 191.506Q469.535 191.128 468.887 190.816Q468.24 190.503 467.564 190.26Q466.887 190.017 466.189 189.846Q465.491 189.675 464.779 189.578Q464.067 189.481 463.348 189.458Q462.63 189.436 461.913 189.489Q461.196 189.542 460.489 189.669Q459.781 189.796 459.091 189.997C453.275 191.692 449.858 196.491 447.102 201.542C443.124 208.626 439.758 217.706 437.174 225.405C436.166 227.95 435.174 230.503 434.136 233.035C431.118 240.666 428.17 248.246 423.599 255.119C421.433 258.081 419.194 260.766 416.648 263.406C410.136 268.31 403.78 268.319 395.971 268.519L396.015 287.545L396.055 294.243L395.809 294.71C395.126 286.319 395.68 277.499 395.6 269.056C395.404 248.539 395.297 227.91 395.786 207.4C396.568 213.265 396.041 219.82 396.008 225.761L396.005 233.844L395.891 254.909L395.9 265.282C403.26 265.082 410.851 265.207 416.241 259.255C417.01 258.407 417.698 257.479 418.381 256.562C423.685 249.679 426.934 241.926 430.294 233.989C431.198 231.639 432.015 229.25 432.865 226.879C435.883 218.706 439.405 210.722 442.829 202.713C446.277 195.83 450.22 189.409 458.063 186.998Q458.898 186.737 459.755 186.561Q460.613 186.385 461.483 186.297Q462.354 186.208 463.229 186.208Q464.104 186.208 464.974 186.296Q465.845 186.385 466.702 186.56Q467.56 186.736 468.395 186.997Q469.23 187.258 470.035 187.602Q470.839 187.946 471.605 188.369C477.571 191.657 479.998 197.355 482.916 203.121C486.072 210.001 489.606 220.207 495.034 225.607C496.604 227.966 498.738 230.259 501.024 231.928Q501.478 232.26 501.948 232.568Q502.418 232.877 502.903 233.162Q503.387 233.447 503.886 233.708Q504.384 233.969 504.894 234.204Q505.405 234.44 505.926 234.651Q506.447 234.861 506.979 235.045Q507.51 235.229 508.05 235.387Q508.589 235.545 509.136 235.676Q509.683 235.807 510.236 235.911Q510.788 236.014 511.345 236.091Q511.902 236.167 512.462 236.216Q513.023 236.265 513.585 236.285Q514.146 236.306 514.709 236.3Q515.271 236.293 515.832 236.258Q516.393 236.223 516.952 236.161Q517.511 236.099 518.066 236.009C525.305 234.866 530.323 230.445 534.55 224.778C538.882 217.5 542.462 210.01 545.937 202.301Q552.826 187.569 560.135 173.04C563.658 166.139 567.486 159.369 570.612 152.276Z"/>
	<path fill="#FEFEFE" d="M111.204 196.092C125.518 195.389 140.128 195.995 154.481 195.978L241.205 195.949L331.925 196.04C347.454 196.068 363.173 195.507 378.676 196.235C381.698 196.377 384.316 196.409 386.877 198.197C390.448 200.691 391.518 203.071 392.217 207.228C393.755 216.374 392.754 226.952 392.735 236.263L392.749 291.318L393.007 382.162C393.038 396.835 393.847 412.032 392.952 426.646C392.765 429.711 392.253 432.175 390.38 434.691C388.085 437.775 384.999 439.187 381.279 439.636L249.388 439.69C233.07 439.739 113.245 441.119 107.357 438.815C104.565 437.723 101.826 435.921 100.723 433.035C99.6677 430.273 99.3116 427.15 99.1954 424.211C98.6964 411.593 99.1149 398.799 99.1021 386.163L98.9986 316.97L98.9901 249.619C98.9882 237.916 98.6674 226.106 99.0598 214.415C99.1652 211.276 99.228 207.527 100.536 204.639C102.635 200.004 106.611 197.69 111.204 196.092Z"/>
	<path d="M178.776 287.137C182.406 287.102 185.48 287.457 188.623 289.398C192.215 291.617 194.688 295.371 195.553 299.481C196.432 303.655 195.738 308.144 193.294 311.682C190.564 315.637 187.009 317.074 182.448 317.898C179.095 318.008 176.212 317.676 173.247 315.987C169.552 313.881 166.922 310.114 165.98 305.99C165.011 301.75 165.738 297.341 168.184 293.723C170.746 289.932 174.398 288.043 178.776 287.137Z"/>
	<path fill="#F7E4BA" d="M178.127 290.533C180.861 290.511 183.339 290.554 185.828 291.816Q186.391 292.104 186.922 292.449Q187.452 292.794 187.944 293.191Q188.436 293.589 188.885 294.035Q189.333 294.481 189.733 294.971Q190.134 295.461 190.481 295.99Q190.828 296.519 191.12 297.08Q191.411 297.642 191.642 298.231Q191.874 298.82 192.044 299.429C192.94 302.573 192.563 306.114 190.866 308.927C188.917 312.159 186.252 313.534 182.722 314.483C180.585 314.553 178.515 314.37 176.51 313.583Q175.948 313.365 175.411 313.092Q174.873 312.82 174.365 312.496Q173.857 312.171 173.383 311.799Q172.91 311.426 172.475 311.009Q172.04 310.591 171.649 310.133Q171.258 309.675 170.913 309.18Q170.569 308.686 170.275 308.16Q169.981 307.633 169.74 307.081Q169.506 306.537 169.329 305.973Q169.151 305.409 169.031 304.83Q168.91 304.25 168.849 303.662Q168.787 303.073 168.785 302.482Q168.783 301.89 168.841 301.301Q168.898 300.712 169.014 300.132Q169.13 299.552 169.304 298.987Q169.478 298.421 169.708 297.876C171.337 293.983 174.349 292.016 178.127 290.533Z"/>
	<path d="M239.001 241.156C242.611 240.635 245.918 240.618 249.329 242.062Q250.06 242.367 250.756 242.746Q251.452 243.125 252.104 243.574Q252.757 244.023 253.361 244.537Q253.964 245.051 254.51 245.624Q255.057 246.197 255.542 246.824Q256.027 247.451 256.444 248.124Q256.862 248.798 257.208 249.51Q257.554 250.223 257.824 250.968C259.222 254.865 258.919 259.419 257.081 263.123C254.751 267.817 250.929 269.915 246.166 271.443C243.468 271.637 240.792 271.717 238.176 270.907C234.016 269.619 230.538 266.748 228.658 262.799Q228.316 262.086 228.05 261.342Q227.784 260.597 227.597 259.829Q227.411 259.061 227.305 258.277Q227.2 257.494 227.177 256.703Q227.154 255.913 227.214 255.125Q227.273 254.336 227.415 253.559Q227.557 252.781 227.779 252.022Q228.001 251.263 228.301 250.532C230.346 245.555 234.29 243.152 239.001 241.156Z"/>
	<path fill="#F7E4BA" d="M239.482 244.538C241.898 244.369 244.382 244.107 246.736 244.826C249.953 245.809 252.694 248 254.178 251.04Q254.443 251.584 254.651 252.152Q254.859 252.721 255.008 253.307Q255.157 253.894 255.245 254.492Q255.334 255.091 255.36 255.695Q255.387 256.3 255.352 256.904Q255.317 257.508 255.22 258.106Q255.123 258.703 254.966 259.287Q254.809 259.872 254.593 260.437C253.093 264.258 250.242 266.313 246.572 267.819C244.259 268.036 241.819 268.134 239.566 267.473C236.312 266.518 233.37 264.25 231.822 261.211Q231.562 260.706 231.355 260.176Q231.148 259.646 230.997 259.098Q230.846 258.55 230.752 257.989Q230.658 257.428 230.623 256.861Q230.588 256.293 230.611 255.725Q230.634 255.157 230.716 254.594Q230.798 254.031 230.937 253.48Q231.077 252.929 231.272 252.395C232.719 248.405 235.802 246.263 239.482 244.538Z"/>
	<path d="M305.587 222.604C308.926 222.257 312.045 222.1 315.225 223.367C319.313 224.996 322.52 228.072 324.189 232.162Q324.49 232.911 324.713 233.687Q324.937 234.463 325.08 235.258Q325.224 236.052 325.285 236.857Q325.347 237.662 325.327 238.469Q325.307 239.277 325.205 240.078Q325.103 240.878 324.92 241.665Q324.737 242.451 324.475 243.215Q324.213 243.979 323.875 244.712C321.776 249.21 318.406 251.483 313.914 253.113C310.438 253.658 307.109 253.798 303.746 252.595Q303.022 252.342 302.329 252.014Q301.637 251.686 300.982 251.287Q300.327 250.888 299.717 250.423Q299.108 249.958 298.551 249.431Q297.993 248.905 297.494 248.323Q296.995 247.741 296.56 247.11Q296.125 246.478 295.758 245.805Q295.391 245.132 295.097 244.424C293.447 240.456 293.395 235.675 295.057 231.703C297.143 226.714 300.879 224.588 305.587 222.604Z"/>
	<path fill="#F15F4A" d="M307.786 225.609C310.217 225.618 312.409 225.703 314.655 226.73Q315.232 226.993 315.779 227.313Q316.326 227.633 316.838 228.007Q317.35 228.381 317.821 228.805Q318.292 229.23 318.717 229.7Q319.142 230.169 319.518 230.68Q319.893 231.191 320.215 231.737Q320.536 232.284 320.801 232.86Q321.065 233.436 321.269 234.036Q321.478 234.646 321.624 235.275Q321.77 235.903 321.852 236.544Q321.933 237.184 321.949 237.829Q321.965 238.474 321.915 239.117Q321.866 239.76 321.751 240.395Q321.636 241.03 321.458 241.65Q321.279 242.27 321.039 242.869Q320.798 243.468 320.498 244.039C318.51 247.737 315.578 249.269 311.701 250.463C309.189 250.591 306.959 250.678 304.594 249.653C301.375 248.257 298.984 245.564 297.873 242.249C296.763 238.941 296.928 235.127 298.584 232.027C300.631 228.194 303.812 226.775 307.786 225.609Z"/>
	<path d="M294.275 270.079C301.431 269.37 317.536 268.995 324.415 270.078C326.646 274.169 325.405 381.51 325.467 396.496C330.066 396.496 358.211 395.703 360.322 397.517L360.163 398.582C357.141 400.575 327.224 399.646 321.934 399.668L194.252 399.538L152.241 399.523C146.555 399.522 140.191 400.19 134.572 399.593C133.046 399.431 131.939 398.916 130.964 397.704L131.259 397.041C134.783 395.578 158.447 396.481 163.809 396.479C164.265 374.877 163.715 353.262 164.174 331.662L173.081 331.617L194.659 331.683C195.222 339.416 194.891 347.373 194.892 355.126L194.881 396.309C205.406 396.438 215.945 396.352 226.472 396.369C226.944 388.085 226.737 379.649 226.806 371.344Q226.996 345.431 226.865 319.518C226.83 311.812 225.476 294.62 227.369 287.747C229.781 285.899 253.413 286.666 257.915 286.701C258.353 298.759 258.087 310.915 258.094 322.984L258.2 396.404L294.013 396.454L293.985 312.962C293.983 299.302 292.998 283.544 294.275 270.079Z"/>
	<path fill="#7FA9D9" d="M167.493 335.048L191.666 335.037L191.876 396.466L167.416 396.417L167.493 335.048Z"/>
	<path fill="#7FA9D9" d="M234.607 290.256L254.572 290.158L254.695 361.253C254.739 371.527 255.804 386.345 254.7 395.901C253.567 396.733 251.968 396.427 250.625 396.388L230.006 396.309L230.212 290.862C231.437 289.998 233.164 290.259 234.607 290.256Z"/>
	<path fill="#F15F4A" d="M297.46 273.127Q309.723 273.041 321.987 273.091L322.016 354.962C322.023 368.68 322.812 382.861 321.868 396.513L297.155 396.442C296.848 382.618 297.282 368.699 297.318 354.866L297.46 273.127Z"/>
	<path fill="#FEFEFE" d="M622.895 312.681C634.407 312.225 646.07 312.545 657.595 312.526L722.198 312.458L905.686 312.449C911.645 312.463 916.085 312.91 920.394 317.532C922.902 320.222 923.638 325.208 923.904 328.793C924.498 336.788 924.047 345.123 924.083 353.157L924.286 402.404L924.127 477.865C924.126 499.078 924.397 520.347 923.997 541.553C923.887 547.42 923.156 549.887 918.85 553.995C917.217 555.028 915.295 556.038 913.384 556.407C905.902 557.851 891.03 556.828 882.534 556.814L815.452 556.77L696.845 556.782C676.128 556.831 655.054 557.702 634.383 556.856C631.875 556.753 629.704 555.881 627.62 554.494C624.693 552.548 622.642 549.579 622.032 546.095C620.726 538.622 621.555 530.145 621.561 522.531L621.523 478.673L621.491 382.642C621.48 360.608 621.095 338.411 621.994 316.398C622.053 314.946 622.013 313.908 622.895 312.681Z"/>
	<path fill="#CCDAED" d="M849.321 342.941C857.633 342.491 870.293 346.91 876.277 352.788C876.744 353.247 876.774 353.348 877.072 353.832L876.86 354.788C873.729 354.917 867.57 349.907 864.409 348.589C856.742 345.392 848.844 344.39 840.606 344.338C840.028 344.359 839.449 344.377 838.873 344.427C826.005 345.542 813.274 352.805 804.991 362.579C795.723 373.514 791.461 386.769 792.658 401.067Q792.749 402.16 792.888 403.248Q793.027 404.335 793.215 405.416Q793.402 406.496 793.636 407.568Q793.871 408.639 794.153 409.699Q794.435 410.758 794.763 411.805Q795.092 412.851 795.466 413.882Q795.841 414.912 796.26 415.926Q796.68 416.939 797.144 417.932Q797.608 418.926 798.115 419.898Q798.623 420.87 799.172 421.819Q799.722 422.768 800.314 423.691Q800.905 424.615 801.537 425.511Q802.168 426.408 802.839 427.276Q803.51 428.143 804.218 428.98Q804.926 429.818 805.671 430.623Q806.416 431.428 807.195 432.199C808.542 433.537 810.138 434.435 811.513 435.689C812.42 436.516 814.347 438.315 814.417 439.46C811.111 439.244 807.719 435.986 805.446 433.721C794.783 423.1 790.237 409.355 790.357 394.489C790.475 379.883 795.829 367.29 806.393 357.094C818.921 345.002 832.506 342.549 849.321 342.941Z"/>
	<path fill="#F15F4A" d="M892.662 361.912L893.793 362.38C900.035 372.327 900.921 386.797 901.301 398.29C892.102 397.575 882.624 395.121 873.566 393.385L860.099 391.125C863.909 384.845 886.129 366.914 892.662 361.912Z"/>
	<path fill="#F15F4A" d="M695.468 413.96L726.668 413.971Q726.682 428.995 726.518 444.019L695.484 444.067L695.468 413.96Z"/>
	<path fill="#FEFEFE" d="M696.745 415.245C701.858 415.235 721.545 414.296 725.159 415.972C725.862 421.377 726.15 437.584 724.84 442.758C724.064 442.062 724.028 441.805 723.907 440.74C723.815 439.922 723.918 438.997 723.954 438.172C724.059 435.017 721.089 431.693 719.366 429.217C719.903 427.216 720.542 425.769 720.464 423.646C719.825 422.687 719.379 422.687 718.279 422.373C714.19 421.207 707.056 420.213 703.254 422.235C702.344 423.667 702.529 424.169 702.577 425.827C702.54 427.292 702.738 428.849 701.787 430.053C700.819 432.034 699.841 433.987 699.061 436.051C698.753 439.394 698.416 442.58 697.345 445.789C696.786 435.595 696.714 425.453 696.745 415.245Z"/>
	<path fill="#F15F4A" d="M837.933 400.642C845.655 405.624 864.245 423.914 870.618 431.009C866.177 434.132 861.701 436.262 856.649 438.228C846.48 440.779 837.002 441.393 826.924 438.016C828.344 432.069 830.622 426.209 832.343 420.328C834.258 413.783 835.717 407.095 837.933 400.642Z"/>
	<path fill="#F15F4A" d="M695.307 491.938Q710.494 491.782 725.682 491.802L725.712 523.567L695.387 523.5C695.106 513.006 695.317 502.44 695.307 491.938Z"/>
	<path fill="#F15F4A" d="M735.206 452.063C741.747 452.035 756.311 451.008 762.147 451.934C763.39 452.131 764.152 452.552 765.13 453.361C765.819 454.554 766.199 455.52 766.29 456.908C766.52 460.409 766.112 464.107 766.041 467.623C765.936 472.893 766.007 478.179 766.03 483.45L735.127 483.411C734.777 473.059 734.782 462.414 735.206 452.063Z"/>
</svg>
