<?xml version="1.0" encoding="utf-8" ?>
<svg xmlns="http://www.w3.org/2000/svg" xmlns:xlink="http://www.w3.org/1999/xlink" width="1024" height="1024">
	<path fill="#FEF9EF" d="M0 0L1024 0L1024 1024L0 1024L0 0Z"/>
	<path fill="#227C9D" d="M531.572 305.314L571.815 305.276C571.592 340.806 572.22 376.347 571.775 411.876C558.444 412.365 544.947 411.942 531.598 411.946L531.572 305.314Z"/>
	<path fill="#227C9D" d="M479.922 287.765L520.488 287.789L520.579 411.914L479.933 411.927L479.922 287.765Z"/>
	<path fill="#227C9D" d="M634.498 262.097C647.383 261.949 660.28 262.055 673.166 262.042C672.89 311.944 674.275 361.92 673.237 411.809C660.325 412.19 647.314 411.888 634.393 411.851Q633.989 336.971 634.498 262.097Z"/>
	<path fill="#227C9D" d="M583.293 231.348L624.122 231.423L624.114 411.876L583.444 411.896L583.293 231.348Z"/>
	<path fill="#227C9D" d="M428.93 449.55L428.554 234.759L428.726 160.197C428.801 149.258 428.114 137.788 429.039 126.927C429.355 123.225 429.887 120.026 432.562 117.286C435.227 114.556 438.787 113.072 442.538 112.657C451.806 111.632 461.831 112.344 471.197 112.345L527.122 112.38C581.922 112.429 636.787 111.756 691.575 112.3C696.795 112.351 701.945 113.429 705.713 117.294C708.031 119.67 709.261 122.619 709.758 125.871C710.455 130.427 710.1 135.422 710.102 140.032L710.088 164.13C710.068 197.045 709.092 230.203 710.129 263.083C703.087 263.372 696.984 264.049 691.966 269.651C689.895 271.965 687.954 275.066 687.399 278.154C686.225 284.69 686.662 291.665 686.684 298.29L686.776 324.161L686.714 411.606C683.151 411.621 679.579 411.692 676.017 411.64L675.989 310.835C675.97 293.769 676.427 276.534 675.847 259.486Q653.754 259.277 631.661 259.388L631.556 359.124C631.57 374.737 632.226 390.526 631.724 406.116C631.662 408.048 631.397 409.673 630.698 411.472C629.497 412.3 629.239 412.065 627.764 411.909C626.92 410.695 627.071 408.972 627.028 407.497C626.464 387.805 626.988 367.945 626.99 348.238L627.014 228.607L580.48 228.551L580.898 408.266C580.91 409.607 580.472 410.534 579.593 411.528C577.978 412.261 576.347 412.03 574.623 411.956L574.567 302.73Q551.59 302.645 528.614 302.828L528.634 376.32C528.622 387.488 528.926 398.732 528.648 409.886C528.63 410.599 528.433 411.012 528.028 411.584C526.668 412.172 525.714 412.152 524.28 412.083C522.339 408.338 523.959 299.229 523.139 284.876C507.767 284.699 492.379 284.866 477.005 284.901L476.921 411.882C474.344 411.847 471.5 411.513 469.056 412.411L468.321 413.25C468.915 414.117 469.011 414.18 470.018 414.401C474.609 415.412 480.925 414.706 485.755 414.747L529.276 414.878C581.685 414.89 634.125 415.336 686.528 414.67L686.447 487.38C660.599 487.011 634.691 487.458 608.834 487.466C583.752 487.474 558.591 487.035 533.518 487.501C532.722 478.848 531.019 470.596 527.433 462.637C521.729 449.975 511.356 438.026 498.077 433.11C493.422 431.387 488.468 430.593 483.517 431.088C474.351 432.003 437.393 445.582 428.93 449.55Z"/>
	<path fill="#FEF9EF" d="M616.724 157.202L618.257 157.476C618.982 158.235 619.246 158.493 619.412 159.578C619.885 162.658 616.982 183.731 615.295 186.141L614.682 185.709C613.047 180.778 615.757 169.178 616.245 163.545C588.129 201.846 546.95 228.978 502.265 244.236C493.401 247.263 484.341 249.514 475.267 251.811C474.118 251.821 473.802 251.854 472.805 251.318C472.94 250.252 472.688 250.555 473.449 249.988C475.163 248.71 478.261 248.146 480.306 247.603C494.534 243.826 507.979 239.699 521.516 233.865Q525.001 232.391 528.435 230.802Q531.87 229.213 535.249 227.512Q538.629 225.81 541.95 223.997Q545.271 222.184 548.531 220.262Q551.79 218.339 554.984 216.31Q558.178 214.281 561.302 212.147Q564.427 210.012 567.479 207.776Q570.531 205.539 573.508 203.203Q576.484 200.866 579.381 198.432Q582.278 195.998 585.093 193.469Q587.908 190.94 590.637 188.319Q593.367 185.698 596.007 182.988Q598.648 180.278 601.198 177.482Q603.747 174.686 606.203 171.807Q608.658 168.928 611.016 165.969Q613.375 163.01 615.634 159.974C609.592 160.974 601.948 164.35 595.947 163.52L595.439 162.814L595.958 161.854C600.19 159.208 611.547 157.739 616.724 157.202Z"/>
	<path fill="#FE6D73" d="M101.581 444.883C95.3041 443.702 88.681 444.316 82.335 443.073C67.6818 440.204 53.8742 430.84 45.5985 418.455C36.2711 404.497 33.5531 385.766 36.9489 369.47C40.4091 352.866 50.7511 336.602 66.2023 328.812C71.5713 326.104 77.7565 324.647 82.7269 321.21C101.281 308.376 87.8945 288.201 84.5278 271.873C82.621 262.625 82.7001 252.05 84.5444 242.797Q84.8407 241.298 85.1879 239.81Q85.535 238.322 85.9326 236.846Q86.3302 235.371 86.7778 233.91Q87.2254 232.448 87.7224 231.003Q88.2194 229.558 88.7654 228.131Q89.3113 226.704 89.9055 225.296Q90.4996 223.888 91.1414 222.501Q91.7831 221.115 92.4717 219.75Q93.1603 218.386 93.8949 217.046Q94.6295 215.706 95.4092 214.392Q96.189 213.078 97.013 211.791Q97.837 210.504 98.7044 209.246Q99.5717 207.988 100.481 206.76Q101.391 205.532 102.342 204.336Q103.293 203.14 104.284 201.977Q105.275 200.814 106.305 199.685Q107.335 198.556 108.403 197.463Q109.471 196.37 110.576 195.314Q111.68 194.258 112.82 193.24Q113.96 192.222 115.133 191.244Q116.307 190.265 117.513 189.327Q118.72 188.389 119.957 187.493Q121.195 186.597 122.462 185.743Q123.73 184.889 125.025 184.079Q126.321 183.269 127.644 182.503Q128.966 181.738 130.314 181.018Q131.662 180.298 133.033 179.624Q134.405 178.95 135.798 178.323Q137.192 177.697 138.606 177.118Q140.02 176.539 141.454 176.008Q142.887 175.478 144.337 174.996Q145.787 174.515 147.253 174.083C158.025 170.917 169.199 170.938 178.835 164.441C197.526 151.837 194.744 137.934 198.75 118.522C203.107 97.4101 216.068 77.8193 234.152 66.0704Q235.141 65.4359 236.146 64.8257Q237.15 64.2155 238.169 63.6299Q239.188 63.0443 240.221 62.4837Q241.253 61.9231 242.3 61.3877Q243.346 60.8524 244.405 60.3426Q245.463 59.8329 246.534 59.349Q247.605 58.8652 248.688 58.4075Q249.77 57.9499 250.863 57.5187Q251.957 57.0875 253.06 56.6831Q254.163 56.2786 255.276 55.9011Q256.389 55.5236 257.511 55.1733Q258.633 54.8229 259.763 54.5Q260.893 54.1771 262.03 53.8817Q263.168 53.5863 264.312 53.3187Q265.456 53.0511 266.607 52.8114Q267.757 52.5717 268.913 52.3601Q270.069 52.1485 271.23 51.965Q272.391 51.7815 273.556 51.6264Q274.72 51.4712 275.889 51.3444Q277.057 51.2176 278.228 51.1193Q279.399 51.021 280.572 50.9511Q281.745 50.8813 282.92 50.84Q284.094 50.7988 285.27 50.7861Q286.445 50.7734 287.62 50.7893Q288.795 50.8052 289.969 50.8497Q291.143 50.8941 292.316 50.9672Q293.489 51.0402 294.66 51.1417Q295.831 51.2433 296.999 51.3732Q298.167 51.5032 299.331 51.6616Q300.496 51.8199 301.656 52.0065Q302.816 52.1932 303.972 52.408Q305.127 52.6228 306.277 52.8656C336.033 59.2317 358.346 81.4471 369.183 109.254C373.528 120.403 375.575 131.566 382.251 141.774C392.653 157.676 404.91 167.466 423.519 171.291L423.604 443.005C413.159 443.06 335.899 441.985 331.566 443.596C322.229 432.752 311.982 423.657 296.989 422.616C290.567 422.17 284.2 423.991 279.377 428.364C278.554 429.11 277.794 429.928 277.043 430.745C271.77 426.483 266.187 422.782 259.051 423.433C249.838 424.274 241.471 431.695 235.676 438.372C234.143 440.138 232.646 442.615 230.915 444.088C230.631 443.949 230.365 443.766 230.063 443.673C226.829 442.676 155.642 442.719 147.465 443.139C146.25 443.201 145.499 443.339 144.441 443.908L143.428 443.839C132.98 443.064 121.916 438.683 111.465 441.128C107.988 441.942 104.938 443.914 101.581 444.883Z"/>
	<path fill="#FEF9EF" d="M151.026 270.991C151.624 270.987 152.214 270.968 152.805 271.074C155.392 271.538 207.857 307.047 213.796 311.498C216.031 313.174 218.92 315.384 220.44 317.726C220.866 318.382 220.978 318.28 220.74 318.954C219.284 323.078 199.165 332.928 194.303 335.694C181.943 342.864 165.248 353.953 152.436 359.01C150.498 358.055 148.075 357.101 146.918 355.171C145.24 352.373 145.252 278.103 146.695 273.09C147.942 271.776 149.326 271.491 151.026 270.991Z"/>
	<path fill="#FE6D73" d="M149.981 273.81C150.635 273.84 150.817 273.831 151.407 273.912C155.479 274.469 208.674 310.169 215.026 315.338C216.439 316.488 217.539 317.773 218.617 319.234C210.806 324.204 202.309 328.456 194.219 332.978C182.612 339.749 169.677 348.166 157.685 353.815C155.602 354.796 153.423 355.887 151.174 355.066C149.909 353.609 149.409 352.276 149.101 350.367C147.916 343.032 149.011 332.922 148.958 325.284L148.598 293.246C148.571 288.093 148.298 282.766 148.692 277.637C148.816 276.028 149.046 275.129 149.981 273.81Z"/>
	<path fill="#FEF9EF" d="M366.785 308.176C367.928 307.981 369.227 307.985 370.389 307.943C382.384 307.508 394.495 312.264 403.189 320.498C413.581 330.341 418.893 344.351 419.269 358.489C419.627 371.987 416.223 385.822 406.66 395.788C398.218 404.585 387.431 408.862 375.334 409.147C363.46 408.997 352.664 405.852 343.095 398.684C332.521 390.763 324.514 378.697 322.676 365.488Q322.506 364.245 322.398 362.995Q322.289 361.744 322.242 360.49Q322.194 359.237 322.208 357.982Q322.221 356.727 322.296 355.474Q322.371 354.222 322.507 352.974Q322.643 351.727 322.84 350.488Q323.037 349.248 323.294 348.02Q323.551 346.792 323.868 345.578Q324.184 344.363 324.56 343.166Q324.935 341.969 325.369 340.791Q325.802 339.614 326.293 338.459Q326.783 337.304 327.33 336.174Q327.876 335.044 328.477 333.943Q329.077 332.841 329.731 331.77Q330.385 330.699 331.09 329.661Q331.796 328.623 332.551 327.621C341.065 316.397 352.944 310.114 366.785 308.176Z"/>
	<path fill="#FE6D73" d="M399.528 320.468C402.206 322.208 404.395 324.253 406.361 326.755C415.431 338.299 418.46 354.153 416.748 368.496C415.299 380.632 409.782 391.534 400.061 399.115L376.573 382.746Q366.044 375.301 355.331 368.124C350.712 364.981 345.707 361.956 341.644 358.104C345.946 354.301 351.584 351.295 356.455 348.217C370.756 339.179 386.251 330.912 399.528 320.468Z"/>
	<path fill="#FE6D73" d="M368.002 310.183C378.636 309.156 389.157 313.177 397.751 319.184C391.962 323.86 385.3 327.553 378.99 331.483Q365.164 339.979 351.581 348.857C348.253 351.019 344.174 352.944 341.141 355.446C340.168 356.249 339.653 357.13 339.167 358.273C339.451 359.684 339.797 359.837 340.901 360.791C345.853 365.069 352.043 368.64 357.447 372.372L392.492 396.598L397.586 400.466C391.938 403.545 386.011 405.654 379.614 406.495C366.678 408.195 353.375 403.726 343.139 395.856C333.356 388.335 326.43 376.683 324.84 364.418C323.201 351.774 327.182 338.27 334.986 328.261C343.122 317.826 355.005 311.869 368.002 310.183Z"/>
	<path fill="#FEF9EF" d="M299.163 118.29C299.362 118.233 299.555 118.138 299.761 118.119C302.07 117.902 305.923 118.99 307.889 120.246C314.741 124.623 316.58 132.124 318.126 139.55C325.161 142.26 330.391 145.868 336.667 149.899C336.867 150.761 336.97 151.723 337.555 152.423C337.946 152.891 341.149 150.744 341.896 150.378C344.993 148.862 348.425 148.309 351.826 149.004C355.851 149.827 359.057 152.27 361.252 155.703C363.819 159.718 365.675 165.232 364.549 170.004C363.203 175.71 358.486 179.528 353.79 182.566C353.14 184.004 354.471 198.682 355.037 201.325C354.603 202.045 354.468 202.258 354.39 203.122Q356.067 204.183 357.707 205.301C361.631 207.995 364.979 211.614 365.726 216.484C366.191 219.51 365.423 222.397 363.629 224.843C363.54 224.965 363.447 225.084 363.356 225.204C363.813 226.014 363.949 226.569 364.05 227.492C362.083 231.065 356.892 235.108 353.23 236.815C350.959 236.032 350.112 236.837 347.904 236.907C344.399 237.018 341.376 235.724 338.836 233.432C334.477 236.779 322.852 246.342 318.089 246.646C317.93 246.656 317.77 246.651 317.61 246.653C316.129 249.079 317.072 252.517 316.008 255.265C314.869 258.209 311.229 261.237 310.776 263.932C310.738 264.153 310.726 264.377 310.702 264.6C307.365 266.985 302.312 266.586 299.761 268.409C299.498 268.597 299.246 268.8 298.988 268.995C298.075 268.516 297.282 268.121 296.274 267.877C292.564 266.978 289.13 265.581 285.878 263.568C282.233 261.311 280.509 254.424 279.532 250.337C280.062 249.43 280.549 248.716 280.672 247.656C277.634 244.56 269.573 242.956 265.556 240.445C263.127 238.927 261.726 235.971 259.353 234.294C259.002 234.487 258.647 234.673 258.303 234.879C257.287 235.488 256.4 236.099 255.268 236.505C251.146 237.986 245.053 238.333 241.258 235.742C239.965 234.86 239.486 233.597 237.965 232.911C237.07 232.508 236.336 232.099 235.522 231.533C232.788 225.323 230.757 221.355 233.26 214.557C233.827 213.015 232.66 212.467 233.867 210.935C235.811 208.465 242 203.123 245.023 202.75C245.293 202.717 245.565 202.705 245.837 202.683C246.045 202.422 246.326 202.206 246.462 201.902C246.803 201.134 244.755 187.609 245.063 184.426C245.204 182.969 234.886 175.025 233.293 172.376C231.641 169.629 232.197 163.097 233.103 160.062C234.417 155.661 237.395 151.822 241.557 149.796C247.803 146.756 255.118 149.07 261.334 151.067C262.133 149.727 262.824 148.653 264.133 147.769C264.335 147.633 264.542 147.505 264.744 147.369C269.988 143.85 275.796 141.657 281.649 139.377C281.481 138.261 281.301 137.119 281.281 135.989C281.205 131.71 283.997 126.326 286.87 123.305C290.499 119.492 294.128 118.508 299.163 118.29Z"/>
	<path fill="#FE6D73" d="M296.932 121.505C300.794 121.33 304.014 121.559 307.458 123.598C314.049 127.499 312.762 134.648 314.47 140.851C317.825 144.342 325.159 144.52 328.98 147.86C331.195 149.796 335.173 155.96 337.93 156.422C339.927 155.937 341.691 154.09 343.26 152.799C345.288 152.564 346.913 152.091 348.797 151.312C351.782 152.479 354.744 153.658 357.102 155.913C361.328 159.956 361.439 165.304 361.583 170.743C357.981 175.665 355.709 178.049 349.754 179.775L349.899 180.617C351.276 188.183 351.422 197.658 350.299 205.232L352.502 206.006C354.825 206.824 356.901 207.894 358.594 209.74C360.537 211.858 362.669 216.734 362.445 219.655C362.156 223.429 358.896 229.221 355.924 231.425C349.112 236.478 343.767 231.528 336.933 230.693C335.499 231.144 334.933 231.773 334.122 232.981C329.786 239.44 316.353 242.47 314.583 245.062C311.628 249.388 315.26 255.756 308.768 261.247C305.139 264.317 300.936 264.922 296.406 264.668C291.616 263.766 289.56 262.155 285.89 259.003C285.881 258.97 285.872 258.937 285.861 258.904C284.736 255.464 282.373 250.022 283.926 246.697L284.348 245.803L283.945 244.695C281.537 242.927 278.421 243.113 275.804 241.815C271.721 239.791 268.181 236.186 263.865 234.822C262.937 233.106 262.126 231.435 260.702 230.064C257.324 229.866 252.873 234.493 248.089 234.552C244.748 234.593 242.31 233.267 239.997 230.934C237.903 228.822 235.223 224.853 235.346 221.764C235.356 221.528 235.38 221.293 235.388 221.057C235.453 219.079 235.445 217.236 236.051 215.325C238.267 208.339 243.844 208.178 249.014 204.777C249.99 204.135 250.184 203.579 250.331 202.482L248.974 201.197C248.566 194.262 248.103 187.287 248.667 180.351C245.163 179.619 242.296 178.06 239.808 175.455C235.372 170.812 235.491 166.21 235.541 160.265C237.755 157.168 239.934 154 243.525 152.376C248.164 150.279 252.786 151.914 257.249 153.551L259.621 156.661C261.985 155.064 263.944 153.07 266.034 151.145C270.54 146.992 274.613 145.575 280.267 143.508C281.411 143.089 284.527 142.217 285.119 141.178C285.257 140.936 284.783 133.183 286.519 129.69C288.715 125.273 292.491 123.116 296.932 121.505Z"/>
	<path fill="#FFE2B3" d="M691.103 615.696L691.178 615C692.121 605.833 691.549 596.174 691.544 586.943L691.529 536.679L691.258 347.393Q691.263 325.341 691.033 303.29C691.022 296.572 690.517 289.308 691.409 282.66C691.939 278.715 692.993 275.402 696.107 272.751C699.628 269.753 704.268 268.491 708.797 268.115C722.109 267.007 737.992 268.013 751.601 267.927L856.858 267.907L931.25 267.604C941.342 267.598 953.704 266.641 963.593 267.838C968.318 268.409 971.243 270.443 974.144 274.197C976.555 277.317 976.712 282.934 976.844 286.783C977.801 314.634 976.966 342.759 976.974 370.646L976.98 532.566L976.916 617.726L976.995 644.474C977.01 649.501 977.38 654.881 976.745 659.862C976.207 664.077 973.795 668.359 970.27 670.799C967.773 672.527 963.197 672.754 960.183 672.896C950.335 673.361 940.342 672.994 930.472 672.994L873.633 672.974L700.505 673.056C700.564 681.352 701.107 689.987 700.403 698.244C699.816 691.722 700.076 684.995 700.071 678.444L700.153 644.59C700.17 638.514 701.016 631.13 699.574 625.268C698.402 620.501 695.079 618.09 691.103 615.696Z"/>
	<path fill="#FEF9EF" d="M738.078 336C753.967 335.327 770.2 335.766 786.107 336.008L786.322 416.366L833.291 416.528L833.278 482.049L879.484 482.314L879.489 504.81C894.956 505.149 910.481 504.271 925.94 504.906L925.84 591.744C933.317 591.604 940.811 591.664 948.29 591.635C952.687 591.619 957.311 591.289 961.667 591.725C962.307 592.816 962.09 593.545 961.944 594.748C960.188 596.035 940.191 595.413 936.25 595.444L774.355 595.433C753.922 595.386 733.417 595.779 712.997 595.344C712.006 595.323 711.01 595.329 710.164 594.743C709.573 594.334 709.79 594.292 709.713 593.437L710.668 592.384C714.024 590.82 733.399 591.694 738.452 591.697L738.078 336Z"/>
	<path fill="#FFE2B3" d="M879.836 508.394L922.519 508.473C922.526 536.205 922.789 563.965 922.415 591.693C908.124 591.59 893.82 591.863 879.526 591.85Q879.445 550.12 879.836 508.394Z"/>
	<path fill="#FFE2B3" d="M833.274 485.981L876.003 485.974L875.989 591.639L833.371 591.607C832.835 556.412 833.906 521.183 833.274 485.981Z"/>
	<path fill="#FFE2B3" d="M786.528 420.079L829.844 420.021L829.937 591.816L786.541 591.818L786.528 420.079Z"/>
	<path fill="#FFE2B3" d="M741.608 339.194Q762.044 339.504 782.483 339.463L782.628 496.37C782.708 528.18 783.158 560.02 782.819 591.827Q762.371 591.932 741.923 591.7L741.624 419.229C741.609 392.583 740.959 365.822 741.608 339.194Z"/>
	<path fill="#17C3B2" d="M45.7868 858.468C49.0651 862.176 52.0147 864.201 57.1509 864.47C67.3263 865.002 77.8099 864.493 88.0104 864.49L152.101 864.469L343.35 864.493L964.263 864.432C968.935 864.464 971.784 864.099 975.371 860.81Q976.193 860.046 976.975 859.241L976.986 1015.21C943.579 1014.5 910.055 1015.13 876.635 1015.17L702.843 1014.95L45.5988 1014.98L45.7868 858.468Z"/>
	<path d="M277.043 430.745C277.794 429.928 278.554 429.11 279.377 428.364C284.2 423.991 290.567 422.17 296.989 422.616C311.982 423.657 322.229 432.752 331.566 443.596C339.459 454.261 344.507 465.42 348.385 478.066Q377.523 467.492 406.784 457.266C412.877 455.11 423.532 452.307 428.93 449.55C437.393 445.582 474.351 432.003 483.517 431.088C488.468 430.593 493.422 431.387 498.077 433.11C511.356 438.026 521.729 449.975 527.433 462.637C531.019 470.596 532.722 478.848 533.518 487.501C533.153 497.869 529.359 507.833 526.086 517.573Q521.771 530.194 516.912 542.616Q512.054 555.038 506.662 567.237Q501.27 579.437 495.354 591.391Q489.438 603.346 483.01 615.033L633.538 615.09L669.586 615.073C676.521 615.065 684.314 614.33 691.103 615.696C695.079 618.09 698.402 620.501 699.574 625.268C701.016 631.13 700.17 638.514 700.153 644.59L700.071 678.444C700.076 684.995 699.816 691.722 700.403 698.244C700.141 726.569 699.924 754.962 700.162 783.287L700.426 815.087C700.449 820.813 700.764 826.765 700.159 832.463C699.826 835.59 698.951 837.559 697.422 840.251C699.325 841.182 891.618 840.702 911.798 840.633L947.406 840.507C954.593 840.483 963.227 839.539 970.209 841.207C973.771 842.058 976.65 845.029 977.832 848.428C979.158 852.241 978.605 855.645 976.975 859.241Q976.193 860.046 975.371 860.81C971.784 864.099 968.935 864.464 964.263 864.432L343.35 864.493L152.101 864.469L88.0104 864.49C77.8099 864.493 67.3263 865.002 57.1509 864.47C52.0147 864.201 49.0651 862.176 45.7868 858.468C45.0702 856.651 44.4416 854.703 44.3746 852.739C44.2672 849.587 45.2053 846.496 47.4314 844.209C49.0468 842.549 51.0254 841.404 53.3049 841.011C62.0649 839.499 80.4021 840.523 89.9164 840.534L165.015 840.516L165.139 738.374C165.14 731.6 166.084 708.366 164.997 703.108C163.697 696.82 154.053 679.173 150.627 671.739L96.1045 556.033Q90.4406 543.841 84.6405 531.714C81.3514 524.934 77.3677 517.974 75.4119 510.674C72.8857 501.245 73.6598 489.599 75.8961 480.187C79.6642 464.328 87.8625 453.422 101.581 444.883C104.938 443.914 107.988 441.942 111.465 441.128C121.916 438.683 132.98 443.064 143.428 443.839L144.441 443.908C145.499 443.339 146.25 443.201 147.465 443.139C155.642 442.719 226.829 442.676 230.063 443.673C230.365 443.766 230.631 443.949 230.915 444.088C232.646 442.615 234.143 440.138 235.676 438.372C241.471 431.695 249.838 424.274 259.051 423.433C266.187 422.782 271.77 426.483 277.043 430.745Z"/>
	<path fill="#FEF9EF" d="M218.142 523.039C219.561 524.425 219.962 528.482 220.379 530.407C217.995 529.911 215.377 529.422 212.941 529.624C209.975 529.87 207.085 531.113 205.206 533.478C201.997 537.516 202.057 542.743 202.572 547.591L197.865 541.97C194.617 538.003 191.588 533.854 188.509 529.755C198.188 526.943 209.812 529.196 218.142 523.039Z"/>
	<path fill="#FEF9EF" d="M351.312 502.185C356.678 502.176 360.593 502.51 364.761 506.446Q365.404 507.056 365.985 507.726Q366.565 508.396 367.077 509.12Q367.589 509.844 368.027 510.614Q368.465 511.385 368.826 512.195Q369.187 513.005 369.466 513.846Q369.746 514.687 369.941 515.552Q370.137 516.416 370.246 517.296Q370.356 518.176 370.379 519.062C370.494 524.953 367.797 529.631 363.797 533.709C360.649 536.206 357.624 537.555 353.882 538.858C353.271 533.345 348.93 506.144 349.92 502.739L351.312 502.185Z"/>
	<path fill="#FEF9EF" d="M209.809 532.641C213.953 532.221 216.966 532.418 220.916 533.839Q222.972 543.644 225.472 553.346C226.444 557.197 228.169 561.648 228.334 565.596C226.618 566.589 224.692 566.513 222.76 566.629C221.224 566.696 219.518 566.939 218.134 566.157C211.026 562.141 206.116 550.487 204.3 543.015C205.301 538.82 206.375 535.427 209.809 532.641Z"/>
	<path fill="#FEF9EF" d="M144.441 443.908C145.499 443.339 146.25 443.201 147.465 443.139C155.642 442.719 226.829 442.676 230.063 443.673C230.365 443.766 230.631 443.949 230.915 444.088L223.541 455.13C197.341 450.599 170.684 448.434 144.441 443.908Z"/>
	<path fill="#FEF9EF" d="M225.115 569.291C225.294 569.273 225.473 569.253 225.652 569.238C226.482 569.17 227.764 568.92 228.558 569.041C231.492 569.486 235.494 578.005 237.514 580.313C247.883 592.16 260.977 599.57 275.953 603.893L267.577 622.682C266.999 624 266.499 625.823 265.3 626.681C264.847 624.986 264.483 622.888 263.391 621.496C249.518 603.816 234.239 587.098 220.073 569.613L225.115 569.291Z"/>
	<path fill="#FEF9EF" d="M405.821 548.08L406.098 548.107L406.396 548.546C401.842 555.616 395.864 562.265 390.643 568.874C382.608 579.044 374.759 589.392 366.595 599.456C362.516 604.484 348.161 620.195 346.384 625.484C346.122 626.264 346.459 625.83 345.425 626.393L344.745 624.476Q342.325 606.406 340.487 588.268C347.078 579.929 350.101 572.441 353.431 562.448C370.997 558.243 388.225 552.375 405.821 548.08Z"/>
	<path fill="#FFE2B3" d="M293.576 425.192C303.116 424.995 311.481 428.302 318.857 434.244C338.688 450.218 347.228 476.147 349.76 500.632L342.02 493.652C319.688 474.921 297.161 454.998 278.685 432.361C283.039 428.034 287.548 425.925 293.576 425.192Z"/>
	<path fill="#FFE2B3" d="M258.913 426.137C265.996 425.796 270.699 429.057 276.007 433.24C264.631 468.292 250.199 492.173 221.934 516.223C218.663 518.995 215.274 521.328 211.659 523.634C210.414 517.324 210.555 510.434 210.905 504.04C212.045 483.206 217.813 468.371 229.157 451.008C236.389 439.938 245.318 428.982 258.913 426.137Z"/>
	<path fill="#FEF9EF" d="M55.0988 843.127C84.5622 842.54 114.128 843.042 143.601 843.049L325.546 843.213C324.483 844.631 323.333 846.137 322.598 847.751C320.436 852.501 322.018 856.383 323.851 860.899L323.405 861.491L321.125 861.623L149.867 861.658L91.8788 861.709C81.0364 861.73 70.118 862.011 59.2825 861.7C57.0442 861.636 54.2247 861.579 52.1897 860.593C49.719 859.397 48.0322 856.878 47.3343 854.281C46.7142 851.974 46.9673 849.149 48.325 847.138C50.0148 844.635 52.2644 843.776 55.0988 843.127Z"/>
	<path fill="#FEF9EF" d="M404.628 843.253L765.36 843.11L899.159 843.236L941.115 843.14C948.79 843.095 956.608 842.726 964.268 843.094C967.029 843.227 970.889 843.839 973.062 845.715C974.996 847.384 976.077 850.353 976.123 852.872C976.164 855.124 975.352 857.371 973.724 858.953C972.046 860.583 969.984 861.138 967.722 861.424C960.221 862.374 951.851 861.591 944.24 861.573L894.809 861.532L330.142 861.417C328.66 860.538 327.193 859.678 326.08 858.333C324.588 856.528 323.784 854.13 324.027 851.791C324.402 848.176 326.755 845.666 329.436 843.478C354.485 843.071 379.574 843.296 404.628 843.253Z"/>
	<path fill="#FEF9EF" d="M277.529 435.392C281.044 438.636 284.223 442.593 287.504 446.095C294.435 453.49 301.405 460.793 308.798 467.733C316.682 475.134 324.886 482.261 333.059 489.341C337.666 493.332 342.687 497.028 346.706 501.624C348.859 522.157 355.304 547.819 349.269 567.769C345.014 581.833 335.162 591.889 322.478 598.754C321.145 599.476 320.238 600.072 319.788 601.536L320.544 602.253C327.392 600.32 332.626 595.881 338.002 591.4C339.19 598.868 340.661 622.529 343.262 627.898C343.933 629.284 345.59 630.103 346.617 631.205C347.711 632.379 347.471 634.792 347.494 636.319C339.891 647.281 331.571 653.241 318.833 657.25C314.926 658.069 311.155 658.604 307.155 658.642C290.789 658.794 275.362 650.09 263.958 638.824C267.953 626.041 274.602 614.248 279.328 601.744C270.228 599.352 262.244 596.904 254.381 591.493C235.982 578.832 231.525 568.969 226.666 548.039Q223.559 534.246 220.989 520.342C250.753 495.818 265.943 471.794 277.529 435.392Z"/>
	<path d="M277.224 506.656C277.573 506.662 278.18 506.653 278.504 506.75C280.092 507.226 281.002 509.953 281.465 511.344C283.87 518.567 283.86 526.633 280.489 533.491L279.174 534.275C277.587 533.001 280.485 526.355 280.682 524.25C281.243 518.233 278.562 512.855 277.32 507.119L277.224 506.656Z"/>
	<path d="M273.86 512.408C274.254 512.797 274.236 513.153 274.365 513.68C273.326 516.507 271.655 518.849 269.419 520.869C265.787 524.152 261.226 526.125 256.282 525.836C249.837 525.46 244.534 521.615 240.425 516.925C239.99 515.832 239.78 515.723 240.012 514.52C243.377 514.717 245.709 519.57 248.83 520.968C249.014 521.051 249.202 521.123 249.386 521.204C251.832 522.286 254.17 523.306 256.879 523.47C264.253 523.914 268.935 516.76 273.86 512.408Z"/>
	<path d="M332.567 498.74C332.988 499.135 333.367 499.667 333.737 500.114C333.91 502.967 332.177 505.578 330.316 507.617C326.853 511.411 321.807 514.26 316.591 514.332C309.383 514.432 303.628 509.982 298.81 505.149C298.41 504.474 298.245 503.794 298.018 503.047L298.612 502.526C302.243 503.289 305.737 508.14 309.03 510.087C312.26 511.996 316.029 512.635 319.657 511.603C326.25 509.728 329.564 504.39 332.567 498.74Z"/>
	<path d="M316.861 544.71C317.721 545.038 317.806 545.129 318.371 545.795C318.403 546.461 318.416 547.009 318.1 547.625C315.328 553.019 307.052 558.062 301.368 559.87C292.193 562.787 283.21 561.098 274.856 556.715C274.234 556.184 273.842 555.672 273.352 555.024L273.515 554.418C277.597 553.887 284.907 560.128 295.071 558.756C304.719 557.452 311.116 552.282 316.861 544.71Z"/>
	<path fill="#FFE2B3" d="M347.722 640.892C349.336 646.86 349.191 654.351 349.661 660.537L352.702 701.648L358.337 780.44C359.834 800.457 361.65 820.528 362.663 840.572C351.268 840.789 243.954 841.336 242.068 840.218L242.119 838.383L263.696 642.316C277.609 653.492 291.969 662.416 310.499 661.068C326.214 659.925 337.609 652.576 347.722 640.892Z"/>
	<path fill="#FEF9EF" d="M482.792 433.608C489.721 433.313 495.729 434.59 501.862 437.844C514.802 444.711 523.96 458.111 528.17 471.892C530.168 478.434 531.374 485.687 530.589 492.53C529.559 501.513 525.988 510.383 523.065 518.901C511.57 552.39 496.789 583.909 480.101 615.087L415.753 615.031C406.233 615.016 394.685 614.005 385.349 615.378C382.002 615.87 379.807 616.533 377.416 618.952C375.331 621.062 373.868 623.445 373.469 626.407C372.442 634.038 373.032 642.265 373.057 649.967L373.177 692.397L373.406 840.484L365.115 840.478C364.405 821.397 362.582 802.166 361.139 783.122L354.408 689.744C351.396 669.032 352.244 647.271 348.763 626.2C356.024 615.565 365.015 605.86 372.929 595.681L431.795 519.511C435.797 514.244 439.891 508.982 444.029 503.823C447.036 500.074 450.844 496.079 453.047 491.809C453.563 490.809 453.964 489.898 453.651 488.792C449.256 491.011 416.252 536.257 409.227 544.529C403.341 546.267 397.234 547.497 391.299 549.109Q372.599 554.238 354.048 559.88C354.672 553.705 354.534 547.621 354.099 541.438C358.314 540.547 362.005 538.759 365.236 535.876C369.832 531.776 372.753 525.713 372.857 519.531Q372.867 519.036 372.853 518.541Q372.838 518.045 372.8 517.552Q372.761 517.058 372.698 516.566Q372.635 516.075 372.548 515.587Q372.462 515.1 372.351 514.617Q372.24 514.134 372.106 513.657Q371.972 513.18 371.814 512.711Q371.657 512.241 371.476 511.78Q371.296 511.318 371.093 510.866Q370.89 510.414 370.666 509.973Q370.441 509.532 370.195 509.102Q369.949 508.672 369.682 508.254Q369.415 507.837 369.128 507.433Q368.841 507.03 368.534 506.641Q368.228 506.251 367.903 505.878Q367.577 505.504 367.234 505.147C363.111 500.922 358.278 499.468 352.548 499.528C351.874 493.263 350.203 487.066 349.287 480.815C357.335 476.866 366.385 474.242 374.84 471.212Q401.401 461.716 428.075 452.544C439.701 448.448 451.219 444.029 462.822 439.865C469.302 437.54 475.987 434.728 482.792 433.608Z"/>
	<path fill="#FEF9EF" d="M113.706 443.068C124.273 442.013 139.742 445.838 150.645 447.391Q186.253 452.352 221.802 457.722C208.974 482.046 207.325 497.129 208.69 524.376C201.187 524.964 193.712 526.178 186.264 527.245C178.395 518.34 171.182 508.758 163.765 499.474C160.079 494.859 156.292 489.259 151.723 485.546L151.061 485.864C151.284 487.43 151.981 488.534 152.882 489.801C160.554 500.595 169.832 511.073 178.109 521.482L205.429 555.181C212.495 563.994 219.241 573.045 226.439 581.759C238.337 596.162 250.702 610.168 262.566 624.604C262.655 638.18 260.089 652.433 258.642 665.963L249.329 751.425C245.566 781.105 242.814 810.892 238.983 840.562L167.514 840.542L167.582 736.568C167.566 728.337 168.788 708.824 167.164 701.725C165.454 694.253 157.722 681.519 154.326 673.89C135.08 630.662 113.576 588.413 93.8582 545.396C89.066 534.941 80.1282 520.022 77.616 509.486C74.1541 494.967 77.3517 476.042 85.2425 463.395Q85.8331 462.44 86.4702 461.516Q87.1073 460.592 87.7894 459.701Q88.4716 458.81 89.197 457.953Q89.9225 457.097 90.6895 456.277Q91.4565 455.458 92.2632 454.677Q93.0699 453.897 93.9143 453.157Q94.7587 452.418 95.6386 451.721Q96.5186 451.024 97.432 450.372Q98.3455 449.72 99.2901 449.113Q100.235 448.507 101.208 447.948Q102.182 447.39 103.182 446.88Q104.182 446.37 105.206 445.91Q106.23 445.451 107.275 445.043Q108.321 444.634 109.385 444.278Q110.45 443.922 111.531 443.62Q112.611 443.317 113.706 443.068Z"/>
	<path fill="#1DA0A8" d="M384.813 618.214C406.019 617.317 427.491 618.017 448.728 617.975L566.161 617.788L647.052 617.879C661.143 617.878 675.569 617.154 689.61 618.065C693.124 620.218 695.242 622.378 697.458 625.834C698.269 634.248 697.627 643.271 697.599 651.747L697.578 698.641L697.416 781.699C697.426 797.548 697.984 813.544 697.511 829.379C697.405 832.93 697.065 836.684 694.245 839.191C692.508 840.736 691.146 840.595 688.927 840.528L375.837 840.492Q375.172 771.465 375.62 702.439L375.779 655.814C375.783 647.199 375.348 638.301 375.903 629.717C376.062 627.254 376.392 624.957 377.764 622.844C379.423 620.288 381.892 618.845 384.813 618.214Z"/>
	<path fill="#FEF9EF" d="M534.976 704.624Q536.183 704.56 537.388 704.657Q538.593 704.753 539.775 705.007Q540.957 705.261 542.095 705.669Q543.233 706.077 544.307 706.631C548.29 708.673 551.09 712.324 552.374 716.576C553.755 721.151 553.349 726.159 550.886 730.293C547.918 735.272 543.469 737.307 538.07 738.555C534.145 738.629 530.754 738.077 527.35 735.985Q526.635 735.546 525.966 735.037Q525.298 734.529 524.683 733.957Q524.068 733.385 523.513 732.755Q522.959 732.125 522.469 731.443Q521.979 730.761 521.56 730.034Q521.14 729.306 520.795 728.541Q520.449 727.776 520.181 726.98Q519.914 726.184 519.726 725.366Q519.547 724.572 519.448 723.765Q519.349 722.957 519.331 722.144Q519.312 721.33 519.374 720.519Q519.436 719.708 519.578 718.907Q519.719 718.106 519.94 717.322Q520.16 716.539 520.457 715.782Q520.754 715.024 521.124 714.3Q521.494 713.575 521.934 712.891C524.997 708.085 529.61 705.856 534.976 704.624Z"/>
</svg>
