<?xml version="1.0" encoding="utf-8" ?>
<svg xmlns="http://www.w3.org/2000/svg" xmlns:xlink="http://www.w3.org/1999/xlink" width="1024" height="1024">
	<path fill="#FEFEFE" d="M0 0L1024 0L1024 1024L0 1024L0 0Z"/>
	<path fill="#FEE9E1" d="M940.281 687.262C955.987 696.567 972.214 706.114 977.206 725.041C982.239 744.12 973.193 767.99 965.03 785.26C961.38 792.979 956.967 800.321 953.988 808.347C948.771 804.612 915.999 808.618 906.302 806.663C913.563 802.992 920.354 798.804 926.078 792.948C932.892 785.977 938.015 777.199 940.297 767.693C943.198 755.609 941.214 737.762 940.869 725.026Q940.445 706.146 940.281 687.262Z"/>
	<path fill="#FEE9E1" d="M134.065 828.293L141.562 828.223C143.989 854.605 145.447 881.114 147.064 907.557C147.845 920.32 149.401 933.414 149.56 946.165C139.663 946.234 129.501 946.737 119.627 946.315C121.547 945.165 126.782 945.758 129.156 945.76C125.379 940.137 120.623 934.89 116.385 929.599C103.64 913.686 84.2692 889.152 86.5644 867.704C89.1245 843.78 118.495 840.82 134.065 828.293Z"/>
	<path fill="#FEE9E1" d="M133.408 784.124C123.319 773.523 116.249 760.543 107.958 748.598C102.774 741.13 97.1635 733.976 91.9294 726.55C85.4075 717.297 79.4605 707.726 73.3273 698.22C60.7205 678.68 47.9122 658.715 39.8072 636.78C28.6181 606.498 22.8302 565.028 54.4367 544.745C70.1325 534.673 91.2789 532.056 99.7398 513.328C103.271 505.511 103.016 497.035 101.006 488.839C96.571 470.753 85.9305 454.626 77.1743 438.433C66.4903 418.675 55.7425 398.516 47.665 377.534C35.3973 345.669 26.0508 307.06 40.7529 274.501C49.0583 256.108 63.7742 240.024 82.9469 232.805C104.86 224.554 121.442 231.207 139.228 244.755C144.598 248.845 150.086 253.724 156.315 256.42C160.095 258.056 164.559 258.783 168.449 257.076C184.228 250.152 182.501 218.557 182.647 204.355C182.738 195.442 182.8 186.463 183.427 177.572C184.248 165.933 186.105 154.646 190.625 143.82C196.615 129.471 207.574 118.349 222.058 112.517C237.289 106.384 255.578 107.82 270.477 114.171C279.464 118.001 297.179 127.945 301.051 137.5L791.493 137.489L791.6 246.692L791.551 281.067C791.533 287.402 791.246 293.896 791.604 300.208C792.576 307.814 798.766 313.023 804.542 317.455C808.375 320.396 813.244 322.746 818.19 322.049C823.919 321.241 829.002 316.442 832.196 311.84C840.398 300.021 842.293 283.94 845.111 270.133C852.094 235.923 863.136 193.844 902.92 186.297C921.188 182.832 939.066 186.957 954.258 197.532C970.024 208.508 979.776 225.747 983.035 244.485C986.403 263.854 982.41 282.499 974.259 300.152C969.083 311.362 962.425 322.354 955.691 332.692C944.056 350.554 917.573 381.998 942.986 400.231C948.968 404.523 956.321 406.98 962.92 410.201C978.747 417.926 990.832 431.73 993.982 449.35C1000.82 487.616 975.91 526.298 954.823 556.021C951.242 561.068 939.998 575.396 935.425 578.871C942.041 614.212 938.858 651.443 940.281 687.262Q940.445 706.146 940.869 725.026C941.214 737.762 943.198 755.609 940.297 767.693C938.015 777.199 932.892 785.977 926.078 792.948C920.354 798.804 913.563 802.992 906.302 806.663C915.999 808.618 948.771 804.612 953.988 808.347C955.8 815.598 954.609 839.36 954.571 847.965L953.997 946.519C961.329 946.563 992.933 945.381 997.501 947.047L997.847 947.8C997.486 948.117 997.351 948.28 996.849 948.472C993.321 949.827 944.718 949.104 937.5 949.104L756.642 948.786L258.925 948.845L105.978 948.727L52.754 948.812C45.6337 948.824 38.2997 949.323 31.2167 949.029C29.0885 948.94 26.8899 948.534 25.0086 947.518L25.236 947.045C33.4342 945.393 47.9595 946.455 56.8569 946.45L119.627 946.315C129.501 946.737 139.663 946.234 149.56 946.165C149.401 933.414 147.845 920.32 147.064 907.557C145.447 881.114 143.989 854.605 141.562 828.223L134.065 828.293C133.864 823.67 133.933 819.004 133.878 814.375C132.543 812.187 133.387 788.407 133.408 784.124Z"/>
	<path fill="#010000" d="M301.051 137.5L791.493 137.489L791.6 246.692L791.551 281.067C791.533 287.402 791.246 293.896 791.604 300.208C791.16 317.969 791.501 335.844 791.493 353.617L791.536 458.485C731.871 459.316 672.069 458.52 612.391 458.502L266.634 458.133C266.108 439.612 266.761 420.96 266.722 402.422L266.539 276.433L266.546 187.329C266.551 170.811 265.982 154.026 266.863 137.539C278.251 137.381 289.661 137.512 301.051 137.5Z"/>
	<path fill="#FEFEFE" d="M365.664 418.859C366.689 424.662 369.034 450.544 368.131 455.139L367.054 455.844C365.609 455.683 364.433 455.677 363.14 454.961C362.883 447.411 364.335 426.437 365.664 418.859Z"/>
	<path fill="#FEFEFE" d="M287.999 397.32Q300.513 397.229 313.026 397.331C311.986 411.408 311.372 425.534 310.458 439.623C310.444 440.866 310.605 440.28 309.95 441.374C309.732 441.42 309.517 441.485 309.296 441.51C305.576 441.934 300.123 438.664 297.442 436.297C287.692 427.686 288.82 409.358 287.999 397.32Z"/>
	<path fill="#FEFEFE" d="M364.349 162.703C364.587 162.679 364.824 162.65 365.062 162.631C372.082 162.059 380.635 165.407 385.754 170.006Q386.264 170.467 386.752 170.951Q387.239 171.436 387.703 171.944Q388.166 172.451 388.605 172.981Q389.044 173.51 389.456 174.06Q389.868 174.61 390.254 175.179Q390.639 175.748 390.997 176.335Q391.355 176.922 391.683 177.526Q392.012 178.13 392.312 178.749Q392.611 179.368 392.88 180Q393.149 180.633 393.388 181.277Q393.626 181.922 393.833 182.578Q394.04 183.233 394.215 183.898Q394.39 184.563 394.533 185.235Q394.676 185.908 394.786 186.586Q394.896 187.265 394.973 187.948Q395.051 188.631 395.095 189.317C395.529 196.739 393.465 204.102 388.514 209.757C388.171 206.607 387.992 203.206 387.071 200.164C383.824 189.44 371.65 186.463 367.341 176.15L367.309 175.455C366.57 174.559 366.64 174.55 365.497 174.395C364.267 175.473 364.124 176.404 363.643 177.967C361.288 185.628 353.199 190.153 347.38 195.186C343.095 198.893 341.651 202.55 341.251 208.09C338.544 203.448 336.19 198.292 335.67 192.883C334.999 185.904 337.409 178.769 341.842 173.386C347.718 166.25 355.47 163.524 364.349 162.703Z"/>
	<path fill="#FEFEFE" d="M521.306 230.258C525.52 229.947 528.642 230.161 532.216 232.628Q532.716 232.967 533.179 233.354Q533.643 233.741 534.066 234.173Q534.488 234.604 534.866 235.076Q535.243 235.547 535.572 236.054Q535.901 236.561 536.177 237.098Q536.454 237.635 536.675 238.197Q536.897 238.759 537.061 239.34Q537.225 239.921 537.331 240.516Q537.474 241.366 537.511 242.226Q537.549 243.087 537.48 243.946Q537.412 244.805 537.239 245.649Q537.066 246.493 536.79 247.309C534.248 254.886 520.2 279.376 515.382 286.592L511.538 283.607C504.94 278.295 498.368 272.977 491.303 268.292C497.88 258.667 502.373 247.281 509.349 238.078C512.445 233.995 516.132 230.976 521.306 230.258Z"/>
	<path fill="#FEFEFE" d="M365.664 179.496C371.327 187.877 382.408 192.984 384.862 201.299C385.89 204.78 386.053 208.807 386.458 212.419C382.706 215.175 378.905 216.428 374.522 217.789C374.391 224.915 373.234 234.621 374.554 241.514C375.923 242.57 377.833 242.407 379.495 242.482C374.784 253.572 369.626 264.589 364.57 275.53C358.668 265.422 354.497 253.407 350.161 242.528L356.175 242.282L356.193 217.917C354.213 217.357 352.33 216.644 350.461 215.79C347.695 214.525 344.804 212.799 343.8 209.745C340.856 200.789 353.759 193.722 359.021 188.623C361.847 185.886 363.841 182.969 365.664 179.496Z"/>
	<path fill="#FEFEFE" d="M317.537 374.546L417.006 374.554C418.392 401.418 418.673 428.613 418.968 455.514C412.291 455.526 374.135 456.566 371.156 454.941L371.034 453.12C370.446 445.937 369.259 414.224 366.736 410.297C365.599 409.943 365.246 410.045 364.107 410.254C361.955 412.197 360.801 449.388 360.456 455.384L312.169 455.418C313.836 428.474 315.186 401.438 317.537 374.546Z"/>
	<path fill="#F4793D" d="M382.402 242.388C391.037 242.359 412.526 241.183 419.922 242.96C431.525 245.746 440.513 277.398 453.197 287.495C456.701 290.283 460.832 291.919 465.348 291.279C476.544 289.692 483.801 278.105 490.048 269.922C497.992 276.206 505.942 282.554 513.39 289.426C508.109 298.116 501.389 306.886 493.847 313.69C484.93 321.734 474.193 328.668 461.737 327.93C441.581 326.736 429.346 308.1 417.228 294.485C416.79 300.085 417.048 305.846 417.044 311.466C417.002 331.567 417.188 351.704 416.691 371.798Q367.087 371.564 317.483 371.862C317.383 363.955 318.249 304.737 316.873 302.297L315.752 302.115C314.734 303.085 314.529 303.81 314.433 305.23C313.82 314.326 314.533 325.304 314.525 334.588C314.507 354.64 314.245 374.445 313.357 394.473L287.986 394.463L287.909 353.257C287.881 318.435 289.485 295.275 304.79 263.622C307.243 258.548 309.374 252.187 312.756 247.733C315.582 244.01 318.561 243.276 322.94 242.658C330.865 242.214 338.939 242.499 346.881 242.48C349.182 247.054 362.982 280.378 363.889 281.081C364.117 281.257 364.408 281.329 364.668 281.454C366.724 279.837 380 247.871 382.402 242.388Z"/>
	<path fill="#FEFEFE" d="M269.509 140.043L789.131 140.02L789.092 328.892C789.181 371.217 789.955 413.614 789.233 455.929C769.067 456.288 748.839 455.985 728.666 455.981L621.109 455.86L421.553 455.533C421.36 427.726 420.064 399.982 419.568 372.191C419.148 348.639 419.587 324.988 419.608 301.427C426.265 309.835 433.527 317.963 442.63 323.785C451.895 329.711 461.263 331.921 472.081 329.571C480.213 327.203 487.663 322.569 494.058 317.086C511.402 302.215 521.988 281.297 532.452 261.484C535.33 256.035 540.058 249.817 540.367 243.515C540.63 238.143 537.781 233.815 534.226 230.101C538.377 226.604 549.231 217.114 551.077 212.281L550.722 211.729C547.144 212.536 535.975 225.246 532.18 228.559C529.548 227.934 526.816 227.336 524.1 227.317C507.785 227.201 501.769 246.163 494.791 257.78C489.791 266.104 483.561 275.38 476.586 282.178C473.003 285.669 468.229 288.954 463.024 288.766C447.277 288.197 437.745 254.817 428.262 244.728C426.41 242.758 424.3 241.252 421.678 240.512C414.588 238.513 386.027 239.837 376.671 239.737Q376.546 229.945 376.812 220.156C384.547 217.422 390.628 213.295 394.302 205.668C398.031 197.924 398.787 188.225 395.818 180.117Q395.565 179.43 395.277 178.756Q394.99 178.082 394.669 177.424Q394.349 176.765 393.996 176.124Q393.643 175.482 393.258 174.858Q392.874 174.235 392.459 173.631Q392.044 173.028 391.599 172.446Q391.154 171.864 390.681 171.305Q390.208 170.745 389.708 170.211Q389.208 169.676 388.681 169.166Q388.155 168.657 387.604 168.174Q387.053 167.692 386.479 167.237Q385.904 166.783 385.308 166.358Q384.712 165.932 384.095 165.537Q383.478 165.142 382.842 164.778Q382.207 164.414 381.554 164.083Q380.901 163.751 380.232 163.452C371.885 159.643 361.567 159.235 352.986 162.513C345.145 165.508 338.29 171.586 335.019 179.394C331.63 187.485 332.752 195.581 335.957 203.449C339.362 211.81 345.464 216.282 353.49 219.664L353.503 239.474C344.805 239.815 321.254 238.14 314.502 242.257C305.53 247.728 291.964 286.151 289.612 296.758C287.727 305.254 286.392 314.225 285.733 322.897C284.696 336.539 285.251 350.534 285.214 364.215C285.166 381.967 284.223 405.852 287.496 423.169C288.204 426.914 289.414 430.434 291.543 433.626C296.062 440.402 302.501 442.955 310.143 444.436Q309.827 449.947 309.451 455.454L269.459 455.437C269.065 438.63 269.485 421.718 269.488 404.901L269.427 315.951L269.509 140.043Z"/>
	<path fill="#4666C9" d="M587.604 237.061C625.522 238.25 663.743 237.252 701.694 237.388Q701.825 251.24 701.61 265.091L587.56 264.943L587.604 237.061Z"/>
	<path fill="#FEE9E1" d="M517.98 174.24C530.415 173.997 542.924 174.337 555.364 174.384L626.147 174.56Q626.043 188.566 626.299 202.569L619.263 202.571L510.728 202.408C510.442 193.071 510.748 183.674 510.87 174.334L517.98 174.24Z"/>
	<path fill="#FEE9E1" d="M581.57 320.51L589.72 320.355C590.092 324.15 590.679 328.503 593.171 331.539C594.424 333.066 596.136 334.045 598.119 334.194C602.266 334.504 605.482 331.666 608.381 329.136C610.702 330.882 612.88 332.761 615.07 334.666C612.781 336.986 611.092 339.4 609.814 342.405C610.751 347.36 611.436 350.024 615.306 353.428C618.071 354.122 620.93 354.603 623.726 355.165C623.867 357.408 624.304 360.36 624.01 362.563C624.008 362.576 623.754 363.886 623.568 364.041C621.357 365.875 617.32 366.262 614.73 368.234C612.569 369.881 610.785 372.048 610.539 374.843C610.147 379.282 613.304 383.148 615.991 386.326C613.912 388.764 611.8 390.989 609.434 393.15C606.759 390.342 604.161 387.034 599.955 386.819C591.833 386.403 591.707 399.92 589.032 402.337L581.69 402.006C580.989 397.957 580.523 394.449 577.655 391.254C575.896 389.295 573.428 387.964 570.768 387.877C566.676 387.741 563.849 390.12 561.042 392.767C558.224 390.766 555.799 388.429 553.529 385.839C555.853 383.344 557.775 380.899 559.422 377.913C558.537 374.114 557.57 370.66 555.915 367.116C552.534 365.889 549.064 365.228 545.547 364.515C545.372 361.425 545.381 358.4 545.487 355.308C548.67 354.824 552.036 354.502 554.823 352.755C558.383 350.522 559.322 346.995 560.211 343.162C558.674 340.027 556.89 337.202 554.928 334.315C557.222 332.445 559.316 330.343 561.45 328.294C564.396 330.854 566.899 333.672 570.961 334.222C573.022 334.501 575.026 333.986 576.663 332.696C580.448 329.712 580.94 324.929 581.57 320.51Z"/>
	<path fill="#FEFEFE" d="M582.873 341.249C587.495 341.202 591.854 341.967 595.892 344.33Q596.326 344.584 596.747 344.86Q597.167 345.136 597.574 345.432Q597.98 345.729 598.371 346.045Q598.763 346.361 599.137 346.697Q599.512 347.032 599.87 347.385Q600.228 347.739 600.568 348.11Q600.907 348.481 601.228 348.868Q601.549 349.256 601.85 349.659Q602.151 350.062 602.432 350.479Q602.713 350.897 602.972 351.327Q603.232 351.758 603.47 352.201Q603.708 352.645 603.923 353.099Q604.139 353.554 604.331 354.019Q604.524 354.483 604.693 354.957Q604.862 355.431 605.007 355.912Q605.153 356.394 605.274 356.882Q605.41 357.403 605.519 357.93Q605.627 358.457 605.709 358.989Q605.791 359.521 605.846 360.056Q605.901 360.592 605.928 361.129Q605.955 361.667 605.955 362.205Q605.955 362.743 605.928 363.281Q605.9 363.818 605.845 364.354Q605.79 364.889 605.708 365.421Q605.626 365.953 605.517 366.48Q605.408 367.007 605.272 367.528Q605.136 368.049 604.974 368.562Q604.812 369.075 604.624 369.579Q604.436 370.084 604.222 370.578Q604.009 371.072 603.77 371.554Q603.532 372.037 603.269 372.507Q603.006 372.976 602.72 373.432C599.087 379.107 593.55 382.252 587.139 383.781C581.699 384.023 576.764 383.087 572.257 379.851C567.559 376.479 564.149 371.261 563.268 365.515C562.414 359.95 563.807 354.024 567.234 349.536C571.233 344.298 576.586 342.2 582.873 341.249Z"/>
	<path fill="#FEE9E1" d="M725.627 337.751C728.17 337.265 730.465 337.293 733.036 337.472C746.254 338.393 757.735 344.415 766.344 354.503C772.856 362.132 777.642 373.953 776.907 384.103C776.064 384.882 775.847 385.039 774.661 385.185C770.315 385.719 765.514 385.307 761.116 385.3L733.247 385.245Q743.871 395.074 754.216 405.198C757.398 408.298 761.107 411.414 763.738 414.974C761.743 417.288 758.534 418.826 756.23 420.882L755.683 421.377C747.793 426.499 739.47 429.633 729.994 429.836C717.025 430.115 705.32 425.043 696.09 415.991Q695.293 415.214 694.536 414.398Q693.779 413.582 693.064 412.729Q692.348 411.877 691.676 410.99Q691.003 410.103 690.375 409.183Q689.748 408.264 689.167 407.315Q688.585 406.366 688.052 405.389Q687.519 404.412 687.034 403.41Q686.55 402.407 686.116 401.382Q685.682 400.357 685.299 399.312Q684.917 398.267 684.587 397.204Q684.256 396.141 683.979 395.063Q683.702 393.985 683.479 392.894Q683.256 391.804 683.087 390.704Q682.918 389.604 682.804 388.496Q682.69 387.389 682.631 386.278Q682.572 385.166 682.568 384.053C682.502 370.609 688.106 359.55 697.572 350.154C704.342 343.434 715.973 337.724 725.627 337.751Z"/>
	<path fill="#010000" d="M861.007 466.23C859.672 464.983 858.462 464.043 857.904 462.26C857.946 460.577 858.402 459.629 859.61 458.501C868.065 450.599 882.383 447.246 893.633 448.078C907.664 449.117 920.035 456.414 929.07 466.981C947.831 488.921 949.423 518.184 955.056 545.06L925.059 545.012C929.701 555.89 933.515 567.165 935.425 578.871C942.041 614.212 938.858 651.443 940.281 687.262Q940.445 706.146 940.869 725.026C941.214 737.762 943.198 755.609 940.297 767.693C938.015 777.199 932.892 785.977 926.078 792.948C920.354 798.804 913.563 802.992 906.302 806.663C915.999 808.618 948.771 804.612 953.988 808.347C955.8 815.598 954.609 839.36 954.571 847.965L953.997 946.519C961.329 946.563 992.933 945.381 997.501 947.047L997.847 947.8C997.486 948.117 997.351 948.28 996.849 948.472C993.321 949.827 944.718 949.104 937.5 949.104L756.642 948.786L258.925 948.845L105.978 948.727L52.754 948.812C45.6337 948.824 38.2997 949.323 31.2167 949.029C29.0885 948.94 26.8899 948.534 25.0086 947.518L25.236 947.045C33.4342 945.393 47.9595 946.455 56.8569 946.45L119.627 946.315C129.501 946.737 139.663 946.234 149.56 946.165C149.401 933.414 147.845 920.32 147.064 907.557C145.447 881.114 143.989 854.605 141.562 828.223L134.065 828.293C133.864 823.67 133.933 819.004 133.878 814.375C134.89 776.45 133.788 738.339 133.914 700.391C126.633 700.198 102.605 701.62 97.4153 699.034C96.8887 698.018 96.7045 697.191 96.6127 696.043C96.2999 692.13 95.9412 673.436 98.1347 670.911C104.625 668.85 125.674 669.969 133.731 669.988C134.089 662.095 133.084 654.102 134.298 646.265C133.33 645.549 132.377 644.8 131.596 643.874C129.535 641.43 128.21 637.709 128.716 634.509C129.176 631.603 131.207 628.525 132.759 626.051C138.489 616.915 145.275 608.364 151.505 599.556C158.872 589.142 173.981 565.794 182.464 558.28C189.553 552.001 197.986 553.546 200.608 551.722L200.868 548.852C201.18 549.768 201.581 550.52 202.071 551.353C206.089 553.415 213.824 552.246 218.393 552.204Q218.434 544.123 218.276 536.043C214.358 534.332 211.023 532.236 207.911 529.298C199.499 521.355 195.745 511.765 195.488 500.361C192.948 500.435 190.44 500.601 187.91 500.817C180.848 498.762 174.402 494.758 170.721 488.206Q170.411 487.648 170.13 487.074Q169.849 486.5 169.599 485.913Q169.348 485.326 169.128 484.726Q168.908 484.127 168.719 483.517Q168.53 482.907 168.373 482.288Q168.216 481.669 168.091 481.043Q167.966 480.416 167.873 479.784Q167.781 479.152 167.721 478.517Q167.661 477.881 167.634 477.243Q167.607 476.605 167.613 475.966Q167.62 475.328 167.659 474.69Q167.698 474.053 167.77 473.418Q167.841 472.784 167.946 472.154Q168.051 471.524 168.188 470.9Q168.325 470.276 168.493 469.66Q168.662 469.044 168.863 468.438C170.716 462.693 174.537 457.884 179.964 455.148Q180.485 454.882 181.019 454.641Q181.553 454.401 182.099 454.187Q182.644 453.974 183.199 453.787Q183.754 453.601 184.318 453.442Q184.881 453.283 185.452 453.152Q186.023 453.022 186.599 452.919Q187.176 452.817 187.757 452.743Q188.338 452.669 188.921 452.624Q189.505 452.579 190.091 452.563Q190.676 452.547 191.261 452.56Q191.847 452.572 192.431 452.614Q193.015 452.656 193.596 452.727Q194.178 452.797 194.755 452.896Q195.332 452.995 195.903 453.123Q196.475 453.25 197.039 453.406Q197.604 453.562 198.16 453.745C200.211 454.43 207.669 459.373 207.888 459.378C209.222 459.408 209.137 458.323 209.926 459.936C211.641 463.444 213.208 468.011 214.437 471.74C224.647 467.041 237.018 464.545 247.903 468.476C254.576 470.887 260.266 475.621 263.296 482.112C264.251 484.158 265.737 487.433 265.099 489.746C264.864 490.595 264.357 491.376 263.865 492.095C261.16 496.038 262.387 531.529 262.076 539.128L246.911 539.066L246.919 552.039C259.681 551.982 265.671 554.009 274.82 563.124C285.745 574.01 295.053 586.952 305.032 598.75L321.289 617.837C325.344 622.565 329.913 627.336 333.134 632.685C335.696 636.939 337.31 642.228 337.323 647.196C337.341 654.191 334.366 660.671 329.399 665.532C327.477 667.414 325.16 669.011 322.864 670.404L446.663 670.488C440.401 665.698 435.313 660.498 434.299 652.242C433.713 647.47 434.979 642.954 437.126 638.726C440.914 631.265 447.709 623.576 452.716 616.717C464.414 600.693 476.025 584.251 488.457 568.802C494.43 561.38 501.287 557.333 510.791 556.329C517.478 555.622 524.415 555.971 531.134 555.998L531.16 535.496C524.77 531.367 520.348 525.444 518.716 517.958C517.06 510.361 518.784 501.637 523.126 495.179C527.258 489.033 533.479 485.258 540.709 483.941Q541.372 483.815 542.042 483.722Q542.711 483.629 543.383 483.571Q544.056 483.513 544.731 483.489Q545.406 483.465 546.082 483.475Q546.757 483.486 547.431 483.531Q548.105 483.576 548.776 483.655Q549.446 483.734 550.112 483.848Q550.778 483.961 551.437 484.108Q552.096 484.255 552.747 484.436Q553.398 484.616 554.039 484.83Q554.68 485.043 555.309 485.289Q555.938 485.535 556.553 485.813Q557.169 486.091 557.77 486.399Q558.371 486.708 558.955 487.047Q559.539 487.386 560.105 487.754Q560.671 488.122 561.218 488.519C567.319 492.876 571.723 499.774 572.866 507.204C574.101 515.232 571.761 523.046 566.88 529.413C564.887 532.012 562.546 534.061 560.004 536.114C560.027 542.714 559.882 549.363 560.124 555.956C572.378 555.866 586.012 553.791 595.492 563.153C599.726 567.334 603.198 572.466 606.772 577.211C613.889 586.659 620.721 596.306 627.713 605.845L641.203 624.17C644.113 628.083 647.388 631.995 649.815 636.23C652.011 640.061 653.263 643.472 653.295 647.918C653.346 654.82 650.881 660.835 646.008 665.73C644.324 667.42 642.452 668.81 640.46 670.109L694.692 670.126C690.613 666.966 687.023 663.5 686.31 658.101C685.696 653.462 687.316 648.512 690.226 644.897C693.417 640.933 697.398 639.452 702.355 639.02C712.333 638.148 722.846 638.786 732.87 638.794L790.359 638.818C798.68 638.81 807.681 639.516 815.928 638.595C817.782 638.388 819.787 638.096 821.097 636.631C824.282 633.067 826.4 627.23 827.96 622.734C814.193 622.45 737.484 623.907 731.224 621.434C726.35 611.479 722.034 593.673 718.484 582.381Q710.177 556.247 702.426 529.943C700.241 522.636 697.576 515.324 695.749 507.938C695.4 506.528 695.034 505.033 695.417 503.591C695.703 502.515 696.348 501.588 697.427 501.199C698.859 500.681 700.484 501.019 701.751 501.8C703.035 502.593 704.06 503.862 704.617 505.26C705.481 507.427 705.764 509.837 706.499 512.057L713.601 533.959C721.882 560.28 729.478 586.993 738.391 613.093Q785.703 613.489 833.016 613.346L850.058 577.434C853.42 570.336 858.523 556.593 863.594 551.215C867.688 546.874 873.237 545.103 878.686 543.129C880.292 534.94 881.5 526.896 882.115 518.566C877.74 518.599 866.177 519.851 863.271 516.606C861.879 515.053 861.373 512.233 861.135 510.245C860.522 505.127 860.904 499.649 860.916 494.482L861.007 466.23Z"/>
	<path fill="#FEFEFE" d="M170.772 632.419C172.038 633.936 171.09 642.06 170.995 644.393L161.664 644.324L161.304 644.057C161.823 641.078 168.461 634.967 170.772 632.419Z"/>
	<path fill="#FEFEFE" d="M277.415 627.353C282.584 632.697 287.816 638 292.134 644.078L277.212 644.123C277.035 638.548 277.3 632.93 277.415 627.353Z"/>
	<path fill="#FEFEFE" d="M533.766 537.081C542.208 540.396 548.686 540.449 557.344 537.528L557.363 554.555L557.201 555.405C555.069 556.661 537.433 555.967 533.701 555.96C533.639 549.693 533.297 543.332 533.766 537.081Z"/>
	<path fill="#FEFEFE" d="M821.737 876.404C822.785 882.566 822.357 942.703 821.419 945.857L820.29 946.57C818.617 942.948 818.284 934.451 816.779 929.681C814.838 923.531 811.313 918.253 808.825 912.335C811.37 905.166 813.218 897.725 815.901 890.605C817.751 885.696 820.282 881.554 821.737 876.404Z"/>
	<path fill="#FEFEFE" d="M488.067 937.247L537.558 937.172C538.322 939.806 540.124 943.752 538.734 946.287L536.625 946.424L484.3 946.432C484.7 943.916 484.863 940.21 486.166 938.063C486.653 937.261 487.215 937.415 488.067 937.247Z"/>
	<path fill="#FEFEFE" d="M549.991 936.993L604.938 937.023C605.73 940.042 606.588 943.054 607.176 946.121L606.512 946.517L547.998 946.479Q548.955 941.728 549.991 936.993Z"/>
	<path fill="#F4793D" d="M736.185 917.201C738.624 916.995 741.128 917.172 743.574 917.233Q736.224 927.132 729.522 937.481L701.636 937.48L693.273 937.471C694.374 936.011 695.467 934.527 696.672 933.15C706.466 921.954 721.98 918.195 736.185 917.201Z"/>
	<path fill="#FEFEFE" d="M749.429 910.012Q777.537 909.744 805.645 910.031L808.481 918.617L803.741 920.24C785.531 925.655 764.112 923.234 746.748 916.173C747.766 914.16 748.6 912.107 749.429 910.012Z"/>
	<path fill="#FEFEFE" d="M691.383 940.136L816.898 940.124C817.081 942.235 817.167 944.357 817.286 946.472L689.529 946.43C690.029 944.304 690.734 942.221 691.383 940.136Z"/>
	<path fill="#F4793D" d="M99.8396 672.62C111.243 672.292 122.688 672.467 134.097 672.454C134.102 676.794 135.07 695.343 133.352 697.909Q116.212 697.841 99.0728 697.595C98.99 692.454 97.7191 676.346 99.8396 672.62Z"/>
	<path fill="#FEFEFE" d="M544.216 854.346C544.347 854.469 544.508 854.565 544.609 854.713C545.647 856.232 554.163 906.368 553.974 909.412C553.601 915.434 550.997 922.152 549.496 928.008C548.079 933.534 547.038 939.408 545.206 944.803C544.886 945.747 544.496 946.219 543.781 946.882C543.214 946.372 542.795 945.971 542.427 945.267C540.494 941.575 540.189 936.064 539.094 931.955C537.294 925.2 534.174 917.66 533.574 910.716C533.123 905.49 542.404 862.982 544.216 854.346Z"/>
	<path fill="#F4793D" d="M745.944 918.904C766.219 926.491 789.687 928.581 810.369 921.173C813.253 926.455 815.06 931.734 816.45 937.578L806.875 937.59L732.685 937.413C736.825 931.043 741.409 924.995 745.944 918.904Z"/>
	<path fill="#FEFEFE" d="M863.587 467.751C866.242 469.098 868.853 470.899 871.141 472.801C884.364 483.799 887.076 498.962 889.195 515.173C890.029 521.554 890.908 527.951 891.517 534.356C891.695 536.23 892.459 540.557 891.263 542.006L888.787 542.238L881.099 542.478C883.156 533.75 884.613 525.055 884.5 516.065C880.392 516.015 876.279 516.321 872.17 516.333C869.53 516.341 866.557 516.401 864.593 514.469C861.955 507.123 863.511 476.876 863.587 467.751Z"/>
	<path fill="#F4793D" d="M492.773 903.918C504.448 904.036 519.627 905.382 530.266 910.185C532.99 917.984 534.783 926.386 536.958 934.373L531.25 934.466L486.664 934.497C489.024 924.383 490.816 914.116 492.773 903.918Z"/>
	<path fill="#FEFEFE" d="M757.02 885.485Q785.855 885.359 814.69 885.586L807.711 907.448C788.534 906.617 769.075 907.32 749.867 907.394Q752.834 896.24 757.02 885.485Z"/>
	<path fill="#FEFEFE" d="M250.303 483.834C250.874 486.602 251.186 491.899 253.389 493.842C255.375 495.594 257.239 495.559 259.793 495.622Q259.543 516.061 259.511 536.5L244.401 536.502C243.891 541.699 244.122 547.063 244.095 552.285L231.25 552.284L221.062 552.271C221.14 548.957 219.97 539.294 221.702 536.899C224.343 536.512 226.765 536.212 228.782 534.281C234.5 528.806 233.202 515.6 233.539 508.239L234.148 508.139C234.433 508.089 234.717 508.032 235.003 507.985C235.916 507.833 236.671 507.749 237.491 507.296C244.644 503.348 248.195 491.101 250.303 483.834Z"/>
	<path fill="#F4793D" d="M594.35 900.206C595.685 899.981 596.815 899.921 597.966 900.601C601.108 911.268 602.208 923.234 604.346 934.201C590.034 934.752 575.597 934.401 561.27 934.412Q555.818 934.399 550.366 934.306Q553.989 921.511 557.174 908.6C568.533 902.99 581.86 901.319 594.35 900.206Z"/>
	<path fill="#FEFEFE" d="M592.989 828.108C600.922 828.07 608.867 827.945 616.794 828.262C616.852 839.074 615.365 850.237 614.589 861.059C612.873 884.985 610.908 908.955 609.442 932.892L608.486 941.28C602.582 915.582 599.587 889.47 596.67 863.314C595.374 851.682 593.474 839.79 592.989 828.108Z"/>
	<path fill="#FEFEFE" d="M144.047 828.238Q155.953 828.027 167.858 828.25C164.231 864.153 162.627 900.29 158.608 936.124C158.521 938.4 158.579 940.848 158.242 943.095C158.022 944.566 157.584 945.106 156.478 946.034C155.063 946.163 153.986 946.199 152.58 945.851C152.235 945.354 152.081 944.997 152.025 944.39C150.202 924.723 149.52 904.835 148.225 885.119C146.98 866.149 145.104 847.22 144.047 828.238Z"/>
	<path fill="#FEFEFE" d="M470.367 828.014L496.689 828.005C495.827 841.289 493.616 854.661 492.285 867.933C490.907 881.665 490.671 895.78 488.865 909.416C487.838 917.173 485.925 924.998 484.39 932.681C483.599 936.328 483.631 942.069 481.545 945.109C480.885 946.072 480.594 946.036 479.515 946.27C478.699 945.557 478.798 944.906 478.656 943.843C478.238 940.73 478.514 937.394 478.336 934.235C477.931 927.041 477.375 919.853 476.882 912.665Q474.362 870.283 470.367 828.014Z"/>
	<path fill="#FEFEFE" d="M268.347 828.103C277.373 827.891 286.435 828.039 295.465 828.023Q289.96 882.279 285.396 936.621C285.322 939.714 284.792 942.929 284.48 946.016L278.137 945.996C276.048 928.749 275.087 911.308 273.631 893.994C271.788 872.08 269.584 850.05 268.347 828.103Z"/>
	<path fill="#4666C9" d="M574.979 828.25C579.92 828.234 584.865 828.319 589.805 828.36C591.671 837.619 592.465 847.464 593.488 856.856Q595.578 877.06 598.105 897.215C587.386 898.03 577.063 899.302 566.681 902.245C563.194 903.373 559.761 904.645 556.32 905.905C554.18 895.788 552.747 885.397 550.954 875.199C549.219 865.341 546.423 854.284 546.341 844.319C546.298 839.129 547.958 833.438 549.004 828.344L574.979 828.25Z"/>
	<path fill="#4666C9" d="M499.615 828.337L545.931 828.409C541.914 852.385 536.22 876.12 532.553 900.121L531.186 907.259C518.254 903.786 505.538 901.75 492.162 901.286C493.16 877.893 495.978 851.522 499.615 828.337Z"/>
	<path fill="#F4793D" d="M301.859 672.772C354.846 673.85 407.939 672.777 460.943 673.113L460.964 697.469L301.823 697.494L301.859 672.772Z"/>
	<path fill="#FEFEFE" d="M883.935 450.657C897.29 449.343 909.462 452.766 919.885 461.365C941.501 479.197 949.092 515.699 951.833 542.535C944.283 542.64 936.72 542.528 929.169 542.504L894.546 542.369C894.361 530.712 893.056 518.665 890.832 507.21C885.904 481.82 880.657 475.877 859.833 461.814C866.221 455.268 875.132 452.192 883.935 450.657Z"/>
	<path fill="#F4793D" d="M628.247 672.607C663.504 673.004 698.801 672.54 734.062 672.461L880.903 672.618C880.919 679.088 881.909 691.136 880.664 696.86L879.754 697.249C855.19 696.994 830.592 697.316 806.024 697.295L628.348 697.263L628.247 672.607Z"/>
	<path fill="#FEE9E1" d="M170.155 828.139C187.616 828.064 205.261 827.54 222.698 828.336C222.516 837.844 216.872 943.635 216.101 945.302C215.969 945.588 215.712 945.797 215.518 946.045L213.625 946.118Q187.022 945.98 160.419 946.123C160.707 933.186 162.753 919.908 163.809 906.971Q166.657 867.528 170.155 828.139Z"/>
	<path fill="#FEFEFE" d="M196.254 555.098C197.002 555.022 197.731 554.952 198.482 554.928C208.049 554.628 217.723 554.932 227.304 554.92C235.838 554.909 251.909 553.531 259.667 555.772C263.75 556.952 267.791 559.965 270.88 562.835C277.105 568.62 282.428 575.684 287.855 582.201L307.15 605.101C313.513 612.7 327.259 627.423 331.824 635.408C333.691 638.675 334.554 642.905 334.644 646.664Q334.659 647.252 334.644 647.841Q334.629 648.429 334.585 649.016Q334.54 649.603 334.465 650.187Q334.391 650.771 334.286 651.35Q334.182 651.929 334.049 652.503Q333.915 653.076 333.753 653.641Q333.59 654.207 333.399 654.764Q333.208 655.321 332.989 655.867Q332.77 656.413 332.523 656.948Q332.277 657.482 332.003 658.003Q331.73 658.524 331.43 659.031Q331.13 659.538 330.805 660.028Q330.48 660.519 330.13 660.992Q329.781 661.466 329.408 661.921Q329.034 662.376 328.638 662.812Q328.243 663.247 327.825 663.662C320.375 670.998 311.193 670.073 301.627 670.036C301.492 663.765 302.594 655.803 301.108 649.805C300.696 648.139 279.696 625.711 276.393 621.908C275.922 622.273 275.454 622.832 275.034 623.26C273.285 628.384 274.427 638.626 274.515 644.229L173.887 644.357C173.908 639.629 175.181 631.088 172.965 626.953L172.051 626.716C169.193 628.256 159.7 640.721 156.587 644.201C149.416 644.694 142.088 644.071 134.872 644.332C133.322 642.588 132.119 641.142 131.627 638.815C130.568 633.806 134.145 628.471 136.846 624.481C146.918 609.6 157.731 595.042 168.38 580.561C173.189 574.021 178.013 565.69 184.123 560.385C187.766 557.222 191.649 556.004 196.254 555.098Z"/>
	<path fill="#4666C9" d="M514.104 558.735C527.768 558.317 541.531 558.662 555.207 558.627C563.916 558.605 573.726 557.65 582.297 559.072C585.734 559.642 588.705 560.977 591.468 563.096C597.954 568.072 603.779 577.854 608.743 584.556L632.075 616.243C637.453 623.622 643.712 630.813 648.282 638.704C649.504 640.814 649.995 643.259 650.267 645.66C650.941 651.603 649.503 657.511 645.652 662.152C640.988 667.773 635.378 669.587 628.395 670.115C628.422 661.143 628.758 652.052 628.211 643.098C610.148 642.081 591.691 642.719 573.584 642.78L485.625 642.826C482.796 642.83 465.21 643.528 463.712 643.173C463.449 643.111 463.211 642.97 462.961 642.869L463.42 643.234L461.772 643.315C459.863 647.842 460.863 664.646 460.873 670.465C454.551 670.472 449.213 669.446 444.179 665.343C439.988 661.927 437.275 657.142 436.834 651.727C436.509 647.736 437.243 644.809 439.039 641.295C444.346 630.91 454.071 619.75 461.061 610.185L479.578 584.948C483.655 579.372 487.589 573.549 492.07 568.295C497.915 561.442 505.449 559.413 514.104 558.735Z"/>
	<path fill="#F4793D" d="M840.674 810.153L872.719 810.284C879.917 810.334 887.816 810.914 894.934 809.702C898.734 809.054 902.6 807.758 906.302 806.663C915.999 808.618 948.771 804.612 953.988 808.347C955.8 815.598 954.609 839.36 954.571 847.965L953.997 946.519L863.775 946.601C849.342 946.609 834.693 945.959 820.29 946.57L821.419 945.857C822.357 942.703 822.785 882.566 821.737 876.404C827.952 854.342 833.83 832.018 840.674 810.153Z"/>
	<path fill="#FEFEFE" d="M833.818 932.519C856.578 931.795 879.557 932.465 902.341 932.49L924.686 932.521C928.682 932.529 933.054 932.18 936.999 932.767C937.76 933.945 937.535 934.416 937.439 935.786C926.233 935.467 836.978 936.045 834.709 934.643C833.999 934.204 834.016 933.275 833.818 932.519Z"/>
	<path fill="#FEFEFE" d="M834.442 839.152C853.945 838.364 873.717 838.916 893.244 838.902C907.529 838.892 922.337 838.095 936.562 839C937.668 839.993 937.501 840.591 937.706 842.031L866.984 842.051L845.662 842.012C842.952 842.012 840.067 842.372 837.392 842.165C836.147 842.069 835.791 841.867 834.797 841.173L834.442 839.152Z"/>
	<path fill="#FEFEFE" d="M850.803 887.234Q878.505 887.021 906.207 887.112C915.161 887.116 924.417 886.527 933.326 887.142C934.986 887.256 936.764 887.396 938.103 888.468L937.846 889.064C933.669 891.517 926.107 890.488 921.25 890.435Q888.971 890.552 856.693 890.293C850.147 890.208 842.165 891.099 835.814 889.893C834.67 889.675 834.026 889.498 833.391 888.488L833.893 887.584C839.343 886.954 845.293 887.296 850.803 887.234Z"/>
	<path fill="#FEFEFE" d="M789.014 742.658C794.525 741.9 800.632 742.334 806.194 742.35L836.636 742.424L938.596 742.458C938.905 745.944 939 749.516 939.039 753.017C939.206 768.05 934.385 780.755 923.791 791.569C907.931 807.76 891.725 807.87 870.535 807.758Q854.791 807.628 839.046 807.726C834.457 820.503 830.836 834.007 827.25 847.107C823.995 859.054 820.672 871.055 816.871 882.84Q764.554 883.176 712.238 882.692C715.624 870.052 721.122 857.883 725.524 845.57L742.998 796.812C747.2 785.179 750.613 771.235 757.895 761.149C765.365 750.801 776.614 744.718 789.014 742.658Z"/>
	<path fill="#FEFEFE" d="M885.169 545.185C897.117 544.108 909.722 544.944 921.728 545.004C935.578 570.062 936.37 600.886 937.01 628.754Q937.554 649.752 937.604 670.757Q937.9 705.225 938.544 739.689Q898.734 740.01 858.922 739.858C858.974 726.458 858.4 712.986 858.222 699.578Q870.865 699.504 883.507 699.612L883.415 670.244C874.176 670.068 864.913 670.177 855.67 670.116C861.258 657.899 867.161 645.84 872.687 633.589C873.804 631.11 875.331 628.798 876.337 626.281C877.223 624.067 877.905 621.644 877.877 619.255L877.308 619.324C875.248 622.398 873.628 625.555 872.028 628.888Q862.683 649.532 852.988 670.013L751.82 669.782L721.3 669.899C715.438 669.936 709.402 670.248 703.559 669.812C700.788 669.605 698.233 669.175 695.864 667.643C692.667 665.576 689.864 661.947 689.168 658.15C688.482 654.412 689.446 650.181 691.693 647.12C693.48 644.686 696.103 642.821 699.053 642.119C707.155 640.189 717.297 641.367 725.688 641.394Q758.53 641.527 791.371 641.313C799.657 641.265 810.106 642.27 818.117 641.085C820.566 640.722 821.918 639.5 823.411 637.616C828.777 630.844 832.977 619.206 836.755 611.177L855.962 570.835C858.681 565.082 861.175 557.894 865.139 552.943C869.367 547.663 878.763 545.832 885.169 545.185Z"/>
	<path fill="#FEFEFE" d="M206.373 646.748L235.126 646.658L273.161 646.845C280.294 646.851 288.187 646.194 295.251 647.182C296.136 647.306 296.938 647.479 297.537 648.184C298.488 649.304 298.779 650.497 298.872 651.941C299.408 660.267 299.052 668.879 299.102 677.245Q299.202 709.405 298.819 741.563L298.858 788.305C298.896 800.637 299.126 813.041 298.129 825.342C275.52 825.682 252.864 825.445 230.25 825.5L136.498 825.529L136.453 700.611L136.463 668.643C136.452 661.811 135.964 654.579 137.118 647.836C138.335 646.957 139.098 646.927 140.612 646.842C148.145 646.418 155.929 646.876 163.483 646.889L206.373 646.748Z"/>
	<path fill="#FEFEFE" d="M463.944 645.637C488.049 644.873 512.368 645.528 536.492 645.506C566.228 645.479 596.05 644.929 625.778 645.471C626.205 676.955 625.801 708.523 625.8 740.016C625.798 768.494 626.258 797.036 625.65 825.504C571.673 826.268 517.577 825.558 463.588 825.451L463.411 702.743L463.381 667.213C463.382 660.17 462.855 652.587 463.944 645.637Z"/>
	<path fill="#FEE9E1" d="M301.792 700.275C318.974 699.103 338.679 700.02 356.09 700.022L460.958 700.008L461.011 827.694L467.701 828.047C469.919 847.201 471.059 866.619 472.449 885.853C473.907 906.029 475.586 926.219 476.175 946.442L459.25 946.379L339.883 946.439C341.885 910.27 347.226 873.891 351.361 837.911C352.956 824.032 356.497 805.568 355.712 792.094Q355.602 790.311 355.392 788.538Q355.182 786.764 354.873 785.005Q354.564 783.246 354.156 781.507Q353.749 779.768 353.244 778.055Q352.74 776.341 352.14 774.659Q351.54 772.977 350.847 771.331Q350.154 769.685 349.369 768.08Q348.584 766.476 347.711 764.918C337.591 746.488 321.113 737.876 301.644 732.214Q301.616 716.244 301.792 700.275Z"/>
	<path fill="#FEE9E1" d="M678.117 699.751L855.626 699.654C855.636 713.001 856.387 726.342 856.343 739.692L820.123 739.68C807.685 739.677 793.078 738.167 781.158 741.745C771.044 744.782 761.797 751.501 755.64 760.063C748.966 769.343 745.774 781.362 741.931 792.031L719.327 855.013C715.782 864.669 712.655 875.58 707.728 884.616L707.386 885.234C716.064 885.702 724.917 885.35 733.615 885.352Q744.015 885.355 754.415 885.491C750.593 895.22 748.231 905.502 744.566 915.297C729.57 913.031 712.844 916.931 700.53 925.846C692.96 931.326 688.497 937.134 687.047 946.475L611.083 946.458C611.545 931.1 613.357 915.713 614.431 900.381C616.117 876.309 617.336 852.183 619.584 828.153L628.321 828.025C628.983 785.374 628.392 742.602 628.47 699.94C645.011 699.662 661.574 699.788 678.117 699.751Z"/>
</svg>
