<?xml version="1.0" encoding="utf-8" ?>
<svg xmlns="http://www.w3.org/2000/svg" xmlns:xlink="http://www.w3.org/1999/xlink" width="1024" height="1024">
	<path fill="#FEFEFE" d="M0 0L1024 0L1024 1024L0 1024L0 0Z"/>
	<path fill="#D1E1DD" d="M125.913 862.562C123.271 861.747 120.919 860.46 118.552 859.058C110.372 854.217 102.112 849.212 94.5192 843.481C71.8874 826.399 40.0538 794.348 32.99 766.419C28.3247 747.973 32.0445 731.177 41.6501 714.998L87.6756 760.759C97.5779 770.458 107.788 779.834 117.508 789.722C119.181 800.737 120.21 811.882 121.457 822.956Q123.882 842.737 125.913 862.562Z"/>
	<path fill="#D1E1DD" d="M31.6743 594.215C35.6901 590.889 40.0184 587.792 42.3465 582.973C52.8219 561.292 21.3789 524.904 35.537 490.299C40.2012 478.898 49.8554 467.472 61.397 462.666C71.4962 458.461 85.0005 458.036 95.1148 462.373C122.365 474.058 141.588 523.304 149.183 550.099C150.4 554.394 151.728 558.73 152.631 563.103C153.576 567.676 153.896 572.855 155.637 577.18C155.695 577.325 155.76 577.469 155.822 577.613C149.628 590.396 145.627 601.914 144.06 616.148C138.58 616.146 133.091 616.072 127.616 616.33C126.495 626.687 127.198 645.319 127.616 656.165Q115.145 656.228 102.673 656.154L100.205 655.974C97.7795 656.254 95.2737 656.418 92.8742 656.85C91.9856 657.54 91.297 658.092 90.2475 658.538C83.9199 651.458 76.9862 644.762 70.3834 637.93Q50.4625 617.086 29.9635 596.81L31.6743 594.215Z"/>
	<path fill="#020202" d="M31.6743 594.215C33.5131 598.126 86.4834 651.816 92.8742 656.85C91.9856 657.54 91.297 658.092 90.2475 658.538C83.9199 651.458 76.9862 644.762 70.3834 637.93Q50.4625 617.086 29.9635 596.81L31.6743 594.215Z"/>
	<path fill="#020202" d="M100.205 655.974C98.2301 634.872 94.8951 613.624 91.6602 592.669C89.2038 576.758 70.5729 470.343 71.7831 465.672L72.213 465.423L72.8786 466.718L72.7711 466.276C76.6117 477.284 77.4152 492.753 79.4356 504.585Q88.5376 556.864 96.3122 609.356C100.408 599.005 131.879 515.326 134.074 513.475L134.928 513.983C135.109 514.882 135.053 515.364 134.777 516.244C131.372 527.108 126.299 537.947 122.112 548.581C116.539 562.736 111.465 577.079 105.905 591.236C103.627 597.037 98.3684 607.567 97.4764 613.023C96.5161 618.897 101.791 647.835 102.673 656.154L100.205 655.974Z"/>
	<path fill="#020202" d="M190.097 499.344C186.824 497.065 184.494 495.286 183.771 491.09C183.378 488.81 183.64 486.543 184.043 484.286C185.629 475.403 187.73 466.546 189.443 457.673L208.934 356.886L232.409 231.94C236.548 209.647 240.174 187.207 244.725 164.996C245.552 160.959 246.351 155.707 248.874 152.355C250.991 149.544 253.687 149.113 257.04 148.717C265.384 147.733 274.43 148.362 282.838 148.349L331.755 148.293L497.519 148.373L722.036 148.156L784.782 148.317C796.321 148.313 808.373 147.611 819.84 148.591C822.932 150.633 824.34 152.37 825.957 155.689C825.466 162.55 824.034 169.318 822.949 176.102Q819.834 195.893 816.339 215.62L800.64 309.342L787.667 389.267C785.538 402.326 784.045 416.248 780.82 429.062C780.91 428.889 781.002 428.717 781.09 428.543C784.144 422.477 785.7 415.701 788.467 409.49Q788.847 408.645 789.249 407.811Q789.651 406.977 790.075 406.153Q790.498 405.329 790.943 404.516Q791.387 403.703 791.852 402.902Q792.317 402.101 792.803 401.312Q793.288 400.524 793.794 399.748Q794.3 398.971 794.825 398.209Q795.351 397.446 795.895 396.697Q796.44 395.948 797.004 395.213Q797.568 394.478 798.151 393.758Q798.734 393.038 799.334 392.333Q799.935 391.628 800.554 390.939Q801.173 390.25 801.81 389.577Q802.446 388.904 803.1 388.248Q803.753 387.591 804.423 386.952Q805.093 386.312 805.78 385.69Q806.466 385.068 807.168 384.464Q807.87 383.86 808.588 383.274Q809.305 382.688 810.037 382.121Q810.77 381.554 811.516 381.005Q812.263 380.457 813.023 379.928Q813.784 379.399 814.558 378.89Q815.331 378.381 816.118 377.892Q816.905 377.403 817.703 376.934Q818.502 376.465 819.313 376.017Q820.124 375.569 820.946 375.142Q821.768 374.715 822.6 374.309Q823.433 373.903 824.276 373.519Q825.119 373.135 825.971 372.772Q826.823 372.41 827.685 372.07Q828.546 371.729 829.416 371.411Q830.286 371.093 831.164 370.797C837.464 368.636 864.328 363.37 866.776 358.558C868.608 354.957 868.528 349.491 868.809 345.501C866.59 346.013 862.352 347.446 860.33 346.262C857.129 339.222 857.935 330.001 856.263 322.418C859.388 316.208 860.398 310.454 861.283 303.604C859.486 302.553 857.366 301.648 856.263 299.823C855.795 297.753 856.139 296.55 857.249 294.814C861.831 287.646 870.595 282.517 878.827 280.946C886.854 279.414 895.195 280.95 901.965 285.607Q902.58 286.021 903.174 286.466Q903.768 286.911 904.339 287.384Q904.91 287.858 905.457 288.36Q906.003 288.862 906.524 289.39Q907.045 289.918 907.539 290.472Q908.033 291.026 908.498 291.604Q908.964 292.181 909.4 292.782Q909.836 293.382 910.241 294.003Q910.646 294.625 911.02 295.266Q911.394 295.906 911.736 296.565Q912.077 297.224 912.385 297.899Q912.693 298.574 912.967 299.263Q913.241 299.953 913.48 300.655Q913.719 301.358 913.923 302.071Q914.127 302.784 914.295 303.507Q914.462 304.23 914.594 304.96C916.071 313.013 914.062 322.148 909.383 328.868C905.373 334.627 899.68 337.674 893.056 339.398C893.413 344.549 893.383 356.301 897.191 359.918C900.425 362.988 912.257 364.642 917.091 366.282C951.891 378.082 973.115 407.909 978.467 443.578C980.139 454.722 979.44 466.499 979.427 477.746L979.451 527.899Q979.511 552.375 979.316 576.851C979.283 585.35 979.961 594.26 978.765 602.672C977.688 610.245 974.903 617.207 970.318 623.356C964.474 631.194 957.441 635.693 948.346 638.947C947.705 664.777 948.345 690.614 948.312 716.445L948.114 847.732C949.308 855.714 948.585 864.592 948.597 872.697C948.63 894.631 947.688 916.548 947.937 938.468Q959.681 938.514 971.424 938.441C975.267 938.413 979.8 937.932 983.545 938.502C984.639 938.669 985.458 939.089 986.302 939.78C984.493 941.267 973.482 940.456 970.801 940.448L313.276 940.36L130.063 940.339L74.1957 940.313C65.607 940.297 56.3751 941.038 47.8627 940.14C46.7517 940.023 45.2141 940.09 44.475 939.208C50.1239 937.453 94.3572 938.482 103.993 938.421C98.4137 934.681 93.15 934.386 87.4211 928.931C76.5975 918.625 71.977 892.877 71.8063 878.057C71.776 875.421 72.0463 872.022 74.2233 870.187C76.4232 868.332 120.845 869.293 126.701 869.322C126.522 867.065 126.19 864.81 125.913 862.562Q123.882 842.737 121.457 822.956C120.21 811.882 119.181 800.737 117.508 789.722C107.788 779.834 97.5779 770.458 87.6756 760.759L41.6501 714.998L42.4589 713.119C46.4423 706.262 50.1862 699.09 52.5337 691.491C59.1963 669.924 49.0659 658.295 39.5143 640.254C32.7307 627.441 25.4026 611.581 29.9635 596.81Q50.4626 617.086 70.3834 637.93C76.9862 644.762 83.9199 651.458 90.2475 658.538C91.297 658.092 91.9856 657.54 92.8742 656.85C95.2737 656.418 97.7795 656.254 100.205 655.974L102.673 656.154Q115.145 656.228 127.616 656.165C127.198 645.319 126.495 626.687 127.616 616.33C133.091 616.072 138.58 616.146 144.06 616.148C145.627 601.914 149.628 590.396 155.822 577.613C169.823 555.341 189.829 538.357 215.919 532.45C219.788 531.575 223.727 531.087 227.654 530.554L227.891 512.614C221.257 509.357 217.135 505.964 213.185 499.74C205.523 499.788 197.724 500.118 190.097 499.344Z"/>
	<path fill="#FEFEFE" d="M723.779 521.123Q730.875 520.849 737.976 520.747L737.956 530.94L723.852 531.03L723.779 521.123Z"/>
	<path fill="#FEFEFE" d="M661.65 907.107C663.52 899.751 668.737 873.203 672.374 869.407C675.361 872.875 673.99 883.619 673.916 888.233C672.956 894.401 673.433 901.253 673.555 907.501C670.185 907.542 664.697 908.267 661.65 907.107Z"/>
	<path fill="#FEFEFE" d="M244.316 512.19C244.894 511.987 245.272 512.094 245.869 512.166C247.463 515.401 246.292 526.562 246.204 530.549Q239.041 530.313 231.875 530.417C230.77 530.395 230.738 530.602 229.869 529.823C228.649 524.711 229.557 518.166 229.75 512.877C234.717 513.097 239.397 512.976 244.316 512.19Z"/>
	<path fill="#D1E1DD" d="M673.555 907.501C673.433 901.253 672.956 894.401 673.916 888.233C674.215 904.945 673.801 921.677 673.858 938.393L653.987 938.335C656.367 927.877 659.186 917.54 661.65 907.107C664.697 908.267 670.185 907.542 673.555 907.501Z"/>
	<path fill="#FEFEFE" d="M871.923 905.025C872.956 887.527 872.094 869.534 872.078 851.975L872.069 737.46C872.087 718.95 871.289 700.119 872.143 681.658C873.008 680.794 873.385 681.034 874.563 680.951L874.581 841.798L874.607 885.064C874.616 891.227 875.443 898.803 874.391 904.81C873.476 905.048 872.864 905.143 871.923 905.025Z"/>
	<path fill="#D1E1DD" d="M106.677 680.349L106.905 679.699C109.409 678.086 124.095 678.913 128.029 678.915C128.044 685.908 128.849 693.819 127.861 700.705C126.54 709.915 117.29 726.555 113.357 735.941C111.332 717.477 109.588 698.691 106.677 680.349Z"/>
	<path fill="#5475B9" d="M127.616 656.165C127.198 645.319 126.495 626.687 127.616 616.33C128.591 637.064 128.05 658.15 128.029 678.915C124.095 678.913 109.409 678.086 106.905 679.699L106.677 680.349C106.179 679.528 105.449 679.322 104.624 678.858C99.6284 679.314 93.489 679.624 89.4086 676.175C87.4197 674.494 86.0719 672.077 85.8869 669.463C85.6172 665.654 87.8442 661.355 90.2475 658.538C91.297 658.092 91.9856 657.54 92.8742 656.85C95.2737 656.418 97.7795 656.254 100.205 655.974L102.673 656.154Q115.145 656.228 127.616 656.165Z"/>
	<path fill="#FEFEFE" d="M620.351 870.44Q636.121 870.226 651.889 870.532C648.68 882.894 644.784 895.864 642.813 908.475Q631.567 908.386 620.323 908.586Q620.191 889.512 620.351 870.44Z"/>
	<path fill="#D1E1DD" d="M127.735 708.816C128.849 712.27 128.118 717.577 128.06 721.259C127.685 744.759 126.029 758.893 139.843 779.511Q132.094 792.476 123.417 804.839C122.967 805.611 123.275 805.205 122.388 805.967C120.792 803.822 114.691 747.81 113.54 739.851C119.073 730.139 122.97 718.981 127.735 708.816Z"/>
	<path fill="#5475B9" d="M791.458 907.027L805.224 907C807.499 917.401 809.636 927.977 811.218 938.506C803.545 938.492 754.489 939.371 751.054 937.881C750.454 936.764 750.639 936.791 750.829 935.612C751.064 936.514 750.835 936.136 751.498 936.757C753.376 935.496 758.851 928.113 761.91 925.325C767.141 920.555 773.959 915.502 781.009 913.945C784.21 913.238 787.466 913.088 790.478 911.708C791.73 910.143 791.404 908.994 791.458 907.027Z"/>
	<path fill="#D1E1DD" d="M620.323 908.586Q631.567 908.386 642.813 908.475C640.455 918.363 637.672 928.458 636.152 938.503L587.825 938.512C589.723 931.371 591.202 924.976 596.319 919.298C602.14 912.84 609.396 909.244 618.144 908.858L620.323 908.586Z"/>
	<path fill="#FEFEFE" d="M948.333 570.961L977.059 571.078C977.337 576.302 977.211 581.613 977.243 586.847C977.339 602.398 975.968 613.564 965.566 625.795C960.28 631.234 955.13 634.178 948.221 637.312C947.712 615.291 947.742 592.983 948.333 570.961Z"/>
	<path fill="#FEFEFE" d="M863.159 305.799C868.629 309.518 873.687 313.338 878.83 317.485C879.34 317.087 880.067 316.418 880.674 316.217C881.849 315.828 882.903 315.98 883.906 316.724C884.907 317.467 885.594 319.006 885.644 320.253C885.707 321.839 885.18 323.35 884.061 324.489C882.081 326.503 879.68 326.437 877.041 326.538L877.161 333.562C881.517 337.205 885.481 338.568 890.925 339.771C891.037 347.062 892.327 355.189 895.32 361.871L895.657 362.02C905.341 366.403 915.521 366.922 926.421 372.551L888.95 372.45L834.064 372.581C844.696 368.902 858.943 366.673 868.5 361.327C870.003 355.779 870.485 350.188 870.984 344.486C872.353 343.817 873.472 343.297 874.517 342.142C873.307 341.411 865.911 344.339 863.549 344.137C862.684 344.063 861.526 343.685 861.041 342.907C859.825 340.957 859.168 325.509 859.503 322.778C860.189 317.172 862.26 311.479 863.159 305.799Z"/>
	<path fill="#FEFEFE" d="M308.275 802.248L320.692 802.203Q330.439 846.588 338.797 891.255C341.806 906.814 345.641 922.613 347.249 938.384L333.787 938.384C332.631 927.584 329.726 916.638 327.722 905.943L314.752 837.917C312.43 826.217 309.258 814.139 308.275 802.248Z"/>
	<path fill="#FEFEFE" d="M685.703 803.073L695.91 803.079Q695.729 839.338 695.96 875.597C696.027 886.515 695.526 897.673 696.263 908.558C690.385 907.088 682.711 907.969 676.64 907.983C676.665 897.876 677.286 887.39 676.417 877.332C676.136 865.901 675.537 853.211 676.915 841.89C678.489 828.958 682.408 815.659 685.703 803.073Z"/>
	<path fill="#FEFEFE" d="M698.105 870.465C714.902 870.002 731.818 870.468 748.628 870.521Q748.742 881.189 748.583 891.857C748.108 897.168 748.308 902.566 748.327 907.896L712.51 908.154C708 908.204 702.35 907.642 697.957 908.561C698.52 895.931 698.08 883.117 698.105 870.465Z"/>
	<path fill="#5475B9" d="M871.787 611.139C877.724 609.027 900.905 598.851 905.661 600.004C902.814 604.875 880.126 611.041 874.123 613.663C875.043 627.997 874.408 642.739 874.415 657.116C888.638 657.091 902.938 656.749 917.152 657.11L917.305 681.067L888.012 681.255C883.825 681.266 878.641 681.77 874.563 680.951C873.385 681.034 873.008 680.794 872.143 681.658C871.289 700.119 872.087 718.95 872.069 737.46L872.078 851.975C872.094 869.534 872.956 887.527 871.923 905.025C870.902 899.233 871.635 892.112 871.635 886.196L871.62 844.558L871.513 680.772L849.504 680.707L849.546 657.066L871.53 657.138L871.485 627.455C871.475 622.086 871.125 616.464 871.787 611.139Z"/>
	<path fill="#FEFEFE" d="M871.787 611.139C877.724 609.027 900.905 598.851 905.661 600.004C902.814 604.875 880.126 611.041 874.123 613.663C873.187 620.711 875.223 654.09 873.46 656.887L872.543 656.899C871.302 655.299 872.212 617.697 871.83 611.748L871.787 611.139Z"/>
	<path fill="#FEFEFE" d="M179.334 802.247C184.189 802.46 189.107 802.299 193.971 802.398C191.597 815.955 188.149 829.354 185.355 842.83L165.831 938.336L150.751 938.314C155.721 919.176 159.228 899.539 163.234 880.174Q171.68 841.292 179.334 802.247Z"/>
	<path fill="#FEFEFE" d="M668.108 803.344C673.263 803.21 678.432 803.296 683.589 803.307C677.476 827.64 672.9 852.195 667.208 876.605C662.439 897.052 656.515 917.257 652.13 937.787L651.784 938.231C647.54 939.073 642.41 938.485 638.059 938.449C646.095 903.323 654.466 868.272 661.835 833.001C663.903 823.106 666.347 813.303 668.108 803.344Z"/>
	<path fill="#FEFEFE" d="M288.42 802.474L305.575 802.471Q306.36 860.397 306.09 918.328C300.222 915.59 294.338 912.896 288.611 909.869C287.635 874.09 288.253 838.263 288.42 802.474Z"/>
	<path fill="#FEFEFE" d="M799.104 802.742L801.223 802.798C802.41 803.829 802.76 805.397 803.065 806.89C805.528 818.951 807.29 831.251 809.594 843.365L828.211 938.432L816.375 938.437C815.278 938.482 814.6 938.494 813.588 938.045C813.255 937.52 812.898 936.996 812.714 936.395C812.031 934.159 812.215 931.503 811.724 929.168Q807.948 911.73 804.618 894.201L793.465 834.801C791.435 824.152 788.852 813.613 787.244 802.888Q793.174 802.858 799.104 802.742Z"/>
	<path fill="#D1E1DD" d="M675.937 938.413L676.093 900.247C676.127 892.638 675.918 884.922 676.417 877.332C677.286 887.39 676.665 897.876 676.64 907.983C682.711 907.969 690.385 907.088 696.263 908.558L697.957 908.561C702.35 907.642 708 908.204 712.51 908.154L748.327 907.896C748.308 902.566 748.108 897.168 748.583 891.857C749.584 907.201 748.839 923.019 748.803 938.406L675.937 938.413Z"/>
	<path fill="#FEFEFE" d="M811.722 488.36C812.972 493.627 811.856 509.031 811.811 515.299Q811.599 542.632 811.846 569.964C801.511 555.428 788.375 544.788 772.213 537.395Q768 535.636 763.624 534.338Q759.247 533.039 754.757 532.216C751.611 531.638 743.86 531.812 741.518 530.211C740.36 529.42 740.268 528.817 740.008 527.558C740.235 526.953 740.372 526.165 740.873 525.731C743.317 523.615 751.233 521.457 754.885 519.025C760.365 515.377 764.569 510.767 768.662 505.661C773.295 506.648 777.881 506.871 782.579 506.239C794.686 504.608 804.417 497.922 811.722 488.36Z"/>
	<path fill="#FEFEFE" d="M709.74 328.659C709.992 328.717 710.247 328.768 710.498 328.833C717.683 330.701 732.152 367.42 737.698 375.897C738.569 377.228 739.433 378.63 741.086 378.967C744.123 376.378 738.765 366.076 741.78 361.64C742.71 360.272 743.621 359.813 745.203 359.51C746.273 360.118 746.642 360.39 747.275 361.497C749.337 365.098 750.619 369.652 752.113 373.553C757.027 386.375 761.062 399.971 766.823 412.404C750.62 418.531 735.405 427.591 719.242 433.951L715.072 426.229C711.404 419.754 693.529 384.201 693.873 380.541C694.657 379.196 695.261 378.836 696.565 378.088C699.492 378.684 702.222 385.183 703.962 387.669L704.424 387.593C703.898 383.621 702.222 380.276 700.662 376.621C702.434 375.133 704.332 373.82 706.213 372.475C708.621 376.885 710.748 381.445 713.098 385.888L713.961 385.724C714.914 383.03 709.653 374.306 708.373 371.549C712.165 369.189 715.642 367.984 719.935 366.954C722.305 372.376 723.568 377.745 727.354 382.477C725.221 371.813 718.427 356.388 714.176 345.938C712.474 341.757 709.879 336.81 709.175 332.344C708.977 331.091 709.376 329.847 709.74 328.659Z"/>
	<path fill="#D1E1DD" d="M141.188 781.539C151.96 792.491 162.228 798.697 177.311 802.059L175.65 810.442Q171.835 829.637 167.64 848.752C166.172 855.593 164.344 862.586 163.318 869.494L141.244 869.468C137.77 869.46 133.784 869.836 130.367 869.262C129.188 869.064 129.435 869.023 128.81 868.127L127.803 860.893Q124.948 835.645 122.35 810.369C128.468 800.657 135.143 791.321 141.188 781.539Z"/>
	<path fill="#FEFEFE" d="M127.803 860.893C139.476 852.666 150.474 841.659 159.476 830.565C164.492 824.384 169.225 814.91 175.65 810.442Q171.835 829.637 167.64 848.752C166.172 855.593 164.344 862.586 163.318 869.494L141.244 869.468C137.77 869.46 133.784 869.836 130.367 869.262C129.188 869.064 129.435 869.023 128.81 868.127L127.803 860.893Z"/>
	<path fill="#5475B9" d="M948.114 847.732C949.308 855.714 948.585 864.592 948.597 872.697C948.63 894.631 947.688 916.548 947.937 938.468L830.243 938.429C828.653 927.899 826.054 917.526 824.716 906.952C865.803 906.977 907.01 906.276 948.08 907.114C948.774 887.355 947.701 867.508 948.114 847.732Z"/>
	<path fill="#FEFEFE" d="M759.442 802.996L785.115 802.89C786.825 813.635 790.078 824.368 791.18 835.14C792.052 843.665 791.549 852.659 791.538 861.226L791.458 907.027C791.404 908.994 791.73 910.143 790.478 911.708C787.466 913.088 784.21 913.238 781.009 913.945C773.959 915.502 767.141 920.555 761.91 925.325C758.851 928.113 753.376 935.496 751.498 936.757C750.835 936.136 751.064 936.514 750.829 935.612C751.514 914.005 750.613 892.139 750.669 870.504L759.347 870.408L759.442 802.996Z"/>
	<path fill="#5475B9" d="M128.81 868.127C129.435 869.023 129.188 869.064 130.367 869.262C133.784 869.836 137.77 869.46 141.244 869.468L163.318 869.494C158.192 892.382 154.225 915.595 148.631 938.361C133.769 938.01 118.858 938.257 103.993 938.421C98.4137 934.681 93.15 934.386 87.4211 928.931C76.5975 918.625 71.977 892.877 71.8063 878.057C71.776 875.421 72.0463 872.022 74.2233 870.187C76.4232 868.332 120.845 869.293 126.701 869.322L128.002 869.222L128.81 868.127Z"/>
	<path fill="#5475B9" d="M376.823 514.575L529.09 514.518C519.356 561.541 508.353 608.385 497.954 655.273L318.805 655.655C324.685 651.797 328.981 648.255 333.051 642.499L439.171 642.498L470.863 642.554C477.558 642.575 484.377 642.357 491.04 643.025C493.793 627.759 497.862 612.621 501.293 597.489L517.352 523.469C472.831 523.366 428.262 524.004 383.75 523.311C375.587 562.426 366.162 601.346 358.571 640.567L349.737 640.518C350.809 630.627 353.812 620.305 355.904 610.558L368.78 552.215C371.604 539.744 374.92 527.222 376.823 514.575Z"/>
	<path fill="#FEFEFE" d="M196.094 802.479C206.207 802.174 216.372 802.364 226.491 802.346L226.674 938.479L198.75 938.416Q183.425 938.438 168.101 938.226C171.286 918.652 176.076 899.187 180.187 879.789L196.094 802.479Z"/>
	<path fill="#D1E1DD" d="M42.4589 713.119C46.4423 706.262 50.1862 699.09 52.5337 691.491C59.1963 669.924 49.0659 658.295 39.5143 640.254C32.7307 627.441 25.4026 611.581 29.9635 596.81Q50.4626 617.086 70.3834 637.93C76.9862 644.762 83.9199 651.458 90.2475 658.538C87.8442 661.355 85.6172 665.654 85.8869 669.463C86.0719 672.077 87.4197 674.494 89.4086 676.175C93.489 679.624 99.6284 679.314 104.624 678.858C104.814 689.648 107.173 700.915 108.485 711.683L113.227 754.043C114.502 764.768 116.173 775.511 117.186 786.255Q93.0845 763.139 69.4175 739.578C61.2602 731.484 51.1786 720.223 42.4589 713.119Z"/>
	<path fill="#F16E6D" d="M738.269 533.235C757.216 532.25 776.134 539.692 790.875 551.254Q791.782 551.978 792.671 552.723Q793.56 553.469 794.431 554.235Q795.302 555.002 796.154 555.789Q797.006 556.577 797.839 557.385Q798.672 558.192 799.485 559.02Q800.298 559.848 801.091 560.695Q801.884 561.542 802.656 562.408Q803.428 563.274 804.179 564.158Q804.93 565.043 805.66 565.945Q806.389 566.848 807.096 567.767Q807.804 568.687 808.489 569.624Q809.174 570.56 809.836 571.513Q810.498 572.466 811.137 573.434Q811.776 574.403 812.391 575.386Q813.006 576.37 813.598 577.368Q814.189 578.367 814.756 579.379Q815.323 580.391 815.865 581.417Q816.408 582.442 816.925 583.481Q817.443 584.519 817.935 585.57Q818.427 586.621 818.894 587.683Q819.361 588.745 819.802 589.818Q820.243 590.892 820.657 591.975Q821.072 593.059 821.461 594.152Q821.849 595.245 822.211 596.348Q822.573 597.45 822.908 598.561Q823.244 599.672 823.552 600.79Q823.86 601.909 824.141 603.034Q824.423 604.16 824.677 605.292Q824.93 606.424 825.157 607.562Q825.383 608.7 825.582 609.843Q825.781 610.987 825.952 612.134Q826.124 613.282 826.267 614.433L685.578 614.522L678.083 614.547C677.804 627.291 678.073 640.094 678.091 652.844C675.053 653.719 671.903 654.455 668.736 654.591C660.222 654.957 652.396 651.136 646.322 645.381C639.836 639.236 636.11 631.169 635.889 622.221C635.387 601.906 652.083 575.013 665.739 560.903C680.162 546 697.808 535.87 718.698 533.787C725.135 533.146 731.793 533.332 738.269 533.235Z"/>
	<path fill="#FEFEFE" d="M385.3 525.348C401.051 525.054 416.857 525.327 432.614 525.317Q473.852 525.161 515.089 525.522C507.786 555.484 501.721 585.838 494.851 615.913C492.991 624.055 491.364 632.254 489.256 640.336C485.44 641.342 461.798 640.544 456.361 640.538L360.511 640.509Q368.614 601.501 377.314 562.621C380.044 550.212 382.419 537.723 385.3 525.348Z"/>
	<path fill="#FEFEFE" d="M725.25 616.751Q786.175 616.42 847.099 616.82L847.453 708.702C847.48 723.52 848.982 747.892 845.804 761.531C843.879 769.791 839.176 777.577 833.283 783.609C816.251 801.04 801.631 800.933 778.872 801.092L747.099 801.362L625.876 801.123Q625.917 784.074 625.783 767.026Q653.03 766.779 680.278 766.926C680.953 716.923 680.432 666.822 680.508 616.81L725.25 616.751Z"/>
	<path fill="#FEFEFE" d="M227.127 617.751C251.296 617.682 275.513 617.379 299.677 617.792L299.526 765.44L358.84 765.527L358.688 800.094L261.36 800.095L210.269 800.051C198.983 800.073 182.699 801.441 171.957 798.709C162.49 796.302 153.538 790.875 146.631 784.014C139.306 776.738 133.665 767.009 131.356 756.915C128.463 744.27 130.232 717.05 130.254 702.861L129.916 618.172C162.245 617.199 194.776 617.835 227.127 617.751Z"/>
	<path fill="#FEFEFE" d="M261.182 499.451Q294.54 499.186 327.898 499.288L453.234 499.357L689.522 499.353C697.89 513.466 705.425 520.549 721.277 525.058L721.424 531.119C695.788 533.598 674.706 545.656 658.378 565.552C646.701 579.779 631.932 605.675 633.759 624.54C634.694 634.188 639.117 642.682 646.614 648.853C653.497 654.518 662.169 657.731 671.13 656.839C673.244 656.628 675.224 656.176 677.269 655.598C678.365 656.439 678.151 656.676 678.436 657.969L548.546 658.072C541.166 658.083 504.37 659.034 499.778 657.631Q510.668 605.764 522.335 554.065C525.362 540.211 529.053 526.442 531.521 512.472L429.346 512.538C411.38 512.528 393.322 512.894 375.368 512.439L347.242 640.396L334.329 640.381C340.317 620.514 336.388 603.352 326.699 585.282C314.23 562.029 290.673 542.085 265.307 534.451C259.698 532.763 253.886 531.762 248.113 530.823Q248.507 520.476 248.471 510.122C253.412 507.001 257.626 504.161 261.182 499.451Z"/>
	<path fill="#5475B9" d="M826.872 374.452C836.724 375.495 847.517 374.604 857.475 374.582L923.303 374.462C925.811 374.48 928.49 374.495 930.909 375.201C938.024 377.279 945.71 384.805 950.753 389.998C962.583 402.179 970.391 417.385 974.338 433.846C979.302 454.554 977.485 478.227 977.468 499.507Q977.61 534.271 977.219 569.034Q962.759 568.948 948.299 569.021C947.893 556.246 948.223 543.369 948.245 530.582L948.379 461.307C948.397 452.501 949.5 429.722 947.862 422.757L947.314 422.47C946.527 423.879 946.508 425.595 946.443 427.177C945.593 447.82 946.355 468.779 946.374 489.457Q945.981 534.956 946.349 580.455L883.625 580.281L817.017 580.176C815.731 577.351 814.832 574.712 814.481 571.615C813.059 559.067 813.958 545.643 813.958 533.008L814.368 448.724C814.359 442.796 815.238 428.025 814.252 423.141L813.426 422.737L812.549 423.317C812.172 429.277 812.411 435.372 812.402 441.347C812.38 455.566 812.616 469.836 812.21 484.048C808.77 489.554 804.703 494.321 799.249 497.922C790.383 503.776 780.243 505.568 769.893 503.447C772.979 495.932 775.121 488.951 774.957 480.735C774.723 469.048 769.741 458.422 761.314 450.364C748.962 438.554 738.112 437.898 721.811 438.255C720.758 437.566 720.827 437.336 720.33 436.235C724.809 432.961 731.947 430.714 737.086 428.384Q753.043 421.05 768.919 413.544C772.739 419.441 785.24 436.038 785.467 442.663C785.63 447.437 784.017 452.683 784.901 457.345L785.691 457.539C786.356 456.865 786.489 456.837 786.788 455.859C789.21 447.936 787.228 438.321 783.576 431.217Q785.226 424.038 787.753 417.12C794.846 397.596 808.009 383.197 826.872 374.452Z"/>
	<path fill="#FEFEFE" d="M499.778 657.631C504.37 659.034 541.166 658.083 548.546 658.072L678.436 657.969C676.766 667.829 678.539 687.816 678.531 698.885C678.528 702.322 678.876 706.384 678.162 709.721C665.532 706.327 654.616 710.712 643.661 717.089C628.689 725.803 618.121 741.517 613.852 758.161C610.265 772.142 611.804 796.619 611.761 811.821C611.706 831.319 611.167 851.02 612.021 870.494L618.264 870.568C618.111 883.319 617.844 896.108 618.144 908.858C609.396 909.244 602.14 912.84 596.319 919.298C591.202 924.976 589.723 931.371 587.825 938.512L417.04 938.494C410.979 926.252 388.47 915.492 376.502 908.766C375.673 876.821 376.118 844.757 376.12 812.8C376.121 798.324 376.996 783.328 375.77 768.934C374.213 750.637 366.028 734.041 351.822 722.282C337.305 710.266 320.638 706.985 302.291 708.612C301.083 702.944 301.9 695.385 301.947 689.564L302.09 657.665L429.827 657.517C453.049 657.511 476.601 656.64 499.778 657.631Z"/>
	<path fill="#5475B9" d="M499.778 657.631C504.37 659.034 541.166 658.083 548.546 658.072L678.436 657.969C676.766 667.829 678.539 687.816 678.531 698.885C678.528 702.322 678.876 706.384 678.162 709.721C677.19 700.496 677.943 690.524 677.949 681.222L302.358 681.321C302.115 690.375 303.032 699.593 302.291 708.612C301.083 702.944 301.9 695.385 301.947 689.564L302.09 657.665L429.827 657.517C453.049 657.511 476.601 656.64 499.778 657.631Z"/>
	<path fill="#FEFEFE" d="M211.621 497.56C205.579 497.672 192.066 499.404 187.552 495.399C186.152 494.158 185.533 492.183 185.47 490.357C185.249 483.863 188.521 471.955 189.852 465.062L202.432 400.749L231.856 245.013C236.862 218.097 241.206 190.923 246.736 164.119C247.506 160.385 248.215 155.401 250.987 152.589C251.297 152.275 251.944 151.547 252.343 151.352C254.804 150.153 260.048 150.189 262.735 150.136C293.014 149.533 323.413 150.054 353.705 150.032L543.924 150.098L738.679 150.068C763.288 150.094 788.008 149.533 812.599 149.931C815.234 149.974 819.42 150.327 821.411 152.291C822.26 153.128 822.948 154.161 823.653 155.12C823.652 164.161 821.296 173.867 819.877 182.83C816.436 204.578 812.456 226.223 808.855 247.944L787.934 374.575L781.851 411.852C781.093 416.677 780.712 421.623 779.806 426.412C777.003 422.239 772.942 413.895 769.638 410.756L768.543 410.655C763.12 401.124 757.569 382.789 753.65 372.014C752.218 368.077 750.976 363.429 748.877 359.815C748.289 358.802 747.598 358.037 746.464 357.675C745.019 357.213 743.516 357.601 742.225 358.328C740.433 359.336 739.298 360.944 738.82 362.932C737.784 367.247 739.588 372.518 740.598 376.752C736.081 368.812 717.41 328.954 712.528 326.975C711.008 326.359 709.46 326.808 708.092 327.548C706.827 329.546 707.049 331.563 707.521 333.8C709.673 344.015 716.249 354.7 719.364 364.976C713.604 366.363 708.963 367.756 704.297 371.542C702.59 372.927 700.694 374.846 698.731 375.824C696.368 377 693.372 376.079 691.878 378.79C690.914 380.54 691.068 381.329 691.679 383.097C693.216 387.544 696.065 392.118 698.132 396.371Q704.965 410.485 711.95 424.524C714.373 429.361 717.114 434.105 719.316 439.043C707.555 442.623 696.728 449.752 690.83 460.813C684.654 472.395 684.319 483.852 688.17 496.188L688.53 497.331L262.524 497.453C265.748 490.281 267.44 483.104 264.644 475.38C262.893 470.544 259.7 466.471 256.454 462.555C258.409 461.812 260.38 461.103 262.283 460.233C265.584 457.343 268.293 454.345 270.01 450.217C272.012 445.402 272.109 439.861 270.019 435.062Q269.82 434.61 269.599 434.169Q269.378 433.728 269.134 433.298Q268.891 432.869 268.626 432.453Q268.361 432.036 268.076 431.634Q267.79 431.231 267.484 430.844Q267.178 430.456 266.853 430.085Q266.528 429.714 266.185 429.359Q265.841 429.005 265.48 428.668Q265.119 428.332 264.742 428.014Q264.364 427.696 263.971 427.398Q263.577 427.1 263.17 426.822Q262.762 426.544 262.34 426.287Q261.919 426.031 261.485 425.795Q261.051 425.56 260.605 425.348Q260.16 425.135 259.704 424.945Q259.249 424.755 258.784 424.589Q257.909 424.289 257.009 424.075Q256.109 423.861 255.193 423.734Q254.277 423.607 253.353 423.57Q252.428 423.532 251.505 423.584Q250.581 423.635 249.667 423.775Q248.753 423.916 247.856 424.144Q246.96 424.371 246.09 424.684Q245.219 424.998 244.383 425.393C238.817 428.055 236.314 432.532 234.243 438.033C233.12 445.262 233.698 449.048 237.712 455.319C234.526 455.697 231.393 456.059 228.271 456.823C220.146 460.37 214.026 465.022 210.695 473.487C207.469 481.682 208.441 489.596 211.621 497.56Z"/>
	<path fill="#5475B9" d="M422.661 284.871C426.317 284.778 429.995 284.88 433.653 284.899C433.453 297.386 430.386 319.241 427.735 331.44L415.965 331.515C418.265 316.008 420.919 300.447 422.661 284.871Z"/>
	<path fill="#D1E1DD" d="M399.641 279.479Q404.818 279.506 409.992 279.696C408.886 287.598 404.84 328.515 402.875 331.716C399.454 331.88 395.993 331.801 392.566 331.817C395.006 314.511 398.175 296.881 399.641 279.479Z"/>
	<path fill="#D1E1DD" d="M351.785 278.821L362.424 278.908C360.671 287.673 357.737 327.65 355.378 331.513C351.662 331.644 347.932 331.507 344.215 331.434C346.739 324.652 346.968 316.243 347.936 309.031C349.284 298.979 350.86 288.922 351.785 278.821Z"/>
	<path fill="#D1E1DD" d="M474.113 278.907C477.636 278.831 481.169 278.868 484.693 278.854C484.331 285.424 483.109 292.129 482.226 298.652Q480.05 315.088 477.667 331.496C473.976 331.524 470.322 331.36 466.637 331.148Q470.086 304.986 474.113 278.907Z"/>
	<path fill="#F16E6D" d="M324.456 280.825L336.59 280.983C333.773 296.727 331.076 315.491 329.885 331.45L317.86 331.476C320.708 314.774 321.969 297.624 324.456 280.825Z"/>
	<path fill="#D1E1DD" d="M499.702 280.323L511.157 280.368C510.177 297.011 507.44 314.996 504.875 331.505C501.047 331.659 497.16 331.502 493.326 331.485C493.514 320.406 495.42 309.118 496.913 298.15C497.709 292.303 498.129 285.988 499.702 280.323Z"/>
	<path fill="#5475B9" d="M302.774 252.107L314.75 252.174C311.726 278.66 307.506 305.057 304.103 331.499L291.828 331.503C292.543 321.554 294.391 311.489 295.913 301.631C298.454 285.173 301.053 268.675 302.774 252.107Z"/>
	<path fill="#5475B9" d="M377.153 250.153Q383.208 250.092 389.261 250.26C384.468 277.223 382.479 304.637 378.385 331.705C374.343 331.831 370.321 331.719 366.281 331.601C366.927 322.715 368.37 313.785 369.55 304.954L377.153 250.153Z"/>
	<path fill="#F16E6D" d="M454.132 242.95Q460 242.886 465.861 243.194C465.221 255.274 463.113 267.354 461.407 279.319Q457.618 305.469 454.158 331.665C450.03 331.801 445.886 331.602 441.758 331.487C444.491 320.184 445.646 307.971 447.249 296.435Q451.177 269.755 454.132 242.95Z"/>
	<path fill="#F16E6D" d="M574.091 322.631Q575.459 322.587 576.82 322.726Q578.181 322.864 579.512 323.183Q580.843 323.501 582.12 323.994Q583.396 324.487 584.596 325.145C589.116 327.624 592.272 331.906 593.494 336.896Q593.611 337.372 593.704 337.854Q593.797 338.336 593.864 338.822Q593.932 339.308 593.975 339.797Q594.018 340.286 594.035 340.776Q594.053 341.267 594.045 341.757Q594.037 342.248 594.004 342.737Q593.971 343.227 593.913 343.714Q593.855 344.201 593.772 344.685Q593.689 345.169 593.582 345.647Q593.474 346.126 593.342 346.599Q593.21 347.071 593.054 347.536Q592.897 348.001 592.717 348.458Q592.537 348.914 592.334 349.361Q592.131 349.808 591.905 350.243Q591.679 350.679 591.431 351.102Q591.183 351.526 590.914 351.936C587.427 357.311 582.667 359.66 576.639 361.042C572.386 361.285 568.537 360.687 564.872 358.395C560.377 355.585 557.322 350.763 556.321 345.595Q556.229 345.119 556.162 344.638Q556.094 344.158 556.051 343.675Q556.008 343.192 555.99 342.707Q555.971 342.223 555.977 341.738Q555.983 341.253 556.014 340.769Q556.044 340.285 556.1 339.803Q556.155 339.321 556.234 338.842Q556.314 338.364 556.417 337.89Q556.521 337.416 556.649 336.948Q556.776 336.481 556.927 336.02Q557.078 335.559 557.253 335.106Q557.427 334.654 557.624 334.21Q557.821 333.767 558.04 333.334Q558.259 332.902 558.5 332.481Q558.741 332.06 559.003 331.652Q559.265 331.243 559.547 330.849C563.158 325.823 568.196 323.673 574.091 322.631Z"/>
	<path fill="#D1E1DD" d="M637.282 314.206Q638.456 314.221 639.624 314.335Q640.793 314.449 641.948 314.662Q643.102 314.875 644.234 315.186Q645.367 315.496 646.468 315.902Q647.57 316.308 648.634 316.805Q649.697 317.303 650.714 317.889Q651.731 318.476 652.695 319.146Q653.659 319.817 654.562 320.567C659.877 324.936 662.66 331.338 663.26 338.089C663.95 345.844 661.791 353.637 656.587 359.535C651.004 365.863 642.924 369.068 634.63 369.435C627.865 368.99 622.403 367.937 616.94 363.47C611.531 359.047 608.342 352.733 607.796 345.785C607.171 337.842 609.814 329.293 615.13 323.313C621.037 316.669 628.816 314.825 637.282 314.206Z"/>
	<path fill="#5475B9" d="M566.941 380.654C572.997 380.035 579.397 381.119 584.709 384.157C591.148 387.84 595.68 394.329 597.378 401.504Q597.545 402.186 597.678 402.876Q597.81 403.565 597.908 404.261Q598.005 404.957 598.068 405.656Q598.13 406.356 598.156 407.058Q598.183 407.759 598.174 408.462Q598.165 409.164 598.121 409.865Q598.076 410.566 597.996 411.264Q597.917 411.961 597.802 412.654Q597.686 413.347 597.536 414.033Q597.386 414.719 597.202 415.397Q597.017 416.075 596.799 416.742Q596.58 417.41 596.328 418.065Q596.076 418.721 595.791 419.363Q595.506 420.005 595.189 420.631Q594.872 421.258 594.523 421.868Q594.175 422.478 593.796 423.069C588.663 431.073 581.61 435.03 572.508 437.059C565.227 437.479 558.701 436.843 552.511 432.459C546.452 428.168 542.396 421.3 541.149 414.021C539.876 406.596 541.415 398.875 545.853 392.728C550.99 385.61 558.43 381.963 566.941 380.654Z"/>
	<path fill="#D1E1DD" d="M632.505 382.192C638.666 382.051 645.316 384.464 650.203 388.199C656.125 392.726 659.597 399.384 660.515 406.716C661.489 414.5 660.087 422.289 655.09 428.538C649.193 435.913 641.816 438.541 632.668 439.545C625.596 439.385 618.68 437.253 613.161 432.694C607.436 427.965 603.834 420.595 603.152 413.224Q603.095 412.538 603.072 411.85Q603.049 411.162 603.061 410.474Q603.072 409.786 603.118 409.099Q603.164 408.412 603.243 407.728Q603.323 407.045 603.436 406.366Q603.55 405.687 603.697 405.014Q603.844 404.342 604.025 403.678Q604.205 403.013 604.418 402.359Q604.631 401.704 604.877 401.061Q605.122 400.418 605.399 399.788Q605.676 399.158 605.984 398.542Q606.292 397.927 606.63 397.327Q606.969 396.728 607.336 396.146Q607.704 395.564 608.1 395.001Q608.496 394.438 608.919 393.895Q609.343 393.353 609.793 392.832C615.731 385.955 623.662 382.964 632.505 382.192Z"/>
	<path fill="#D1E1DD" d="M568.635 178.059L790.662 178.009C788.316 195.978 784.955 213.773 782.079 231.654C779.071 250.358 776.499 269.157 773.631 287.888L773.312 288.927C770.997 290.205 574.01 289.37 553.844 289.294Q558.378 257.878 562.411 226.394C564.623 210.395 567.499 194.173 568.635 178.059Z"/>
	<path fill="#FEFEFE" d="M591.086 209.698C619.957 209.121 648.947 209.703 677.831 209.695C706.978 209.687 736.249 209.1 765.382 209.833C765.191 212.394 765.116 214.977 764.989 217.542L590.416 217.414C590.453 214.802 590.748 212.283 591.086 209.698Z"/>
	<path fill="#FEFEFE" d="M587.197 244.748Q629.542 244.501 671.887 244.724L761.443 244.609C761.503 246.897 762.039 250.571 760.703 252.472L758.972 252.726C739.893 253.036 720.748 252.623 701.659 252.621L584.256 252.479C584.478 250.093 584.413 247.29 585.562 245.153L587.197 244.748Z"/>
	<path fill="#D1E1DD" d="M243.758 364.532L424.192 364.449C455.153 364.423 486.218 363.852 517.169 364.478C514.11 396.567 508.447 428.534 503.959 460.449Q416.533 459.655 329.103 460.031Q308.709 459.953 288.317 460.227C279.971 460.365 270.471 461.476 262.283 460.233C265.584 457.343 268.293 454.345 270.01 450.217C272.012 445.402 272.109 439.861 270.019 435.062Q269.82 434.61 269.599 434.169Q269.378 433.728 269.134 433.298Q268.891 432.869 268.626 432.453Q268.361 432.036 268.076 431.634Q267.79 431.231 267.484 430.844Q267.178 430.456 266.853 430.085Q266.528 429.714 266.185 429.359Q265.841 429.005 265.48 428.668Q265.119 428.332 264.742 428.014Q264.364 427.696 263.971 427.398Q263.577 427.1 263.17 426.822Q262.762 426.544 262.34 426.287Q261.919 426.031 261.485 425.795Q261.051 425.56 260.605 425.348Q260.16 425.135 259.704 424.945Q259.249 424.755 258.784 424.589Q257.909 424.289 257.009 424.075Q256.109 423.861 255.193 423.734Q254.277 423.607 253.353 423.57Q252.428 423.532 251.505 423.584Q250.581 423.635 249.667 423.775Q248.753 423.916 247.856 424.144Q246.96 424.371 246.09 424.684Q245.219 424.998 244.383 425.393C238.817 428.055 236.314 432.532 234.243 438.033C233.12 445.262 233.698 449.048 237.712 455.319C234.526 455.697 231.393 456.059 228.271 456.823C230.577 449.859 231.521 442.437 232.656 435.21C232.862 427.188 234.696 418.834 235.991 410.902L243.758 364.532Z"/>
</svg>
