<?xml version="1.0" encoding="utf-8" ?>
<svg xmlns="http://www.w3.org/2000/svg" xmlns:xlink="http://www.w3.org/1999/xlink" width="1024" height="1024">
	<path fill="#FEFEFE" d="M0 0L1024 0L1024 1024L0 1024L0 0Z"/>
	<path fill="#010101" d="M979.467 912.213C984.559 912.186 998.084 911.129 1002.02 912.636L1002.38 913.394C1001.29 914.349 1000.49 914.417 999.06 914.365C994.4 913.927 983.338 915.384 979.737 913.587L979.467 912.213Z"/>
	<path fill="#010101" d="M821.654 730.867C820.799 719.997 820.721 699.95 823.834 689.757Q824.211 688.495 824.651 687.254Q825.091 686.012 825.593 684.795Q826.095 683.577 826.657 682.386Q827.219 681.195 827.84 680.033Q828.461 678.872 829.14 677.743Q829.818 676.614 830.552 675.521Q831.287 674.427 832.075 673.372Q832.863 672.317 833.703 671.302Q834.543 670.288 835.433 669.317Q836.323 668.346 837.26 667.42Q838.197 666.495 839.18 665.618Q840.162 664.741 841.188 663.914Q842.213 663.087 843.278 662.313Q844.344 661.539 845.447 660.819Q846.549 660.099 847.687 659.435Q848.825 658.771 849.994 658.165Q852.083 657.099 854.261 656.226Q856.438 655.354 858.685 654.681Q860.932 654.008 863.23 653.541Q865.529 653.074 867.86 652.816C874.615 652.084 975.808 651.576 978.805 652.627C979.711 652.945 979.636 653.335 980.034 654.157C979.884 654.186 979.735 654.217 979.585 654.243C972.313 655.508 963.678 654.595 956.259 654.589L901.965 654.686C890.027 654.701 872.291 653.253 861.065 656.276C850.317 659.17 840.145 665.981 833.661 675.033C822.421 690.722 823.349 707.83 823.687 726.266C823.717 727.918 824.03 730.024 822.448 730.898L821.654 730.867Z"/>
	<path fill="#5C6FB5" d="M536.55 149.131C536.667 139.36 534.423 123.216 541.701 115.813C549.993 107.377 565.106 109.253 576.014 109.4C583.612 109.503 590.596 110.552 596.126 116.354C603.855 124.465 601.263 138.721 601.469 148.989L705.868 148.974L739.016 148.971C745.225 148.967 751.559 148.709 757.753 149.086C749.084 149.884 739.981 149.44 731.267 149.447L682.091 149.397L536.55 149.131Z"/>
	<path fill="#010101" d="M120.063 854.496C139.654 854.93 159.296 854.594 178.893 854.574C185.768 854.567 197.069 853.632 203.486 855.019C209.579 863.142 217.453 870.591 224.435 877.982Q240.521 895 256.095 912.489L272.686 912.493C274.098 893.319 274.171 874.037 275.612 854.862C286.049 854.376 296.586 854.646 307.034 854.658L359.286 854.622C367.214 862.361 374.546 870.732 382.156 878.781C392.809 890.05 403.696 901.056 414.178 912.491L481.179 912.514C485.95 898.692 489.249 884.336 493.245 870.278C509.149 871.451 526.266 870.706 542.258 870.378L542.092 914.717C520.398 915.365 498.535 914.955 476.831 914.753L416.574 914.554L346.92 914.49C339.712 914.484 324.874 915.32 318.678 914.259C316.624 913.908 315.31 911.927 313.276 911.567C310.929 911.151 302.801 910.77 300.757 912.004L300.439 913.951C300.209 914.137 300.018 914.385 299.75 914.508C298.714 914.98 174.483 914.502 159.588 914.519L156.921 911.542C153.227 911.474 144.846 910.554 141.82 912.799C140.511 913.77 139.987 914.422 138.282 914.581C133.142 915.062 127.378 914.484 122.167 914.482L83.5076 914.435L44.2044 914.378C37.8541 914.387 30.9907 914.938 24.6834 914.385C23.494 914.281 23.0617 913.976 22.3188 913.09C22.5567 912.906 22.7495 912.64 23.0325 912.538C25.164 911.77 104.309 912.454 115.499 912.443C117.313 899.65 117.398 886.281 118.122 873.372C118.454 867.464 118.183 860.103 120.063 854.496Z"/>
	<path fill="#FEFEFE" d="M121.559 857.102L170.628 856.984C180.874 856.98 191.207 856.691 201.435 857.239Q219.628 875.948 237.225 895.218C242.29 900.745 248.227 906.359 252.521 912.493L226.75 912.493L161.991 912.456C154.859 905.008 147.948 897.349 140.83 889.886C140.23 897.314 139.378 904.833 139.496 912.286L118.163 912.464C119.495 894.038 120.393 875.545 121.559 857.102Z"/>
	<path fill="#FEFEFE" d="M277.647 857.113C304.647 856.724 331.727 856.888 358.731 857.028C366.423 865.06 373.806 873.383 381.502 881.415C391.2 891.537 401.332 901.545 410.368 912.252C402.009 912.474 393.614 912.346 385.25 912.37L320.387 912.421C314.655 905.965 305.723 895.022 298.802 890.397C298.263 897.671 298.109 904.939 297.957 912.229Q286.536 912.416 275.113 912.321C276.441 893.996 276.907 875.477 277.647 857.113Z"/>
	<path fill="#FEFEFE" d="M437.763 618.089L573.637 618.295C615.401 618.348 657.252 618.793 699.005 618.058Q698.839 634.605 698.917 651.152L635.435 651.085C624.426 651.083 613.221 650.655 602.233 651.178L602.278 805.855C584.205 806.152 570.833 807.526 557.438 821.236C543.928 835.063 542.266 852.067 542.258 870.378C526.266 870.706 509.149 871.451 493.245 870.278C489.249 884.336 485.95 898.692 481.179 912.514L414.178 912.491C403.696 901.056 392.809 890.05 382.156 878.781C374.546 870.732 367.214 862.361 359.286 854.622C356.304 830.662 354.897 806.365 353.046 782.294L344.501 675.618Q342.939 657.951 341.625 640.264C341.124 632.912 341.251 624.998 339.929 617.76C350.138 618.815 361.101 618.072 371.387 618.065C393.506 618.051 415.647 617.827 437.763 618.089Z"/>
	<path fill="#5C6FB5" d="M437.763 618.089L573.637 618.295C615.401 618.348 657.252 618.793 699.005 618.058Q698.839 634.605 698.917 651.152L635.435 651.085C624.426 651.083 613.221 650.655 602.233 651.178L602.278 805.855C584.205 806.152 570.833 807.526 557.438 821.236C543.928 835.063 542.266 852.067 542.258 870.378C526.266 870.706 509.149 871.451 493.245 870.278C498.125 869.286 504.281 870.003 509.332 870.048Q522.783 870.182 536.234 870.105C536.612 855.889 536.271 841.57 536.288 827.341L536.348 736.664L536.393 681.246C536.389 671.466 536.944 661.261 536.109 651.54C531.543 650.298 516.974 651.107 511.66 651.104L437.771 651.419L437.763 618.089Z"/>
	<path fill="#010101" d="M536.109 651.54L536.637 649.812C540.895 648.614 594.647 649.179 602.548 649.612C602.282 650.275 602.136 651.343 601.43 651.617C599.042 652.543 540.066 652.522 536.109 651.54Z"/>
	<path fill="#ED3434" d="M176.448 490.549L279.254 490.648C296.28 490.691 313.402 490.314 330.416 490.863C330.486 508.868 332.853 527.441 334.236 545.42C336.031 568.756 337.157 592.384 339.886 615.613C360.658 615.393 381.841 614.697 402.577 615.617C395.304 615.902 342.525 614.968 340.032 616.356C339.964 616.834 339.856 617.279 339.929 617.76C341.251 624.998 341.124 632.912 341.625 640.264Q342.939 657.951 344.501 675.618L353.046 782.294C354.897 806.365 356.304 830.662 359.286 854.622L307.034 854.658C296.586 854.646 286.049 854.376 275.612 854.862C274.171 874.037 274.098 893.319 272.686 912.493L256.095 912.489Q240.521 895 224.435 877.982C217.453 870.591 209.579 863.142 203.486 855.019C197.069 853.632 185.768 854.567 178.893 854.574C159.296 854.594 139.654 854.93 120.063 854.496C121.885 848.89 122.19 842.108 122.848 836.254C124.301 823.332 125.317 810.36 126.807 797.442L140.398 677.367L144.614 638.415C145.54 629.511 146.692 620.497 146.713 611.54C147.677 611.77 147.209 611.55 148.098 612.336C149.366 613.458 150.582 614.521 152.158 615.197C154.149 616.051 156.313 616.835 158.391 615.817C160.83 614.622 162.132 611.321 162.849 608.909L163.125 607.964C165.741 607.998 168.18 609.05 170.831 609.102C173.576 608.083 175.428 604.956 176.936 602.562C177.492 596.891 177.175 590.985 177.194 585.28Q177.287 572.504 177.588 559.731C179.005 562.426 180.473 565.288 182.349 567.695C184.297 570.194 186.788 572.028 190.031 572.284C192.715 572.496 195.16 571.377 197.058 569.515C199.818 566.809 200.411 562.929 199.539 559.279C197.92 552.508 185.714 534.041 181.685 527.177C179.976 524.265 177.754 521.038 176.833 517.78C175.14 511.797 176.366 497.508 176.448 490.549Z"/>
	<path fill="#010101" d="M230.922 617.988L231.159 615.969C233.209 614.913 252.931 615.342 256.644 615.57C257.187 616.358 257.31 616.945 257.468 617.882C248.74 618.525 239.685 618.025 230.922 617.988Z"/>
	<path fill="#FEFEFE" d="M241.625 520.089L249.46 520.541C251.621 552.094 254.669 583.614 256.911 615.174L247.37 615.195L231.325 615.134C231.631 608.756 232.787 602.243 233.521 595.887L236.98 563.712C238.58 549.289 239.185 534.356 241.625 520.089Z"/>
	<path fill="#FEFEFE" d="M257.468 617.882C257.115 623.8 258.164 630.186 258.709 636.098Q260.221 651.953 261.494 667.828L270.901 792.869L273.992 830.034C274.707 838.26 275.763 846.595 275.612 854.862C274.171 874.037 274.098 893.319 272.686 912.493L256.095 912.489Q240.521 895 224.435 877.982C217.453 870.591 209.579 863.142 203.486 855.019C204.558 850.221 204.791 845.076 205.321 840.186Q206.555 828.871 207.995 817.58L218.908 722.217Q223.523 683.974 227.455 645.654C228.444 636.511 230.703 627.162 230.922 617.988C239.685 618.025 248.74 618.525 257.468 617.882Z"/>
	<path fill="#F7C11B" d="M821.654 730.867L822.448 730.898C824.03 730.024 823.717 727.918 823.687 726.266C823.349 707.83 822.421 690.722 833.661 675.033C840.145 665.981 850.317 659.17 861.065 656.276C872.291 653.253 890.027 654.701 901.965 654.686L956.259 654.589C963.678 654.595 972.313 655.508 979.585 654.243C979.735 654.217 979.884 654.186 980.034 654.157C979.146 661.23 979.544 668.701 979.542 675.832L979.557 711.845L979.654 855.313L979.562 893.285C979.561 899.462 980.031 906.088 979.467 912.213L979.737 913.587C983.338 915.384 994.4 913.927 999.06 914.365L649.871 914.682C613.961 914.732 577.995 914.22 542.092 914.717L542.258 870.378C542.266 852.067 543.928 835.063 557.438 821.236C570.833 807.526 584.205 806.152 602.278 805.855L654.855 805.775C662.067 805.76 671.734 804.648 678.618 806.074L678.562 805.453C678.223 801.334 678.424 797.032 678.406 792.894C678.336 776.805 680.268 763.052 691.212 750.427C702.633 737.251 715.28 732.114 732.273 730.795C737.896 729.937 744.349 730.593 750.089 730.639L785.317 730.915Q795.984 731.035 806.65 730.893C811.604 730.814 816.731 730.376 821.654 730.867Z"/>
	<path fill="#010101" d="M732.273 730.795C733.68 730.915 734.265 730.737 735.316 731.725C733.781 733.173 719.373 734.715 716.093 735.638C711.577 736.909 706.823 739.888 703.056 742.639C688.431 753.319 681.136 767.811 680.644 785.782C680.463 792.378 681.009 799.077 680.398 805.643C679.302 806.216 679.893 806.063 678.618 806.074L678.562 805.453C678.223 801.334 678.424 797.032 678.406 792.894C678.336 776.805 680.268 763.052 691.212 750.427C702.633 737.251 715.28 732.114 732.273 730.795Z"/>
	<path fill="#FEFEFE" d="M536.55 149.131L682.091 149.397L731.267 149.447C739.981 149.44 749.084 149.884 757.753 149.086Q807.237 148.844 856.719 149.258C868.941 149.291 894.916 148.16 905.649 150.408C914.039 152.165 921.936 156.624 928.012 162.622C941.687 176.122 942.145 188.739 942.249 206.858L942.324 232.315L942.182 471.587Q942.391 507.998 942.219 544.409C942.211 556.604 943.377 569.621 941.627 581.683C940.342 590.541 935.776 598.798 929.477 605.102C923.63 610.955 915.888 615.473 907.69 616.983C899.496 618.491 890.465 617.962 882.139 617.969L845.568 617.97C796.761 617.969 747.796 617.206 699.005 618.058C657.252 618.793 615.401 618.348 573.637 618.295L437.763 618.089C415.647 617.827 393.506 618.051 371.387 618.065C361.101 618.072 350.138 618.815 339.929 617.76C339.856 617.279 339.964 616.834 340.032 616.356C342.525 614.968 395.304 615.902 402.577 615.617C381.841 614.697 360.658 615.393 339.886 615.613C337.157 592.384 336.031 568.756 334.236 545.42C332.853 527.441 330.486 508.868 330.416 490.863C313.402 490.314 296.28 490.691 279.254 490.648L176.448 490.549C176.366 497.508 175.14 511.797 176.833 517.78C177.754 521.038 179.976 524.265 181.685 527.177C185.714 534.041 197.92 552.508 199.539 559.279C200.411 562.929 199.818 566.809 197.058 569.515C195.16 571.377 192.715 572.496 190.031 572.284C186.788 572.028 184.297 570.194 182.349 567.695C180.473 565.288 179.005 562.426 177.588 559.731Q177.286 572.504 177.194 585.28C177.175 590.985 177.492 596.891 176.936 602.562C175.428 604.956 173.576 608.083 170.831 609.102C168.18 609.05 165.741 607.998 163.125 607.964L162.849 608.909C162.132 611.321 160.83 614.622 158.391 615.817C156.313 616.835 154.149 616.051 152.158 615.197C150.582 614.521 149.366 613.458 148.098 612.336C147.209 611.55 147.677 611.77 146.713 611.54C144.969 612.868 143.012 613.761 140.817 614.016C138.841 614.245 137.02 613.786 135.464 612.519C131.622 609.391 131.339 604.734 130.931 600.196C130.869 600.201 130.808 600.205 130.746 600.211C128.299 600.449 126.435 600.627 124.144 599.623Q123.573 599.373 123.031 599.065Q122.49 598.756 121.984 598.392Q121.477 598.029 121.012 597.614Q120.547 597.199 120.128 596.738Q119.709 596.276 119.34 595.774Q118.972 595.271 118.658 594.732Q118.345 594.193 118.089 593.625Q117.834 593.056 117.64 592.464C116.838 590.015 116.854 587.05 116.774 584.491C116.352 570.919 116.656 557.249 116.634 543.667L116.458 474.216L116.471 431.154C116.48 422.124 116.127 412.928 117.01 403.937C118.165 392.188 121.481 380.114 126.418 369.398C140.178 339.533 165.157 319.343 195.573 308.132L195.564 227.735C195.537 216.424 194.216 196.889 196.3 186.687Q196.62 185.064 197.056 183.469Q197.492 181.874 198.041 180.314Q198.59 178.754 199.25 177.237Q199.91 175.72 200.677 174.255Q201.444 172.79 202.314 171.383Q203.184 169.977 204.153 168.636Q205.121 167.296 206.184 166.028Q207.246 164.761 208.397 163.573C215.282 156.596 224.359 151.459 234.08 149.836C244.161 148.153 255.488 149.076 265.711 149.082L322.328 149.093L536.55 149.131Z"/>
	<path fill="#010101" d="M767.684 280.722C797.023 280.14 826.452 280.684 855.802 280.628C864.204 280.612 888.773 279.496 894.974 280.962L895.375 281.771L894.902 282.58L802.876 282.595C795.478 282.595 773.415 283.534 767.309 282.233L766.987 281.511L767.684 280.722Z"/>
	<path fill="#010101" d="M769.359 206.249C795.062 205.968 820.797 206.294 846.503 206.303C861.529 206.309 876.817 205.634 891.818 206.232C893.106 206.284 894.469 206.191 895.564 206.951L895.425 207.728L893.875 208.239C882.385 208.477 769.467 208.949 767.994 208.167C767.761 208.043 767.608 207.807 767.415 207.628L768.023 206.497L769.359 206.249Z"/>
	<path fill="#010101" d="M767.96 244.251C788.715 243.137 809.981 244.156 830.782 244.118L871.907 244.009C878.622 243.991 885.499 243.664 892.199 244.006C893.934 244.094 894.69 244.08 896.051 245.137C895.56 245.742 895.256 245.831 894.558 246.137L805.507 246.239C793.891 246.215 782.034 246.686 770.442 246.253C769.092 246.203 768.054 246.339 767.14 245.318L767.96 244.251Z"/>
	<path fill="#ED3434" d="M660.456 340.901C656.814 342.542 653.229 343.848 649.206 342.759C646.224 341.951 643.885 339.828 642.521 337.088Q642.236 336.519 642.009 335.923Q641.783 335.328 641.618 334.712Q641.453 334.097 641.352 333.468Q641.25 332.839 641.213 332.203Q641.175 331.568 641.202 330.931Q641.23 330.295 641.321 329.664Q641.413 329.034 641.568 328.416Q641.722 327.798 641.939 327.199C642.979 324.405 645.124 322.098 647.916 321.013C650.799 319.892 654.736 320.064 657.528 321.407C660.465 322.818 662.854 326.086 663.705 329.187C664.796 333.163 663.262 336.275 661.426 339.675L660.456 340.901Z"/>
	<path fill="#010101" d="M822.419 336.449C820.751 333.32 819.474 329.657 820.488 326.08C821.442 322.712 824.827 318.828 827.929 317.231C830.367 315.974 833.032 315.929 835.585 316.871Q836.203 317.093 836.796 317.377Q837.389 317.661 837.95 318.004Q838.51 318.347 839.033 318.745Q839.556 319.143 840.036 319.593Q840.515 320.042 840.947 320.538Q841.378 321.034 841.757 321.571Q842.135 322.108 842.457 322.681Q842.779 323.254 843.041 323.857C844.407 327.073 844.341 331.048 843.003 334.265C841.927 336.853 839.929 338.64 837.318 339.613C832.448 341.426 828.675 340.246 824.166 338.224C818.308 343.248 812.857 348.68 807.036 353.73C784.967 372.875 762.581 391.803 740.841 411.315C741.873 415.692 742.32 419.541 739.73 423.547C738.058 426.134 735.237 427.895 732.236 428.489Q731.601 428.618 730.957 428.679Q730.312 428.74 729.665 428.732Q729.018 428.725 728.375 428.649Q727.732 428.574 727.1 428.431Q726.469 428.288 725.856 428.079Q725.243 427.87 724.656 427.598Q724.068 427.326 723.513 426.993Q722.957 426.66 722.44 426.271C719.938 424.388 718.418 421.599 718.052 418.5C717.694 415.468 718.578 412.734 719.691 409.958C711.861 399.826 702.927 390.449 694.42 380.884C688.631 374.374 683.162 367.583 677.414 361.034C671.96 354.819 664.802 347.879 660.456 340.901L661.426 339.675C673.664 352.62 684.939 366.639 696.667 380.051C704.96 389.536 714.298 398.674 721.794 408.785C723.169 407.666 724.514 406.507 726.027 405.575C731.047 405.251 733.967 404.987 737.916 408.464Q738.649 409.111 739.368 409.774C753.727 396.13 769.341 383.54 784.262 370.494C792.404 363.375 800.658 356.351 808.673 349.094C813.281 344.922 817.67 340.45 822.419 336.449Z"/>
	<path fill="#FEFEFE" d="M727.49 407.535C729.312 407.457 731.051 407.388 732.804 407.977C735.279 408.809 737.451 410.691 738.521 413.088Q738.719 413.528 738.871 413.986Q739.023 414.443 739.126 414.914Q739.23 415.385 739.286 415.865Q739.341 416.344 739.346 416.826Q739.352 417.308 739.308 417.789Q739.264 418.269 739.17 418.742Q739.077 419.215 738.936 419.677Q738.795 420.138 738.607 420.582C737.189 423.928 734.934 424.998 731.684 426.22C729.827 426.375 728.075 426.407 726.279 425.821Q725.863 425.682 725.462 425.503Q725.062 425.324 724.681 425.106Q724.3 424.889 723.941 424.636Q723.583 424.382 723.252 424.095Q722.92 423.808 722.618 423.49Q722.315 423.172 722.046 422.826Q721.776 422.48 721.541 422.109Q721.307 421.739 721.109 421.347C719.929 418.954 719.896 416.169 720.879 413.703C722.139 410.544 724.523 408.924 727.49 407.535Z"/>
	<path fill="#FEFEFE" d="M830.063 319.054C831.334 318.969 832.676 318.839 833.94 319.036C836.449 319.427 838.904 320.99 840.323 323.092C841.806 325.288 842.154 328.139 841.515 330.682C840.482 334.795 837.938 336.551 834.444 338.513C832.667 338.545 831.027 338.493 829.316 337.955C826.726 337.139 824.451 335.309 823.272 332.839Q823.065 332.404 822.905 331.95Q822.745 331.496 822.633 331.028Q822.521 330.56 822.458 330.082Q822.395 329.605 822.382 329.124Q822.369 328.642 822.407 328.162Q822.444 327.682 822.531 327.209Q822.618 326.735 822.753 326.273Q822.889 325.811 823.072 325.366C824.412 322.014 826.898 320.464 830.063 319.054Z"/>
	<path fill="#5C6FB5" d="M520.991 519.205C536.73 518.563 552.663 518.889 568.42 518.978C568.403 534.294 567.996 549.714 568.433 565.018L597.794 565.011C602.67 565.013 608.004 564.589 612.811 565.278C601.532 566.427 589.38 565.526 578.013 565.463Q549.546 565.504 521.081 565.208L520.991 519.205Z"/>
	<path fill="#F7C11B" d="M709.802 498.576C725.151 498.989 740.579 498.815 755.935 498.72L755.944 565.648Q732.778 565.467 709.612 565.546C710.041 543.362 708.698 520.643 709.802 498.576Z"/>
	<path fill="#5C6FB5" d="M415.533 199.078L416.473 199.083C436.454 199.219 453.453 206.661 467.422 220.93C480.149 233.931 486.364 250.819 486.11 268.963L416.323 269.066C415.563 262.037 415.908 254.673 415.882 247.596C415.825 231.448 416.232 215.208 415.533 199.078Z"/>
	<path fill="#ED3434" d="M805.672 390.388Q826.3 390.602 846.929 390.402L846.815 565.708C842.313 566.261 837.415 565.929 832.872 565.933L807.071 565.939L774.578 565.925C768.424 565.918 762.07 566.216 755.944 565.648C772.453 565.159 789.068 565.584 805.588 565.63L805.828 463.422C805.749 439.099 805.096 414.707 805.672 390.388Z"/>
	<path fill="#010101" d="M612.949 429.608L660.461 429.648L660.832 565.46L709.612 565.546Q732.778 565.468 755.944 565.648C762.07 566.216 768.424 565.918 774.578 565.925L807.071 565.939L832.872 565.933C837.415 565.929 842.313 566.261 846.815 565.708C852.495 565.532 883.926 564.899 887.15 566.164L887.482 566.957L886.946 567.685C880.141 568.919 871.724 567.929 864.75 567.943L810.178 568.01L591.741 567.517C582.827 567.513 489.855 568.436 487.241 567.08C486.537 566.715 486.727 566.672 486.49 565.835C488.175 564.64 516.733 565.207 521.081 565.208Q549.546 565.504 578.013 565.463C589.38 565.526 601.532 566.427 612.811 565.278L612.86 475.779L612.839 445.735C612.834 440.401 612.574 434.919 612.949 429.608Z"/>
	<path fill="#FEFEFE" d="M615.094 431.988C629.481 431.596 643.988 431.666 658.38 431.858C658.856 441.658 658.522 451.564 658.489 461.375L658.6 505.201L658.666 543.486C658.658 550.7 659.063 558.25 658.323 565.414L614.88 565.22L615.094 431.988Z"/>
	<path fill="#ED3434" d="M406.269 206.111L408.003 206.421C409.571 208.959 408.601 264.312 408.833 273.531L455.453 273.682C460.388 273.695 470.688 272.877 474.99 274.051C475.448 274.984 475.426 275.164 475.337 276.211C474.373 280.036 474.249 284.202 473.685 288.118Q473.401 290.021 473.005 291.904Q472.61 293.788 472.105 295.644Q471.6 297.501 470.986 299.325Q470.373 301.149 469.653 302.934Q468.934 304.718 468.111 306.458Q467.288 308.197 466.364 309.885Q465.44 311.573 464.419 313.204Q463.397 314.835 462.282 316.403Q461.263 317.804 460.177 319.152Q459.09 320.5 457.937 321.793Q456.785 323.086 455.569 324.32Q454.354 325.553 453.079 326.725Q451.803 327.897 450.472 329.004Q449.14 330.112 447.755 331.151Q446.369 332.191 444.934 333.16Q443.499 334.129 442.018 335.026Q440.536 335.923 439.012 336.745Q437.487 337.568 435.924 338.313Q434.361 339.059 432.763 339.725Q431.164 340.392 429.535 340.979Q427.905 341.565 426.249 342.07Q424.592 342.575 422.912 342.997Q421.232 343.419 419.534 343.757Q417.835 344.095 416.122 344.348Q414.415 344.604 412.697 344.775Q410.98 344.946 409.256 345.032Q407.532 345.118 405.806 345.119Q404.079 345.12 402.355 345.035Q400.631 344.951 398.914 344.781Q397.196 344.611 395.488 344.357Q393.781 344.103 392.089 343.764Q390.396 343.426 388.722 343.004Q387.048 342.583 385.397 342.079Q383.746 341.575 382.122 340.99Q380.498 340.406 378.905 339.741Q377.312 339.077 375.753 338.335Q374.195 337.592 372.675 336.774Q371.155 335.956 369.678 335.063Q368.2 334.171 366.769 333.206Q365.337 332.242 363.955 331.208C348.981 320.042 338.47 303.359 335.931 284.763C333.499 266.956 337.521 247.859 348.537 233.474C358.871 219.98 373.427 210.554 390.283 207.646C395.464 206.752 400.652 206.889 405.819 206.177L406.269 206.111Z"/>
	<path fill="#010101" d="M406.269 206.111L408.003 206.421C409.571 208.959 408.601 264.312 408.833 273.531L455.453 273.682C460.388 273.695 470.688 272.877 474.99 274.051C475.448 274.984 475.426 275.164 475.337 276.211C452.261 276.633 429.096 276.111 406.012 276.005L405.999 230.707C405.991 222.603 405.561 214.176 406.269 206.111Z"/>
	<path fill="#010101" d="M536.55 149.131L682.091 149.397L731.267 149.447C739.981 149.44 749.084 149.884 757.753 149.086Q807.237 148.844 856.719 149.258C868.941 149.291 894.916 148.16 905.649 150.408C914.039 152.165 921.936 156.624 928.012 162.622C941.687 176.122 942.145 188.739 942.249 206.858L942.324 232.315L942.182 471.587Q942.391 507.998 942.219 544.409C942.211 556.604 943.377 569.621 941.627 581.683C940.342 590.541 935.776 598.798 929.477 605.102C923.63 610.955 915.888 615.473 907.69 616.983C899.496 618.491 890.465 617.962 882.139 617.969L845.568 617.97C796.761 617.969 747.796 617.206 699.005 618.058C657.252 618.793 615.401 618.348 573.637 618.295L437.763 618.089C415.647 617.827 393.506 618.051 371.387 618.065C361.101 618.072 350.138 618.815 339.929 617.76C339.856 617.279 339.964 616.834 340.032 616.356C342.525 614.968 395.304 615.902 402.577 615.617L752.969 615.597L854.701 615.604L886.057 615.677C891.947 615.696 898.112 616.061 903.964 615.398C912.506 614.43 920.822 610.412 927.092 604.557C936.702 595.584 940.064 584.453 940.382 571.61C941.172 539.744 940.313 507.652 940.282 475.769L940.304 311.088L940.161 232.085C940.162 218.191 941.288 201.418 939.372 187.891C938.228 179.811 933.614 171.492 927.979 165.674C915.293 152.577 902.351 151.472 885.096 151.295L446.646 151.128L304.345 151.125L262.541 151.148C253.659 151.156 244.331 150.702 235.514 151.794C226.371 152.927 217.222 158.074 210.752 164.502C205.296 169.921 200.748 177.412 199.159 184.992C196.614 197.134 198.081 217.678 198.118 230.877L198.061 307.376C207.208 303.672 220.905 301.947 230.809 300.057C231.428 291.514 231.083 282.749 231.001 274.188C226.14 272.709 222.174 271.652 218.311 268.037C212.441 262.545 209.141 253.943 209.077 245.987C209.012 238.04 211.909 230.397 217.58 224.751C221.464 220.884 225.939 219.011 230.845 216.839C233.812 215.526 236.417 213.125 239.455 212.165C245.86 210.14 273.896 211.435 282.408 211.485C284.619 216.665 286.035 221.789 285.394 227.508C284.618 234.437 281.212 239.28 275.851 243.422C278.828 250.164 280.959 256.189 279.31 263.722C277.5 271.991 272.807 277.178 265.982 281.697L265.89 300.35Q267.876 300.426 269.857 300.581Q271.838 300.736 273.812 300.97Q275.785 301.204 277.748 301.516Q279.711 301.829 281.659 302.219Q283.608 302.609 285.539 303.077Q287.471 303.545 289.382 304.089Q291.293 304.634 293.182 305.254Q295.07 305.874 296.931 306.569Q298.793 307.264 300.626 308.032Q302.459 308.801 304.259 309.642Q306.06 310.483 307.826 311.395Q309.591 312.307 311.319 313.289Q313.047 314.27 314.734 315.32Q316.422 316.37 318.066 317.486Q319.71 318.602 321.309 319.783Q322.907 320.964 324.457 322.208C346.676 339.808 357.348 363.203 360.555 390.859C378.106 390.845 395.69 391.047 413.238 390.752C418.758 390.66 424.235 389.934 429.751 389.809C441.98 389.533 454.256 389.705 466.491 389.68C473.167 374.192 480.912 359.056 488.007 343.749L545.416 220.642C546.835 217.603 548.887 212.995 552.353 211.97C553.221 211.714 553.33 211.995 554.06 212.388C554.936 214.729 554.48 216.69 553.692 219.01C551.904 224.28 549.076 229.4 546.879 234.529Q538.272 254.822 529.398 274.999L480.356 389.963C484.546 389.845 489.408 389.315 493.479 390.345C495.731 390.915 497.764 392.12 498.892 394.205C500.038 396.324 500.779 399.347 499.965 401.691C498.424 406.126 493.175 406.778 489.467 408.471C489.577 408.691 489.684 408.912 489.797 409.13C490.595 410.672 491.912 412.916 491.71 414.685C491.518 416.37 491.027 417.286 489.822 418.402C489.015 419.15 488.396 419.824 487.732 420.702C487.814 420.949 487.834 421.225 487.978 421.442C489.736 424.097 490.543 424.366 490.649 427.981C490.764 431.87 488.183 432.964 485.87 435.464C484.107 437.37 486.719 440.34 486.788 442.76C486.846 444.836 485.832 446.521 484.372 447.917C482.975 449.254 481.247 450.411 479.367 450.92C473.114 452.615 456.059 451.574 449.026 451.586C446.399 458.634 439.004 479.246 433.691 483.072C432.024 484.272 429.795 485.149 427.736 484.515C424.406 483.491 422.473 480.095 421.181 477.144C423.49 468.426 428.931 459.956 432.526 451.641L322.82 451.86C324.462 456.496 336.998 487.806 336.481 490.57C334.504 491.137 332.451 490.922 330.416 490.863C313.402 490.314 296.28 490.691 279.254 490.648L176.448 490.549C176.366 497.508 175.14 511.797 176.833 517.78C177.754 521.038 179.976 524.265 181.685 527.177C185.714 534.041 197.92 552.508 199.539 559.279C200.411 562.929 199.818 566.809 197.058 569.515C195.16 571.377 192.715 572.496 190.031 572.284C186.788 572.028 184.297 570.194 182.349 567.695C180.473 565.288 179.005 562.426 177.588 559.731Q177.286 572.504 177.194 585.28C177.175 590.985 177.492 596.891 176.936 602.562C175.428 604.956 173.576 608.083 170.831 609.102C168.18 609.05 165.741 607.998 163.125 607.964L162.849 608.909C162.132 611.321 160.83 614.622 158.391 615.817C156.313 616.835 154.149 616.051 152.158 615.197C150.582 614.521 149.366 613.458 148.098 612.336C147.209 611.55 147.677 611.77 146.713 611.54C144.969 612.868 143.012 613.761 140.817 614.016C138.841 614.245 137.02 613.786 135.464 612.519C131.622 609.391 131.339 604.734 130.931 600.196C130.869 600.201 130.808 600.205 130.746 600.211C128.299 600.449 126.435 600.627 124.144 599.623Q123.573 599.373 123.031 599.065Q122.49 598.756 121.984 598.392Q121.477 598.029 121.012 597.614Q120.547 597.199 120.128 596.738Q119.709 596.276 119.34 595.774Q118.972 595.271 118.658 594.732Q118.345 594.193 118.089 593.625Q117.834 593.056 117.64 592.464C116.838 590.015 116.854 587.05 116.774 584.491C116.352 570.919 116.656 557.249 116.634 543.667L116.458 474.216L116.471 431.154C116.48 422.124 116.127 412.928 117.01 403.937C118.165 392.188 121.481 380.114 126.418 369.398C140.178 339.533 165.157 319.343 195.573 308.132L195.564 227.735C195.537 216.424 194.216 196.889 196.3 186.687Q196.62 185.064 197.056 183.469Q197.492 181.874 198.041 180.314Q198.59 178.754 199.25 177.237Q199.91 175.72 200.677 174.255Q201.444 172.79 202.314 171.383Q203.184 169.977 204.153 168.636Q205.121 167.296 206.184 166.028Q207.246 164.761 208.397 163.573C215.282 156.596 224.359 151.459 234.08 149.836C244.161 148.153 255.488 149.076 265.711 149.082L322.328 149.093L536.55 149.131Z"/>
	<path fill="#FEFEFE" d="M230.458 302.715C232.812 303.19 245.606 316.944 247.308 319.4C243.781 323.316 239.995 327.049 236.335 330.843C235.663 331.602 235.191 332.015 234.273 332.45C232.165 329.341 230.854 324.697 229.307 321.192Q225.469 312.666 221.329 304.283C224.333 303.573 227.408 303.18 230.458 302.715Z"/>
	<path fill="#FEFEFE" d="M266.445 302.892Q272.697 303.278 278.954 303.587C277.727 307.731 269.305 330.829 266.717 332.272L265.707 331.603C260.955 327.606 256.497 323.139 251.914 318.94C257.371 314.12 262.678 309.185 266.445 302.892Z"/>
	<path fill="#FEFEFE" d="M233.5 277.339C235.533 279.095 237.767 280.891 240.141 282.173C248.219 286.536 255.147 285.406 263.543 282.987L263.719 302.866C262.07 305.432 260.215 307.555 258.138 309.78C255.457 312.503 252.572 314.973 249.683 317.471C243.873 312.38 238.532 306.769 233.132 301.254C233.729 293.333 233.488 285.283 233.5 277.339Z"/>
	<path fill="#FEFEFE" d="M244.823 224.627C246.041 224.565 247.281 224.488 248.501 224.542C254.975 224.832 261.05 227.5 265.466 232.266C271.382 238.65 277.835 251.283 277.273 260.136Q277.235 260.732 277.167 261.326Q277.099 261.92 277.001 262.509Q276.903 263.099 276.775 263.682Q276.647 264.266 276.49 264.843Q276.333 265.419 276.147 265.987Q275.96 266.555 275.746 267.113Q275.531 267.67 275.288 268.216Q275.045 268.762 274.775 269.295Q274.504 269.828 274.208 270.347Q273.911 270.865 273.588 271.368Q273.265 271.871 272.917 272.357Q272.569 272.843 272.197 273.311Q271.825 273.778 271.43 274.226Q271.034 274.674 270.617 275.102Q270.199 275.529 269.76 275.935Q269.322 276.341 268.863 276.724C262.815 281.704 255.435 283.125 247.855 282.437C244.899 281.526 241.353 280.62 238.875 278.711C236.31 276.735 234.04 271.605 230.841 270.824C228.765 270.317 226.538 270.328 224.512 269.528C220.836 268.078 216.886 264.251 215.373 260.605C214.169 257.704 214.001 254.317 215.244 251.397C217.146 246.93 220.718 245.524 224.852 243.713Q226.529 240.385 228.322 237.119C232.223 230.14 237.237 226.78 244.823 224.627Z"/>
	<path fill="#FEFEFE" d="M424.84 392.239C438.148 391.64 451.669 392.074 465 392.049C473.731 392.032 483.092 391.325 491.761 392.147C492.961 392.261 494.253 392.572 495.28 393.226C496.819 394.208 497.469 395.981 497.822 397.696C498.138 399.233 497.893 400.834 496.917 402.096C495.447 403.995 492.964 404.811 490.693 405.23C486.715 405.964 482.286 405.595 478.25 405.56C468.301 405.472 457.921 404.809 448.03 405.685C447.167 406.412 447.1 406.676 446.708 407.752C449.072 409.148 475.886 407.425 481.561 407.801C483.961 407.96 486.774 408.556 488.228 410.683C489.139 412.017 489.427 414.113 488.896 415.659C488.389 417.136 487.074 417.995 485.641 418.406C482.183 419.396 478.143 418.714 474.593 418.654C468.886 418.558 440.964 417.599 437.638 419.199L437.584 420.213C439.708 422.324 452.966 421.318 456.375 421.337C463.418 421.344 475.921 420.393 482.302 421.588C484.287 421.96 486.715 422.848 487.709 424.768C488.494 426.282 488.622 427.817 488.164 429.446C485.332 439.515 451.403 430.586 442.697 435.221L442.662 435.861C450.435 438.716 476.791 434.523 481.968 437.613C483.315 438.417 484.323 440.238 484.453 441.772C484.601 443.507 483.429 445.419 482.259 446.616C480.996 447.909 479.768 448.417 478.026 448.762C471.764 450.004 464.679 449.449 458.308 449.462L423.585 449.353L423.73 409.709C423.762 404.461 423.018 397.611 424.221 392.557L424.84 392.239Z"/>
	<path fill="#FEFEFE" d="M118.988 515.844L172.583 515.859C177.939 525.857 183.784 535.634 189.446 545.464C191.709 549.392 194.597 553.197 196.31 557.41C197.255 559.733 197.816 562.53 197.385 565.03C197.106 566.651 196.35 567.791 194.923 568.656C193.297 569.643 190.231 569.951 188.418 569.491C184.006 568.373 180.908 560.443 178.495 556.839C177.67 555.606 177.264 554.99 175.794 554.726C172.532 558.73 177.969 597.694 173.444 603.638C172.396 605.015 170.288 606.371 168.502 606.343C166.046 606.304 164.919 604.749 163.346 603.086C162.465 589.309 163.066 575.157 163.1 561.337C163.11 557.075 163.764 551.878 163.1 547.709C162.948 546.753 162.938 546.591 162.154 545.99L161.514 546.31C159.66 550.205 160.599 587.754 160.715 595.185C160.776 599.035 161.793 606.513 160.268 610.065C159.338 612.23 157.529 612.895 155.457 613.67C152.619 613.308 151.305 612.373 149.335 610.317L149.266 609.534L148.978 609.86L148.464 609.091L148.549 567.468C148.569 560.698 149.575 551.822 148.047 545.298L147.092 545.367C143.596 549.991 148.208 598.534 145.175 607.678C144.623 609.343 143.51 611.026 141.802 611.668C140.53 612.146 139.164 611.96 137.979 611.35C136.341 610.505 134.942 608.839 134.368 607.087C133.173 603.44 133.786 598.099 133.8 594.237C133.827 586.833 134.764 550.595 133.285 547.001C132.885 546.027 133.12 546.372 132.033 545.919C131.826 546.098 131.533 546.211 131.41 546.456C130.279 548.722 132.266 589.563 131.082 596.442C130.129 597.352 129.614 597.765 128.245 597.8C126.167 597.853 123.972 596.964 122.514 595.504C121.131 594.118 120.114 592.398 119.739 590.466C118.199 582.525 119.082 573.107 119.065 564.987L118.988 515.844Z"/>
	<path fill="#FEFEFE" d="M281.577 304.478C297.373 308.708 310.766 314.365 323.568 324.819C340.161 338.368 352.011 356.768 356.408 377.816C357.466 382.878 357.849 388.139 358.38 393.281L421.486 393.051L421.426 449.346L321.814 449.365C318.319 441.327 315.471 432.888 312.39 424.675L293.613 374.531C291.525 369.046 289.178 363.65 287.103 358.171C286.293 356.03 285.749 353.733 284.77 351.663C284.189 350.435 283.734 349.508 282.585 348.717L281.882 349.012C281.992 354.107 289.545 370.431 291.78 376.43L320.652 453.684C324.928 465.23 329.804 476.641 333.547 488.369C312.824 488.847 291.967 488.262 271.234 488.195L176.548 488.213L176.546 436.94C176.553 430.821 175.534 418.55 177.133 413.039C178.835 407.171 184.034 400.852 187.353 395.676C191.308 389.506 215.916 351.945 215.933 348.851L215.225 348.58C214.714 348.869 214.285 349.127 213.856 349.534C210.066 353.124 200.389 370.322 196.758 376.126L184.693 395.316C181.528 400.249 177.068 405.784 175.116 411.311C173.127 416.94 174.281 499.654 174.133 513.406L118.87 513.392L118.847 447.881C118.816 430.027 117.496 411.321 121.076 393.774Q121.644 391.013 122.354 388.285Q123.063 385.557 123.912 382.87Q124.761 380.182 125.746 377.541Q126.732 374.901 127.853 372.314Q128.973 369.728 130.225 367.202Q131.476 364.677 132.856 362.219Q134.236 359.761 135.741 357.378Q137.245 354.994 138.87 352.691C157.662 325.633 187.085 310.57 218.865 304.81C223.808 315.373 228.877 325.891 233.333 336.671C238.338 332.46 242.811 327.651 247.385 322.985C248.088 322.348 248.485 321.583 249.493 321.649C251.4 321.776 252.768 323.387 254.054 324.64C258.448 329.096 263.563 332.869 267.568 337.694C273.099 327.024 277.257 315.674 281.577 304.478Z"/>
	<path fill="#ED3434" d="M247.385 322.985C248.088 322.348 248.485 321.583 249.493 321.649C251.4 321.776 252.768 323.387 254.054 324.64C251.764 329.301 268.996 431.403 271.492 443.833C269.247 448.309 266.328 452.563 263.722 456.851C258.532 465.389 253.267 473.995 248.689 482.878C241.303 470.174 234.2 457.403 226.264 445.026C230.7 424.003 233.944 402.838 237.878 381.731C240.572 367.276 243.261 352.874 245.534 338.344C246.287 333.529 247.778 327.842 247.385 322.985Z"/>
</svg>
