<?xml version="1.0" encoding="utf-8" ?>
<svg xmlns="http://www.w3.org/2000/svg" xmlns:xlink="http://www.w3.org/1999/xlink" width="1024" height="1024">
	<path fill="#FEFEFE" d="M0 0L1024 0L1024 1024L0 1024L0 0Z"/>
	<path fill="#010101" d="M897.217 287.425C899.414 282.441 901.597 277.277 907.01 275.05C910.176 273.749 913.755 273.994 916.869 275.323C921.748 277.405 925.61 282.019 927.492 286.906C930.729 295.307 926.305 303.756 922.738 311.304C920.196 316.684 916.832 321.539 913.574 326.5C912.502 326.391 911.276 325.859 910.261 325.477C905.319 323.62 881.602 314.819 878.865 311.329C878.467 310.821 878.325 310.156 878.055 309.57C877.007 305.372 883.075 289.267 885.605 285.107C886.603 283.465 888.047 281.581 890.054 281.194C891.367 280.94 892.508 281.406 893.549 282.172C895.071 283.292 896.325 285.755 897.217 287.425Z"/>
	<path fill="#FEFEFE" d="M911.255 276.592C914.547 277.1 917.317 278.35 919.888 280.496C923.288 283.334 925.185 287.939 925.531 292.286C926.3 301.954 917.667 316.316 911.395 323.471C904.775 320.832 898.208 318.147 891.723 315.186C888.47 313.719 883.432 312.633 881.224 309.691C880.459 304.688 883.61 297.414 885.54 292.846C886.543 290.471 888.577 284.772 891.018 283.777C891.19 283.877 891.376 283.958 891.536 284.077C893.622 285.641 894.772 289.639 895.003 292.11C895.032 292.416 895.085 293.204 895.14 293.518C895.344 294.681 895.537 295.358 896.508 296.073C899.808 293.953 900.808 285.592 903.098 281.956C905.135 278.722 907.617 277.405 911.255 276.592Z"/>
	<path fill="#4B71BE" d="M833.181 774.591C834.279 781.332 839.797 790.89 845.313 794.864C855.606 802.28 879.338 809.476 886.035 818.107C888.996 821.923 889.942 825.889 890.865 830.495L772.406 830.674Q772.341 814.338 772.473 798.004C772.505 792.608 773.497 783.163 772.054 778.16C773.957 779.149 826.495 778.721 832.511 778.357C833.309 777.363 833.1 775.856 833.181 774.591Z"/>
	<path fill="#4B71BE" d="M687.585 664.956C688.539 678.882 687.872 693.214 687.849 707.185L688.023 778.078C695.588 777.855 746.559 778.629 748.705 777.177C750.679 780.79 749.661 823.267 749.645 830.628L630.065 830.51Q630.299 829.249 630.629 828.009C636.381 806.785 662.428 805.584 677.103 793.319C682.029 789.202 682.025 781.883 687.564 778.667C687.281 755.439 687.432 732.192 687.424 708.961C687.419 694.352 686.926 679.538 687.585 664.956Z"/>
	<path fill="#010101" d="M52.7907 191.844C65.7953 191.475 78.9396 191.915 91.9579 191.939L166.938 191.946L407.017 191.898L532.982 191.927L569.42 191.868C577.128 191.824 585.105 191.321 592.761 192.179C593.487 193.343 593.46 194.883 593.51 196.22C593.792 203.803 593.51 211.485 593.502 219.075L593.545 260.86C593.55 296.511 593.861 332.202 593.373 367.848C597.447 367.834 601.66 367.938 605.629 368.943C613.336 370.893 617.216 375.77 621.173 382.198C626.342 383.441 631.927 383.741 637.201 384.536C643.651 385.509 650.035 386.881 656.421 388.2C668.076 359.852 677.709 326.012 700.293 304.176C710.473 295.304 722.529 290.226 734.718 284.778C734.618 282.748 734.551 280.761 734.665 278.73C730.521 272.257 727.497 264.903 729.112 257.048C729.829 253.559 731.241 251.124 734.05 248.989C734.547 246.146 735.098 243.476 736.002 240.728C730.635 236.054 728.368 232.419 727.575 225.252C729.117 221.878 730.398 219.917 733.979 218.58C739.506 216.518 747.769 217.991 752.909 220.604C756.6 222.48 758.986 224.759 760.965 228.37C768.176 229.605 776.714 230.695 781.34 237.102C784.544 241.54 784.036 246.054 783.346 251.125C784.864 253.737 785.468 256.618 784.664 259.585C783.757 262.935 781.021 265.892 778.041 267.574C776.58 268.399 774.928 268.909 773.32 269.362C773.188 274.381 773.221 279.466 772.559 284.448C785.493 291.094 799.749 296.72 810.052 307.345C825.565 321.581 842.456 356.851 845.377 377.526C853.546 361.923 860.409 344.774 867.489 328.599C869.816 323.281 872.222 315.118 875.637 310.679C876.38 310.727 876.978 310.792 877.695 310.934C877.824 310.482 877.945 310.027 878.055 309.57C878.325 310.156 878.467 310.821 878.865 311.329C881.602 314.819 905.319 323.62 910.261 325.477C911.276 325.859 912.502 326.391 913.574 326.5C914.329 327.416 915.399 328.206 915.291 329.469C915.214 330.379 905.036 351.983 903.531 355.496C897.511 369.54 891.085 383.413 885.165 397.497C880.339 408.976 876.14 421.917 869.637 432.501C866.53 437.557 862.394 441.848 856.996 444.458C848.914 448.365 839.44 448.521 831.051 445.48C826.426 443.804 822.447 441.176 818.466 438.342Q818.356 453.719 818.511 469.095C826.91 469.071 841.147 467.869 849.091 469.811Q850.327 470.113 851.508 470.583Q852.69 471.053 853.796 471.683Q854.901 472.312 855.908 473.089Q856.916 473.865 857.806 474.774C859.369 476.388 860.681 478.487 861.749 480.456L917.302 480.425C926.482 480.412 937.44 479.222 946.41 481.004C949.354 481.589 951.999 483.251 954.12 485.338C956.792 487.968 958.663 491.307 959.346 495.002C960.337 500.36 959.974 506.098 959.974 511.524L959.966 535.887L960.061 632.75C965.065 634.35 969.122 636.496 971.662 641.371C973.862 645.592 974.697 651.189 973.235 655.777C971.934 659.857 968.74 663.082 964.914 664.901C956.763 668.775 923.656 666.911 912.44 667.053L912.508 744.172L937.304 744.057C942.261 744 947.685 743.411 952.588 744.12C954.622 744.414 956.447 744.985 957.972 746.416C960.01 748.329 961.201 750.901 961.205 753.711C961.209 756.746 960.103 759.869 957.784 761.9C955.566 763.843 952.48 764.644 949.577 764.318C946.539 763.977 943.6 762.384 941.725 759.959C940.14 757.91 939.512 755.417 939.918 752.861C940.31 750.387 941.579 748.678 943.131 746.798Q899.341 746.452 855.553 746.914L855.891 747.475C857.715 750.55 858.935 753.719 857.931 757.318C857.206 759.921 855.327 761.976 852.947 763.19C850.215 764.585 846.932 764.646 844.074 763.589C841.532 762.648 839.492 760.822 838.508 758.272C837.559 755.812 837.623 752.617 838.734 750.221C839.855 747.804 842.014 746.005 844.513 745.143C849.271 743.502 876.273 744.393 883.096 744.355L883.024 667.025Q870.091 666.939 857.157 667.015C850.978 667.044 844.088 667.649 838.033 666.372C835.443 665.825 833.176 664.7 831.257 662.861C827.836 659.582 826.067 654.583 826.152 649.893C826.236 645.249 828.246 640.337 831.777 637.259C834.912 634.525 838.467 633.482 842.482 632.852Q842.6 615.704 842.5 598.556L818.319 598.562C820.367 635.516 823.836 672.589 826.926 709.476C828.252 725.304 829.631 741.064 831.332 756.857C831.961 762.697 832.103 768.84 833.181 774.591C833.1 775.856 833.309 777.363 832.511 778.357C826.495 778.721 773.957 779.149 772.054 778.16C771.881 770.942 770.901 763.669 770.206 756.479Q768.508 739.293 766.997 722.09L760.724 658.019Q758.014 628.186 754.765 598.407C752.348 598.255 749.907 598.28 747.485 598.244C747.066 628.363 747.947 658.54 747.932 688.667L748.041 742.134C748.104 753.79 747.989 765.541 748.705 777.177C746.559 778.629 695.588 777.855 688.023 778.078L687.849 707.185C687.872 693.214 688.539 678.882 687.585 664.956L687.474 598.158C669.902 597.915 652.293 598.021 634.719 598.085C634.576 609.346 634.734 620.63 634.761 631.893C637.93 632.669 640.681 633.87 643.135 636.072C646.693 639.265 649.041 643.706 649.27 648.522C649.496 653.281 646.998 658.944 643.676 662.316C641.537 664.487 638.989 665.648 636.04 666.299C629.688 667.702 622.555 667.059 616.062 667.048L588.302 666.987C587.636 692.112 588.27 717.374 588.389 742.511Q599.744 742.661 611.099 742.569C616.221 742.485 621.545 742.025 626.638 742.383C628.628 742.523 630.694 742.87 632.464 743.837C634.747 745.084 636.225 747.628 636.862 750.087C637.743 753.49 636.917 756.861 635.028 759.776C633.52 762.103 631.191 763.807 628.449 764.334Q627.883 764.437 627.31 764.483Q626.737 764.529 626.162 764.517Q625.587 764.505 625.016 764.435Q624.446 764.365 623.885 764.238Q623.324 764.111 622.779 763.928Q622.234 763.745 621.71 763.508Q621.186 763.272 620.688 762.983Q620.191 762.695 619.725 762.358C617.287 760.589 615.684 757.965 615.395 754.951C615.035 751.191 616.509 748.542 618.771 745.726L619.245 745.145L534.267 745.184C535.609 747.741 536.654 750.318 536.97 753.216C537.257 755.848 536.767 758.487 534.979 760.518C533.174 762.568 530.488 763.704 527.788 763.887C524.565 764.107 521.317 762.869 518.962 760.681C516.989 758.847 515.798 756.365 515.761 753.659C515.722 750.744 517.006 747.267 519.079 745.19C520.49 743.777 522.22 743 524.161 742.609C527.756 741.884 531.916 742.457 535.592 742.472L561.067 742.512L561.066 666.951Q547.477 666.858 533.889 667.028C528.238 667.076 522.063 667.632 516.491 666.671Q515.448 666.5 514.43 666.215Q513.412 665.93 512.433 665.534Q511.453 665.138 510.523 664.636Q509.593 664.134 508.724 663.532C504.669 660.677 502.293 656.335 501.679 651.446C501.072 646.614 502.843 641.853 505.948 638.16C510.029 633.308 515.585 632.51 521.498 631.892C522.395 617.207 521.82 602.214 521.788 587.49C469.182 586.77 416.502 587.472 363.887 587.563L364.004 711.199C387.555 711.135 411.254 710.465 434.791 710.939C441.441 711.073 447.514 713.199 452.062 718.221Q453.102 719.383 453.984 720.668Q454.866 721.954 455.574 723.343Q456.283 724.732 456.807 726.201Q457.33 727.669 457.66 729.193C459.534 737.602 458.521 757.045 458.105 766.286C447.068 766.874 435.831 766.46 424.772 766.449L366.454 766.419L190.093 766.472C189.758 757.862 189.897 749.173 189.853 740.554C189.809 731.978 190.246 723.497 196.847 717.102Q197.365 716.599 197.919 716.135Q198.472 715.672 199.059 715.25Q199.645 714.829 200.261 714.451Q200.876 714.074 201.518 713.743Q202.16 713.412 202.824 713.128Q203.488 712.845 204.171 712.612Q204.855 712.378 205.553 712.196Q206.252 712.013 206.962 711.882C214.513 710.426 223.478 711.486 231.245 711.478L283.936 711.392L283.534 587.56L52.7578 587.492C51.7637 573.336 52.5827 556.216 52.5877 541.773L52.8189 446.661L52.9147 287.689Q52.5782 239.765 52.7907 191.844Z"/>
	<path fill="#FEFEFE" d="M845.916 747.07C847.459 746.965 849.002 746.816 850.51 747.242C852.409 747.779 854.207 749.796 855.019 751.521C855.87 753.328 855.952 755.399 855.168 757.244C854.203 759.518 852.502 760.645 850.29 761.534C848.815 761.56 847.06 761.68 845.638 761.284C843.803 760.773 842.142 759.251 841.216 757.625Q841.057 757.349 840.927 757.059Q840.797 756.768 840.697 756.466Q840.597 756.164 840.528 755.853Q840.459 755.542 840.422 755.226Q840.386 754.91 840.381 754.592Q840.376 754.273 840.404 753.956Q840.432 753.639 840.492 753.327Q840.552 753.014 840.643 752.709C841.461 749.872 843.442 748.429 845.916 747.07Z"/>
	<path fill="#FEFEFE" d="M524.872 745.06C526.296 745.091 527.699 745.176 529.06 745.638C531.017 746.302 532.728 747.906 533.637 749.748C534.659 751.821 534.704 754.047 533.903 756.204C532.837 759.076 530.735 760.138 528.065 761.297C526.792 761.376 525.704 761.324 524.471 760.952C522.498 760.356 520.741 758.99 519.783 757.152C518.724 755.12 518.647 752.687 519.411 750.543C520.384 747.81 522.367 746.31 524.872 745.06Z"/>
	<path fill="#FEFEFE" d="M947.925 746.618C949.426 746.534 951.019 746.375 952.509 746.627C954.702 746.999 956.705 748.406 957.905 750.268C958.932 751.861 959.304 753.857 958.806 755.697C957.968 758.796 955.998 760.281 953.312 761.762C951.608 761.989 949.667 762.267 948.017 761.661C945.857 760.867 943.941 759.005 942.976 756.93C942.071 754.985 941.933 752.736 942.788 750.746C943.803 748.386 945.656 747.519 947.925 746.618Z"/>
	<path fill="#FEFEFE" d="M623.929 745.074C625.338 744.997 626.831 744.856 628.213 745.205C630.375 745.751 632.188 747.326 633.25 749.263C634.359 751.285 634.51 753.773 633.783 755.946C632.821 758.827 631.113 760.127 628.489 761.447C627.219 761.544 625.977 761.609 624.716 761.375C622.523 760.967 620.526 759.804 619.341 757.88C618.241 756.096 618.015 753.972 618.494 751.951C619.251 748.754 621.236 746.777 623.929 745.074Z"/>
	<path fill="#FEFEFE" d="M746.986 526.645C747.215 526.8 747.466 526.928 747.675 527.11C748.717 528.016 753.484 587.892 754.231 595.507L747.534 595.516L746.986 526.645Z"/>
	<path fill="#FEFEFE" d="M593.498 370.89C600.595 370.65 607.116 370.919 612.814 375.797C617.267 379.609 619.792 385.165 620.177 390.97C620.561 396.764 618.926 402.417 615.001 406.768C610.189 412.103 603.88 413.829 596.968 414.248C592.586 413.971 588.601 412.596 585.123 409.85Q584.705 409.519 584.304 409.167Q583.904 408.815 583.521 408.444Q583.139 408.072 582.775 407.682Q582.412 407.291 582.069 406.883Q581.726 406.475 581.404 406.05Q581.082 405.625 580.782 405.184Q580.481 404.743 580.204 404.288Q579.926 403.833 579.672 403.364Q579.418 402.895 579.187 402.414Q578.957 401.933 578.751 401.441Q578.545 400.949 578.365 400.448Q578.184 399.946 578.029 399.436Q577.874 398.926 577.745 398.408Q577.615 397.891 577.512 397.368Q577.409 396.844 577.333 396.317Q577.257 395.789 577.207 395.258C576.471 387.47 579.829 381.139 584.686 375.418C586.063 376.771 587.719 378.717 589.592 379.329C591.327 379.895 592.836 379.779 594.463 378.968C595.032 378.202 595.374 377.925 595.537 376.954C595.941 374.548 594.914 372.726 593.498 370.89Z"/>
	<path fill="#FEFEFE" d="M563.653 667.002L585.518 667.004L585.599 742.479L563.629 742.462C563.253 717.333 563.63 692.138 563.653 667.002Z"/>
	<path fill="#FEFEFE" d="M885.533 667.115C893.619 666.981 901.721 667.096 909.808 667.106C909.714 692.781 910.302 718.546 909.672 744.204C901.783 744.126 893.884 744.29 885.992 744.236Q885.55 705.677 885.533 667.115Z"/>
	<path fill="#FEFEFE" d="M818.518 471.948C827.251 471.769 837.293 470.833 845.882 471.999C851.791 472.802 855.121 475.666 858.569 480.216C854.488 481.374 850.77 483.005 847.722 486.05C845.426 488.343 843.587 491.415 842.972 494.621C841.227 503.715 842.418 516.922 842.438 526.442L842.376 586.559L842.393 595.909Q830.186 595.775 817.983 596.119C816.599 585.386 816.238 574.333 815.413 563.534C814.139 546.856 812.631 530.199 811.917 513.483L818.33 512.917C818.851 499.304 818.516 485.574 818.518 471.948Z"/>
	<path fill="#FEFEFE" d="M878.721 635.752L933.803 635.62C942.045 635.6 951.302 634.725 959.436 635.824C962.26 636.205 964.541 637.345 966.595 639.325C969.485 642.111 971.046 645.596 971.101 649.599C971.156 653.508 970.134 657.384 967.282 660.194C965.194 662.251 962.413 663.3 959.583 663.865C950.822 665.614 930.498 664.479 920.75 664.454L866.827 664.483C858.366 664.494 848.837 665.412 840.501 664.17C837.696 663.752 835.411 662.915 833.357 660.905C830.632 658.237 828.778 654.315 828.731 650.484C828.681 646.502 830.026 642.662 832.895 639.853C834.704 638.082 836.97 636.919 839.428 636.353C846.655 634.691 869.831 635.746 878.721 635.752Z"/>
	<path fill="#FEFEFE" d="M518.834 634.653C540.183 634.014 561.708 634.704 583.077 634.653L614.592 634.56C620.543 634.543 626.621 634.286 632.555 634.713C635.169 634.901 637.412 635.19 639.681 636.591C643.039 638.664 645.244 641.882 646.042 645.741C646.875 649.777 646.171 654.706 643.812 658.138C641.071 662.127 637.185 663.61 632.627 664.372C624.72 664.77 616.641 664.447 608.714 664.441L563.572 664.417L532.771 664.423C528.094 664.433 523.147 664.892 518.502 664.444C515.821 664.185 513.189 663.339 510.942 661.837Q510.326 661.43 509.754 660.963Q509.182 660.496 508.659 659.974Q508.136 659.452 507.669 658.881Q507.201 658.309 506.793 657.694Q506.385 657.078 506.04 656.425Q505.695 655.772 505.418 655.088Q505.14 654.403 504.932 653.695Q504.725 652.986 504.589 652.26C503.836 648.166 505.025 643.806 507.525 640.512C510.512 636.576 514.163 635.286 518.834 634.653Z"/>
	<path fill="#FEFEFE" d="M596.193 483.716Q604.646 483.69 613.098 483.571C618.357 483.542 624.34 483.839 628.21 487.921C630.351 490.179 631.369 493.063 631.728 496.104C632.343 501.32 632.033 506.802 632.012 512.049L631.923 539.116L632 631.78L560.264 632.016C549.654 632.025 538.762 632.534 528.19 632.21C526.677 632.164 525.8 632.137 524.605 631.242L524.477 629.625L524.527 587.489L596.06 587.41L596.223 578.66C600.193 578.752 605.779 579.444 609.429 577.611L609.514 577.192C607.003 574.98 599.688 576.074 596.336 576.132Q596.201 563.6 596.311 551.067C598.793 551.087 601.326 551.18 603.802 551.003C605.418 550.888 608.071 550.588 609.137 549.346C605.88 547.316 599.94 548.11 596.194 548.26Q596.037 535.043 596.166 521.825C600.159 521.951 603.812 522.314 607.622 520.905L607.855 520.194C604.894 518.107 599.589 518.909 596.17 519.027Q596.018 501.371 596.193 483.716Z"/>
	<path fill="#FEFEFE" d="M286.366 587.546Q323.798 587.351 361.231 587.534L361.443 711.166L286.433 711.374L286.366 587.546Z"/>
	<path fill="#FEFEFE" d="M596.51 417.815C607.326 432.341 623.913 443.489 642.071 446.036C656.151 448.012 669.506 444.438 680.783 435.836Q681.625 435.194 682.446 434.524L682.441 489.991C682.436 495.559 681.495 508.247 682.772 513.171C684.327 513.212 685.751 513.329 687.279 513.62C688.525 520.766 687.582 530.867 687.574 538.347L687.467 595.487L634.715 595.472C634.437 572.528 634.618 549.55 634.683 526.604C634.71 517.191 635.72 503.805 634.439 494.684Q634.353 494.04 634.214 493.405Q634.075 492.771 633.883 492.15Q633.692 491.529 633.45 490.926Q633.207 490.324 632.915 489.743Q632.624 489.163 632.285 488.608Q631.946 488.054 631.562 487.53Q631.178 487.006 630.752 486.516Q630.326 486.025 629.86 485.572C622.578 478.477 605.944 480.713 596.479 480.75L596.51 417.815Z"/>
	<path fill="#FEFEFE" d="M208.371 714.065Q209.895 713.972 211.422 713.924C228.207 713.524 245.095 713.896 261.888 713.898L359.762 713.895L411.445 713.896C420.267 713.898 429.86 713.172 438.593 714.235Q439.337 714.321 440.071 714.468Q440.805 714.615 441.524 714.824Q442.243 715.032 442.943 715.299Q443.642 715.567 444.317 715.892Q444.991 716.217 445.636 716.597Q446.281 716.978 446.892 717.41Q447.503 717.843 448.076 718.325Q448.649 718.808 449.179 719.336Q449.702 719.864 450.187 720.427Q450.672 720.99 451.116 721.586Q451.56 722.181 451.961 722.807Q452.363 723.432 452.719 724.084Q453.076 724.736 453.386 725.411Q453.695 726.087 453.957 726.782Q454.219 727.478 454.432 728.19Q454.644 728.902 454.806 729.627C456.732 737.932 455.542 754.384 455.5 763.634L439.899 763.738L192.688 763.871C192.53 753.299 190.479 731.563 195.807 722.907C198.768 718.096 202.979 715.444 208.371 714.065Z"/>
	<path fill="#FEFEFE" d="M859.433 483.112Q860.558 483.051 861.683 483.007C878.019 482.365 894.597 482.901 910.959 482.871C920.826 482.854 934.083 481.828 943.606 483.279C947.113 483.813 949.518 484.571 952.083 487.064C954.468 489.383 956.123 492.317 956.718 495.603C957.718 501.121 957.337 507.128 957.344 512.73L957.403 537.055L957.49 633.114L944.076 633.183L845.433 633.188C845.116 623.319 845.355 613.361 845.317 603.479L845.028 553.614L844.934 519.508C844.919 512.855 844.633 506.082 845.091 499.448C845.294 496.508 845.635 493.628 847.168 491.045C849.874 486.485 854.457 484.268 859.433 483.112Z"/>
	<path fill="#4B71BE" d="M872.411 548.672C885.781 548.081 899.336 548.511 912.725 548.511C918.872 548.51 927.317 547.611 933.16 548.816L933.651 550.338C927.456 550.805 875.863 551.199 872.866 550.257L872.411 548.672Z"/>
	<path fill="#4B71BE" d="M727.575 225.252C729.117 221.878 730.398 219.917 733.979 218.58C739.506 216.518 747.769 217.991 752.909 220.604C756.6 222.48 758.986 224.759 760.965 228.37C768.176 229.605 776.714 230.695 781.34 237.102C784.544 241.54 784.036 246.054 783.346 251.125C784.864 253.737 785.468 256.618 784.664 259.585C783.757 262.935 781.021 265.892 778.041 267.574C776.58 268.399 774.928 268.909 773.32 269.362C773.188 274.381 773.221 279.466 772.559 284.448C785.493 291.094 799.749 296.72 810.052 307.345C825.565 321.581 842.456 356.851 845.377 377.526C853.546 361.923 860.409 344.774 867.489 328.599C869.816 323.281 872.222 315.118 875.637 310.679C876.38 310.727 876.978 310.792 877.695 310.934C877.824 310.482 877.945 310.027 878.055 309.57C878.325 310.156 878.467 310.821 878.865 311.329C881.602 314.819 905.319 323.62 910.261 325.477C911.276 325.859 912.502 326.391 913.574 326.5C914.329 327.416 915.399 328.206 915.291 329.469C915.214 330.379 905.036 351.983 903.531 355.496C897.511 369.54 891.085 383.413 885.165 397.497C880.339 408.976 876.14 421.917 869.637 432.501C866.53 437.557 862.394 441.848 856.996 444.458C848.914 448.365 839.44 448.521 831.051 445.48C826.426 443.804 822.447 441.176 818.466 438.342L818.527 394.961C818.526 388.48 819.025 381.61 818.539 375.18C818.421 373.623 818.242 372.23 817.42 370.875L816.665 370.852C815.738 372.287 815.514 373.784 815.394 375.463C814.57 386.921 815.457 402.402 815.508 414.235C815.647 446.594 816.415 479.1 815.579 511.441L762.486 511.427C756.939 500.595 753.268 488.636 748.8 477.32C743.786 488.452 740.764 500.459 735.317 511.409L685.539 511.501L685.541 456.539C685.561 419.533 684.528 380.407 699.097 345.619C701.403 340.111 704.105 334.144 707.62 329.294C707.901 350.662 717.321 390.461 732.643 405.627C734.561 407.525 736.321 408.908 738.988 409.472L739.929 409.123C740.055 408.154 740.246 408.37 739.739 407.772C738.686 406.529 737.15 405.673 735.914 404.6C733.433 402.446 731.306 399.783 729.508 397.044C720.803 383.782 714.661 364.006 712.224 348.398C711.607 344.447 711.035 340.434 710.726 336.448C710.525 333.86 710.845 326.331 710.174 324.433C710.057 324.101 709.779 323.851 709.581 323.56C707.919 323.785 707.007 324.967 706.019 326.253C701.241 332.475 697.667 340.234 694.835 347.502C682.348 379.559 682.772 413.467 682.922 447.316L682.909 487.386C682.919 495.872 683.429 504.723 682.772 513.171C681.495 508.247 682.436 495.559 682.441 489.991L682.446 434.524Q681.625 435.194 680.783 435.836C669.506 444.438 656.151 448.012 642.071 446.036C623.913 443.489 607.326 432.341 596.51 417.815L596.576 417.606C598.077 416.203 603.201 416.255 605.573 415.535C612.009 413.582 617.775 409.547 620.823 403.41C624.182 396.646 623.406 389.132 621.173 382.198C626.342 383.441 631.927 383.741 637.201 384.536C643.651 385.509 650.035 386.881 656.421 388.2C668.076 359.852 677.709 326.012 700.293 304.176C710.473 295.304 722.529 290.226 734.718 284.778C734.618 282.748 734.551 280.761 734.665 278.73C730.521 272.257 727.497 264.903 729.112 257.048C729.829 253.559 731.241 251.124 734.05 248.989C734.547 246.146 735.098 243.476 736.002 240.728C730.635 236.054 728.368 232.419 727.575 225.252Z"/>
	<path fill="#010101" d="M789.617 323.464C791.606 323.578 793.844 324.011 795.36 325.425C796.3 326.301 796.583 327.249 796.515 328.538C795.941 339.473 781.979 374.434 775.352 384.249C770.98 390.725 765.47 395.88 759.816 401.197C759.28 401.055 758.763 400.696 758.276 400.43C758.013 399.585 757.835 399.713 758.172 399.11C759.924 395.971 765.983 391.57 768.622 388.584C780.521 375.123 789.449 345.534 793.877 328.064C792.568 327.35 790.792 326.595 789.831 325.464C789.305 324.845 789.569 324.222 789.617 323.464Z"/>
	<path fill="#010101" d="M727.575 225.252C729.117 221.878 730.398 219.917 733.979 218.58C739.506 216.518 747.769 217.991 752.909 220.604C756.6 222.48 758.986 224.759 760.965 228.37C768.176 229.605 776.714 230.695 781.34 237.102C784.544 241.54 784.036 246.054 783.346 251.125C784.864 253.737 785.468 256.618 784.664 259.585C783.757 262.935 781.021 265.892 778.041 267.574C776.58 268.399 774.928 268.909 773.32 269.362C773.188 274.381 773.221 279.466 772.559 284.448C785.493 291.094 799.749 296.72 810.052 307.345L808.779 308.179C805.947 308.391 792.81 298.064 789.307 295.889C786.097 311.082 781.009 329.24 775.666 343.826C771.809 354.353 767.213 364.721 762.772 375.016C758.253 385.492 752.22 395.801 751.843 407.443C751.581 415.53 753.114 438.263 750.93 444.398C750.622 445.264 750.14 445.901 749.579 446.616L747.817 446.422C743.895 441.135 747.516 412.556 745.794 403.643C744.541 397.156 741.604 390.822 739.335 384.632C737.107 378.555 735.222 372.368 733.326 366.181C730.608 357.318 727.66 348.441 725.484 339.427C722.025 325.094 719.859 310.411 717.388 295.882C713.763 297.937 706.078 304.844 702.547 305.447C701.728 305.587 700.925 304.658 700.293 304.176C710.473 295.304 722.529 290.226 734.718 284.778C734.618 282.748 734.551 280.761 734.665 278.73C730.521 272.257 727.497 264.903 729.112 257.048C729.829 253.559 731.241 251.124 734.05 248.989C734.547 246.146 735.098 243.476 736.002 240.728C730.635 236.054 728.368 232.419 727.575 225.252Z"/>
	<path fill="#FEFEFE" d="M736.999 247.677C737.344 246.127 737.649 244.515 738.127 243C738.698 241.191 739.604 239.787 741.382 238.951C745.595 236.97 754.618 238.787 758.778 240.65C764.054 243.012 764.85 250.208 766.775 255.17C768.056 254.21 769.329 253.3 770.839 252.731C773.143 251.862 776.134 251.667 778.38 252.815C779.83 253.556 780.978 254.836 781.381 256.432C781.791 258.057 781.391 259.749 780.558 261.171C778.314 265.002 774.289 266.314 770.286 267.45C770.033 272.334 770.524 277.152 770.091 282.063C767.206 284.102 764.217 286.6 761.652 289.036C760.834 289.814 760.038 290.504 760.014 291.665C760.595 291.778 760.651 291.822 761.337 291.764C764.84 291.467 767.446 288.365 769.744 286.043C775.072 289.576 781.073 291.957 786.899 294.532C783.156 308.266 779.951 322.373 775.495 335.885C772.172 345.962 767.817 355.761 763.727 365.549C759.483 376.948 753.245 387.555 748.916 398.891C744.589 390.492 740.147 380.458 738.062 371.245C729.921 347.035 722.867 319.831 720.287 294.394C724.777 292.274 735.139 285.843 739.727 287.57C740.681 287.929 741.514 288.155 742.516 288.362L742.936 287.959C742.355 286.263 740.893 284.852 739.724 283.508C739.389 283.122 739.009 282.741 738.75 282.295C737.976 280.959 737.749 279.213 737.178 277.773C736.571 276.24 735.412 274.758 734.638 273.269C731.865 267.929 730.607 261.45 732.084 255.535C734.366 246.398 740.159 252.296 742.945 250.585L742.778 249.778C740.992 248.533 739.078 248.182 736.999 247.677Z"/>
	<path fill="#010101" d="M737.692 253.412C739.133 253.405 740.052 253.366 741.325 254.167C741.959 255.549 741.896 255.798 741.7 257.325C740.092 257.475 739.292 257.502 737.895 256.62C737.32 255.192 737.409 254.946 737.692 253.412Z"/>
	<path fill="#010101" d="M750.454 244.953C751.101 245.006 751.858 245.027 752.496 245.185C753.768 245.501 754.425 245.795 755.18 246.862C755.09 247.987 754.994 248.188 754.364 249.132C753.398 248.813 752.363 248.529 751.435 248.117C750.196 247.566 750.061 247.504 749.601 246.323L750.454 244.953Z"/>
	<path fill="#010101" d="M748.066 250.952C748.298 250.96 748.529 250.958 748.76 250.975C750.485 251.102 751.859 251.381 753.065 252.693C753.695 254.224 753.422 255.074 753.016 256.592C751.692 256.305 750.211 255.978 749.273 254.897C748.142 253.594 748.122 252.571 748.066 250.952Z"/>
	<path fill="#010101" d="M753.863 275.667C754.529 275.566 755.355 275.385 756.042 275.462C757.159 275.586 758.005 276.01 758.719 276.855C756.495 278.827 751.111 278.759 748.139 279.071C747.237 279.083 746.332 279.099 745.43 279.073C743.809 279.027 742.981 278.841 741.888 277.639C743.372 275.989 751.283 276.089 753.863 275.667Z"/>
	<path fill="#D05436" d="M748.065 313.667C746.415 307.2 742.773 301.194 741.532 294.632C741.973 294.233 741.951 294.203 742.587 293.913C746.258 292.24 758.045 293.844 761.845 295.05C760.01 300.004 757.606 304.768 755.37 309.552C753.51 312.122 750.674 312.137 748.065 313.667Z"/>
	<path fill="#E5714D" d="M748.065 313.667C750.674 312.137 753.51 312.122 755.37 309.552C756.195 317.5 761.299 361.064 763.727 365.549C759.483 376.948 753.245 387.555 748.916 398.891C744.589 390.492 740.147 380.458 738.062 371.245C739.271 365.724 739.838 359.915 740.852 354.336Q744.685 334.042 748.065 313.667Z"/>
	<path fill="#FEFEFE" d="M55.4423 194.6L361.447 194.464Q476.117 193.88 590.786 194.465L590.499 365.013C571.326 333.9 551.186 303.373 531.946 272.298C522.002 256.237 512.216 240.113 501.997 224.22C498.737 219.148 495.695 213.458 492.147 208.634C491.06 207.156 489.644 205.539 487.791 205.1C486.924 204.895 487.166 204.976 486.343 205.494C486.261 206.723 486.323 207.097 486.884 208.234C489.361 213.261 492.596 218.15 495.431 223.004L511.857 251.207L571.008 352.983C575.101 359.657 580.337 366.207 583.066 373.577C580.133 376.594 577.59 379.765 576.008 383.694C573.466 390.004 573.353 397.064 576.21 403.302C579.664 410.844 585.919 414.227 593.322 416.917C593.961 439.778 593.508 462.756 593.466 485.626L593.435 584.713C534.892 585.67 476.234 584.956 417.679 585.009L55.4465 585.069L55.528 359.516C55.5025 304.56 54.89 249.55 55.4423 194.6Z"/>
	<path fill="#4B71BE" d="M435.448 319.639C439.589 318.969 489.181 319.045 490.688 319.8L490.847 321.028C483.208 321.366 439.153 322.228 435.834 320.82L435.448 319.639Z"/>
	<path fill="#4B71BE" d="M317.559 319.632C320.882 318.942 370.72 318.95 372.75 319.85C373.426 320.15 373.335 320.662 373.512 321.313C367.148 321.978 321.089 322.426 317.798 321.234L317.559 319.632Z"/>
	<path fill="#4B71BE" d="M317.537 292.687C324.52 292.324 384.876 291.691 386.789 292.843L386.924 294.181C380.337 294.271 321.21 295.426 318.35 294.157C317.626 293.836 317.729 293.377 317.537 292.687Z"/>
	<path fill="#4B71BE" d="M435.101 292.699C439.192 291.996 504.108 292.098 506.771 292.678C507.843 292.911 507.685 293.085 508.245 293.948C505.578 294.82 439.29 294.896 436.59 294.218C435.57 293.962 435.622 293.556 435.101 292.699Z"/>
	<path fill="#4B71BE" d="M331.315 266.25C337.47 266.212 383.372 265.404 386.182 267.271L386.034 268.177C382.765 269.374 376.756 268.55 373.165 268.539C366.614 268.537 320.245 269.139 318.584 268.28C317.9 267.926 318.103 267.884 317.939 267.052C320.564 265.293 328.08 266.217 331.315 266.25Z"/>
	<path fill="#4B71BE" d="M436.355 266.196C457.237 265.821 478.137 266.649 499.019 266.295C501.336 266.256 506.533 265.64 508.201 267.254L507.581 268.33C500.216 268.531 438.607 269.314 435.84 268.107L435.599 267.303L436.355 266.196Z"/>
	<path fill="#4B71BE" d="M195.187 412.243C202.897 412.034 210.628 412.093 218.341 412.052Q217.888 466.959 218.221 521.867Q228.302 521.883 238.382 521.727C238.968 492.766 238.443 463.688 238.454 434.717C246.017 434.574 253.604 434.716 261.169 434.735Q261.073 478.37 261.522 522L282.386 522.004C282.57 498.932 281.791 475.854 282.308 452.781L305.79 452.911C306.413 475.883 305.948 498.965 306.181 521.956L312.551 522.081C370.789 521.349 429.121 521.831 487.368 521.92L541.073 521.802C548.942 521.769 557.405 521.012 565.216 521.651C566.37 521.746 567.181 522.044 568.14 522.697L567.866 523.314C562.475 525.002 550.797 523.705 544.699 523.74L460.638 523.775L424.443 523.761C418.679 523.755 412.428 524.215 406.733 523.605C397.068 524.337 386.981 523.804 377.263 523.818L321.503 523.892L137.79 523.927C130.812 523.925 84.9066 524.654 81.3555 523.545L81.1476 522.816C83.26 521.112 104.218 521.812 108.537 521.772C108.684 508.209 108.53 494.63 108.514 481.065L130.974 481.267L131.01 521.913Q141.306 521.954 151.598 521.675L151.55 443.783L174.509 443.792C174.698 469.796 174.252 495.854 174.834 521.847Q185.045 521.99 195.257 521.863C195.246 485.328 195.577 448.774 195.187 412.243Z"/>
	<path fill="#010101" d="M185.853 247.705C186.184 247.68 186.514 247.651 186.845 247.63C201.724 246.706 217.305 252.869 228.353 262.633C240.449 273.323 248.519 289.824 249.458 305.972Q249.544 307.51 249.554 309.051Q249.564 310.592 249.498 312.131Q249.433 313.671 249.292 315.205Q249.151 316.739 248.935 318.265Q248.718 319.79 248.427 321.303Q248.136 322.816 247.772 324.313Q247.407 325.81 246.969 327.288Q246.531 328.765 246.021 330.219Q245.511 331.673 244.93 333.1Q244.349 334.527 243.699 335.924Q243.049 337.321 242.331 338.684Q241.613 340.047 240.829 341.374Q240.045 342.7 239.197 343.986Q238.348 345.273 237.438 346.516Q236.528 347.759 235.557 348.955Q234.587 350.152 233.559 351.3C223.097 363.044 207.864 369.671 192.279 370.592C176.838 371.621 162.141 367.047 150.14 357.292Q148.973 356.348 147.853 355.348Q146.734 354.348 145.666 353.294Q144.597 352.239 143.582 351.133Q142.568 350.027 141.609 348.872Q140.65 347.717 139.75 346.516Q138.849 345.315 138.01 344.071Q137.17 342.827 136.393 341.542Q135.615 340.258 134.903 338.937Q134.19 337.616 133.544 336.261Q132.898 334.906 132.319 333.521Q131.741 332.136 131.232 330.724Q130.723 329.312 130.285 327.876Q129.846 326.44 129.479 324.985Q129.113 323.529 128.818 322.057Q128.524 320.585 128.303 319.101Q128.082 317.616 127.935 316.122C126.307 299.552 131.85 282.048 142.475 269.26C153.486 256.008 169.004 249.358 185.853 247.705Z"/>
	<path fill="#FEFEFE" d="M237.683 278.463C243.362 285.987 246.178 296.968 246.953 306.205C233.445 305.633 219.771 306.044 206.25 306.14C202.723 306.196 199.182 306.11 195.653 306.089L237.683 278.463Z"/>
	<path fill="#E5714D" d="M193.044 250.45C195.635 250.54 198.045 250.869 200.574 251.421Q201.957 251.715 203.323 252.076Q204.689 252.438 206.036 252.867Q207.383 253.296 208.707 253.79Q210.031 254.285 211.329 254.845Q212.627 255.404 213.896 256.027Q215.165 256.65 216.401 257.335Q217.638 258.02 218.839 258.765Q220.04 259.511 221.203 260.314Q222.365 261.118 223.487 261.978Q224.609 262.838 225.687 263.753Q226.764 264.667 227.796 265.634Q228.827 266.6 229.809 267.617Q230.792 268.633 231.722 269.697Q232.653 270.76 233.531 271.869Q234.408 272.977 235.229 274.127Q236.05 275.277 236.814 276.467L218.923 287.549C210.144 292.851 201.57 298.885 193.196 304.808C192.58 286.74 193.009 268.532 193.044 250.45Z"/>
	<path fill="#FEFEFE" d="M184.275 250.688C186.292 250.342 188.552 250.465 190.607 250.399Q190.402 279.558 190.558 308.717C197.554 309.166 204.622 308.772 211.63 308.721Q229.413 308.582 247.196 308.763C246.908 322.623 242.713 335.608 234.05 346.549C224.137 359.068 209.84 366.125 194.12 367.869Q192.761 368.015 191.397 368.095Q190.033 368.176 188.667 368.191Q187.3 368.206 185.935 368.156Q184.569 368.106 183.208 367.991Q181.846 367.875 180.491 367.695Q179.137 367.515 177.793 367.27Q176.448 367.025 175.117 366.716Q173.786 366.407 172.471 366.035Q171.156 365.662 169.861 365.228Q168.565 364.793 167.292 364.297Q166.019 363.801 164.771 363.244Q163.523 362.688 162.303 362.072Q161.083 361.457 159.894 360.783Q158.705 360.11 157.549 359.381Q156.393 358.652 155.274 357.868Q154.155 357.084 153.074 356.248Q151.942 355.367 150.855 354.431Q149.768 353.496 148.727 352.508Q147.687 351.521 146.696 350.484Q145.705 349.446 144.766 348.362Q143.827 347.278 142.941 346.149Q142.056 345.021 141.227 343.85Q140.398 342.68 139.627 341.47Q138.856 340.26 138.145 339.015Q137.434 337.769 136.785 336.49Q136.135 335.211 135.549 333.902Q134.963 332.593 134.441 331.256Q133.919 329.92 133.464 328.56Q133.008 327.2 132.619 325.819Q132.23 324.439 131.909 323.041Q131.587 321.643 131.335 320.231Q131.082 318.819 130.899 317.396C128.833 300.955 133.309 285.197 143.585 272.209C153.78 259.324 168.189 252.501 184.275 250.688Z"/>
</svg>
