<?xml version="1.0" encoding="utf-8" ?>
<svg xmlns="http://www.w3.org/2000/svg" xmlns:xlink="http://www.w3.org/1999/xlink" width="1024" height="1024">
	<path fill="white" d="M0 0L1024 0L1024 1024L0 1024L0 0Z"/>
	<path fill="#8FBCF3" d="M374.855 204.81C386.214 209.925 397.071 216.923 408.224 222.576C405.731 228.888 404.052 235.441 402.268 241.978L400.543 248.589C392.164 233.886 383.278 219.488 374.855 204.81Z"/>
	<path fill="#8FBCF3" d="M131.857 207.553C135.898 207.132 139.496 207.15 143.291 208.785Q143.745 208.983 144.189 209.204Q144.633 209.424 145.065 209.667Q145.497 209.91 145.917 210.174Q146.336 210.438 146.742 210.723Q147.148 211.007 147.538 211.312Q147.929 211.617 148.304 211.941Q148.679 212.265 149.037 212.608Q149.395 212.951 149.736 213.311Q150.076 213.671 150.398 214.048Q150.72 214.425 151.023 214.817Q151.325 215.21 151.608 215.617Q151.89 216.025 152.152 216.446Q152.413 216.867 152.653 217.3Q152.893 217.734 153.111 218.179Q153.329 218.624 153.525 219.08Q153.72 219.535 153.892 220Q154.2 220.845 154.421 221.717Q154.643 222.589 154.776 223.479Q154.909 224.369 154.953 225.267Q154.997 226.166 154.95 227.064Q154.904 227.963 154.768 228.852Q154.632 229.741 154.408 230.613Q154.183 231.484 153.873 232.328Q153.563 233.173 153.17 233.982C150.71 239.13 146.277 242.673 140.921 244.437C136.248 245.23 131.979 245.059 127.682 242.84C123.29 240.571 119.9 236.761 118.399 232.028C116.815 227.033 117.216 221.377 119.663 216.725C122.35 211.619 126.535 209.168 131.857 207.553Z"/>
	<path fill="#8FBCF3" d="M64.3223 305.596C68.8767 305.344 72.6654 305.4 76.7986 307.716C81.4092 310.301 84.7494 314.923 86.0947 320.003Q86.22 320.477 86.3217 320.957Q86.4234 321.437 86.5013 321.921Q86.5792 322.406 86.6331 322.893Q86.687 323.381 86.7168 323.87Q86.7466 324.36 86.7521 324.85Q86.7577 325.341 86.7391 325.831Q86.7204 326.321 86.6776 326.81Q86.6348 327.299 86.5679 327.785Q86.501 328.27 86.4102 328.753Q86.3194 329.235 86.205 329.712Q86.0905 330.189 85.9526 330.659Q85.8148 331.13 85.6538 331.593Q85.4929 332.057 85.3093 332.512Q85.1256 332.967 84.9198 333.412Q84.714 333.857 84.4864 334.292Q84.2588 334.726 84.0101 335.149C81.0578 340.08 76.664 342.529 71.2867 343.97C67.0079 344.377 63.3119 344.335 59.3605 342.412C54.5911 340.091 51.1823 335.669 49.6347 330.649C48.0688 325.571 48.427 319.791 50.9924 315.094C53.8931 309.783 58.7461 307.237 64.3223 305.596Z"/>
	<path fill="#8FBCF3" d="M215.326 84.6674C222.131 83.775 230.457 86.2841 235.76 90.5012C241.82 95.3196 246.305 103.581 247.138 111.292C247.969 118.985 245.053 127.474 240.25 133.471C235.081 139.923 228.73 142.916 220.623 143.837C213.09 144.452 205.868 142.467 199.865 137.867C193.683 133.13 189.383 126.485 188.376 118.671Q188.277 117.919 188.215 117.163Q188.153 116.406 188.129 115.648Q188.104 114.89 188.117 114.131Q188.13 113.373 188.181 112.616Q188.231 111.858 188.319 111.105Q188.407 110.351 188.531 109.603Q188.656 108.854 188.818 108.113Q188.979 107.372 189.177 106.639Q189.375 105.907 189.609 105.185Q189.843 104.463 190.112 103.754Q190.381 103.044 190.685 102.349Q190.988 101.654 191.326 100.975Q191.664 100.295 192.034 99.6332Q192.405 98.9713 192.808 98.3284Q193.211 97.6856 193.645 97.0634Q194.08 96.4412 194.544 95.8412C199.85 89.0707 206.862 85.7157 215.326 84.6674Z"/>
	<path fill="#8FBCF3" d="M723.262 119.906C729.379 120.175 745.401 127.08 751.872 129.464C734.651 159.256 713.985 187.476 688.342 210.605C683.236 215.242 677.577 219.282 672.038 223.378C673.987 214.938 675.351 206.513 677.75 198.153C685.704 170.443 700.875 138.817 723.262 119.906Z"/>
	<path fill="#8FBCF3" d="M143.336 400.974L144.141 401.074C146.259 406.531 141.886 429.977 140.326 435.804C135.069 455.44 124.759 473.273 106.719 483.56C90.6439 492.726 73.8445 492.329 56.5045 487.609L51.9099 486.029C65.2698 455.863 82.1254 429.45 112.604 414.016C122.279 409.116 132.843 406.173 142.552 401.366L143.336 400.974Z"/>
	<path fill="#8FBCF3" d="M302.582 189.705C324.143 186.716 349.5 193.652 369.192 202.077C372.944 207.35 376.169 213.171 379.546 218.696Q389.806 235.421 399.491 252.486C392.572 270.403 385.196 289.635 367.593 299.485Q366.082 300.202 364.513 300.782Q362.945 301.363 361.331 301.802Q359.717 302.241 358.07 302.535Q356.424 302.83 354.758 302.977C339.567 304.352 324.927 298.197 313.395 288.619C286.496 266.278 275.626 228.964 272.396 195.445C282.448 192.703 292.155 190.54 302.582 189.705Z"/>
	<path fill="#8FBCF3" d="M656.762 109.218C678.711 108.417 699.192 112.198 720.088 118.701C690.625 146.767 675.338 186.226 669.27 225.745C654.794 235.292 640.344 243.668 622.938 246.48C621.395 246.755 619.878 246.884 618.315 246.962C604.527 247.647 590.746 243.453 580.509 234.008C566.488 221.073 559.823 202.44 559.091 183.693C558.78 175.732 559.643 159.482 562.841 152.282C564.223 149.17 566.871 146.153 569.177 143.684C592.15 119.094 624.226 110.368 656.762 109.218Z"/>
	<path fill="#8FBCF3" d="M754.315 130.524C777.1 141.062 797.913 154.76 814.299 174.047C841.147 205.648 845.456 234.806 840.152 274.667C838.589 286.418 836.287 298.181 835.328 309.996C804.737 303.618 774.611 302.024 743.839 307.856C726.734 312.08 711.557 318.839 697.117 328.921C683.972 307.878 673.818 283.334 671.501 258.403C670.535 248.013 670.978 237.44 671.53 227.037C697.164 213.686 742.627 156.531 754.315 130.524Z"/>
	<path fill="#8FBCF3" d="M776.92 306.211C795.941 305.514 816.493 308.78 835.054 312.725C834.49 326.455 833.497 339.938 836.157 353.559C844.746 397.553 881.878 418.497 916.067 441.542C943.736 460.193 982.003 485.507 988.613 520.436C996.486 562.035 966.248 597.424 944.362 629.237C941.089 622.218 938.568 614.603 935.74 607.377C911.952 545.984 877.196 479.457 829.441 433.239Q819.429 423.675 808.5 415.174Q797.57 406.674 785.836 399.324C751.108 377.477 723.125 366.912 698.669 331.225C723.58 314.179 747.124 307.491 776.92 306.211Z"/>
	<path fill="#8FBCF3" d="M671.081 368.675C676.438 354.612 684.977 343.374 695.881 333.112C725.013 371.657 749.435 378.772 787.033 403.308C848.7 443.551 887.217 506.145 917.327 571.797C926.287 591.331 935.382 611.6 942.057 632.05C935.326 641.375 926.974 650.113 919.249 658.651C904.26 675.219 888.838 691.326 873.693 707.737C874.667 708.724 875.937 708.65 877.279 708.89C872.647 709.001 867.968 708.785 863.333 708.714C850.659 671.87 839.233 633.137 827.514 595.838Q822.432 579.58 816.992 563.439C814.11 554.656 811.463 545.665 807.455 537.319C801.793 525.529 793.89 514.34 784.337 505.382Q782.542 503.684 780.678 502.064Q778.813 500.443 776.882 498.902Q774.951 497.361 772.957 495.903Q770.963 494.445 768.909 493.071Q766.856 491.698 764.746 490.413Q762.636 489.127 760.475 487.931Q758.313 486.735 756.103 485.631Q753.893 484.527 751.638 483.518Q749.384 482.508 747.089 481.593Q744.794 480.679 742.462 479.862Q740.131 479.045 737.767 478.326Q735.403 477.608 733.012 476.99Q730.62 476.372 728.204 475.854Q725.788 475.337 723.353 474.922Q720.918 474.507 718.467 474.195Q716.017 473.882 713.555 473.673C700.084 472.651 686.031 473.575 672.525 473.999C672.51 467.504 672.2 460.807 673.088 454.365C675.548 451.699 677.543 449.1 678.905 445.682C681.694 438.683 680.32 432.246 677.48 425.605C678.327 422.922 679.109 420.167 679.734 417.425C683.724 399.934 680.459 383.725 671.081 368.675Z"/>
	<path fill="#8FBCF3" d="M559.009 156.488C554.76 178.989 554.909 200.926 566.684 221.257C574.379 234.543 586.194 244.143 601.137 247.958C626.427 254.416 647.436 242.47 668.541 230.033C668.309 239.693 667.861 249.483 668.7 259.122C670.937 284.805 681.66 309.089 694.783 330.882C683.351 339.905 675.369 352.556 668.781 365.319C658.399 352.175 643.701 343.597 626.97 341.638C610.796 339.744 594.514 343.237 581.622 353.502Q580.441 354.456 579.308 355.466Q578.175 356.476 577.092 357.54Q576.009 358.604 574.979 359.719Q573.949 360.834 572.975 361.998Q572 363.162 571.083 364.371Q570.166 365.581 569.309 366.834Q568.451 368.087 567.656 369.379Q566.86 370.672 566.129 372.002Q565.397 373.332 564.73 374.696Q564.064 376.06 563.464 377.455Q562.865 378.849 562.334 380.271Q561.803 381.693 561.341 383.139Q560.88 384.586 560.489 386.052Q560.098 387.519 559.779 389.003Q559.46 390.487 559.213 391.985Q558.966 393.483 558.792 394.991C558.463 397.858 558.329 400.776 558.229 403.66C557.028 404.16 556.046 404.642 555.069 405.515C550.76 409.361 546.987 414.388 543.195 418.754C536.801 426.114 530.22 433.389 524.118 440.989Q531.476 468.636 539.661 496.05C518.706 520.754 504.71 532.762 494.297 564.958L488.768 565.509L488.353 566.902C480.683 567.579 472.131 567.501 464.45 566.965L464.396 564.455C464.833 559.428 464.655 554.181 464.745 549.127Q465.024 532.724 465.003 516.318C464.98 512.017 465.35 506.621 461.95 503.456C458.542 500.284 454.226 500.744 449.945 501.012C449.74 486.051 451.034 469.489 449.608 454.741L449.539 329.199C410.297 328.548 370.957 329.086 331.702 329.008L256.462 329.033C240.914 329.027 225.318 328.756 209.775 329.073C209.2 349.756 209.546 370.545 209.533 391.238L209.434 499.443C177.007 499.472 144.504 498.903 112.086 499.378C111.979 501.241 111.593 503.32 112.472 505.027C113.605 505.81 114.311 505.942 115.636 506.144C116.546 507.49 116.577 509.554 116.654 511.152C116.927 516.873 117.084 555.985 116.302 558.974C116.089 559.789 116.064 559.78 115.76 560.426C114.767 560.593 113.329 560.588 112.7 561.416C111.398 563.129 111.929 566.152 112.024 568.199C118.618 568.065 129.888 566.438 134.953 571.297C139.639 575.793 138.216 601.789 137.995 608.667C137.897 611.731 137.287 616.958 134.935 619.198C130.456 623.466 117.586 621.575 111.626 621.556C111.52 623.447 111.085 625.627 112.133 627.294C113.347 628.178 114.314 628.207 115.751 628.318C117.524 630.806 116.152 674.567 116.362 681.788C113.288 681.934 111.009 681.776 108.426 683.716C101.944 686.547 96.8938 690.659 94.0959 697.367C90.3245 706.408 93.3949 749.231 92.7505 762.23C92.515 762.161 92.2638 762.133 92.0442 762.023C89.9356 760.972 77.0837 738.935 75.1884 735.265C42.7887 672.531 26.9039 600.465 39.6617 530.369C42.265 516.066 46.4503 502.374 50.8205 488.539C59.0391 492.429 68.7695 494.017 77.8038 494.107C94.0455 494.267 110.722 487.169 122.2 475.719C142.079 455.888 147.409 425.77 147.573 398.733C178.887 383.035 181.614 337.744 187.309 307.495C189.784 294.35 192.859 281.335 197.856 268.895Q198.48 267.381 199.14 265.884Q199.801 264.386 200.498 262.905Q201.195 261.423 201.928 259.96Q202.661 258.496 203.43 257.05Q204.198 255.605 205.002 254.179Q205.806 252.753 206.644 251.347Q207.482 249.94 208.355 248.555Q209.227 247.17 210.133 245.807Q211.039 244.443 211.978 243.102Q212.917 241.761 213.889 240.444Q214.86 239.126 215.864 237.833Q216.867 236.539 217.902 235.271Q218.937 234.002 220.002 232.759Q221.068 231.517 222.163 230.3Q223.259 229.084 224.384 227.894Q225.509 226.705 226.662 225.544Q227.816 224.382 228.998 223.249Q230.18 222.117 231.389 221.013Q232.598 219.909 233.833 218.835Q235.069 217.762 236.331 216.718Q237.592 215.675 238.879 214.663Q240.166 213.651 241.477 212.671Q242.788 211.69 244.122 210.742Q245.457 209.794 246.814 208.879Q248.172 207.964 249.551 207.082Q250.93 206.201 252.331 205.353Q253.731 204.505 255.152 203.692Q256.573 202.879 258.013 202.101Q259.453 201.323 260.912 200.58Q262.371 199.837 263.847 199.13Q265.324 198.423 266.817 197.753Q268.311 197.082 269.82 196.448C270.225 216.216 276.164 236.512 284.493 254.339C294.094 274.888 309.505 294.573 331.509 302.462C343.689 306.829 357.474 307.341 369.288 301.588C386.366 293.273 395.411 272.629 401.217 255.522C407.834 266.148 414.429 276.257 422.709 285.685C439.267 304.538 462.669 320.886 488.447 322.441C504.651 323.418 520.007 318.372 532.135 307.516C536.716 303.416 543.289 297.181 543.629 290.701L543.231 290.363C539.867 291.849 537.224 298.508 534.531 301.259Q531.315 304.581 527.646 307.396Q523.977 310.21 519.936 312.457C505.617 320.331 489.561 321.931 473.91 317.306C442.127 307.914 418.132 280.35 402.838 252.038C405.456 242.699 407.41 233.32 410.457 224.081C429.08 232.965 448.793 239.99 469.77 237.78C499.166 234.682 521.955 213.559 537.432 189.711C544.636 178.609 550.601 166.787 559.009 156.488Z"/>
	<path fill="#D7E4F3" d="M464.396 564.455C472.442 563.714 480.687 565.574 488.768 565.509L488.353 566.902C480.683 567.579 472.131 567.501 464.45 566.965L464.396 564.455Z"/>
	<path d="M209.775 329.073C225.318 328.756 240.914 329.027 256.462 329.033L331.702 329.008C370.957 329.086 410.297 328.548 449.539 329.199L449.608 454.741C451.034 469.489 449.74 486.051 449.945 501.012C454.226 500.744 458.542 500.284 461.95 503.456C465.35 506.621 464.98 512.017 465.003 516.318Q465.024 532.724 464.745 549.127C464.655 554.181 464.833 559.428 464.396 564.455L464.45 566.965C472.131 567.501 480.683 567.579 488.353 566.902L488.768 565.509L494.297 564.958C504.71 532.762 518.706 520.754 539.661 496.05Q531.476 468.636 524.118 440.989C530.22 433.389 536.801 426.114 543.195 418.754C546.987 414.388 550.76 409.361 555.069 405.515C556.046 404.642 557.028 404.16 558.229 403.66C558.329 400.776 558.463 397.858 558.792 394.991Q558.966 393.483 559.213 391.985Q559.46 390.487 559.779 389.003Q560.098 387.519 560.489 386.052Q560.88 384.586 561.341 383.139Q561.803 381.693 562.334 380.271Q562.865 378.849 563.464 377.455Q564.064 376.06 564.73 374.696Q565.397 373.332 566.129 372.002Q566.86 370.672 567.656 369.379Q568.451 368.087 569.309 366.834Q570.166 365.581 571.083 364.371Q572 363.162 572.975 361.998Q573.949 360.834 574.979 359.719Q576.009 358.604 577.092 357.54Q578.175 356.476 579.308 355.466Q580.441 354.456 581.622 353.502C594.514 343.237 610.796 339.744 626.97 341.638C643.701 343.597 658.399 352.175 668.781 365.319L671.081 368.675C680.459 383.725 683.724 399.934 679.734 417.425C679.109 420.167 678.327 422.922 677.48 425.605C680.32 432.246 681.694 438.683 678.905 445.682C677.543 449.1 675.548 451.699 673.088 454.365C672.2 460.807 672.51 467.504 672.525 473.999C686.031 473.575 700.084 472.651 713.555 473.673Q716.017 473.882 718.467 474.195Q720.918 474.507 723.353 474.922Q725.788 475.337 728.204 475.854Q730.62 476.372 733.012 476.99Q735.403 477.608 737.767 478.326Q740.131 479.045 742.462 479.862Q744.794 480.679 747.089 481.593Q749.384 482.508 751.638 483.518Q753.893 484.527 756.103 485.631Q758.313 486.735 760.475 487.931Q762.636 489.127 764.746 490.413Q766.856 491.698 768.909 493.071Q770.963 494.445 772.957 495.903Q774.951 497.361 776.882 498.902Q778.813 500.443 780.678 502.064Q782.542 503.684 784.337 505.382C793.89 514.34 801.793 525.529 807.455 537.319C811.463 545.665 814.11 554.656 816.992 563.439Q822.432 579.58 827.514 595.838C839.233 633.137 850.659 671.87 863.333 708.714C867.968 708.785 872.647 709.001 877.279 708.89C888.302 708.912 974.8 707.955 978.162 709.867C978.874 710.918 979.043 711.66 979.099 712.893C979.447 720.547 979.089 728.414 979.106 736.09L979.119 783.84L979.088 883.412L979.034 927.697C979.091 934.639 980.187 944.052 978.982 950.712C978.768 951.895 978.387 952.773 977.199 953.26C976.88 953.391 976.435 953.379 976.093 953.389C958.855 953.961 941.485 953.503 924.233 953.475C922.551 954.895 920.953 956.29 919.035 957.388C891.168 957.819 863.261 957.501 835.39 957.489L699.184 957.525C690.605 957.523 672.234 958.581 664.538 956.923C663.34 956.664 661.347 955.64 660.564 954.72C660.358 954.477 660.216 954.187 660.042 953.92C649.041 954.338 637.914 954.056 626.9 954.074L561.156 954.096L358.383 954.004L147.701 953.966L83.2425 953.885C71.0179 953.867 58.7206 954.121 46.5064 953.649C45.6175 916.096 46.3944 878.341 46.382 840.772L46.4154 795.431C46.4236 788.898 45.8665 781.927 46.3625 775.457C46.4795 773.931 46.812 773.657 47.9925 772.73C53.4113 773.193 59.0912 772.908 64.5394 772.989L101.921 773.397C100.09 772.113 98.225 770.839 96.4766 769.444C93.973 767.448 93.0332 765.363 92.7505 762.23C93.3949 749.231 90.3245 706.408 94.0959 697.367C96.8938 690.659 101.944 686.547 108.426 683.716C111.009 681.776 113.288 681.934 116.362 681.788C116.152 674.567 117.524 630.806 115.751 628.318C114.314 628.207 113.347 628.178 112.133 627.294C111.085 625.627 111.52 623.447 111.626 621.556C117.586 621.575 130.456 623.466 134.935 619.198C137.287 616.958 137.897 611.731 137.995 608.667C138.216 601.789 139.639 575.793 134.953 571.297C129.888 566.438 118.618 568.065 112.024 568.199C111.929 566.152 111.398 563.129 112.7 561.416C113.329 560.588 114.767 560.593 115.76 560.426C116.064 559.78 116.089 559.789 116.302 558.974C117.084 555.985 116.927 516.873 116.654 511.152C116.577 509.554 116.546 507.49 115.636 506.144C114.311 505.942 113.605 505.81 112.472 505.027C111.593 503.32 111.979 501.241 112.086 499.378C144.504 498.903 177.007 499.472 209.434 499.443L209.533 391.238C209.546 370.545 209.2 349.756 209.775 329.073Z"/>
	<path fill="white" d="M488.768 565.509L494.297 564.958L490.172 575.994C488.523 573.308 490.117 569.629 488.353 566.902L488.768 565.509Z"/>
	<path fill="#FEEEEB" d="M873.502 785.047L874.252 785.154C876.383 787.403 877.137 792.17 877.875 795.146L847.723 795.192L842.822 795.284C852.641 791.204 863.345 788.18 873.502 785.047Z"/>
	<path fill="#FEEEEB" d="M522.988 519.972C522.678 523.812 514.025 544.568 511.999 550.121C507.44 562.612 503.24 575.259 498.853 587.814C496.272 587.343 493.696 586.721 491.129 586.173L490.389 585.743C490.361 585.556 490.312 585.37 490.306 585.18C490.203 582.004 493.204 576.082 494.35 572.953C501.677 552.952 508.193 535.89 522.988 519.972Z"/>
	<path fill="white" d="M655.516 421.415C661.117 421.251 667.176 420.35 671.939 423.967C675.167 426.419 676.797 430.182 677.341 434.12C678.204 440.36 676.381 445.513 672.765 450.463C672.582 450.652 672.401 450.845 672.215 451.032C667.264 455.984 661.934 455.603 655.437 455.5L655.516 421.415Z"/>
	<path fill="white" d="M655.351 458.54C660.594 458.654 664.737 458.25 669.781 456.779C669.48 463.276 669.674 469.845 669.702 476.351C669.447 487.758 666.929 497.334 658.363 505.387C647.773 515.343 630.529 516.606 616.723 515.98C614.65 515.886 612.255 515.818 610.552 514.548C611.848 510.257 613.352 506.074 614.902 501.87C625.639 501.685 640.51 500.985 648.544 492.753C657.298 483.782 655.364 470.049 655.351 458.54Z"/>
	<path fill="white" d="M48.4655 934.92C83.454 934.609 118.324 934.99 153.299 935.556C153.31 940.799 152.934 946.352 153.527 951.55C150.189 952.632 126.865 951.764 121.251 951.742L48.4981 951.596L48.4655 934.92Z"/>
	<path fill="#FEEEEB" d="M48.4691 915.526L124.959 915.619C130.27 915.638 148.712 916.531 152.753 915.488C153.087 915.402 153.295 915.06 153.567 914.847C154.685 919.843 154.473 945.944 153.527 951.55C152.934 946.352 153.31 940.799 153.299 935.556C118.324 934.99 83.454 934.609 48.4655 934.92L48.4691 915.526Z"/>
	<path fill="#8FBCF3" d="M430.626 683.99C436.216 683.392 442.213 683.92 447.845 684.027L446.764 686.56C438.696 710.576 427.114 732.577 439.574 757.646C444.529 767.614 452.182 774.483 461.358 780.509C447.015 780.532 432.646 780.368 418.306 780.585L418.71 770.367C420.927 770.566 424.268 771.308 426.291 770.273L426.403 769.345C425.875 768.813 425.579 768.657 424.84 768.502C422.994 768.113 421.518 767.73 419.84 766.828C411.933 762.575 407.243 754.97 404.629 746.611C399.557 730.389 403.051 709.65 417.209 698.958C419.608 697.147 426.028 694.737 427.284 692.303L426.703 691.584L424.135 691.36C421.733 689.838 419.881 688.077 418.194 685.797L417.241 684.531C421.678 684.239 426.245 684.825 430.626 683.99Z"/>
	<path fill="white" d="M430.626 683.99C436.216 683.392 442.213 683.92 447.845 684.027L446.764 686.56C437.491 687.516 427.57 685.895 418.194 685.797L417.241 684.531C421.678 684.239 426.245 684.825 430.626 683.99Z"/>
	<path fill="#FEEEEB" d="M652.976 820.679C651.208 796.135 659.443 804.892 661.805 795.918L662.266 797.431C665.562 798.688 674.283 797.798 678.134 797.799L729.783 797.811C739.075 797.811 749.056 797.1 758.26 798.248C761.84 798.694 765.079 799.775 768.4 801.166C770.972 809.685 774.047 816.733 782.305 821.112C783.167 821.569 784.044 821.97 784.941 822.353C781.501 823.995 691.046 823.017 677.655 823.011C672.107 823.008 657.502 822.024 653.248 823.655L652.638 825.957L652.387 823.531C646.834 821.128 624.335 825.316 620.129 822.686C626.289 822.514 648.433 823.848 652.558 822.097L652.976 820.679Z"/>
	<path fill="white" d="M959.058 888.9L976.881 889.027C976.971 909.6 977.672 930.394 976.921 950.944L943.62 950.987C937.245 950.984 930.732 950.726 924.372 951.186C925.976 944.748 925.586 935.743 925.988 928.957C926.776 915.635 927.89 902.323 928.556 888.996C938.692 889.139 948.93 889.271 959.058 888.9Z"/>
	<path fill="white" d="M862.35 750.715C880.794 750.406 905.693 758.947 922.943 765.703C917.451 767.657 911.741 769.06 906.203 770.906L844.122 791.722C828.984 796.504 814.081 802.748 798.4 805.55C802.097 793.289 806.184 782.709 814.735 772.914C827.088 758.761 843.915 751.928 862.35 750.715Z"/>
	<path fill="white" d="M727.39 750.214C739.964 750.46 751.867 752.753 762.835 759.193C780.659 769.659 790.456 785.754 795.489 805.47C780.899 803.107 766.519 797.228 752.378 792.936C744.275 790.875 736.177 787.769 728.173 785.252C708.876 779.184 689.623 773.112 670.906 765.383C688.788 758.071 707.987 751.294 727.39 750.214Z"/>
	<path fill="#78A1E3" d="M156.191 914.486L271.441 914.451Q271.472 933.077 271.307 951.703C232.979 951.01 194.466 951.411 156.125 951.793C156.003 939.363 156.163 926.917 156.191 914.486Z"/>
	<path fill="white" d="M631.234 396.341C633.304 398.22 636.022 408.232 638.35 411.825C641.91 417.319 646.579 420.136 652.834 421.487C652.368 432.374 652.53 443.328 652.547 454.224C652.561 462.743 653.983 475.343 651.306 483.213C649.539 488.405 645.652 492.494 640.769 494.898C628.279 501.049 611.33 499.761 598.496 495.553C594.629 494.007 591.154 491.995 587.734 489.635C586.167 473.649 582.6 463.343 577.408 448.49C583.216 438.872 584.955 434.271 582.687 422.987C588.164 425.669 593.517 426.881 599.577 425.518C614.407 422.183 623.791 408.422 631.234 396.341Z"/>
	<path fill="white" d="M865.205 711.237C881.203 710.365 897.523 711.035 913.55 711.057C934.572 711.087 955.738 710.662 976.746 711.361C977.202 719.396 976.984 727.53 977.003 735.579L977.008 774.837L948.25 774.869C933.216 774.895 918.036 775.449 903.024 774.775C912.806 771.625 923.315 769.674 932.529 765.053C924.448 763.604 916.092 759.999 908.249 757.466Q892.302 752.276 875.899 748.783C874.099 741.783 864.251 716.446 864.464 711.793L865.205 711.237Z"/>
	<path fill="#4774C3" d="M273.992 914.434L432.348 914.293C432.666 926.766 432.366 939.322 432.358 951.804C379.58 951.49 326.67 951.021 273.896 951.808C274.084 939.357 273.969 926.887 273.992 914.434Z"/>
	<path fill="white" d="M876.855 784.087C883.208 781.79 889.893 778.832 896.53 777.628C905.34 776.031 915.639 777.057 924.656 777.046C942.083 777.025 959.533 776.83 976.957 777.024L976.987 886.73L936.118 886.608C933.598 886.371 930.998 886.495 928.467 886.494C928.267 870.453 929.816 853.624 930.795 837.57C930.944 835.122 930.422 831.856 930.996 829.574C931.189 828.807 931.288 828.716 931.637 828.121C932.998 827.235 933.599 827.293 935.187 827.173L935.487 826.477L933.607 822.986C931.49 818.121 921.552 802.856 918.136 798.623C915.959 795.925 914.302 795.947 911.089 795.631C903.033 793.876 889.22 795.182 880.506 795.106C879.669 791.529 879.031 787.126 876.855 784.087Z"/>
	<path fill="#78A1E3" d="M449.608 454.741C451.034 469.489 449.74 486.051 449.945 501.012C454.226 500.744 458.542 500.284 461.95 503.456C465.35 506.621 464.98 512.017 465.003 516.318Q465.024 532.724 464.745 549.127C464.655 554.181 464.833 559.428 464.396 564.455L464.45 566.965L464.173 566.956L463.62 565.878C458.708 564.532 438.672 565.517 432.302 565.508Q379.832 565.382 327.364 565.92L185.597 565.995C164.229 566.008 142.804 565.625 121.444 566.142C118.478 566.214 115.669 566.189 113.399 564.031L113.468 563.212C114.228 562.753 115.041 562.62 115.921 562.576C124.622 562.14 133.419 562.406 142.132 562.413L187.487 562.41L333.683 562.187L361.604 562.287C367.784 562.321 374.211 562.662 380.348 561.887Q381.325 561.768 382.291 561.582Q383.257 561.397 384.209 561.146Q385.16 560.895 386.092 560.58Q387.025 560.264 387.933 559.886Q388.841 559.508 389.722 559.069Q390.603 558.63 391.451 558.132Q392.3 557.634 393.112 557.079Q393.925 556.524 394.698 555.915C400.778 551.186 405.427 544.273 406.193 536.485C406.878 529.516 404.382 522.438 400.024 517.034C395.313 511.192 388.137 506.808 380.774 505.318C374.194 503.987 366.923 504.781 360.232 504.843L326.758 505.035L183.773 504.916L137.326 504.776C130.949 504.711 124.136 505.225 117.816 504.475C116.09 504.271 114.448 504.059 113.358 502.635L113.86 501.745L114.256 502.328L114.189 501.502C116.986 500.147 415.803 501.549 449.562 501.527C449.346 485.967 449.284 470.299 449.608 454.741Z"/>
	<path fill="#FED4CA" d="M181.253 886.612C210.268 886.087 239.37 886.53 268.397 886.51L439.514 886.637Q439.638 899.138 439.407 911.637C353.367 912.851 267.212 911.985 181.157 911.996Q181.13 899.303 181.253 886.612Z"/>
	<path fill="white" d="M141.726 568.237C171.877 567.853 202.053 568.011 232.207 567.996L259.408 567.99C265.066 567.991 270.915 567.677 276.526 568.439C283.99 569.451 290.208 572.963 294.706 579.068C299.038 584.95 300.848 591.993 299.676 599.218C298.326 607.541 293.269 613.307 286.626 618.008C283.8 619.768 280.609 620.982 277.285 621.308C271.65 621.862 265.761 621.531 260.103 621.516L230.944 621.466L135.667 621.5C138.866 617.73 139.727 614.894 140.082 609.97C140.609 602.687 140.915 580.075 138.789 573.548C138.121 571.496 136.736 569.986 135.345 568.383L141.726 568.237Z"/>
	<path fill="#F4793D" d="M306.738 681.964C314.976 677.933 320.31 672.564 323.284 663.815C325.885 656.162 325.245 649.063 321.632 641.889C318.357 635.387 313.383 630.132 306.318 627.747C299.409 625.414 275.122 626.968 266.56 626.984L160.776 626.912Q147.218 626.798 133.659 626.846C128.545 626.89 123.179 627.299 118.094 626.954C116.251 626.829 114.094 626.73 112.786 625.313L113.124 624.527C118.108 622.648 143.297 624.005 150.151 623.975L311.243 624.351L420.772 624.253C436.996 624.268 453.3 624.013 469.514 624.417C462.31 644.202 454.27 663.989 447.845 684.027C442.213 683.92 436.216 683.392 430.626 683.99C430.218 683.603 429.879 683.126 429.402 682.829C426.812 681.223 316.543 682.051 306.738 681.964Z"/>
	<path fill="#FEEEEB" d="M211.571 331.07Q240.899 331.016 270.226 331.284L270.366 499.397L211.575 499.45L211.571 331.07Z"/>
	<path fill="white" d="M240.215 381.115C243.975 380.892 247.137 380.8 250.567 382.681C254.434 384.803 257.14 388.524 258.322 392.743C259.368 396.475 259.147 400.875 257.184 404.277C254.808 408.397 251.174 409.846 246.814 410.988C243.13 411.127 239.717 411.23 236.265 409.662C232.651 408.022 229.947 405.122 228.653 401.362Q228.402 400.617 228.227 399.851Q228.051 399.084 227.951 398.304Q227.852 397.525 227.83 396.739Q227.808 395.953 227.864 395.169Q227.92 394.384 228.052 393.609Q228.185 392.835 228.394 392.077Q228.603 391.319 228.885 390.585Q229.168 389.851 229.521 389.149C231.815 384.687 235.636 382.606 240.215 381.115Z"/>
	<path fill="#F4793D" d="M464.173 566.956L464.45 566.965C472.131 567.501 480.683 567.579 488.353 566.902C490.117 569.629 488.523 573.308 490.172 575.994C489.24 578.567 487.841 584.679 485.97 586.394L484.56 585.482C482.063 587.731 472.325 616.879 470.497 621.965L349.951 622.004C328.447 621.995 306.719 622.631 285.241 621.732C290.232 619.058 294.64 615.254 297.676 610.437C301.904 603.729 303.389 595.75 301.47 587.989C299.097 578.392 292.969 572.745 284.855 567.706C316.694 568.463 348.702 567.629 380.563 567.557C407.261 567.497 434.113 568.307 460.781 567.549C462.053 567.512 462.977 567.392 464.173 566.956Z"/>
	<path fill="#F4793D" d="M272.582 331.14C310.904 330.667 349.269 331.193 387.596 331.212L426.197 331.141C433.196 331.118 440.509 330.666 447.464 331.331C433.708 332.36 419.431 331.582 405.609 331.573L331.806 331.519C331.148 356.993 331.698 382.604 331.733 408.095C331.775 438.576 331.419 469.095 331.828 499.571L272.453 499.372L272.582 331.14Z"/>
	<path fill="white" d="M301.968 418.677C305.238 418.549 308.769 419.166 311.598 420.87C314.922 422.871 317.127 426.136 317.874 429.931C318.613 433.68 317.921 437.898 315.716 441.058C312.931 445.05 309.148 446.432 304.592 447.359C300.855 447.551 297.559 447.145 294.402 444.97C291.195 442.76 289.142 439.262 288.559 435.431C287.965 431.527 288.813 427.39 291.209 424.21C294.014 420.488 297.521 419.308 301.968 418.677Z"/>
	<path fill="white" d="M404.585 782.934C428.696 782.393 452.894 782.899 477.014 782.916L609.007 782.985L674.453 783.01C686.844 782.997 699.935 782.168 712.221 783.682C721.151 784.782 739.594 792.089 749.299 794.969C737.897 795.279 665.267 794.15 662.785 795.165C662.404 795.321 662.132 795.667 661.805 795.918C659.443 804.892 651.208 796.135 652.976 820.679C642.741 820.187 632.395 820.446 622.142 820.424L564.898 820.427L404.711 820.398C404.493 807.918 404.607 795.416 404.585 782.934Z"/>
	<path fill="white" d="M117.402 628.015C159.452 628.624 201.64 628.318 243.695 628.223L279.211 627.98C285.346 627.928 291.913 627.394 297.993 628.206C303.672 628.963 308.867 630.952 313.231 634.771C318.431 639.322 322.145 645.997 322.598 652.938C323.121 660.953 319.724 668.102 314.538 673.967C310.847 677.367 306.177 680.375 301.148 681.178C294.265 682.277 286.883 681.714 279.919 681.657Q264.66 681.502 249.4 681.539C205.393 681.584 161.281 680.771 117.289 681.737Q116.916 654.875 117.402 628.015Z"/>
	<defs>
		<linearGradient id="gradient_0" gradientUnits="userSpaceOnUse" x1="225.22035" y1="898.70465" x2="225.2616" y2="863.2959">
			<stop offset="0" stop-color="#FAE1DA"/>
			<stop offset="1" stop-color="#FEFFFF"/>
		</linearGradient>
	</defs>
	<path fill="url(#gradient_0)" d="M48.8724 863.102C61.0023 863.665 73.2992 863.291 85.4483 863.367Q132.177 863.805 178.903 863.159L401.839 863.042C401.805 869.863 401.427 876.925 402.046 883.71L401.49 884.32C382.965 885.024 364.122 884.156 345.56 884.148L239.57 884.417L202.707 884.421C195.271 884.419 187.679 884.115 180.269 884.749C176.92 888.447 179.84 906.295 178.637 912.082C172.004 912.025 160.789 910.996 154.648 912.292C153.973 913.167 153.787 913.769 153.567 914.847C153.295 915.06 153.087 915.402 152.753 915.488C148.712 916.531 130.27 915.638 124.959 915.619L48.4691 915.526L48.4912 899.407L48.6244 887.847C49.9139 886.434 48.8499 866.894 48.8724 863.102Z"/>
	<path fill="white" d="M48.4912 899.407C78.5113 900.201 108.738 899.631 138.774 899.568C151.782 899.54 165.319 898.693 178.274 899.737C178.315 903.701 177.939 908.198 178.637 912.082C172.004 912.025 160.789 910.996 154.648 912.292C153.973 913.167 153.787 913.769 153.567 914.847C153.295 915.06 153.087 915.402 152.753 915.488C148.712 916.531 130.27 915.638 124.959 915.619L48.4691 915.526L48.4912 899.407Z"/>
	<path fill="white" d="M557.653 406.798C560.609 407.339 563.084 408.552 565.753 409.861C559.851 414.397 543.232 431.195 539.836 436.714L540.206 437.491C544.127 437.688 556.8 422.054 560.299 418.461C562.701 415.994 565.217 413.803 567.94 411.699C569.837 412.762 571.667 413.982 573.297 415.428C577.746 419.375 581.065 425.767 581.175 431.763C581.265 436.651 579.304 439.958 576.017 443.382C573.197 437.743 571.206 431.152 566.916 426.444C567.212 434.611 576.517 453.054 579.485 461.863C582.657 471.272 584.095 481.121 585.068 490.968C592.17 497.857 602.44 499.89 611.768 501.782L589.291 574.373L579.753 604.91C553.844 598.72 527.329 595.052 501.585 588.142L520.292 536.164C523.081 528.55 525.503 519.535 529.666 512.594C533.098 506.872 538.692 501.919 542.917 496.705Q534.734 469.323 527.225 441.748C530.615 436.82 535.013 432.281 538.914 427.738C544.974 420.679 550.959 413.257 557.653 406.798Z"/>
	<path fill="white" d="M441.923 887.933L500.849 887.888C518.099 888.68 535.644 888.043 552.922 888.03L654.632 888.035Q655.958 908.365 656.843 928.718C657.194 936.369 657.184 944.224 658.159 951.818C632.832 952.704 607.2 951.944 581.843 951.945L434.738 951.962C434.559 939.355 434.668 926.73 434.639 914.122L441.566 913.929C442.255 905.34 441.915 896.552 441.923 887.933Z"/>
	<path fill="white" d="M117.45 505.978L293.564 506.394L347.7 506.194C357.11 506.15 367.286 505.267 376.569 506.522C383.328 507.435 390.662 511.124 395.601 515.84C400.55 520.565 403.696 526.844 403.725 533.772C403.757 541.145 400.115 547.016 395.194 552.122C390.662 556.204 384.611 559.51 378.515 560.323C369.316 561.551 359.293 560.67 349.991 560.658L294.222 560.568L117.305 560.603Q116.988 533.289 117.45 505.978Z"/>
	<path fill="white" d="M404.707 822.798L620.129 822.686C624.335 825.316 646.834 821.128 652.387 823.531L652.638 825.957C652.263 839.708 653.365 853.757 653.947 867.513C654.19 873.242 654.907 879.22 654.429 884.929C653.537 885.585 652.81 885.586 651.731 885.683C636.182 885.256 620.527 885.576 604.969 885.576L509.678 885.715C489.957 885.724 470.163 886.053 450.452 885.657C445.262 885.552 440.15 884.694 434.97 884.489C424.951 884.091 414.757 884.415 404.724 884.431Q404.895 853.614 404.707 822.798Z"/>
	<path fill="#FEEEEB" d="M485.884 588.315C494.321 589.295 503.039 591.747 511.379 593.511L556.744 603.06C566.728 605.13 576.793 607.452 586.905 608.774C579.889 628.475 573.947 648.505 567.708 668.456C563.724 681.193 559.361 693.812 555.344 706.541L546.702 733.475C544.402 740.577 542.296 747.964 539.011 754.679C536.039 760.755 531.681 765.727 526.798 770.331C523.639 773.023 520.366 775.466 516.625 777.3Q514.254 778.485 511.715 779.249Q509.177 780.014 506.546 780.336C500.988 781.062 494.985 780.445 489.378 780.465C483.835 780.484 478.086 781.008 472.566 780.591C470.411 780.429 468.352 779.869 466.326 779.144C455.414 775.237 446.31 765.968 441.515 755.548Q440.741 753.872 440.088 752.146Q439.434 750.42 438.905 748.652Q438.376 746.883 437.973 745.082Q437.57 743.281 437.296 741.456Q437.022 739.63 436.878 737.79Q436.734 735.95 436.721 734.105Q436.707 732.259 436.825 730.417Q436.942 728.575 437.19 726.746C438.614 715.934 443.01 705.598 446.696 695.403L458.416 663.317L485.884 588.315Z"/>
	<path fill="#FEEEEB" d="M447.464 331.331L447.399 499.487C408.89 499.499 370.33 499.973 331.828 499.571C331.419 469.095 331.775 438.576 331.733 408.095C331.698 382.604 331.148 356.993 331.806 331.519L405.609 331.573C419.431 331.582 433.708 332.36 447.464 331.331Z"/>
	<path fill="white" d="M349.047 391.958L381.052 391.991L381.027 418.636Q365.018 418.584 349.01 418.774L349.047 391.958Z"/>
	<path fill="white" d="M409.19 439.24C418.761 439.292 428.35 439.022 437.916 439.305C437.873 443.587 438.967 462.977 437.236 465.368L435.125 465.477L404.591 465.574C404.532 457.368 403.632 448.098 404.91 440.028C406.11 439.049 407.716 439.27 409.19 439.24Z"/>
	<path fill="white" d="M403.014 349.498C414.34 349.354 425.682 349.452 437.01 349.444C437.098 358.63 437.333 367.842 437.052 377.025L403.028 377.001L403.014 349.498Z"/>
	<path fill="#FEEEEB" d="M402.021 807.975C402.013 811.796 401.197 822.83 402.366 825.903C402.691 838.01 402.494 850.161 402.466 862.273C402.451 869.226 403.022 876.854 402.046 883.71C401.427 876.925 401.805 869.863 401.839 863.042L178.903 863.159Q132.177 863.805 85.4483 863.367C73.2992 863.291 61.0023 863.665 48.8724 863.102C48.8499 866.894 49.9139 886.434 48.6244 887.847Q48.4004 865.532 48.4848 843.218L48.4841 827.371L48.4912 808.11C60.4315 807.6 72.5569 808.011 84.512 808.043C112.23 808.117 139.971 808.549 167.687 808.37L318.295 808.06C346.197 808.025 374.128 807.336 402.021 807.975Z"/>
	<path fill="white" d="M48.4841 827.371L288.795 827.699C326.513 827.765 364.279 827.239 401.989 827.704L401.915 843.479Q289.797 842.621 177.677 843.369L94.2497 843.084C79.027 843.038 63.6955 842.625 48.4848 843.218L48.4841 827.371Z"/>
	<path fill="#F4793D" d="M911.089 795.631C914.302 795.947 915.959 795.925 918.136 798.623C921.552 802.856 931.49 818.121 933.607 822.986L935.487 826.477L935.187 827.173C933.599 827.293 932.998 827.235 931.637 828.121C931.288 828.716 931.189 828.807 930.996 829.574C930.422 831.856 930.944 835.122 930.795 837.57C929.816 853.624 928.267 870.453 928.467 886.494C930.998 886.495 933.598 886.371 936.118 886.608C933.425 886.697 931 886.669 928.502 887.831L928.408 888.158C938.463 889.782 948.937 887.912 959.058 888.9C948.93 889.271 938.692 889.139 928.556 888.996C927.89 902.323 926.776 915.635 925.988 928.957C925.586 935.743 925.976 944.748 924.372 951.186L924.424 952.477C928.063 954.617 967.641 952.109 976.093 953.389C958.855 953.961 941.485 953.503 924.233 953.475C922.551 954.895 920.953 956.29 919.035 957.388C891.168 957.819 863.261 957.501 835.39 957.489L699.184 957.525C690.605 957.523 672.234 958.581 664.538 956.923C663.34 956.664 661.347 955.64 660.564 954.72C660.358 954.477 660.216 954.187 660.042 953.92C659.51 953.007 658.969 952.492 658.159 951.818C657.184 944.224 657.194 936.369 656.843 928.718Q655.958 908.365 654.632 888.035L552.922 888.03C535.644 888.043 518.099 888.68 500.849 887.888C518.076 886.803 652.181 888.971 655.259 886.885L654.89 886.089L654.23 886.137C653.72 885.762 652.392 885.771 651.731 885.683C652.81 885.586 653.537 885.585 654.429 884.929C654.907 879.22 654.19 873.242 653.947 867.513C653.365 853.757 652.263 839.708 652.638 825.957L653.248 823.655C657.502 822.024 672.107 823.008 677.655 823.011C691.046 823.017 781.501 823.995 784.941 822.353C793.468 824.935 800.371 824.834 808.882 822.143C817.928 817.281 820.652 811.51 823.579 802.144C827.051 800.152 831.491 798.303 835.462 797.718C841.292 796.86 848.041 797.484 853.951 797.493L893.743 797.629C898.514 797.645 904.79 798.378 909.392 797.292C910.554 797.018 910.485 796.594 911.089 795.631Z"/>
	<path fill="#FEEEEB" d="M911.089 795.631C914.302 795.947 915.959 795.925 918.136 798.623C921.552 802.856 931.49 818.121 933.607 822.986C922.707 822.473 911.61 822.92 900.688 822.947L843.604 822.948C832.545 822.953 819.722 824.271 808.882 822.143C817.928 817.281 820.652 811.51 823.579 802.144C827.051 800.152 831.491 798.303 835.462 797.718C841.292 796.86 848.041 797.484 853.951 797.493L893.743 797.629C898.514 797.645 904.79 798.378 909.392 797.292C910.554 797.018 910.485 796.594 911.089 795.631Z"/>
	<path fill="white" d="M108.426 683.716C117.31 685.129 134.805 683.846 144.573 683.821L222.843 683.884L358.353 684.464L396.973 684.526C403.676 684.545 410.554 684.888 417.241 684.531L418.194 685.797C419.881 688.077 421.733 689.838 424.135 691.36L426.703 691.584L427.284 692.303C426.028 694.737 419.608 697.147 417.209 698.958C403.051 709.65 399.557 730.389 404.629 746.611C407.243 754.97 411.933 762.575 419.84 766.828C421.518 767.73 422.994 768.113 424.84 768.502C425.579 768.657 425.875 768.813 426.403 769.345L426.291 770.273C424.268 771.308 420.927 770.566 418.71 770.367L418.306 780.585C413.005 780.636 407.662 780.546 402.37 780.818C402.494 794.74 403.294 812.252 402.366 825.903C401.197 822.83 402.013 811.796 402.021 807.975C374.128 807.336 346.197 808.025 318.295 808.06L167.687 808.37C139.971 808.549 112.23 808.117 84.512 808.043C72.5569 808.011 60.4315 807.6 48.4912 808.11L48.5006 791.539L48.5639 783.986C48.678 780.538 49.2862 775.944 47.9925 772.73C53.4113 773.193 59.0912 772.908 64.5394 772.989L101.921 773.397C100.09 772.113 98.225 770.839 96.4766 769.444C93.973 767.448 93.0332 765.363 92.7505 762.23C93.3949 749.231 90.3245 706.408 94.0959 697.367C96.8938 690.659 101.944 686.547 108.426 683.716Z"/>
	<path fill="#F6AFA4" d="M122.982 742.657C175.552 741.996 228.159 743.008 280.731 742.749Q315.364 742.391 349.999 742.538C360.217 742.548 370.792 741.849 380.967 742.635C382.037 743.465 381.869 744.118 382.105 745.395L202.499 745.357L148.336 745.178C140.326 745.149 132.072 745.8 124.104 745.118C123.064 744.248 123.251 743.935 122.982 742.657Z"/>
	<path fill="#F6AFA4" d="M183.747 715.755C223.847 715.029 264.026 715.474 304.135 715.505L356.06 715.669C363.439 715.727 371.038 715.421 378.393 715.839C379.778 715.918 381.093 715.975 382.27 716.773L382.013 717.894C379.137 719.595 330.435 718.609 322.625 718.582L168.785 718.45C163.558 718.441 128.599 719.088 126.047 718.341C124.876 717.998 124.345 717.712 123.729 716.626C125.76 715.18 175.918 715.797 183.747 715.755Z"/>
	<path d="M424.135 691.36L426.703 691.584L427.284 692.303C426.028 694.737 419.608 697.147 417.209 698.958C403.051 709.65 399.557 730.389 404.629 746.611C407.243 754.97 411.933 762.575 419.84 766.828C421.518 767.73 422.994 768.113 424.84 768.502C425.579 768.657 425.875 768.813 426.403 769.345L426.291 770.273C424.268 771.308 420.927 770.566 418.71 770.367C410.444 769.306 401.249 770.027 392.886 770.022L343.583 770.003L172.563 769.959L143.644 769.921C135.209 769.96 123.596 771.269 115.623 768.974C111.454 767.774 107.861 764.615 105.81 760.821C104.941 759.212 104.452 757.612 104.239 755.802C103.367 748.381 103.086 707.818 104.972 702.19C106.247 698.387 110.439 693.657 114.227 692.055C116.149 691.242 118.884 691.04 120.782 691.995C121.028 692.119 121.267 692.256 121.509 692.386C117.158 692.511 113.498 693.689 110.423 696.928C108.364 699.098 107.036 701.742 106.448 704.668C105.247 710.649 106.004 718.088 105.983 724.206C105.951 733.393 105.505 742.853 106.027 752.016C106.27 756.279 107.338 760.97 110.649 763.923C113.261 766.252 116.119 767.219 119.55 767.503C130.304 768.391 141.607 767.624 152.419 767.623L216.975 767.71L360.005 767.719C378.989 767.705 398.006 768.108 416.983 767.912C407.408 760.798 402.219 751.553 400.546 739.754C398.814 727.543 401.165 714.067 408.678 704.049C412.306 699.209 417.019 696.284 421.523 692.431L424.135 691.36Z"/>
	<path fill="#F4793D" d="M108.426 683.716C117.31 685.129 134.805 683.846 144.573 683.821L222.843 683.884L358.353 684.464L396.973 684.526C403.676 684.545 410.554 684.888 417.241 684.531L418.194 685.797C419.881 688.077 421.733 689.838 424.135 691.36L421.523 692.431L215.247 692.985L154.59 692.948C143.725 692.941 132.292 693.673 121.509 692.386C121.267 692.256 121.028 692.119 120.782 691.995C118.884 691.04 116.149 691.242 114.227 692.055C110.439 693.657 106.247 698.387 104.972 702.19C103.086 707.818 103.367 748.381 104.239 755.802C104.452 757.612 104.941 759.212 105.81 760.821C107.861 764.615 111.454 767.774 115.623 768.974C123.596 771.269 135.209 769.96 143.644 769.921L172.563 769.959L343.583 770.003L392.886 770.022C401.249 770.027 410.444 769.306 418.71 770.367L418.306 780.585C413.005 780.636 407.662 780.546 402.37 780.818C402.494 794.74 403.294 812.252 402.366 825.903C401.197 822.83 402.013 811.796 402.021 807.975C374.128 807.336 346.197 808.025 318.295 808.06L167.687 808.37C139.971 808.549 112.23 808.117 84.512 808.043C72.5569 808.011 60.4315 807.6 48.4912 808.11L48.5006 791.539L48.5639 783.986C48.678 780.538 49.2862 775.944 47.9925 772.73C53.4113 773.193 59.0912 772.908 64.5394 772.989L101.921 773.397C100.09 772.113 98.225 770.839 96.4766 769.444C93.973 767.448 93.0332 765.363 92.7505 762.23C93.3949 749.231 90.3245 706.408 94.0959 697.367C96.8938 690.659 101.944 686.547 108.426 683.716Z"/>
	<path fill="#FEEEEB" d="M48.5639 783.986L402.113 783.367L402.062 791.532L156.423 791.613C120.476 791.566 84.4332 792.239 48.5006 791.539L48.5639 783.986Z"/>
	<path fill="white" d="M48.5006 791.539C84.4332 792.239 120.476 791.566 156.423 791.613L402.062 791.532L402.021 807.975C374.128 807.336 346.197 808.025 318.295 808.06L167.687 808.37C139.971 808.549 112.23 808.117 84.512 808.043C72.5569 808.011 60.4315 807.6 48.4912 808.11L48.5006 791.539Z"/>
	<path fill="#FEEEEB" d="M669.702 476.351C682.514 476.981 695.38 475.591 708.175 476.109C737.9 477.312 767.65 490.694 787.782 512.726C796.118 521.849 802.917 532.996 807.725 544.357C814.112 559.447 819.214 577.958 824.153 593.765L846.394 664.369L863.047 717.014C866.413 727.43 870.391 737.927 872.939 748.57C853.46 747.038 835.032 751.012 819.794 763.879C808.57 773.357 801.092 785.555 797.043 799.579C790.448 779.513 781.099 767.957 763.866 756.155L736.836 666.746Q729.225 640.959 721.276 615.275C718.9 607.547 716.759 599.625 714.117 591.992C713.699 590.784 713.505 589.842 712.402 589.122C711.624 589.952 711.387 590.539 711.441 591.679C711.606 595.222 713.967 600.35 715.02 603.854L724.383 635.234L760.717 754.722C737.951 743.079 713.337 747.333 690.031 754.853C685.195 756.414 667.844 762.284 665.231 765.251L665.225 766.097C668.773 768.909 697.926 779.012 703.571 780.391C677.17 781.223 650.537 780.492 624.113 780.489C588.468 780.484 552.749 780.971 517.112 780.465C525.378 775.42 533.455 769.505 538.543 761.059C546.703 747.514 550.694 730.547 555.447 715.513L572.598 661.413L584.283 625.187C586.083 619.541 588.255 613.775 589.643 608.019L589.853 607.124L582.636 605.575C591.516 575.133 601.131 544.829 610.552 514.548C612.255 515.818 614.65 515.886 616.723 515.98C630.529 516.606 647.773 515.343 658.363 505.387C666.929 497.334 669.447 487.758 669.702 476.351Z"/>
	<path fill="#FED4CA" d="M608.885 526.87C609.625 527.092 610.11 527.337 610.638 527.917C617.598 535.563 621.212 543.811 629.616 551.205C635.76 545.245 638.815 536.651 644.214 530.044C641.634 535.77 638.684 543.25 638.571 549.581C638.443 556.697 640.028 564.161 641.037 571.201L646.328 608.074L663.153 732.613C660.189 738.911 655.823 744.25 651.272 749.443Q641.867 759.122 631.799 768.109C619.371 759.014 604.892 747.145 598.311 732.899C599.438 727.418 599.853 721.617 600.47 716.045C601.855 703.531 602.871 690.977 604.232 678.459L615.667 574.086C616.763 564.036 617.408 553.932 618.59 543.899C616.018 538.93 610.095 531.986 608.885 526.87Z"/>
</svg>
