<?xml version="1.0" encoding="utf-8" ?>
<svg xmlns="http://www.w3.org/2000/svg" xmlns:xlink="http://www.w3.org/1999/xlink" width="1024" height="1024">
	<path fill="white" d="M0 0L1024 0L1024 1024L0 1024L0 0Z"/>
	<path fill="#2A2626" d="M304.202 146.32C320.589 132.793 318.472 122.241 324.412 104.053Q325.036 102.19 325.759 100.363Q326.482 98.5366 327.302 96.7512Q328.121 94.9657 329.035 93.2267Q329.949 91.4877 330.955 89.8001Q331.961 88.1125 333.056 86.4811Q334.151 84.8498 335.331 83.2794Q336.512 81.709 337.775 80.2041Q339.037 78.6991 340.379 77.2639C353.728 62.776 374.221 53.1067 393.961 52.4416C411.291 51.8577 428.807 52.4449 446.163 52.4272L562.635 52.4907L620.004 52.4463C632.177 52.4235 645.352 51.3968 657.344 53.4928Q659.549 53.867 661.721 54.4035Q663.892 54.9401 666.018 55.6361Q668.144 56.3321 670.212 57.1838Q672.281 58.0354 674.28 59.038Q676.28 60.0406 678.199 61.1886Q680.119 62.3366 681.949 63.6238Q683.778 64.9109 685.507 66.33Q687.236 67.7492 688.855 69.2926C712.907 91.9633 708.067 116.091 708.871 145.706L707.07 145.836C706.893 117.567 710.878 92.9885 688.578 71.1925Q686.992 69.6378 685.294 68.2057Q683.597 66.7736 681.797 65.4722Q679.997 64.1709 678.105 63.0074Q676.214 61.8439 674.24 60.8249Q672.267 59.8059 670.223 58.9369Q668.179 58.068 666.076 57.354Q663.973 56.64 661.822 56.0849Q659.672 55.5298 657.486 55.1368C646.37 53.1473 634.295 53.968 623.015 53.9774L571.145 53.9718L441.466 53.8627C426.331 53.8917 411.163 53.6235 396.034 53.8486C376.359 54.1413 356.457 62.927 342.809 77.0535C336.159 83.9366 330.425 92.2118 327.107 101.229C320.832 118.282 322.274 132.192 307.71 146.033C319.095 145.989 335.536 145.07 346.326 146.043C347.403 146.707 348.124 146.882 349.403 146.95C366.325 147.846 383.661 147.038 400.639 146.992L492.857 146.989C498.057 146.993 520.695 146.267 523.393 147.404C493.404 147.992 463.31 147.481 433.311 147.483L285.978 147.769L225.457 147.732C215.139 147.713 203.674 146.68 193.536 148.219C186.107 149.346 178.553 153.827 173.382 159.192C163.426 169.522 163.437 181.244 163.45 194.719L163.49 216.331L220.314 216.197C228.881 216.189 238.601 215.331 247.071 216.426C246.889 216.449 246.708 216.475 246.526 216.496C243.287 216.878 240.032 216.752 236.778 216.701C239.574 218.691 245.106 215.706 247.339 217.912C219.429 218.521 191.439 217.839 163.518 217.992C163.531 230.26 163.855 242.627 163.433 254.882C164.087 309.875 163.573 364.956 163.563 419.957L163.528 463.359C163.523 473.11 162.942 483.261 164.454 492.906C165.565 499.991 168.847 505.877 173.49 511.25C173.724 511.521 173.952 511.798 174.183 512.072L173.54 513.801C168.175 508.31 164.203 501.89 162.817 494.251C161.368 486.263 162.006 477.477 162.008 469.361L162.036 429.726L162.004 345.907C161.974 333.195 161.602 320.447 161.785 307.74C161.795 307.062 161.835 306.392 161.877 305.715C155.253 319.904 148.049 332.15 136.621 343.104C131.445 348.065 125.888 352.938 119.921 356.913C114.844 360.296 109.416 363.144 104.447 366.694C86.7408 379.342 73.8889 398.835 70.6471 420.505C68.7718 433.041 69.5572 446.273 69.5859 458.932C69.6355 480.82 69.9074 502.741 69.6053 524.626C69.3301 525.779 69.4033 526.548 68.4404 527.303C67.388 521.591 68.2547 502.982 68.2547 495.949C68.2546 474.71 67.6229 453.316 68.0918 432.095Q68.1136 430.884 68.1707 429.675Q68.2278 428.465 68.3201 427.258Q68.4124 426.051 68.5397 424.846Q68.6671 423.642 68.8295 422.442Q68.9919 421.242 69.1891 420.048Q69.3863 418.853 69.6183 417.665Q69.8502 416.476 70.1166 415.295Q70.383 414.114 70.6837 412.941Q70.9845 411.768 71.3192 410.604Q71.6539 409.441 72.0223 408.287Q72.3908 407.134 72.7926 405.992Q73.1945 404.849 73.6294 403.719Q74.0644 402.589 74.532 401.472Q74.9997 400.355 75.4997 399.253Q75.9996 398.15 76.5315 397.062Q77.0634 395.974 77.6267 394.902Q78.19 393.83 78.7842 392.775Q79.3785 391.72 80.0032 390.683Q80.628 389.646 81.2826 388.627Q81.9373 387.609 82.6213 386.61Q83.3053 385.61 84.0182 384.632Q84.731 383.653 85.472 382.695Q86.213 381.737 86.9816 380.802Q87.7502 379.866 88.5456 378.953Q89.3411 378.04 90.1629 377.151Q90.9846 376.262 91.8318 375.397Q92.6791 374.531 93.5512 373.691Q94.4233 372.851 95.3195 372.037Q96.2156 371.223 97.1351 370.435Q98.0546 369.647 98.9967 368.886Q99.9387 368.126 100.902 367.393Q101.866 366.66 102.851 365.955C107.654 362.459 112.975 359.701 117.914 356.403C124.165 352.227 130.108 347.139 135.545 341.938C145.036 332.857 158.86 314.193 161.493 301.238C162.553 296.025 161.991 290.049 161.988 284.737Q161.877 270.286 162.082 255.837C161.519 248.677 161.997 241.079 161.981 233.866L161.92 190.164C161.923 177.31 163.578 166.421 173.152 157.001Q174.138 156.047 175.188 155.165Q176.239 154.283 177.348 153.477Q178.458 152.67 179.621 151.944Q180.784 151.217 181.995 150.573Q183.207 149.93 184.46 149.373Q185.714 148.815 187.003 148.347Q188.292 147.879 189.611 147.503Q190.93 147.126 192.272 146.843C202.098 144.754 218.691 146.068 229.239 146.095L304.202 146.32Z"/>
	<path fill="#2A2626" d="M245.126 818.418C246.433 818.784 246.208 818.64 247.326 818.077L247.181 894.798C247.163 907.968 247.593 921.279 247.089 934.433C247.715 944.914 247.396 955.557 247.404 966.061L900.505 966.145L900.636 917.97C900.664 908.626 900.362 899.144 900.918 889.818C901.624 897.105 901.233 904.666 901.216 911.994L901.116 948.88C901.103 953.548 900.181 961.875 901.49 966.051C902.534 964.429 901.777 959.099 902.389 956.704L902.451 966.154C913.553 966.127 924.665 966.042 935.766 966.166C942.873 966.245 951.228 967.345 958.151 965.868C961.23 965.212 963.686 963.452 965.921 961.302C971.831 955.619 975.992 946.812 977.662 938.861C979.765 928.848 978.611 911.567 978.617 900.791L978.677 826.64C979.724 828.059 979.426 892.744 979.173 899.159L978.509 898.979L979.57 898.087L979.359 896.8L979.885 896.156Q980.019 907.476 979.991 918.796C979.992 934.808 979.55 949.334 967.525 961.51C966.02 963.034 964.424 964.477 962.84 965.918L996.634 965.987C1001.82 965.964 1007.3 965.433 1012.45 965.88C1014.1 966.023 1016.12 966.261 1017.31 967.521C1017.86 968.095 1017.73 968.455 1017.78 969.19C1016.6 970.676 1015.4 971.064 1013.54 971.307C1005.9 972.301 996.536 971.295 988.689 971.294L929.549 971.304L727.414 971.392L8.24171 971.478L8.32301 965.963C32.921 965.984 57.582 966.362 82.1726 965.917C72.7595 957.262 67.1039 948.342 66.561 935.253Q66.4519 932.325 66.4948 929.396L67.9914 931.632C68.3899 942.66 71.1039 953.508 79.3159 961.462C81.068 963.159 82.9923 964.507 85.3362 965.234C93.1957 967.673 113.208 966.013 122.304 966.17L122.849 966.967L123.898 966.405C134.131 965.008 151.896 966.045 162.897 966.046L245.201 966.039L245.186 929.127C244.756 892.236 245.062 855.313 245.126 818.418Z"/>
	<path fill="#D6E5F4" d="M307.71 146.033C322.274 132.192 320.832 118.282 327.107 101.229C330.425 92.2118 336.159 83.9366 342.809 77.0535C356.457 62.927 376.359 54.1413 396.034 53.8486C411.163 53.6235 426.331 53.8917 441.466 53.8627L571.145 53.9718L623.015 53.9774C634.295 53.968 646.37 53.1473 657.486 55.1368Q659.672 55.5298 661.822 56.0849Q663.973 56.64 666.076 57.354Q668.179 58.068 670.223 58.9369Q672.267 59.8059 674.24 60.8249Q676.214 61.8439 678.105 63.0074Q679.997 64.1709 681.797 65.4722Q683.597 66.7736 685.294 68.2057Q686.992 69.6378 688.578 71.1925C710.878 92.9885 706.893 117.567 707.07 145.836C691.114 144.774 673.189 145.875 657.028 145.888L552.731 145.891L414.821 145.856C392.614 145.872 368.338 145.04 346.326 146.043C335.536 145.07 319.095 145.989 307.71 146.033Z"/>
	<path fill="#F28A20" d="M247.326 818.077C253.099 816.969 259.899 817.651 265.814 817.664L300.457 817.758L428.982 817.962L745.752 818.352L847.456 818.419C865.258 818.415 883.13 818.078 900.925 818.427L900.836 864.775C900.817 873.053 900.388 881.563 900.918 889.818C900.362 899.144 900.664 908.626 900.636 917.97L900.505 966.145L247.404 966.061C247.396 955.557 247.715 944.914 247.089 934.433C247.593 921.279 247.163 907.968 247.181 894.798L247.326 818.077Z"/>
	<path fill="#010001" d="M346.326 146.043C368.338 145.04 392.614 145.872 414.821 145.856L552.731 145.891L657.028 145.888C673.189 145.875 691.114 144.774 707.07 145.836L708.871 145.706C720.534 146.195 732.274 145.934 743.947 145.913C761.642 145.881 779.08 144.233 792.115 158.59Q792.937 159.487 793.7 160.435Q794.463 161.382 795.164 162.376Q795.866 163.37 796.503 164.406Q797.14 165.442 797.71 166.517Q798.281 167.592 798.782 168.7Q799.283 169.809 799.713 170.947Q800.143 172.085 800.5 173.248Q800.856 174.411 801.139 175.594C803.124 184.143 802.099 194.225 802.079 202.992L801.978 248.086C827.498 247.802 852.048 244.512 872.024 264.121C884.821 276.683 889.487 291.957 889.519 309.486L889.497 473.746L889.496 515.409C889.499 528.656 888.873 542.178 891.666 555.209Q891.987 556.692 892.362 558.162Q892.736 559.632 893.163 561.088Q893.59 562.544 894.069 563.984Q894.548 565.423 895.078 566.845Q895.609 568.267 896.189 569.668Q896.77 571.07 897.401 572.45Q898.032 573.83 898.712 575.186Q899.392 576.542 900.12 577.873Q900.848 579.205 901.623 580.509Q902.398 581.813 903.22 583.088Q904.042 584.364 904.908 585.609Q905.775 586.854 906.686 588.068Q907.597 589.281 908.551 590.461Q909.505 591.641 910.5 592.786Q911.496 593.931 912.532 595.039Q913.568 596.147 914.643 597.218C924.595 607.118 932.874 610.026 943.82 617.407C968.748 634.215 979.749 660.669 979.969 689.958L979.979 815.725C979.973 842.486 980.603 869.412 979.885 896.156L979.359 896.8L979.57 898.087L978.509 898.979L979.173 899.159C979.426 892.744 979.724 828.059 978.677 826.64C977.994 792.201 978.622 757.625 978.588 723.17C978.575 709.702 979.15 695.973 978.431 682.533C977.076 657.224 964.119 632.773 942.902 618.515C933.709 612.338 924.34 608.069 916.01 600.469Q914.849 599.407 913.729 598.302Q912.609 597.198 911.53 596.053Q910.451 594.908 909.416 593.723Q908.38 592.539 907.389 591.317Q906.398 590.095 905.453 588.837Q904.508 587.58 903.61 586.288Q902.713 584.996 901.863 583.672Q901.014 582.347 900.214 580.993Q899.415 579.638 898.666 578.254Q897.917 576.871 897.219 575.46Q896.522 574.05 895.878 572.615Q895.233 571.18 894.643 569.722Q894.052 568.264 893.515 566.785Q892.979 565.306 892.497 563.808Q892.016 562.31 891.591 560.796Q891.165 559.281 890.796 557.752C887.64 544.578 888.118 531.081 888.094 517.643L888.058 483.74L888.016 364.157C888.024 343.762 888.907 322.944 887.915 302.587Q887.841 301.205 887.7 299.829Q887.558 298.453 887.349 297.085Q887.14 295.718 886.864 294.362Q886.588 293.007 886.245 291.666Q885.903 290.326 885.495 289.004Q885.086 287.682 884.614 286.382Q884.141 285.081 883.605 283.806Q883.068 282.531 882.47 281.283Q881.872 280.036 881.213 278.82Q880.554 277.603 879.835 276.421Q879.117 275.238 878.342 274.092Q877.566 272.947 876.735 271.841Q875.904 270.734 875.02 269.671Q874.135 268.607 873.2 267.588Q872.264 266.569 871.279 265.597Q870.294 264.625 869.263 263.703C854.543 250.607 839.588 249.448 820.868 249.625C814.564 249.685 808.219 249.617 801.923 249.967C802.503 288.511 801.999 327.124 801.985 365.675C801.975 391.621 802.809 417.884 801.926 443.794Q802.105 456.321 802.054 468.85C802.054 473.942 802.548 479.761 801.552 484.742C801.224 482.291 801.938 479.167 800.549 477.055C799.75 490.502 797.013 501.374 786.558 510.672C777.836 518.429 768.388 520.728 756.985 520.789C753.603 520.807 749.942 520.499 746.597 520.913C744.31 520.81 742.05 520.654 739.773 520.409C725.474 521.675 710.623 520.03 696.225 520.529L697.117 520.803C698.163 521.115 699.103 521.212 700.187 521.286C696.621 523.468 677.208 520.419 671.202 522.294C663.105 522.823 653.199 519.347 646.372 515.161C630.489 505.423 621.512 490.844 617.199 473.078L618.923 471.893C619.51 458.716 618.98 445.338 619.031 432.135Q597.067 432.587 575.098 432.457C568.414 432.466 560.996 431.795 554.426 432.816C553.8 432.784 553.342 432.616 552.751 432.421Q552.219 430.881 551.598 429.375Q550.977 427.869 550.27 426.402Q549.562 424.934 548.771 423.511Q547.979 422.087 547.105 420.712Q546.232 419.336 545.28 418.015Q544.328 416.693 543.301 415.428Q542.274 414.164 541.175 412.962Q540.075 411.759 538.908 410.623C520.424 392.339 496.865 395.524 473.045 395.554C472.506 400.14 472.728 404.872 472.735 409.486L447.374 409.417C442.852 409.409 437.956 409.091 433.469 409.622L433.737 459.987C433.771 470.439 434.909 482.448 432.666 492.634C431.045 499.992 427.645 506.931 422.36 512.353C410.825 524.186 398.812 525.063 383.195 525.139L259.558 525.149L219.175 525.116C211.146 525.083 202.448 525.669 194.554 524.221C186.647 522.771 179.688 518.867 173.54 513.801L174.183 512.072C173.952 511.798 173.724 511.521 173.49 511.25C168.847 505.877 165.565 499.991 164.454 492.906C162.942 483.261 163.523 473.11 163.528 463.359L163.563 419.957C163.573 364.956 164.087 309.875 163.433 254.882C163.855 242.627 163.531 230.26 163.518 217.992C191.439 217.839 219.429 218.521 247.339 217.912C245.106 215.706 239.574 218.691 236.778 216.701C240.032 216.752 243.287 216.878 246.526 216.496C246.708 216.475 246.889 216.449 247.071 216.426C238.601 215.331 228.881 216.189 220.314 216.197L163.49 216.331L163.45 194.719C163.437 181.244 163.426 169.522 173.382 159.192C178.553 153.827 186.107 149.346 193.536 148.219C203.674 146.68 215.139 147.713 225.457 147.732L285.978 147.769L433.311 147.483C463.31 147.481 493.404 147.992 523.393 147.404C520.695 146.267 498.057 146.993 492.857 146.989L400.639 146.992C383.661 147.038 366.325 147.846 349.403 146.95C348.124 146.882 347.403 146.707 346.326 146.043Z"/>
	<path fill="white" d="M206.76 402.547C210.43 402.145 213.871 402.274 217.365 403.585Q217.83 403.757 218.286 403.952Q218.741 404.148 219.187 404.367Q219.632 404.585 220.065 404.826Q220.498 405.068 220.918 405.331Q221.339 405.594 221.745 405.878Q222.151 406.162 222.543 406.467Q222.934 406.772 223.309 407.096Q223.684 407.42 224.042 407.763Q224.4 408.107 224.74 408.468Q225.079 408.829 225.4 409.207Q225.721 409.585 226.022 409.979Q226.324 410.373 226.604 410.781Q226.885 411.19 227.144 411.613Q227.403 412.036 227.64 412.471Q227.877 412.907 228.092 413.354Q228.307 413.801 228.498 414.258Q228.851 415.116 229.117 416.005Q229.384 416.893 229.563 417.804Q229.741 418.714 229.829 419.637Q229.918 420.561 229.915 421.489Q229.912 422.416 229.819 423.339Q229.725 424.262 229.541 425.172Q229.358 426.081 229.086 426.968Q228.814 427.855 228.456 428.711C225.93 434.736 221.044 438.042 215.177 440.337C210.976 441.233 207.184 441.191 203.181 439.43C198.562 437.397 194.934 433.419 193.139 428.724C191.209 423.679 191.654 418.034 193.951 413.185C196.658 407.469 200.993 404.553 206.76 402.547Z"/>
	<path fill="white" d="M208.075 460.181C212.582 460.147 216.564 460.382 220.546 462.804C225.096 465.571 228.218 470.435 229.281 475.607Q229.48 476.553 229.584 477.514Q229.689 478.474 229.699 479.441Q229.708 480.407 229.623 481.37Q229.537 482.332 229.358 483.282Q229.178 484.231 228.905 485.159Q228.633 486.086 228.271 486.982Q227.908 487.878 227.46 488.734Q227.011 489.589 226.48 490.397C223.022 495.553 218.006 497.782 212.116 498.86C208.402 499.473 203.32 497.902 200.208 495.864C195.733 492.934 192.725 488.161 191.704 482.938Q191.606 482.461 191.533 481.979Q191.46 481.497 191.412 481.012Q191.364 480.527 191.341 480.041Q191.319 479.554 191.321 479.067Q191.323 478.579 191.351 478.093Q191.378 477.606 191.431 477.122Q191.484 476.638 191.561 476.157Q191.639 475.676 191.741 475.199Q191.844 474.723 191.971 474.252Q192.098 473.782 192.249 473.319Q192.4 472.855 192.575 472.401Q192.749 471.946 192.948 471.501Q193.146 471.056 193.367 470.621Q193.587 470.187 193.83 469.765Q194.074 469.342 194.338 468.933Q194.603 468.524 194.888 468.129C198.14 463.598 202.685 461.187 208.075 460.181Z"/>
	<path fill="white" d="M215.732 302.618C219.381 302.515 223.091 303.579 226.209 305.467Q226.634 305.728 227.046 306.01Q227.458 306.293 227.854 306.596Q228.251 306.899 228.632 307.221Q229.013 307.544 229.376 307.886Q229.74 308.227 230.086 308.587Q230.432 308.947 230.76 309.324Q231.087 309.7 231.394 310.093Q231.702 310.487 231.989 310.895Q232.277 311.303 232.543 311.725Q232.809 312.147 233.053 312.583Q233.297 313.018 233.519 313.465Q233.741 313.912 233.94 314.37Q234.138 314.828 234.314 315.295Q234.489 315.763 234.64 316.238Q234.791 316.714 234.918 317.197Q235.045 317.679 235.147 318.168Q235.251 318.657 235.33 319.15Q235.409 319.643 235.464 320.14Q235.519 320.637 235.549 321.135Q235.579 321.634 235.585 322.134Q235.59 322.633 235.571 323.133Q235.552 323.632 235.508 324.129Q235.465 324.627 235.396 325.122Q235.328 325.617 235.236 326.108Q235.143 326.599 235.026 327.085Q234.909 327.571 234.769 328.05Q234.628 328.529 234.464 329.001Q234.3 329.473 234.113 329.937Q233.925 330.4 233.716 330.853Q233.506 331.307 233.274 331.749Q233.042 332.192 232.788 332.622Q232.535 333.053 232.26 333.47C228.76 338.727 223.847 340.933 217.903 342.219C213.349 342.266 208.971 341.098 205.205 338.473Q204.81 338.201 204.429 337.91Q204.048 337.618 203.683 337.308Q203.317 336.997 202.968 336.669Q202.618 336.34 202.286 335.995Q201.954 335.649 201.639 335.287Q201.325 334.925 201.029 334.547Q200.733 334.17 200.457 333.778Q200.181 333.386 199.925 332.98Q199.668 332.575 199.433 332.157Q199.198 331.739 198.984 331.31Q198.77 330.881 198.578 330.441Q198.386 330.002 198.217 329.553Q198.047 329.105 197.901 328.648Q197.754 328.191 197.631 327.728Q197.507 327.265 197.408 326.796Q197.308 326.326 197.232 325.853C196.39 320.559 197.878 315.071 201.036 310.771C204.777 305.677 209.709 303.59 215.732 302.618Z"/>
	<path fill="white" d="M210.796 252.629C215.052 252.4 218.82 252.453 222.784 254.311Q223.234 254.526 223.673 254.763Q224.112 255 224.539 255.259Q224.966 255.518 225.379 255.797Q225.792 256.077 226.191 256.376Q226.59 256.676 226.974 256.995Q227.358 257.314 227.725 257.652Q228.092 257.989 228.442 258.345Q228.792 258.7 229.125 259.073Q229.457 259.445 229.77 259.834Q230.083 260.222 230.376 260.626Q230.67 261.029 230.943 261.447Q231.216 261.864 231.468 262.295Q231.721 262.726 231.951 263.168Q232.181 263.611 232.39 264.064Q232.598 264.518 232.783 264.981Q232.969 265.444 233.131 265.916Q233.285 266.384 233.416 266.86Q233.547 267.335 233.653 267.816Q233.76 268.297 233.843 268.783Q233.926 269.269 233.984 269.759Q234.043 270.248 234.077 270.74Q234.11 271.232 234.12 271.725Q234.129 272.218 234.114 272.71Q234.099 273.203 234.059 273.695Q234.019 274.186 233.955 274.675Q233.891 275.164 233.802 275.648Q233.714 276.133 233.602 276.613Q233.489 277.093 233.353 277.567Q233.216 278.041 233.057 278.507Q232.897 278.974 232.714 279.431Q232.531 279.889 232.326 280.337Q232.12 280.786 231.893 281.223C229.06 286.66 224.434 289.618 218.759 291.436C214.095 291.776 210.054 291.574 205.789 289.339Q205.353 289.114 204.929 288.866Q204.504 288.619 204.093 288.35Q203.682 288.081 203.285 287.792Q202.889 287.503 202.507 287.194Q202.125 286.884 201.76 286.556Q201.395 286.228 201.046 285.882Q200.698 285.535 200.368 285.172Q200.038 284.808 199.727 284.428Q199.416 284.048 199.125 283.653Q198.833 283.258 198.562 282.848Q198.291 282.438 198.042 282.016Q197.792 281.593 197.564 281.158Q197.336 280.723 197.131 280.277Q196.926 279.83 196.743 279.374Q196.561 278.919 196.402 278.454Q196.243 277.989 196.108 277.517Q195.975 277.033 195.867 276.543Q195.758 276.053 195.673 275.558Q195.589 275.064 195.528 274.565Q195.468 274.067 195.432 273.567Q195.396 273.066 195.384 272.564Q195.373 272.062 195.386 271.561Q195.399 271.059 195.436 270.558Q195.474 270.058 195.536 269.56Q195.598 269.062 195.684 268.567Q195.77 268.073 195.88 267.583Q195.99 267.094 196.124 266.61Q196.258 266.126 196.416 265.65Q196.573 265.173 196.754 264.705Q196.934 264.237 197.137 263.778Q197.34 263.319 197.566 262.87Q197.791 262.422 198.038 261.985C200.977 256.799 205.253 254.229 210.796 252.629Z"/>
	<path fill="#D6E5F4" d="M611.618 298.242C616.069 299.709 620.472 301.812 624.524 304.155C639.781 312.977 652.03 328.187 656.582 345.282L611.773 345.428C611.401 329.712 611.604 313.962 611.618 298.242Z"/>
	<path fill="#D6E5F4" d="M727.722 219.518L800.494 219.503C800.518 227.485 801.473 240.73 800.257 248.154C792.759 247.67 785.032 247.857 777.516 248.05C759.002 245.997 743.398 239.223 731.557 224.516Q729.599 222.048 727.722 219.518Z"/>
	<path fill="#D6E5F4" d="M710.183 147.487C722.614 147.624 735.06 147.479 747.492 147.441C763.315 147.393 778.016 146.705 790.023 158.827C800.752 169.658 800.595 181.037 800.57 195.323L800.501 217.869L726.874 217.961C722.358 210.035 719.208 202.168 718.002 193.061C715.529 174.375 719.65 166.332 710.183 147.487Z"/>
	<path fill="#D6E5F4" d="M247.339 217.912L260.568 218.136C250.805 223.263 242.505 228.578 234.973 236.766C230.683 241.87 226.682 246.882 223.519 252.791C217.278 250.756 210.86 249.94 204.773 253.099C199.668 255.748 195.95 260.592 194.332 266.081C192.681 271.684 193.2 277.866 196.2 282.927Q196.482 283.396 196.787 283.85Q197.092 284.304 197.419 284.742Q197.747 285.18 198.096 285.602Q198.445 286.023 198.815 286.426Q199.185 286.829 199.574 287.213Q199.964 287.597 200.372 287.96Q200.781 288.324 201.207 288.667Q201.634 289.01 202.077 289.331Q202.52 289.652 202.978 289.95Q203.437 290.248 203.91 290.523Q204.383 290.798 204.869 291.048Q205.355 291.299 205.854 291.525Q206.352 291.751 206.861 291.951Q207.37 292.152 207.888 292.326Q208.407 292.501 208.933 292.649Q209.46 292.797 209.993 292.919C211.861 293.349 213.945 293.328 215.742 293.824C215.678 296.151 215.583 298.482 215.579 300.81C208.857 301.955 203.308 304.202 199.233 310.017Q198.918 310.47 198.626 310.938Q198.334 311.406 198.066 311.888Q197.797 312.37 197.552 312.864Q197.308 313.359 197.088 313.864Q196.867 314.37 196.672 314.886Q196.477 315.402 196.308 315.927Q196.138 316.452 195.995 316.985Q195.851 317.517 195.734 318.056Q195.617 318.595 195.526 319.14Q195.435 319.684 195.371 320.232Q195.307 320.78 195.271 321.33Q195.234 321.88 195.224 322.432Q195.214 322.984 195.231 323.535Q195.248 324.086 195.293 324.636Q195.337 325.186 195.408 325.733Q195.479 326.28 195.577 326.823C196.582 332.285 199.928 336.964 204.483 340.069C207.889 342.39 211.288 343.329 215.23 344.216C213.919 356.902 212.111 369.553 210.453 382.199C209.663 388.219 208.534 394.348 208.23 400.407C203.181 400.818 198.424 403.546 195.198 407.42C191.47 411.896 189.554 418.138 190.143 423.936C190.735 429.759 194.021 435.086 198.633 438.611C202.23 441.359 206.048 442.416 210.462 442.958Q210.293 450.592 210.026 458.224C203.915 458.6 198.64 460.832 194.572 465.581Q194.226 465.981 193.9 466.399Q193.575 466.816 193.271 467.249Q192.967 467.683 192.686 468.131Q192.404 468.579 192.146 469.041Q191.887 469.503 191.652 469.977Q191.418 470.451 191.207 470.937Q190.997 471.423 190.812 471.918Q190.626 472.414 190.466 472.919Q190.306 473.423 190.172 473.935Q190.037 474.447 189.929 474.965Q189.821 475.483 189.739 476.006Q189.657 476.529 189.602 477.055Q189.547 477.582 189.519 478.11Q189.49 478.639 189.489 479.168Q189.487 479.697 189.513 480.226Q189.538 480.754 189.59 481.281Q189.647 481.825 189.732 482.366Q189.816 482.906 189.927 483.442Q190.039 483.978 190.176 484.508Q190.314 485.037 190.478 485.559Q190.642 486.081 190.831 486.595Q191.021 487.108 191.235 487.611Q191.45 488.114 191.69 488.606Q191.929 489.098 192.193 489.578Q192.457 490.057 192.744 490.523Q193.031 490.989 193.341 491.44Q193.651 491.891 193.983 492.325Q194.315 492.76 194.668 493.178Q195.022 493.596 195.395 493.996Q195.769 494.396 196.162 494.777Q196.554 495.157 196.966 495.518Q197.377 495.879 197.806 496.219C201.524 499.156 205.784 500.534 210.375 501.413C210.141 508.74 209.922 516.053 209.978 523.384C196.167 523.411 184.751 521.759 174.183 512.072C173.952 511.798 173.724 511.521 173.49 511.25C168.847 505.877 165.565 499.991 164.454 492.906C162.942 483.261 163.523 473.11 163.528 463.359L163.563 419.957C163.573 364.956 164.087 309.875 163.433 254.882C163.855 242.627 163.531 230.26 163.518 217.992C191.439 217.839 219.429 218.521 247.339 217.912Z"/>
	<path fill="#D6E5F4" d="M355.277 219.579C384.67 219.083 414.122 219.461 443.524 219.46L610.066 219.453L609.97 295.869C603.787 293.913 597.627 292.347 591.095 292.439C569.986 293.387 548.579 292.713 527.441 292.576C521.882 292.54 508.979 291.451 504.353 292.666C504.277 292.997 504.142 293.327 504.162 293.666C504.426 296.507 504.41 299.248 504.33 302.095C480.797 302.604 457.241 301.929 433.702 302.151L433.754 369.501L432.066 369.746C431.645 361.783 431.898 353.711 431.892 345.737L431.923 302.13C427.095 302.039 422.253 302.119 417.422 302.125L417.427 276.944C397.291 276.496 377.071 276.725 356.926 276.627Q357.048 257.56 357.382 238.496L377.812 238.452C378.682 239.446 378.709 239.648 379.983 239.896C380.43 239.237 380.545 239.102 380.613 238.279C373.12 229.969 365.727 223.845 355.277 219.579Z"/>
	<path fill="#343D95" d="M380.613 238.279C388.338 237.761 396.267 238.096 404.012 238.089L447.072 238.07L447.046 264.403Q475.52 264.016 503.997 264.212L504.016 292.005L563.453 292.023C571.8 292.03 583.246 291.106 591.095 292.439C569.986 293.387 548.579 292.713 527.441 292.576C521.882 292.54 508.979 291.451 504.353 292.666C504.277 292.997 504.142 293.327 504.162 293.666C504.426 296.507 504.41 299.248 504.33 302.095C480.797 302.604 457.241 301.929 433.702 302.151L433.754 369.501L432.066 369.746C431.645 361.783 431.898 353.711 431.892 345.737L431.923 302.13C427.095 302.039 422.253 302.119 417.422 302.125L417.427 276.944C397.291 276.496 377.071 276.725 356.926 276.627Q357.048 257.56 357.382 238.496L377.812 238.452C378.682 239.446 378.709 239.648 379.983 239.896C380.43 239.237 380.545 239.102 380.613 238.279Z"/>
	<path fill="#D6E5F4" d="M504.162 293.666C510.874 294.606 518.208 294.006 525.002 293.994L570.18 293.914C578.666 293.901 587.531 293.41 595.973 294.324C600.783 294.845 605.339 296.015 609.969 297.381C609.966 313.945 609.759 330.539 610.145 347.098L656.907 346.963C659.253 357.905 659.551 369.05 660.052 380.193L660.207 380.349L662.058 380.767C662.725 386.496 663.774 393.173 663.417 398.89C661.909 400.754 662.089 402.373 661.937 404.69C662.045 407.757 662.2 410.796 662.478 413.853L662.61 420.233L662.861 420.389L664.881 420.981C665.18 425.762 665.684 430.628 665.551 435.418C666.225 440.612 665.73 445.893 666.421 451.051L666.607 452.172L666.101 452.408L666.212 458.199C666.528 458.257 666.843 458.318 667.159 458.372C669.811 458.822 672.695 458.685 675.385 458.731C673.468 458.789 671.314 458.657 669.473 459.224C668.059 459.125 667.479 458.847 666.288 459.67C666.006 460.955 665.968 462.025 665.979 463.328C665.922 471.651 665.858 480.058 665.305 488.362L665.726 488.425C667.487 488.679 669.217 488.746 670.994 488.788L671.438 489.482C669.777 489.485 666.2 489.062 664.87 490.044C664.786 490.107 664.722 490.194 664.648 490.269C664.543 492.048 664.072 493.753 665.082 495.259Q666.34 495.568 667.586 495.92L667.199 496.511C667.196 497.959 667.318 499.437 666.966 500.845C666.836 505.083 666.803 509.351 666.402 513.573C668.37 516.471 670.664 518.584 673.598 520.485C681.123 520.457 688.708 520.234 696.225 520.529L697.117 520.803C698.163 521.115 699.103 521.212 700.187 521.286C696.621 523.468 677.208 520.419 671.202 522.294C663.105 522.823 653.199 519.347 646.372 515.161C630.489 505.423 621.512 490.844 617.199 473.078L618.923 471.893C619.51 458.716 618.98 445.338 619.031 432.135Q597.067 432.587 575.098 432.457C568.414 432.466 560.996 431.795 554.426 432.816C553.8 432.784 553.342 432.616 552.751 432.421Q552.219 430.881 551.598 429.375Q550.977 427.869 550.27 426.402Q549.562 424.934 548.771 423.511Q547.979 422.087 547.105 420.712Q546.232 419.336 545.28 418.015Q544.328 416.693 543.301 415.428Q542.274 414.164 541.175 412.962Q540.075 411.759 538.908 410.623C520.424 392.339 496.865 395.524 473.045 395.554L472.91 394.053C472.623 385.911 472.775 377.725 472.768 369.577Q453.261 369.745 433.754 369.501L433.702 302.151C457.241 301.929 480.797 302.604 504.33 302.095C504.41 299.248 504.426 296.507 504.162 293.666Z"/>
	<path fill="#28266C" d="M644.167 489.317L644.602 488.334C648.279 486.775 658.579 487.536 662.633 488.318L662.394 489.053L662.884 489.835C657.255 488.309 650.099 490.003 644.167 489.317Z"/>
	<path fill="#2A2626" d="M665.551 435.418C666.225 440.612 665.73 445.893 666.421 451.051L666.607 452.172L666.101 452.408L664.534 452.187C659.844 451.47 649.907 453.199 646.419 451.692L646.473 450.91C649.101 450.13 653.465 450.979 656.302 451.099C658.811 451.206 662.288 451.556 664.209 449.789L664.236 447.348C665.851 443.935 665.187 439.164 665.551 435.418Z"/>
	<path fill="#010001" d="M662.861 420.389L664.881 420.981C665.18 425.762 665.684 430.628 665.551 435.418C665.187 439.164 665.851 443.935 664.236 447.348Q663.754 433.858 662.861 420.389Z"/>
	<path fill="#010001" d="M664.534 452.187L666.101 452.408L666.212 458.199C666.528 458.257 666.843 458.318 667.159 458.372C669.811 458.822 672.695 458.685 675.385 458.731C673.468 458.789 671.314 458.657 669.473 459.224C668.059 459.125 667.479 458.847 666.288 459.67C666.006 460.955 665.968 462.025 665.979 463.328C665.05 463.697 665.502 463.692 664.626 463.426L664.312 460.911C664.32 460.406 664.185 459.965 664.072 459.475C660.152 457.299 647.114 460.593 642.257 458.682C646.617 456.732 658.869 457.983 664.174 458.044L664.534 452.187Z"/>
	<path fill="#2A2626" d="M664.312 460.911L664.626 463.426C665.502 463.692 665.05 463.697 665.979 463.328C665.922 471.651 665.858 480.058 665.305 488.362L665.726 488.425C667.487 488.679 669.217 488.746 670.994 488.788L671.438 489.482C669.777 489.485 666.2 489.062 664.87 490.044C664.786 490.107 664.722 490.194 664.648 490.269C664.029 489.906 663.723 490.142 663.04 490.273L662.884 489.835L662.394 489.053L662.633 488.318C663.88 486.583 663.65 483.995 663.744 481.93C658.393 481.988 653.092 482.01 647.747 481.67C652.427 480.405 658.92 481.233 663.836 481.403Q663.949 471.154 664.312 460.911Z"/>
	<path fill="#2A2626" d="M472.91 394.053C497.802 393.909 520.722 390.23 540.058 409.216C546.294 415.339 552.843 424.001 554.426 432.816C553.8 432.784 553.342 432.616 552.751 432.421Q552.219 430.881 551.598 429.375Q550.977 427.869 550.27 426.402Q549.562 424.934 548.771 423.511Q547.979 422.087 547.105 420.712Q546.232 419.336 545.28 418.015Q544.328 416.693 543.301 415.428Q542.274 414.164 541.175 412.962Q540.075 411.759 538.908 410.623C520.424 392.339 496.865 395.524 473.045 395.554L472.91 394.053Z"/>
	<path fill="#010001" d="M617.199 473.078L618.923 471.893C621.883 488.307 630.657 502.094 644.443 511.648C652.527 517.251 661.521 519.885 671.233 520.819C666.888 518.187 663.691 515.323 662.316 510.207C661.064 505.55 661.738 500.634 662.151 495.908C656.141 495.929 649.946 496.259 643.969 495.649C647.099 494.045 658.336 495.156 662.267 495.235L663.04 490.273C663.723 490.142 664.029 489.906 664.648 490.269C664.543 492.048 664.072 493.753 665.082 495.259Q666.34 495.568 667.586 495.92L667.199 496.511C667.196 497.959 667.318 499.437 666.966 500.845C666.836 505.083 666.803 509.351 666.402 513.573C668.37 516.471 670.664 518.584 673.598 520.485C681.123 520.457 688.708 520.234 696.225 520.529L697.117 520.803C698.163 521.115 699.103 521.212 700.187 521.286C696.621 523.468 677.208 520.419 671.202 522.294C663.105 522.823 653.199 519.347 646.372 515.161C630.489 505.423 621.512 490.844 617.199 473.078Z"/>
	<path fill="#D6E5F4" d="M666.07 514.029C665.902 513.63 665.742 513.228 665.569 512.832C665.254 512.11 664.908 511.408 664.627 510.671C663.165 506.835 662.742 500.378 664.474 496.623C665.719 495.923 665.791 496.144 667.199 496.511C667.196 497.959 667.318 499.437 666.966 500.845C666.145 505.219 666.148 509.596 666.07 514.029Z"/>
	<path fill="#8A9FCE" d="M660.052 380.193L660.207 380.349L662.058 380.767C662.725 386.496 663.774 393.173 663.417 398.89C661.909 400.754 662.089 402.373 661.937 404.69C662.045 407.757 662.2 410.796 662.478 413.853L662.61 420.233C657.431 419.462 651.784 419.91 646.547 419.931L646.495 380.413C650.924 380.467 655.69 380.917 660.052 380.193Z"/>
	<path fill="#2A2626" d="M660.207 380.349L662.058 380.767C662.725 386.496 663.774 393.173 663.417 398.89C661.909 400.754 662.089 402.373 661.937 404.69C660.508 396.964 660.708 388.257 660.207 380.349Z"/>
	<path fill="#D6E5F4" d="M523.393 147.404L650.936 147.484C669.936 147.47 689.166 146.755 708.127 147.517C717.632 165.137 713.769 174.806 715.975 192.74C717.085 201.764 720.237 210.061 724.6 217.988L420.622 217.711C398.687 217.709 376.679 218.071 354.75 217.589C348.884 217.46 343.079 216.691 337.226 216.455C323.48 215.901 309.22 215.927 295.465 216.353C290.954 215.541 285.257 216.07 280.657 216.061C269.51 216.038 258.199 215.842 247.071 216.426C238.601 215.331 228.881 216.189 220.314 216.197L163.49 216.331L163.45 194.719C163.437 181.244 163.426 169.522 173.382 159.192C178.553 153.827 186.107 149.346 193.536 148.219C203.674 146.68 215.139 147.713 225.457 147.732L285.978 147.769L433.311 147.483C463.31 147.481 493.404 147.992 523.393 147.404Z"/>
	<path fill="#6375B7" d="M284.501 166.595C288.881 166.494 293.117 167.231 296.81 169.72C300.593 172.269 302.966 176.244 303.806 180.693C304.672 185.279 303.981 190.323 301.266 194.198C298.303 198.428 294.249 200.055 289.364 200.894C285.188 201.218 281.132 200.637 277.551 198.319Q276.874 197.877 276.244 197.37Q275.613 196.863 275.036 196.296Q274.459 195.73 273.941 195.109Q273.422 194.488 272.968 193.819Q272.513 193.15 272.127 192.439Q271.74 191.729 271.426 190.984Q271.112 190.239 270.872 189.466Q270.633 188.693 270.471 187.901Q270.279 187.011 270.175 186.107Q270.071 185.203 270.055 184.293Q270.04 183.383 270.114 182.476Q270.187 181.569 270.349 180.674Q270.511 179.778 270.759 178.903Q271.008 178.027 271.341 177.18Q271.674 176.333 272.088 175.523Q272.502 174.712 272.993 173.946C275.758 169.684 279.646 167.617 284.501 166.595Z"/>
	<path fill="#F28A20" d="M216.748 165.637C220.489 165.767 224.086 166.7 227.281 168.696Q227.666 168.937 228.037 169.198Q228.409 169.458 228.767 169.737Q229.125 170.017 229.468 170.314Q229.811 170.611 230.139 170.925Q230.466 171.24 230.777 171.57Q231.088 171.901 231.382 172.247Q231.676 172.593 231.952 172.954Q232.227 173.314 232.484 173.689Q232.741 174.063 232.978 174.45Q233.216 174.837 233.433 175.235Q233.65 175.634 233.847 176.043Q234.043 176.452 234.219 176.871Q234.394 177.289 234.548 177.716Q234.702 178.144 234.834 178.578Q234.965 179.012 235.075 179.453Q235.184 179.893 235.271 180.339C236.206 184.951 235.284 189.924 232.572 193.792C229.19 198.614 224.411 200.415 218.878 201.482C214.817 201.285 210.966 200.674 207.446 198.488Q206.749 198.059 206.099 197.559Q205.45 197.06 204.856 196.497Q204.262 195.933 203.729 195.311Q203.196 194.689 202.73 194.016Q202.265 193.342 201.871 192.624Q201.477 191.906 201.16 191.151Q200.843 190.396 200.605 189.612Q200.367 188.828 200.212 188.024C199.209 183.063 200.475 177.697 203.41 173.601C206.717 168.984 211.276 166.645 216.748 165.637Z"/>
	<path fill="#D6E5F4" d="M611.82 219.428L725.61 219.53Q728.327 223.699 731.558 227.485C741.647 239.195 757.04 248.025 772.657 249.14C774.648 248.569 775.622 249.292 777.516 248.05C785.032 247.857 792.759 247.67 800.257 248.154L800.544 249.572L801.923 249.967C802.503 288.511 801.999 327.124 801.985 365.675C801.975 391.621 802.809 417.884 801.926 443.794Q802.105 456.321 802.054 468.85C802.054 473.942 802.548 479.761 801.552 484.742C801.224 482.291 801.938 479.167 800.549 477.055C799.75 490.502 797.013 501.374 786.558 510.672C777.836 518.429 768.388 520.728 756.985 520.789C753.603 520.807 749.942 520.499 746.597 520.913C744.31 520.81 742.05 520.654 739.773 520.409C725.474 521.675 710.623 520.03 696.225 520.529C688.708 520.234 681.123 520.457 673.598 520.485C670.664 518.584 668.37 516.471 666.402 513.573C666.803 509.351 666.836 505.083 666.966 500.845C667.318 499.437 667.196 497.959 667.199 496.511L667.586 495.92Q666.34 495.568 665.082 495.259C664.072 493.753 664.543 492.048 664.648 490.269C664.722 490.194 664.786 490.107 664.87 490.044C666.2 489.062 669.777 489.485 671.438 489.482L670.994 488.788C669.217 488.746 667.487 488.679 665.726 488.425L665.305 488.362C665.858 480.058 665.922 471.651 665.979 463.328C665.968 462.025 666.006 460.955 666.288 459.67C667.479 458.847 668.059 459.125 669.473 459.224C671.314 458.657 673.468 458.789 675.385 458.731C672.695 458.685 669.811 458.822 667.159 458.372C666.843 458.318 666.528 458.257 666.212 458.199L666.101 452.408L666.607 452.172L666.421 451.051C665.73 445.893 666.225 440.612 665.551 435.418C665.684 430.628 665.18 425.762 664.881 420.981L662.861 420.389L662.61 420.233L662.478 413.853C662.2 410.796 662.045 407.757 661.937 404.69C662.089 402.373 661.909 400.754 663.417 398.89C663.774 393.173 662.725 386.496 662.058 380.767C661.5 369.403 660.845 358.242 659.223 346.964L737.803 346.964L761.249 347C764.808 347.033 768.541 347.396 772.084 347.149C773.7 347.036 775.127 346.552 776.585 345.881L776.288 345.568C762.184 344.861 747.932 345.214 733.808 345.211L658.556 345.302C657.476 341.659 656.227 338.098 654.618 334.65C645.987 316.153 630.723 303.286 611.743 296.306L611.82 219.428Z"/>
	<path fill="#A2B4DC" d="M732.617 457.958C732.869 459.365 732.761 460.457 733.821 461.459C736.788 464.266 736.592 468.209 736.609 472.029C736.628 476.184 737.109 481.254 736.107 485.275L733.647 485.03C732.495 483.963 732.693 483.485 732.529 481.964Q732.759 469.962 732.617 457.958Z"/>
	<path fill="#2A2626" d="M777.516 248.05C785.032 247.857 792.759 247.67 800.257 248.154L800.544 249.572L801.923 249.967C802.503 288.511 801.999 327.124 801.985 365.675C801.975 391.621 802.809 417.884 801.926 443.794Q802.105 456.321 802.054 468.85C802.054 473.942 802.548 479.761 801.552 484.742C801.224 482.291 801.938 479.167 800.549 477.055C799.934 465.45 800.246 453.448 800.557 441.823C799.669 421.372 800.485 400.498 800.48 380.009L800.475 249.883C792.329 248.426 780.201 251.44 772.657 249.14C774.648 248.569 775.622 249.292 777.516 248.05Z"/>
	<path fill="white" d="M667.199 496.511L667.586 495.92C675.406 497.002 684.028 496.282 691.951 496.271L739.755 496.188L739.773 520.409C725.474 521.675 710.623 520.03 696.225 520.529C688.708 520.234 681.123 520.457 673.598 520.485C670.664 518.584 668.37 516.471 666.402 513.573C666.803 509.351 666.836 505.083 666.966 500.845C667.318 499.437 667.196 497.959 667.199 496.511Z"/>
	<path fill="#28266C" d="M668.596 427.111C677.026 426.141 685.969 426.721 694.485 426.707C711.937 426.678 729.411 426.839 746.86 426.574Q746.784 438.835 746.885 451.094C739.587 451.081 732.113 450.505 724.844 450.828C720.412 451.026 716.145 452.002 711.671 452.075C696.662 452.318 681.622 452.09 666.607 452.172L666.421 451.051L668.689 450.678C669.718 446.674 668.545 432.183 668.596 427.111Z"/>
	<path fill="white" d="M669.478 427.668C694.803 428.005 720.179 427.624 745.507 427.479Q745.687 438.872 745.484 450.264L669.54 449.667L669.478 427.668Z"/>
	<path fill="#6375B7" d="M666.212 458.199C673.566 457.244 681.561 457.853 688.995 457.877L732.617 457.958Q732.759 469.962 732.529 481.964C732.693 483.485 732.495 483.963 733.647 485.03L736.107 485.275C735.279 485.807 734.851 486.088 734.423 486.988L734.519 488.426L733.872 488.929L734.195 489.126C732.154 490.15 676.686 490.107 671.438 489.482L670.994 488.788C669.217 488.746 667.487 488.679 665.726 488.425L665.305 488.362C665.858 480.058 665.922 471.651 665.979 463.328C665.968 462.025 666.006 460.955 666.288 459.67C667.479 458.847 668.059 459.125 669.473 459.224C671.314 458.657 673.468 458.789 675.385 458.731C672.695 458.685 669.811 458.822 667.159 458.372C666.843 458.318 666.528 458.257 666.212 458.199Z"/>
	<defs>
		<linearGradient id="gradient_0" gradientUnits="userSpaceOnUse" x1="697.98584" y1="488.80798" x2="699.53607" y2="461.81088">
			<stop offset="0" stop-color="#B9C3E2"/>
			<stop offset="1" stop-color="#DEE0F2"/>
		</linearGradient>
	</defs>
	<path fill="url(#gradient_0)" d="M665.979 463.328C665.968 462.025 666.006 460.955 666.288 459.67C667.479 458.847 668.059 459.125 669.473 459.224C668.824 466.824 668.396 474.332 668.477 481.968C689.82 482.017 711.187 482.196 732.529 481.964C732.693 483.485 732.495 483.963 733.647 485.03L736.107 485.275C735.279 485.807 734.851 486.088 734.423 486.988L734.519 488.426L733.872 488.929L734.195 489.126C732.154 490.15 676.686 490.107 671.438 489.482L670.994 488.788C669.217 488.746 667.487 488.679 665.726 488.425L665.305 488.362C665.858 480.058 665.922 471.651 665.979 463.328Z"/>
	<path fill="#A2B4DC" d="M686.638 487.911L687.498 487.367C693.747 487.425 700.035 487.599 706.281 487.393C712.715 487.181 729.12 484.178 734.423 486.988L734.519 488.426C731.032 487.076 693.428 488.068 686.638 487.911Z"/>
	<path fill="#28266C" d="M686.638 487.911C693.428 488.068 731.032 487.076 734.519 488.426L733.872 488.929L734.195 489.126C732.154 490.15 676.686 490.107 671.438 489.482L670.994 488.788C669.217 488.746 667.487 488.679 665.726 488.425L665.305 488.362C672.21 487.329 679.644 488.152 686.638 487.911Z"/>
	<path fill="white" d="M670.6 459.547L731.348 459.65Q731.388 470.008 731.223 480.365C710.989 479.253 690.186 480.111 669.913 480.213C669.835 473.291 670.125 466.45 670.6 459.547Z"/>
	<path fill="#8A9FCE" d="M662.058 380.767C670.081 379.855 678.84 380.518 686.931 380.541L734.562 380.756L734.499 420.295L685.869 420.283C680.432 420.257 669.818 419.305 664.927 420.295L664.881 420.981L662.861 420.389L662.61 420.233L662.478 413.853C662.2 410.796 662.045 407.757 661.937 404.69C662.089 402.373 661.909 400.754 663.417 398.89C663.774 393.173 662.725 386.496 662.058 380.767Z"/>
	<path fill="#2A2626" d="M664.156 409.326C664.412 412.86 664.226 416.863 664.927 420.295L664.881 420.981L662.861 420.389L662.61 420.233L662.478 413.853L663.066 414.567C663.869 413.187 663.914 410.915 664.156 409.326Z"/>
	<path fill="#010001" d="M661.937 404.69C662.089 402.373 661.909 400.754 663.417 398.89C663.693 402.364 664.016 405.843 664.156 409.326C663.914 410.915 663.869 413.187 663.066 414.567L662.478 413.853C662.2 410.796 662.045 407.757 661.937 404.69Z"/>
	<path fill="#D6E5F4" d="M303.082 217.895C327.119 218.235 355.146 214.053 373.586 233.22C375.138 234.833 376.617 236.557 377.812 238.452L357.382 238.496Q357.048 257.56 356.926 276.627C377.071 276.725 397.291 276.496 417.427 276.944L417.422 302.125C422.253 302.119 427.095 302.039 431.923 302.13L431.892 345.737C431.898 353.711 431.645 361.783 432.066 369.746L433.754 369.501Q453.261 369.745 472.768 369.577C472.775 377.725 472.623 385.911 472.91 394.053L473.045 395.554C472.506 400.14 472.728 404.872 472.735 409.486L447.374 409.417C442.852 409.409 437.956 409.091 433.469 409.622L432.412 409.153C432.384 409.293 432.354 409.433 432.329 409.573C431.359 414.943 431.933 421.162 431.979 426.632C432.104 441.396 433.947 484.218 430.046 496.429Q429.595 497.871 429.028 499.272Q428.462 500.673 427.784 502.024Q427.106 503.374 426.321 504.666Q425.536 505.957 424.65 507.181Q423.763 508.404 422.78 509.552Q421.797 510.7 420.725 511.765Q419.653 512.83 418.498 513.804Q417.343 514.779 416.113 515.657Q414.323 516.947 412.406 518.039Q410.489 519.131 408.467 520.012Q406.444 520.893 404.339 521.554Q402.234 522.214 400.071 522.647C391.575 524.317 382.18 523.582 373.531 523.576L334.015 523.52C305.194 523.558 276.303 523.996 247.488 523.523C235.562 523.282 223.592 523.477 211.661 523.468Q211.619 512.192 212.101 500.927C215.946 500.226 219.375 499.139 222.595 496.837Q223.035 496.526 223.458 496.193Q223.881 495.86 224.287 495.506Q224.692 495.152 225.08 494.777Q225.467 494.403 225.834 494.01Q226.202 493.616 226.549 493.204Q226.896 492.793 227.222 492.364Q227.548 491.935 227.851 491.49Q228.155 491.045 228.435 490.586Q228.716 490.126 228.973 489.653Q229.23 489.179 229.462 488.693Q229.694 488.208 229.902 487.711Q230.109 487.214 230.291 486.707Q230.473 486.2 230.628 485.684Q230.784 485.169 230.914 484.646Q231.043 484.123 231.146 483.595Q231.248 483.066 231.324 482.533Q231.4 481.997 231.449 481.458Q231.498 480.919 231.52 480.378Q231.541 479.838 231.535 479.296Q231.529 478.755 231.496 478.215Q231.462 477.675 231.402 477.137Q231.341 476.599 231.253 476.065Q231.165 475.531 231.05 475.002Q230.935 474.474 230.794 473.951Q230.652 473.429 230.484 472.914Q230.316 472.4 230.122 471.895Q229.928 471.389 229.709 470.894Q229.49 470.4 229.246 469.917Q229.002 469.433 228.733 468.963Q228.465 468.493 228.173 468.038Q227.882 467.582 227.567 467.141Q227.252 466.701 226.916 466.277C223.032 461.396 217.962 458.968 211.882 458.245L212.057 443.167C216.271 442.25 220.369 440.676 223.766 437.963Q224.186 437.629 224.589 437.273Q224.991 436.918 225.375 436.543Q225.76 436.168 226.124 435.774Q226.489 435.38 226.833 434.967Q227.178 434.555 227.501 434.127Q227.824 433.698 228.125 433.253Q228.426 432.808 228.704 432.349Q228.982 431.89 229.236 431.417Q229.491 430.944 229.721 430.459Q229.952 429.974 230.157 429.478Q230.363 428.982 230.543 428.476Q230.723 427.97 230.877 427.456Q231.032 426.942 231.16 426.42Q231.288 425.899 231.39 425.371Q231.491 424.844 231.566 424.312Q231.641 423.781 231.689 423.246Q231.735 422.745 231.755 422.242Q231.776 421.74 231.772 421.237Q231.768 420.733 231.738 420.231Q231.709 419.729 231.655 419.229Q231.601 418.729 231.522 418.232Q231.443 417.735 231.339 417.242Q231.236 416.75 231.108 416.264Q230.98 415.777 230.828 415.297Q230.676 414.818 230.501 414.346Q230.325 413.875 230.127 413.413Q229.928 412.95 229.706 412.499Q229.485 412.047 229.241 411.607Q228.998 411.166 228.733 410.739Q228.467 410.311 228.181 409.898Q227.895 409.484 227.589 409.085Q227.283 408.685 226.957 408.302C222.676 403.219 216.811 400.936 210.362 400.287C211.225 381.56 215.463 362.932 217.171 344.253C221.165 343.526 224.936 342.493 228.33 340.178Q228.769 339.879 229.193 339.559Q229.617 339.238 230.024 338.897Q230.432 338.555 230.821 338.194Q231.211 337.833 231.582 337.452Q231.953 337.072 232.304 336.673Q232.655 336.275 232.986 335.859Q233.317 335.443 233.627 335.011Q233.936 334.58 234.224 334.133Q234.512 333.686 234.776 333.225Q235.041 332.764 235.283 332.291Q235.524 331.818 235.741 331.333Q235.958 330.848 236.151 330.353Q236.344 329.857 236.511 329.353Q236.679 328.849 236.821 328.337Q236.963 327.825 237.079 327.306Q237.195 326.788 237.285 326.264Q237.378 325.715 237.442 325.162Q237.506 324.609 237.541 324.054Q237.577 323.499 237.584 322.942Q237.591 322.386 237.569 321.829Q237.547 321.273 237.497 320.719Q237.447 320.165 237.368 319.614Q237.289 319.063 237.182 318.517Q237.075 317.971 236.94 317.431Q236.805 316.891 236.642 316.359Q236.48 315.826 236.29 315.303Q236.1 314.78 235.883 314.267Q235.667 313.755 235.424 313.254Q235.182 312.753 234.913 312.265Q234.645 311.777 234.353 311.304Q234.06 310.831 233.743 310.373Q233.426 309.916 233.086 309.475C229.152 304.333 223.862 301.572 217.514 300.805L217.547 293.492C217.772 293.472 217.997 293.458 218.221 293.432C223.159 292.874 228.246 289.522 231.265 285.673Q231.598 285.245 231.909 284.801Q232.22 284.357 232.508 283.898Q232.796 283.439 233.061 282.966Q233.326 282.493 233.567 282.008Q233.808 281.522 234.025 281.025Q234.241 280.528 234.433 280.021Q234.624 279.514 234.79 278.998Q234.956 278.482 235.096 277.958Q235.236 277.435 235.349 276.905Q235.463 276.375 235.55 275.84Q235.636 275.305 235.697 274.766Q235.757 274.227 235.79 273.686Q235.823 273.145 235.829 272.603Q235.835 272.061 235.813 271.519Q235.792 270.978 235.744 270.438Q235.696 269.898 235.621 269.361C234.597 262.308 230.543 257.427 224.978 253.358C227.852 248.107 231.548 243.431 235.367 238.844Q236.747 237.337 238.163 235.864C245.434 228.343 256.82 220.235 267.324 218.363C276.182 216.784 293.298 218.03 303.082 217.895Z"/>
	<path fill="#A2B4DC" d="M270.147 284.249C300.683 283.917 331.237 284.709 361.775 284.186Q361.701 290.398 361.777 296.609L345.625 296.682L252.449 296.866L252.427 284.257L270.147 284.249Z"/>
	<path fill="#A2B4DC" d="M361.07 417.775L361.513 417.988C362.726 420.689 361.944 426.809 361.951 429.91Q304.914 429.404 247.876 429.713L246.91 429.282C246.32 425.641 246.733 421.619 246.829 417.924L361.07 417.775Z"/>
	<path fill="#A2B4DC" d="M247.129 444.514C265.468 444.822 283.859 444.568 302.204 444.58Q332.031 444.795 361.857 444.575Q361.765 450.484 361.808 456.393C349.552 457.211 336.788 456.554 324.483 456.593L247.149 456.594Q247.237 450.554 247.129 444.514Z"/>
	<path fill="#A2B4DC" d="M287.167 312.253L361.598 311.987L361.564 324.526Q344.347 324.94 327.125 324.956C302.094 324.978 277.016 325.358 251.989 325.031L252.043 312.477Q269.606 312.508 287.167 312.253Z"/>
	<path fill="#F28A20" d="M433.754 369.501Q453.261 369.745 472.768 369.577C472.775 377.725 472.623 385.911 472.91 394.053L473.045 395.554C472.506 400.14 472.728 404.872 472.735 409.486L447.374 409.417C442.852 409.409 437.956 409.091 433.469 409.622L432.412 409.153C427.072 409.763 421.152 409.265 415.757 409.265L382.474 409.394Q382.632 389.472 382.319 369.552C398.849 369.828 415.58 368.835 432.066 369.746L433.754 369.501Z"/>
	<path fill="#6375B7" d="M247.454 480.637C276.302 480.867 305.214 481.049 334.061 480.72L334.015 523.52C305.194 523.558 276.303 523.996 247.488 523.523L247.454 480.637Z"/>
	<path fill="#6375B7" d="M257.049 348.372L343.195 348.578L343.313 392.792L257.143 393.051C257.313 378.169 257.076 363.257 257.049 348.372Z"/>
	<path fill="#010001" d="M801.923 249.967C808.219 249.617 814.564 249.685 820.868 249.625C839.588 249.448 854.543 250.607 869.263 263.703Q870.294 264.625 871.279 265.597Q872.264 266.569 873.2 267.588Q874.135 268.607 875.02 269.671Q875.904 270.734 876.735 271.841Q877.566 272.947 878.342 274.092Q879.117 275.238 879.835 276.421Q880.554 277.603 881.213 278.82Q881.872 280.036 882.47 281.283Q883.068 282.531 883.604 283.806Q884.141 285.081 884.614 286.382Q885.086 287.682 885.495 289.004Q885.903 290.326 886.245 291.666Q886.588 293.007 886.864 294.362Q887.14 295.718 887.349 297.085Q887.558 298.453 887.7 299.829Q887.841 301.205 887.915 302.587C888.907 322.944 888.024 343.762 888.016 364.157L888.058 483.74L888.094 517.643C888.118 531.081 887.64 544.578 890.796 557.752Q891.165 559.281 891.591 560.796Q892.016 562.31 892.497 563.808Q892.979 565.306 893.515 566.785Q894.052 568.264 894.642 569.722Q895.233 571.18 895.878 572.615Q896.522 574.05 897.219 575.46Q897.917 576.871 898.666 578.254Q899.415 579.638 900.214 580.993Q901.014 582.347 901.863 583.672Q902.713 584.996 903.61 586.288Q904.508 587.58 905.453 588.837Q906.398 590.095 907.389 591.317Q908.38 592.539 909.416 593.723Q910.451 594.908 911.53 596.053Q912.609 597.198 913.729 598.302Q914.849 599.407 916.01 600.469C924.34 608.069 933.709 612.338 942.902 618.515C964.119 632.773 977.076 657.224 978.431 682.533C979.15 695.973 978.575 709.702 978.588 723.17C978.622 757.625 977.994 792.201 978.677 826.64L978.617 900.791C978.611 911.567 979.765 928.848 977.662 938.861C975.992 946.812 971.831 955.619 965.921 961.302C963.686 963.452 961.23 965.212 958.151 965.868C951.228 967.345 942.873 966.245 935.766 966.166C924.665 966.042 913.553 966.127 902.451 966.154L902.389 956.704C901.777 959.099 902.534 964.429 901.49 966.051C900.181 961.875 901.103 953.548 901.116 948.88L901.216 911.994C901.233 904.666 901.624 897.105 900.918 889.818C900.388 881.563 900.817 873.053 900.836 864.775L900.925 818.427C883.13 818.078 865.258 818.415 847.456 818.419L745.752 818.352L428.982 817.962L300.457 817.758L265.814 817.664C259.899 817.651 253.099 816.969 247.326 818.077C246.208 818.64 246.433 818.784 245.126 818.418C245.062 855.313 244.756 892.236 245.186 929.127L245.201 966.039L162.897 966.046C151.896 966.045 134.131 965.008 123.898 966.405L122.849 966.967L122.304 966.17C113.208 966.013 93.1957 967.673 85.3362 965.234C82.9923 964.507 81.068 963.159 79.3159 961.462C71.1039 953.508 68.3899 942.66 67.9914 931.632L66.4948 929.396C65.8761 922.638 66.311 915.471 66.3078 908.666L66.2842 869.275L66.1775 825.452C66.1638 817.445 65.7046 809.112 66.466 801.154C65.9668 788.526 66.5066 775.695 66.5254 763.04Q66.6753 724.761 66.2812 686.483C62.9954 686.561 59.427 687.069 56.4386 685.493C55.7229 684.426 55.4993 684.179 55.5697 682.837C55.7912 678.617 62.3253 679.432 65.1843 679.42L130.979 679.281C140.571 679.31 152.982 680.431 162.252 679.294C164.942 678.963 167.742 677.996 169.79 676.167C171.827 674.347 172.953 671.956 173.103 669.232C173.271 666.186 172.529 663.224 170.341 661.008C168.208 658.848 165.162 657.853 162.216 657.485C153.404 656.386 142.662 657.518 133.649 657.578L88.6592 657.71C80.1937 657.757 71.6973 658.096 63.236 657.935C60.5214 657.884 57.8224 657.579 55.8627 655.553C55.5962 654.215 55.6517 654.062 56.1566 652.785C58.8999 650.478 64.7496 651.335 68.2507 651.391L68.1099 580.502C68.1072 562.803 67.8297 544.989 68.4404 527.303C69.4033 526.548 69.3301 525.779 69.6053 524.626C69.9074 502.741 69.6355 480.82 69.5859 458.932C69.5572 446.273 68.7718 433.041 70.6471 420.505C73.8889 398.835 86.7408 379.342 104.447 366.694C109.416 363.144 114.844 360.296 119.921 356.913C125.888 352.938 131.445 348.065 136.621 343.104C148.049 332.15 155.253 319.904 161.877 305.715C161.835 306.392 161.795 307.062 161.785 307.74C161.602 320.447 161.974 333.195 162.004 345.907L162.036 429.726L162.008 469.361C162.006 477.477 161.368 486.263 162.817 494.251C164.203 501.89 168.175 508.31 173.54 513.801C179.688 518.867 186.647 522.771 194.554 524.221C202.448 525.669 211.146 525.083 219.175 525.116L259.558 525.149L383.195 525.139C398.812 525.063 410.825 524.186 422.36 512.353C427.645 506.931 431.045 499.992 432.666 492.634C434.909 482.448 433.771 470.439 433.737 459.987L433.469 409.622C437.956 409.091 442.852 409.409 447.374 409.417L472.735 409.486C472.728 404.872 472.506 400.14 473.045 395.554C496.865 395.524 520.424 392.339 538.908 410.623Q540.075 411.759 541.175 412.962Q542.274 414.164 543.301 415.428Q544.328 416.693 545.28 418.015Q546.232 419.336 547.105 420.712Q547.979 422.087 548.771 423.511Q549.562 424.934 550.27 426.402Q550.977 427.869 551.598 429.375Q552.219 430.881 552.751 432.421C553.342 432.616 553.8 432.784 554.426 432.816C560.996 431.795 568.414 432.466 575.098 432.457Q597.067 432.587 619.031 432.135C618.98 445.338 619.51 458.716 618.923 471.893L617.199 473.078C621.512 490.844 630.489 505.423 646.372 515.161C653.199 519.347 663.105 522.823 671.202 522.294C677.208 520.419 696.621 523.468 700.187 521.286C699.103 521.212 698.163 521.115 697.117 520.803L696.225 520.529C710.623 520.03 725.474 521.675 739.773 520.409C742.05 520.654 744.31 520.81 746.597 520.913C749.942 520.499 753.603 520.807 756.985 520.789C768.388 520.728 777.836 518.429 786.558 510.672C797.013 501.374 799.75 490.502 800.549 477.055C801.938 479.167 801.224 482.291 801.552 484.742C802.548 479.761 802.054 473.942 802.054 468.85Q802.105 456.321 801.926 443.794C802.809 417.884 801.975 391.621 801.985 365.675C801.999 327.124 802.503 288.511 801.923 249.967Z"/>
	<path fill="#6375B7" d="M570.762 579.498C569.165 577.61 567.661 575.605 567.428 573.077L568.076 572.391C569.497 572.352 570.575 572.903 571.848 573.451C571.781 575.606 571.914 577.589 570.762 579.498Z"/>
	<path fill="#6375B7" d="M513.57 569.001L514.197 569.538C514.992 572.337 515.617 574.068 514.54 576.856C513.186 577.865 512.339 577.512 510.686 577.435C509.637 576.828 508.676 576.183 508.196 575.001C507.951 574.396 507.885 573.635 508.128 573.025C509.067 570.666 511.427 569.925 513.57 569.001Z"/>
	<path fill="#343D95" d="M186.685 635.863C186.573 631.556 186.238 626.314 187.977 622.305C189.631 618.492 192.456 617.144 196.088 615.732C191.057 621.338 189.327 625.651 187.953 632.991C188.552 638.098 189.631 642.274 193.937 645.553C195.663 646.867 197.656 647.871 199.567 648.888C195.296 648.733 191.031 648.799 186.76 648.848Q186.594 642.356 186.685 635.863Z"/>
	<path fill="#6375B7" d="M92.7369 782.224C99.4523 781.133 255.656 780.935 259.489 782.051L260.093 782.951L146.362 782.942L113.318 782.893C106.589 782.888 99.402 782.441 92.7603 783.499L92.7369 782.224Z"/>
	<path fill="white" d="M255.002 540.074C257.683 540.064 260.374 540.228 263.053 540.331L263.061 571.386L254.928 571.659L255.002 540.074Z"/>
	<path fill="#343D95" d="M276.518 747.982L283.343 747.916L283.451 756.834L285.641 759.427Q285.835 771.197 285.813 782.968L283.191 782.989L276.669 783.031C277.083 771.346 276.596 759.666 276.518 747.982Z"/>
	<path fill="#2A2626" d="M283.451 756.834L285.641 759.427Q285.835 771.197 285.813 782.968L283.191 782.989C283.664 774.311 283.431 765.527 283.451 756.834Z"/>
	<path fill="#F28A20" d="M265.544 540.065L276.399 539.976C276.486 549.454 277.61 562.781 276.077 571.833C272.686 571.274 269.049 571.511 265.611 571.524L265.544 540.065Z"/>
	<path fill="#28266C" d="M108.021 652.107L138.681 652.067C146.135 652.076 153.714 651.777 161.118 652.734L160.875 653.947C158.206 656.09 149.133 655.592 145.51 655.746C125.821 656.582 105.962 656.053 86.2466 656.032L66.8517 656.019C64.3961 656.021 61.7432 656.369 59.3205 656.118C58.2669 656.009 58.0621 655.872 57.3156 655.186L57.3174 653.974C57.5927 653.632 57.7867 653.205 58.1434 652.949C59.4488 652.014 100.408 653.55 107.464 652.222C107.65 652.187 107.835 652.145 108.021 652.107Z"/>
	<path fill="white" d="M243.631 649.992L254.97 650.012C255.232 661.863 255.01 673.766 255.003 685.622L243.645 685.703C243.369 673.82 243.609 661.88 243.631 649.992Z"/>
	<path fill="#343D95" d="M256.492 650.127C260.679 650.082 264.873 650.155 269.06 650.178L269.06 685.475L256.448 685.489L256.492 650.127Z"/>
	<path fill="white" d="M259.916 747.279Q265.856 747.068 271.8 747.005C272.999 758.899 272.517 771.038 272.478 782.984L260.093 782.951L259.489 782.051Q259.858 764.667 259.916 747.279Z"/>
	<path fill="#343D95" d="M173.915 573.865C186.53 573.892 269.615 573.038 272.26 574.035C272.97 576.157 273.046 578.632 274.294 580.47L273.052 580.188C272.656 579.415 272.12 577.749 271.303 577.464C269.16 576.716 200.818 576.288 193.905 576.686C190.862 576.861 186.445 577.185 183.759 578.658C180.187 580.618 178.062 583.79 177.03 587.686C175.523 593.37 176.045 598.985 179.22 604.019C180.758 606.455 182.729 608.195 184.98 609.951L173.548 610.015Q173.512 591.938 173.915 573.865Z"/>
	<path fill="#D6E5F4" d="M515.282 568.315C518.141 566.665 520.317 564.514 522.598 562.176C526.684 573.337 530.427 584.958 529.774 596.973C527.637 596.643 525.539 596.217 523.422 596.873C522.536 597.882 522.518 598 522.581 599.405C522.805 604.352 529.559 629.995 529.173 630.897C527.836 632.51 522.927 641.627 522.094 641.91C521.626 632.458 520.623 622.964 519.891 613.524C518.718 598.382 517.664 583.329 515.282 568.315Z"/>
	<path fill="#343D95" d="M89.2031 649.459C88.2611 649.234 86.6286 648.776 86.1554 647.868C84.6243 644.928 85.0892 617.257 86.0533 613.05C88.8091 611.117 110.823 612.002 115.706 611.993Q115.639 630.306 115.783 648.618C113.407 650.149 93.934 648.801 89.2031 649.459Z"/>
	<path fill="#343D95" d="M113.027 610.025C107.566 610.225 85.1111 611.285 81.6098 609.019C79.0548 605.235 79.4901 599.966 79.479 595.584C79.4664 590.567 78.2771 577.922 81.6934 574.488C85.3958 573.042 109.617 572.902 113.267 574.042C112.148 585.769 112.977 598.217 113.027 610.025Z"/>
	<path fill="#343D95" d="M94.9696 686.542L130.564 686.52Q130.39 715.016 130.928 743.508C120.569 743.454 107.855 742.469 97.838 743.612C96.5671 743.324 95.5428 743.392 94.7089 742.345C93.4844 723.918 95.075 705.012 94.9696 686.542Z"/>
	<path fill="white" d="M93.3413 752.984L150.368 752.94C160.333 752.934 170.651 752.375 180.569 753.09C182.306 753.215 183.962 753.465 185.483 754.361C188.061 755.882 189.771 758.223 190.421 761.152C191.312 765.168 190.332 768.007 188.108 771.316C186.198 772.797 184.429 773.997 181.992 774.33C173.675 775.465 163.502 774.448 154.997 774.47L93.2804 774.536L93.3413 752.984Z"/>
	<path fill="#343D95" d="M114.786 573.86C133.96 574.461 153.283 573.998 172.471 573.931L172.274 609.949L134.619 610.004C128.034 610.015 121.226 609.685 114.67 610.134Q114.632 591.997 114.786 573.86Z"/>
	<path fill="white" d="M196.158 580.246C220.059 579.773 244.179 580.046 268.077 580.548L268.181 607.75L252.485 607.598L214.329 607.531C207.725 607.542 200.471 608.195 193.976 607.181C191.084 606.729 188.38 605.591 186.125 603.704C183.273 601.317 181.374 597.912 181.142 594.175C180.913 590.48 182.425 586.776 184.933 584.086C188.039 580.755 191.899 580.454 196.158 580.246Z"/>
	<path fill="#2A2626" d="M456.813 529.959C453.177 521.753 450.825 513.282 452.709 504.298C454.555 495.492 459.581 487.62 467.19 482.735C475.775 477.224 487.187 474.572 497.221 476.884C507.991 479.365 515.292 487.848 520.849 496.879L522.82 496.487C524.132 498.874 525.352 501.354 527.033 503.505L523.991 504.694L522.358 504.151C521.053 504.461 519.836 504.385 519.228 505.772C517.998 508.579 519.545 512.928 519.245 516.06L517.955 515.533C517.151 516.417 517.296 516.458 517.143 517.572L516.484 514.231C512.508 511.233 507.032 506.479 505.718 501.55L504.174 500.784C502.895 501.541 502.784 502.683 502.25 504.031C498.707 513.099 491.628 519.741 482.78 523.633C479.843 524.925 476.603 526.021 473.421 526.471C470.301 526.912 465.258 526.105 462.518 527.526C461.272 528.172 460.897 529.194 460.408 530.449C460.196 530.994 460.159 531.157 460.015 531.663C460.089 532.959 460.114 534.259 460.335 535.539L458.125 535.978L455.618 531.362L456.813 529.959Z"/>
	<path fill="white" d="M522.82 496.487L519.227 488.386C520.039 488.167 519.731 488.078 520.319 488.413C523.378 490.156 525.659 493.064 528.243 495.412C531.177 498.078 534.454 500.39 537.145 503.316C543.126 509.819 547.043 521.075 549.203 529.579C551.31 537.88 551.963 546.681 554.953 554.742C558.531 564.391 564.533 573.015 568.437 582.585C557.909 590.547 545.415 594.6 532.406 596.22C532.091 589.635 531.747 583.25 529.845 576.885C528.361 571.92 526.077 566.848 525.161 561.761C524.412 557.607 525.525 553.209 525.774 549.026C526.453 537.565 523.684 526.508 519.245 516.06C519.545 512.928 517.998 508.579 519.228 505.772C519.836 504.385 521.053 504.461 522.358 504.151L523.991 504.694L527.033 503.505C525.352 501.354 524.132 498.874 522.82 496.487Z"/>
	<path fill="#010001" d="M527.033 503.505C530.914 509.418 537.984 522.958 538.105 529.864L537.521 530.55C536.652 530.281 535.87 529.928 535.367 529.117C534.607 527.89 534.402 525.792 533.993 524.381C532.016 517.547 529.268 509.669 523.991 504.694L527.033 503.505Z"/>
	<path fill="#2A2626" d="M620.162 575.791C623.566 574.406 632.889 575.195 636.873 575.206C635.04 576.293 631.171 575.822 629.013 575.846L630.765 575.69L631.045 576.166C631.376 576.107 631.704 576.026 632.039 575.99C637.233 575.431 643.106 575.985 648.359 575.99L685.756 575.999L807.077 575.988L840.557 575.987C844.261 575.987 849.149 576.59 852.724 575.932L852.869 576.365L854.291 576.306C847.424 576.854 840.325 576.493 833.422 576.497L794.684 576.495L673.951 576.477C666.563 576.478 635.679 575.438 630.617 577.372L631.222 577.673C623.542 583.165 621.768 584.924 620.178 594.364Q609.309 661.763 599.41 729.311Q597.642 741.757 595.639 754.167C594.627 760.405 592.871 767.369 593.155 773.669L594.21 775.108L592.737 776.683C588.884 772.695 584.537 769.069 580.386 765.39C580.675 764.565 580.603 764.937 580.678 764.086C581.467 755.155 583.906 746.15 585.294 737.267C588.222 718.53 590.699 699.658 593.458 680.884Q598.356 646.813 604.062 612.868C605.283 605.401 605.455 596.943 607.63 589.742C609.829 582.466 614.454 579.661 620.714 576.358L620.162 575.791Z"/>
	<path fill="#343D95" d="M222.473 611.116C236.897 610.458 251.484 610.583 265.918 610.655C268.895 610.744 273.4 610.343 275.865 612.225C272.355 613.56 259.24 612.57 254.716 612.518C252.877 612.728 251.101 612.652 249.254 612.577C240.049 613.288 230.685 613.056 221.452 613.058C216.437 613.06 211.046 613.45 206.071 612.919C202.804 613.451 199.197 614.845 196.01 615.073C192.494 615.993 189.77 617.156 187.797 620.364C183.891 626.713 185.239 641.276 185.228 648.778L117.412 649.01L117.078 643.25C118.22 635.985 117.306 620.25 117.381 611.994L169.543 611.892C179.255 611.872 189.039 611.588 198.743 611.928C206.31 610.798 214.782 611.274 222.473 611.116Z"/>
	<path fill="white" d="M210.177 617.207C240.69 616.172 271.474 616.913 302.02 616.927L302.041 645.177L286.25 645.17L232.071 645.149C223.114 645.154 213.158 646.117 204.376 644.681C202.16 644.319 199.847 643.296 198.061 641.942C195.25 639.811 193.768 636.741 193.398 633.271C192.984 629.386 194.046 625.851 196.663 622.929C200.732 618.385 204.405 617.665 210.177 617.207Z"/>
	<path fill="#343D95" d="M206.673 650.079C218.286 650.658 230.082 649.965 241.718 650.055L241.838 685.815Q180.865 685.938 119.898 685.017C100.677 684.845 81.2 685.632 62.0132 684.85C60.4022 684.785 58.8197 684.764 57.4088 683.895L57.058 682.961C57.7798 681.992 58.2227 681.502 59.4902 681.36C64.9747 680.746 75.8102 681.423 81.9529 681.387Q111.94 681.104 141.925 681.487C150.004 681.555 159.276 682.642 167.188 681.272C169.293 680.907 171.448 679.445 172.909 677.935C175.619 675.134 176.919 671.233 176.791 667.371C176.666 663.608 175.138 659.658 172.323 657.087C169.256 654.286 165.026 653.595 161.118 652.734C153.714 651.777 146.135 652.076 138.681 652.067L108.021 652.107C99.2576 652.015 90.0897 652.586 81.3904 651.588C83.614 651.567 85.8185 651.54 88.0376 651.376L88.0493 650.985L89.3365 650.739C96.1134 651.067 103.092 650.648 109.888 650.564Q126.728 650.385 143.568 650.442L182.501 650.435C190.517 650.426 198.68 650.656 206.673 650.079Z"/>
	<path fill="white" d="M493.689 749.582C506.316 749.616 545.483 741.776 554.635 746.378C562.377 750.271 573.022 759.897 580.386 765.39C584.537 769.069 588.884 772.695 592.737 776.683C594.076 778.989 595.133 781.454 596.251 783.873C581.598 784.92 564.012 783.977 549.027 783.979C539.111 783.98 513.984 785.083 505.507 783.292C501.346 782.413 497.157 779.58 493.535 777.459C493.841 768.193 493.649 758.856 493.689 749.582Z"/>
	<path fill="#343D95" d="M522.094 641.91C522.927 641.627 527.836 632.51 529.173 630.897L529.412 631.417C533.35 640.237 535.866 650.072 539.058 659.213C544.591 675.056 564.095 730.395 579.738 737.04C580.729 737.461 581.805 737.696 582.856 737.911C581.613 745.889 580.529 753.941 578.81 761.832C570.148 754.953 559.066 743.452 547.636 742.732C540.849 742.304 533.248 743.7 526.442 744.299C526.431 740.109 526.653 725.873 525.128 722.691L524.906 723.363C524.206 721.951 521.735 665.843 521.152 657.781L521.562 657.742C522.748 655.043 522.079 645.322 522.094 641.91Z"/>
	<path fill="white" d="M502.25 504.031C502.784 502.683 502.895 501.541 504.174 500.784L505.718 501.55C507.032 506.479 512.508 511.233 516.484 514.231L517.143 517.572C517.531 519.223 518.166 520.997 517.687 522.671C511.926 524.002 490.859 521.528 487.523 523.727C489.577 525.418 515.738 524.511 520.169 524.504C523.055 533.921 526.007 550.449 521.057 559.55C518.517 564.221 513.967 567.017 508.949 568.402C501.424 570.478 494.469 569.836 487.521 566.162C485.656 565.176 483.792 563.843 481.659 563.646L481.425 564.249C484.37 568.486 491.207 570.759 496.158 571.659C500.104 572.377 504.058 572.308 508.013 571.667C506.927 577.256 504.124 582.98 502.06 588.309Q497.669 599.739 493.504 611.253C486.658 604.538 472.388 586.708 467.964 578.33C468.258 566.585 470.17 554.805 469.49 543.057C466.452 542.122 463.335 541.43 461.675 538.422C461.164 537.497 460.751 536.509 460.335 535.539C460.114 534.259 460.089 532.959 460.015 531.663C460.159 531.157 460.196 530.994 460.408 530.449C460.897 529.194 461.272 528.172 462.518 527.526C465.258 526.105 470.301 526.912 473.421 526.471C476.603 526.021 479.843 524.925 482.78 523.633C491.628 519.741 498.707 513.099 502.25 504.031Z"/>
	<path fill="#010001" d="M502.102 533.346C503.807 533.326 505.088 533.572 506.37 534.799C508.274 536.621 508.825 539.474 508.715 542.004C508.55 545.802 507.689 547.834 504.939 550.399C503.891 550.322 503.267 550.231 502.335 549.689C500.615 548.687 499.73 546.588 499.374 544.723C498.597 540.654 499.713 536.631 502.102 533.346Z"/>
	<path fill="white" d="M503.124 536.6C504.393 537.167 504.645 537.292 505.238 538.647C506.38 541.256 505.582 545.017 504.716 547.584C503.936 547.307 503.645 547.368 503.166 546.614C501.417 543.858 502.406 539.551 503.124 536.6Z"/>
	<path fill="white" d="M225.736 694.649C235.134 694.392 244.627 694.833 254.041 694.809Q282.536 694.488 311.033 694.543L311.198 734.558L295.25 734.529Q274.057 734.365 252.865 734.559C244.312 734.669 235.142 735.574 226.682 734.698C223.794 734.399 221.061 733.544 218.599 731.992C213.852 729 211.154 724.467 210.031 719.049C208.834 713.268 209.599 707.479 212.987 702.539C216.038 698.091 220.496 695.554 225.736 694.649Z"/>
	<path fill="#F28A20" d="M123.431 541.372C124.801 540.507 125.753 540.26 127.368 540.144C139.219 539.288 151.645 540.001 163.544 539.99C192.984 539.964 222.64 540.489 252.06 539.583L252.061 571.915L163.205 571.509C151.406 571.499 134.746 570.615 123.436 571.726L124.214 567.439C122.784 567.49 121.397 567.509 119.969 567.409C118.952 566.555 119.104 566.383 118.924 565.042L118.962 547.498C130.01 547.938 144.405 548.339 155.262 547.082C149.037 546.779 122.026 548.213 118.781 546.076L119.015 545.334C120.771 544.126 121.378 544.366 123.459 544.393L123.431 541.372Z"/>
	<path fill="#010001" d="M155.262 547.082C149.037 546.779 122.026 548.213 118.781 546.076L119.015 545.334C120.771 544.126 121.378 544.366 123.459 544.393C147.779 544.968 172.142 544.176 196.465 544.57C196.437 552.093 196.517 559.632 196.37 567.153C186.164 567.766 175.833 567.469 165.608 567.479C151.821 567.492 137.998 567.663 124.214 567.439C122.784 567.49 121.397 567.509 119.969 567.409C118.952 566.555 119.104 566.383 118.924 565.042C143.852 564.253 169.024 564.933 193.978 564.92L193.957 547.048Q174.609 546.885 155.262 547.082Z"/>
	<path fill="white" d="M155.262 547.082Q174.609 546.885 193.957 547.048L193.978 564.92C169.024 564.933 143.852 564.253 118.924 565.042L118.962 547.498C130.01 547.938 144.405 548.339 155.262 547.082Z"/>
	<path fill="#343D95" d="M132.516 686.759Q220.89 687.326 309.264 686.987L309.292 687.387L310.014 687.364L310.26 687.007L313.418 687.141C313.619 687.597 313.735 687.798 313.828 688.33C314.01 689.383 313.817 690.206 313.196 691.045C310.764 691.467 308.382 691.338 305.928 691.286C288.283 690.915 270.656 691.399 253.012 691.388C243.951 691.382 233.374 690.033 224.53 691.699C221.164 692.333 218.407 693.938 215.994 696.35C211.591 700.753 208.085 708.008 208.19 714.34C208.31 721.629 211.812 727.377 216.946 732.229C219.361 734.029 221.905 735.471 224.928 735.845C233.281 736.878 242.712 735.846 251.191 735.855L311.283 735.894L311.377 744.009L132.539 744.03L132.516 686.759Z"/>
	<path fill="#F28A20" d="M70.8586 785.164L282.583 784.835L282.481 815.527L70.9369 815.722C70.8048 805.539 70.8749 795.347 70.8586 785.164Z"/>
	<path fill="#343D95" d="M571.848 573.451C576.099 578.782 578.693 585.698 581.767 591.757C587.762 603.575 593.906 615.256 599.572 627.245C595.9 650.292 592.031 673.376 588.707 696.471C586.805 709.685 585.789 723.319 583.106 736.382C581.087 735.48 579.131 734.605 577.444 733.136C564.486 721.855 553.788 692.208 547.674 676.178C540.387 657.071 531.557 633.777 527.176 614.035C526.654 611.683 524.352 597.496 523.422 596.873C525.539 596.217 527.637 596.643 529.774 596.973C529.962 597.506 529.8 597.139 530.513 597.923C539.023 598.976 553.439 593.258 561.019 589.533C564.381 587.882 570.076 585.03 571.14 581.209C571.387 580.32 571.147 580.246 570.762 579.498C571.914 577.589 571.781 575.606 571.848 573.451Z"/>
	<path fill="white" d="M508.641 578.918C510.547 579.236 512.731 579.334 514.295 580.549C516.293 584.518 519.789 646.78 521.152 657.781C521.735 665.843 524.206 721.951 524.906 723.363L525.738 744.422C515.173 745.601 504.344 746.808 493.726 747.226C493.676 743.534 494.157 738.857 493.075 735.346C488.506 734.091 482.907 735.488 478.102 734.827L478.041 733.738C476.679 701.306 474.214 668.816 471.802 636.445C470.98 625.408 471.625 612.282 469.529 601.663C469.244 595.688 468.583 589.739 468.302 583.768C475.36 593.05 485.45 608.143 493.725 615.755C500.1 604.191 502.802 590.779 508.641 578.918Z"/>
	<path fill="#D6E5F4" d="M67.7532 686.654C76.3125 686.546 84.8828 686.627 93.4433 686.618Q93.2203 714.804 93.4306 742.99C89.0279 742.93 84.2302 742.518 79.862 743.036C78.3772 743.212 78.3527 743.289 77.4829 744.422C81.9435 745.398 87.8543 745.186 92.4267 744.774C91.7467 751.962 91.23 776.063 92.7369 782.224L92.7603 783.499C85.2619 783.552 76.9345 782.82 69.5538 783.788C69.5932 791.922 70.6284 810.183 69.2804 817.28C71.2882 818.685 115.179 817.845 122.267 817.858C123.083 845.423 122.381 873.193 122.364 900.779C122.351 922.272 123.2 944.872 122.304 966.17C113.208 966.013 93.1957 967.673 85.3362 965.234C82.9923 964.507 81.068 963.159 79.3159 961.462C71.1039 953.508 68.3899 942.66 67.9914 931.632L66.4948 929.396C65.8761 922.638 66.311 915.471 66.3078 908.666L66.2842 869.275L66.1775 825.452C66.1638 817.445 65.7046 809.112 66.466 801.154C69.3976 796.108 65.1031 781.671 67.8642 777.651C68.2965 747.321 67.4889 716.981 67.7532 686.654Z"/>
	<path fill="#28266C" d="M66.466 801.154C69.3976 796.108 65.1031 781.671 67.8642 777.651L67.945 783.224Q67.7115 800.459 67.9841 817.693L67.9914 931.632L66.4948 929.396C65.8761 922.638 66.311 915.471 66.3078 908.666L66.2842 869.275L66.1775 825.452C66.1638 817.445 65.7046 809.112 66.466 801.154Z"/>
	<path fill="#F28A20" d="M124.142 817.754L203.564 817.704C216.635 817.701 230.082 817.03 243.117 817.741C244.048 817.792 244.393 817.859 245.126 818.418C245.062 855.313 244.756 892.236 245.186 929.127L245.201 966.039L162.897 966.046C151.896 966.045 134.131 965.008 123.898 966.405C124.44 949.026 124.051 931.527 124.069 914.136L124.142 817.754Z"/>
	<path fill="#F28A20" d="M284.784 784.975L738.32 786.517L947.05 784.977L947.045 815.048L946.822 815.696C946.219 816.008 945.833 816.098 945.15 816.091L284.774 815.514Q284.684 800.244 284.784 784.975Z"/>
	<path fill="#343D95" d="M333.821 782.979C333.59 782.774 333.357 782.572 333.129 782.363C326.644 776.404 323.624 767.3 323.436 758.684Q323.358 755.149 323.728 751.633Q324.098 748.117 324.911 744.676C327.602 732.812 332.368 721.356 336.06 709.77C345.768 679.303 355.003 647.837 369.416 619.191C374.873 608.345 381.208 598.309 389.673 589.53C402.555 576.17 418.437 569.115 437.097 569.96C447.015 570.409 456.487 571.864 466.498 571.665C466.188 577.639 467.437 596.803 469.529 601.663C471.625 612.282 470.98 625.408 471.802 636.445C474.214 668.816 476.679 701.306 478.041 733.738L478.102 734.827C482.907 735.488 488.506 734.091 493.075 735.346C492.038 735.386 491.958 735.267 491.055 735.885C492.479 751.429 491.482 767.794 491.414 783.434C485.25 782.69 478.805 783.003 472.595 782.984L442.178 782.861L333.821 782.979Z"/>
	<path fill="#010001" d="M394.569 735.715C394.704 735.506 394.834 735.294 394.974 735.088C402.099 724.677 422.006 661.396 425.767 659.571L426.32 660.263C426.042 664.968 419.109 680.485 417.116 685.708Q407.947 709.531 399.222 733.52L478.041 733.738L478.102 734.827C477.177 735.645 476.334 735.648 475.138 735.742C463.802 736.631 451.898 735.903 440.507 735.862C425.216 735.807 409.845 736.226 394.569 735.715Z"/>
	<path fill="white" d="M631.222 577.673C641.788 576.282 653.168 577.099 663.849 577.093L723.526 577.07L808.558 577.097C822.695 577.109 837.276 576.334 851.348 577.264C854.374 577.464 856.764 577.81 859.265 579.656C862.083 581.737 863.293 583.738 863.702 587.223C864.635 595.159 861.855 606.283 860.674 614.304L854.922 653.772Q849.88 688.7 844.381 723.559C842.244 737.692 840.612 752.11 837.526 766.066C836.632 770.109 835.477 774.655 832.761 777.88C829.174 782.139 824.691 783.151 819.411 783.427C810.946 783.87 802.326 783.573 793.847 783.594L749.526 783.706L598.179 783.637C597.377 780.297 596.47 777.734 594.21 775.108L593.155 773.669C592.871 767.369 594.627 760.405 595.639 754.167Q597.642 741.757 599.41 729.311Q609.309 661.763 620.178 594.364C621.768 584.924 623.542 583.165 631.222 577.673Z"/>
	<path fill="#D6E5F4" d="M801.923 249.967C808.219 249.617 814.564 249.685 820.868 249.625C839.588 249.448 854.543 250.607 869.263 263.703Q870.294 264.625 871.279 265.597Q872.264 266.569 873.2 267.588Q874.135 268.607 875.02 269.671Q875.904 270.734 876.735 271.841Q877.566 272.947 878.342 274.092Q879.117 275.238 879.835 276.421Q880.554 277.603 881.213 278.82Q881.872 280.036 882.47 281.283Q883.068 282.531 883.604 283.806Q884.141 285.081 884.614 286.382Q885.086 287.682 885.495 289.004Q885.903 290.326 886.245 291.666Q886.588 293.007 886.864 294.362Q887.14 295.718 887.349 297.085Q887.558 298.453 887.7 299.829Q887.841 301.205 887.915 302.587C888.907 322.944 888.024 343.762 888.016 364.157L888.058 483.74L888.094 517.643C888.118 531.081 887.64 544.578 890.796 557.752Q891.165 559.281 891.591 560.796Q892.016 562.31 892.497 563.808Q892.979 565.306 893.515 566.785Q894.052 568.264 894.642 569.722Q895.233 571.18 895.878 572.615Q896.522 574.05 897.219 575.46Q897.917 576.871 898.666 578.254Q899.415 579.638 900.214 580.993Q901.014 582.347 901.863 583.672Q902.713 584.996 903.61 586.288Q904.508 587.58 905.453 588.837Q906.398 590.095 907.389 591.317Q908.38 592.539 909.416 593.723Q910.451 594.908 911.53 596.053Q912.609 597.198 913.729 598.302Q914.849 599.407 916.01 600.469C924.34 608.069 933.709 612.338 942.902 618.515C964.119 632.773 977.076 657.224 978.431 682.533C979.15 695.973 978.575 709.702 978.588 723.17C978.622 757.625 977.994 792.201 978.677 826.64L978.617 900.791C978.611 911.567 979.765 928.848 977.662 938.861C975.992 946.812 971.831 955.619 965.921 961.302C963.686 963.452 961.23 965.212 958.151 965.868C951.228 967.345 942.873 966.245 935.766 966.166C924.665 966.042 913.553 966.127 902.451 966.154L902.389 956.704C902.763 940.535 902.487 924.304 902.489 908.129L902.509 818.352L948.932 818.285C948.928 806.683 949.191 795.01 948.692 783.418C927.087 783.128 905.44 783.289 883.83 783.241C866.008 783.202 848.102 782.841 830.291 783.454C831.161 782.746 832.028 782.032 832.85 781.269C836.194 778.164 838.01 773.048 839.112 768.703C842.495 755.373 843.858 741.032 845.901 727.419L856.005 660.888L862.634 615.243C863.869 606.828 865.934 597.757 866.019 589.289C866.058 585.432 864.705 581.956 861.944 579.205C859.472 576.741 856.66 575.76 853.251 575.399C845.781 574.608 837.823 575.189 830.302 575.211L787.53 575.274L636.873 575.206C632.889 575.195 623.566 574.406 620.162 575.791C617.814 576.126 615.708 576.85 613.686 578.115C610.294 580.236 607.832 583.398 606.368 587.105C604.225 592.533 604.17 599.306 603.43 605.085Q602.24 614.597 600.198 623.963C597.011 617.362 576.139 573.977 572.633 571.886C570.474 570.599 568.394 571.16 566.071 571.544C562.247 565.264 558.678 558.931 556.502 551.864C551.146 534.471 551.553 515.781 538.237 501.223C534.188 496.798 525.126 487.474 519.65 485.412C517.949 484.772 515.822 484.813 514.018 484.728C509.185 479.825 504.458 476.384 497.652 474.721C487.825 472.319 474.972 475.703 466.431 480.922Q465.683 481.387 464.96 481.888Q464.236 482.389 463.537 482.925Q462.839 483.461 462.167 484.03Q461.496 484.6 460.853 485.201Q460.211 485.803 459.598 486.435Q458.986 487.067 458.405 487.729Q457.824 488.391 457.276 489.08Q456.728 489.769 456.215 490.484Q455.702 491.199 455.224 491.939Q454.746 492.678 454.305 493.44Q453.864 494.202 453.461 494.985Q453.058 495.767 452.693 496.569Q452.329 497.37 452.004 498.188Q451.679 499.006 451.395 499.84Q451.111 500.673 450.868 501.519Q450.624 502.365 450.423 503.222C448.089 513.082 450.377 522.829 455.618 531.362L458.125 535.978C460.057 539.448 463.926 544.705 462.687 548.798C461.659 552.194 455.944 555.109 456.969 558.37C459.53 560.631 463.521 561.548 466.799 562.277L466.344 570.298C434.639 570.656 414.739 562.365 389.372 588.457C380.91 597.161 374.331 607.561 368.858 618.343C354.278 647.063 344.804 678.667 334.892 709.225C331.036 721.113 326.14 733.01 323.454 745.213Q322.715 748.44 322.375 751.733Q322.036 755.026 322.1 758.336C322.281 768.162 325.085 775.876 331.981 783.023L285.813 782.968Q285.835 771.197 285.641 759.427L285.6 746.833L313.042 746.969C312.883 739.966 311.438 697.089 313.095 694.258C314.205 694.185 315.12 694.127 316.184 693.769C316.956 691.451 316.499 688.044 316.485 685.58C300.698 685.199 284.854 685.467 269.06 685.475L269.06 650.178C276.728 649.782 298.166 651.247 303.701 649.609C304.607 645.387 303.109 632.674 303.207 627.294C303.29 622.709 305.053 617.131 304.424 612.735C301.42 610.628 285.604 612.585 280.523 611.906C276.873 611.418 273.373 608.491 269.525 607.666C269.527 599.02 268.721 589.886 269.668 581.329C270.574 580.291 271.726 580.415 273.052 580.188L274.294 580.47L275.371 579.964C276.566 577.998 276.083 574.157 276.077 571.833C277.61 562.781 276.486 549.454 276.399 539.976L276.083 538.732C272.358 537.554 240.865 538.035 234.859 538.024L157.913 538.232C147.798 538.29 137.649 537.995 127.54 538.234C126.193 538.266 124.786 538.186 123.568 538.79C123.417 539.703 123.343 540.449 123.431 541.372L123.459 544.393C121.378 544.366 120.771 544.126 119.015 545.334L118.781 546.076C122.026 548.213 149.037 546.779 155.262 547.082C144.405 548.339 130.01 547.938 118.962 547.498L118.924 565.042C119.104 566.383 118.952 566.555 119.969 567.409C121.397 567.509 122.784 567.49 124.214 567.439L123.436 571.726L122.856 571.776C111.181 572.67 95.1749 570.615 84.4224 572.084C82.812 572.304 80.8711 572.642 79.8204 573.996C76.9529 577.691 77.2864 601.497 78.3379 606.729C78.5951 608.008 79.1052 608.893 80.1628 609.671C81.4828 610.641 83.593 611.132 85.1455 611.609C85.0783 612.645 84.8593 612.833 84.4351 613.749C82.5722 617.771 83.2484 643.311 84.865 647.72C85.5271 649.526 86.4673 650.109 88.0493 650.985L88.0376 651.376C85.8185 651.54 83.614 651.567 81.3904 651.588L69.4184 651.458L69.6053 524.626C69.9074 502.741 69.6355 480.82 69.5859 458.932C69.5572 446.273 68.7718 433.041 70.6471 420.505C73.8889 398.835 86.7408 379.342 104.447 366.694C109.416 363.144 114.844 360.296 119.921 356.913C125.888 352.938 131.445 348.065 136.621 343.104C148.049 332.15 155.253 319.904 161.877 305.715C161.835 306.392 161.795 307.062 161.785 307.74C161.602 320.447 161.974 333.195 162.004 345.907L162.036 429.726L162.008 469.361C162.006 477.477 161.368 486.263 162.817 494.251C164.203 501.89 168.175 508.31 173.54 513.801C179.688 518.867 186.647 522.771 194.554 524.221C202.448 525.669 211.146 525.083 219.175 525.116L259.558 525.149L383.195 525.139C398.812 525.063 410.825 524.186 422.36 512.353C427.645 506.931 431.045 499.992 432.666 492.634C434.909 482.448 433.771 470.439 433.737 459.987L433.469 409.622C437.956 409.091 442.852 409.409 447.374 409.417L472.735 409.486C472.728 404.872 472.506 400.14 473.045 395.554C496.865 395.524 520.424 392.339 538.908 410.623Q540.075 411.759 541.175 412.962Q542.274 414.164 543.301 415.428Q544.328 416.693 545.28 418.015Q546.232 419.336 547.105 420.712Q547.979 422.087 548.771 423.511Q549.562 424.934 550.27 426.402Q550.977 427.869 551.598 429.375Q552.219 430.881 552.751 432.421C553.342 432.616 553.8 432.784 554.426 432.816C560.996 431.795 568.414 432.466 575.098 432.457Q597.067 432.587 619.031 432.135C618.98 445.338 619.51 458.716 618.923 471.893L617.199 473.078C621.512 490.844 630.489 505.423 646.372 515.161C653.199 519.347 663.105 522.823 671.202 522.294C677.208 520.419 696.621 523.468 700.187 521.286C699.103 521.212 698.163 521.115 697.117 520.803L696.225 520.529C710.623 520.03 725.474 521.675 739.773 520.409C742.05 520.654 744.31 520.81 746.597 520.913C749.942 520.499 753.603 520.807 756.985 520.789C768.388 520.728 777.836 518.429 786.558 510.672C797.013 501.374 799.75 490.502 800.549 477.055C801.938 479.167 801.224 482.291 801.552 484.742C802.548 479.761 802.054 473.942 802.054 468.85Q802.105 456.321 801.926 443.794C802.809 417.884 801.975 391.621 801.985 365.675C801.999 327.124 802.503 288.511 801.923 249.967Z"/>
	<path fill="#2A2626" d="M739.773 520.409C742.05 520.654 744.31 520.81 746.597 520.913C745.037 521.016 743.523 521.157 741.979 521.407L741.457 522.485C732.823 522.812 724.103 522.547 715.462 522.524Q693.332 522.522 671.202 522.294C677.208 520.419 696.621 523.468 700.187 521.286C699.103 521.212 698.163 521.115 697.117 520.803L696.225 520.529C710.623 520.03 725.474 521.675 739.773 520.409Z"/>
	<path fill="#010001" d="M800.549 477.055C801.938 479.167 801.224 482.291 801.552 484.742C801.234 494.821 795.911 504.323 788.625 511.08C774.582 524.103 759.253 522.753 741.457 522.485L741.979 521.407C743.523 521.157 745.037 521.016 746.597 520.913C749.942 520.499 753.603 520.807 756.985 520.789C768.388 520.728 777.836 518.429 786.558 510.672C797.013 501.374 799.75 490.502 800.549 477.055Z"/>
	<path fill="#A2B4DC" d="M515.804 432.089C527.996 432.991 540.514 432.441 552.751 432.421C553.342 432.616 553.8 432.784 554.426 432.816C560.996 431.795 568.414 432.466 575.098 432.457Q597.067 432.587 619.031 432.135C618.98 445.338 619.51 458.716 618.923 471.893L617.199 473.078C616.637 472.703 615.943 472.62 615.278 472.563C606.625 471.829 593.993 472.791 584.837 472.797L515.549 472.536C515.487 459.079 515.213 445.534 515.804 432.089Z"/>
</svg>
